<svg xmlns="http://www.w3.org/2000/svg" viewBox="0 0 1771.42 884.85"><defs><style>.cls-1{fill:#bf2626;}.cls-2{fill:#fff;}.cls-3,.cls-4{fill:none;stroke:#fff;stroke-miterlimit:10;}.cls-3{stroke-width:11.14px;}.cls-4{stroke-width:2.43px;}</style></defs><g id="Layer_2" data-name="Layer 2"><g id="Layer_1-2" data-name="Layer 1"><ellipse cx="885.71" cy="442.42" rx="866.4" ry="424.84"/><path class="cls-1" d="M885.71,884.85C396.55,884.85,0,686.77,0,442.42S396.55,0,885.71,0s885.71,198.08,885.71,442.42S1374.87,884.85,885.71,884.85ZM55.7,435.74c4.12,222.87,346.43,345.73,813.93,345.73,411.75,0,644-98.49,719.83-252.46-59.83,170.19-357,288.39-803,288.39-171.35,0-330.42-22.9-462-61.82C467.21,812.73,651.58,847,857,847c487.63,0,862.79-176.84,858.71-397.92-4.12-222.88-346.43-345.73-813.93-345.73-411.75,0-644,98.49-719.83,252.46,59.83-170.19,357-288.39,803-288.39,171.35,0,330.42,22.9,462,61.82-142.79-57.15-327.16-91.45-532.59-91.45C426.78,37.82,51.62,214.66,55.7,435.74Z"/><circle class="cls-2" cx="1278.7" cy="385.62" r="180.07"/><circle class="cls-1" cx="1278.7" cy="385.62" r="171.87"/><polyline class="cls-3" points="1355.04 384.66 1412.48 384.66 1279.28 296.27 1146.07 384.66 1203.51 384.66 1203.51 458.55 1348.25 458.55"/><path class="cls-2" d="M598.09,618.62H582.58v10.62h15v6.27h-15v21h-6.72v-44.2h22.23Z"/><path class="cls-2" d="M602.93,628.66h6.49v2.5a12.24,12.24,0,0,1,3.17-2.55,7.29,7.29,0,0,1,3.35-.72,10.58,10.58,0,0,1,5.36,1.66l-3,5.9a6.21,6.21,0,0,0-3.6-1.32q-5.31,0-5.31,8v14.46h-6.49Z"/><path class="cls-2" d="M649.07,644.12H628.94a8.5,8.5,0,0,0,2.25,5.47,6.89,6.89,0,0,0,5.11,2,6.67,6.67,0,0,0,4-1.15,16.17,16.17,0,0,0,3.55-4.24l5.48,3a22,22,0,0,1-2.68,3.68,14.44,14.44,0,0,1-3,2.52,12,12,0,0,1-3.49,1.44,16.88,16.88,0,0,1-4.06.46,13.28,13.28,0,0,1-10.1-4q-3.79-4-3.8-10.7t3.69-10.71a12.76,12.76,0,0,1,9.86-4q6.19,0,9.8,3.92t3.58,10.8Zm-6.66-5.26q-1.36-5.16-6.55-5.16a6.75,6.75,0,0,0-2.22.36,6.43,6.43,0,0,0-1.89,1,6.63,6.63,0,0,0-1.45,1.62,7.2,7.2,0,0,0-.92,2.15Z"/><path class="cls-2" d="M680.61,644.12H660.49a8.4,8.4,0,0,0,2.25,5.47,6.85,6.85,0,0,0,5.1,2,6.7,6.7,0,0,0,4-1.15,16.17,16.17,0,0,0,3.55-4.24l5.47,3a21.46,21.46,0,0,1-2.68,3.68,14.19,14.19,0,0,1-3,2.52,11.85,11.85,0,0,1-3.48,1.44,16.91,16.91,0,0,1-4.07.46,13.28,13.28,0,0,1-10.09-4q-3.81-4-3.81-10.7t3.69-10.71a12.78,12.78,0,0,1,9.86-4c4.14,0,7.4,1.31,9.81,3.92s3.57,6.2,3.57,10.8ZM674,638.86q-1.35-5.16-6.54-5.16a6.71,6.71,0,0,0-2.22.36,6.43,6.43,0,0,0-1.89,1,6.67,6.67,0,0,0-1.46,1.62,7.47,7.47,0,0,0-.92,2.15Z"/><path class="cls-2" d="M707.12,612.35l11.59,29.54,12.11-31.69,11.59,31.69,12.31-29.54H762l-19.89,47L730.67,628l-11.93,31.35-18.92-47Z"/><path class="cls-2" d="M764.79,617.07a4,4,0,0,1,1.23-2.92,4.24,4.24,0,0,1,6,0,3.93,3.93,0,0,1,1.24,3,4,4,0,0,1-1.24,3,4,4,0,0,1-3,1.23,4.2,4.2,0,0,1-4.23-4.24Zm7.46,11.59v27.89h-6.48V628.66Z"/><path class="cls-2" d="M786,634.68v21.87h-6.49V634.68h-2.77v-6h2.77V618.44H786v10.22h5v6Z"/><path class="cls-2" d="M795.55,608.19H802V631a11.22,11.22,0,0,1,7.64-3.09,9.91,9.91,0,0,1,7.61,3.06c1.62,1.78,2.43,4.61,2.43,8.51v17.09h-6.49V640.06q0-3.34-1.2-4.85a4.61,4.61,0,0,0-3.85-1.51q-3.4,0-4.78,2.09c-.91,1.42-1.36,3.84-1.36,7.28v13.48h-6.49Z"/><path class="cls-2" d="M869.72,618.62H851.87v10.62H869.2v6.27H851.87v14.77h17.85v6.27H845.15v-44.2h24.57Z"/><path class="cls-2" d="M879.67,628.66l7.26,15.66,7.24-15.66h7.3l-14.59,29.81L872.4,628.66Z"/><path class="cls-2" d="M929.29,644.12H909.17a8.44,8.44,0,0,0,2.24,5.47,6.89,6.89,0,0,0,5.11,2,6.72,6.72,0,0,0,4-1.15,16.17,16.17,0,0,0,3.54-4.24l5.48,3a22,22,0,0,1-2.68,3.68,14.19,14.19,0,0,1-3,2.52,11.91,11.91,0,0,1-3.49,1.44,16.82,16.82,0,0,1-4.06.46,13.26,13.26,0,0,1-10.09-4q-3.81-4-3.81-10.7t3.69-10.71a12.78,12.78,0,0,1,9.86-4q6.19,0,9.8,3.92t3.58,10.8Zm-6.66-5.26q-1.35-5.16-6.54-5.16a6.71,6.71,0,0,0-2.22.36,6.19,6.19,0,0,0-1.89,1,6.47,6.47,0,0,0-1.46,1.62,7.47,7.47,0,0,0-.92,2.15Z"/><path class="cls-2" d="M935.26,628.66h6.49v2.5a12.24,12.24,0,0,1,3.17-2.55,7.29,7.29,0,0,1,3.35-.72,10.61,10.61,0,0,1,5.36,1.66l-3,5.9a6.21,6.21,0,0,0-3.61-1.32q-5.29,0-5.3,8v14.46h-6.49Z"/><path class="cls-2" d="M967.67,651.37,955,628.66h7.53l8.59,16,8-16h7.32l-22.37,43.06h-7.41Z"/><path class="cls-2" d="M1014.85,612.35v44.2h-6.72v-44.2Z"/><path class="cls-2" d="M1023.18,628.66h6.52v2.58a10.68,10.68,0,0,1,7.67-3.35A9.73,9.73,0,0,1,1045,631c1.58,1.74,2.36,4.58,2.36,8.51v17.09h-6.51V641q0-4.12-1.16-5.7c-.75-1.07-2.11-1.61-4.09-1.61q-3.22,0-4.58,2.12t-1.33,7.3v13.46h-6.52Z"/><path class="cls-2" d="M1070.76,633.42l-5.36,2.83q-1.28-2.58-3.15-2.58a2.16,2.16,0,0,0-1.52.59,1.93,1.93,0,0,0-.64,1.5q0,1.61,3.75,3.18,5.16,2.2,7,4.07a6.94,6.94,0,0,1,1.79,5,8.73,8.73,0,0,1-3,6.75,10.25,10.25,0,0,1-7,2.58q-7.07,0-10-6.84l5.53-2.55a12,12,0,0,0,1.76,2.55,4.06,4.06,0,0,0,2.83,1.09c2.19,0,3.28-1,3.28-3,0-1.15-.84-2.21-2.53-3.21-.66-.32-1.31-.64-2-.94s-1.32-.62-2-1a12,12,0,0,1-4-2.75,6.72,6.72,0,0,1-1.47-4.49,7.9,7.9,0,0,1,2.51-6,8.79,8.79,0,0,1,6.22-2.38Q1068.14,627.89,1070.76,633.42Z"/><path class="cls-2" d="M1083.77,671.72h-6.49V628.66h6.49v3a12,12,0,0,1,8.7-3.81,12.17,12.17,0,0,1,9.55,4.24,15.24,15.24,0,0,1,3.8,10.62,15,15,0,0,1-3.77,10.45,12.37,12.37,0,0,1-18.28.23Zm15.42-28.94a9.6,9.6,0,0,0-2.19-6.53,7.09,7.09,0,0,0-5.59-2.55,7.41,7.41,0,0,0-5.8,2.47,9.28,9.28,0,0,0-2.22,6.47,9.5,9.5,0,0,0,2.22,6.47,7.31,7.31,0,0,0,5.77,2.49,7,7,0,0,0,5.56-2.52A9.11,9.11,0,0,0,1099.19,642.78Z"/><path class="cls-2" d="M1137.14,644.12H1117a8.5,8.5,0,0,0,2.25,5.47,6.88,6.88,0,0,0,5.1,2,6.68,6.68,0,0,0,4-1.15,16.17,16.17,0,0,0,3.55-4.24l5.48,3a22,22,0,0,1-2.68,3.68,14.7,14.7,0,0,1-3,2.52,12,12,0,0,1-3.49,1.44,16.91,16.91,0,0,1-4.07.46,13.28,13.28,0,0,1-10.09-4q-3.8-4-3.8-10.7t3.69-10.71a12.76,12.76,0,0,1,9.86-4q6.2,0,9.8,3.92t3.58,10.8Zm-6.66-5.26q-1.37-5.16-6.55-5.16a6.71,6.71,0,0,0-2.22.36,6.43,6.43,0,0,0-1.89,1,6.63,6.63,0,0,0-1.45,1.62,7.48,7.48,0,0,0-.93,2.15Z"/><path class="cls-2" d="M1165,629.87v8.56a15.62,15.62,0,0,0-4-3.7,7.83,7.83,0,0,0-4.06-1,8,8,0,0,0-6.08,2.55,8.9,8.9,0,0,0-2.43,6.39,9.1,9.1,0,0,0,2.34,6.44,7.9,7.9,0,0,0,6,2.52,8.29,8.29,0,0,0,4.13-1,16,16,0,0,0,4.06-3.77v8.5a17.16,17.16,0,0,1-7.9,2,15.18,15.18,0,0,1-10.9-4.18,13.9,13.9,0,0,1-4.38-10.45,14.07,14.07,0,0,1,4.44-10.53,15.07,15.07,0,0,1,10.9-4.3A16.33,16.33,0,0,1,1165,629.87Z"/><path class="cls-2" d="M1176.82,634.68v21.87h-6.49V634.68h-2.77v-6h2.77V618.44h6.49v10.22h5v6Z"/><path class="cls-2" d="M1184.17,617.07a4,4,0,0,1,1.24-2.92,4.24,4.24,0,0,1,6,0,3.93,3.93,0,0,1,1.24,3,4.22,4.22,0,0,1-4.21,4.21,4.22,4.22,0,0,1-4.24-4.24Zm7.47,11.59v27.89h-6.49V628.66Z"/><path class="cls-2" d="M1197.41,642.41a13.81,13.81,0,0,1,4.35-10.28,15.43,15.43,0,0,1,21.28,0,14.84,14.84,0,0,1,0,21,14.9,14.9,0,0,1-10.75,4.21,14.62,14.62,0,0,1-14.85-14.94Zm6.63.11a9.34,9.34,0,0,0,2.25,6.61,8.77,8.77,0,0,0,12.17,0,10.43,10.43,0,0,0,0-13,7.94,7.94,0,0,0-6.09-2.47,7.83,7.83,0,0,0-6,2.47A8.91,8.91,0,0,0,1204,642.52Z"/><path class="cls-2" d="M1233.11,628.66h6.51v2.58a10.69,10.69,0,0,1,7.67-3.35,9.71,9.71,0,0,1,7.64,3.06q2.37,2.61,2.37,8.51v17.09h-6.52V641q0-4.12-1.15-5.7c-.75-1.07-2.12-1.61-4.1-1.61q-3.22,0-4.58,2.12t-1.33,7.3v13.46h-6.51Z"/><circle class="cls-2" cx="516.57" cy="639.96" r="39.33"/><circle class="cls-1" cx="516.57" cy="639.96" r="37.54"/><polyline class="cls-4" points="533.25 639.75 545.79 639.75 516.7 620.44 487.6 639.75 500.15 639.75 500.15 655.89 531.76 655.89"/><path class="cls-2" d="M570.16,397.06c10.24-1.49,20.08-3.5,21-15.06,1.42-41.2.14-82.53.53-123.77.32-30.46-16.72-18.07-21.78-27,32.61-1.5,64.94-.31,97.55-.45,45.67-.95,88.46,32.9,90.58,79.8,6,56.52-41.3,92.87-94.78,89.49-30.06.11-60.25.48-90.27-.1C572.12,399.73,571.5,398.49,570.16,397.06ZM630,243c.23,43.5-.45,86.95.28,130.43.56,18.93,22.11,16.69,35.77,16.41C745.75,385.26,735.11,218.37,630,243Z"/><path class="cls-2" d="M806.35,337c-4.28,11.9-8.49,23.75-12.51,35.74-3.4,9.15-2.71,20,8.51,22.55,2,.61,5.41-.1,4.65,4.83-16.44,0-32.9.35-49.37-.33-.55,0-1-1.1-1.92-2.06,9.15-4.59,14.62-5,19.89-14.89,23.11-49.45,36.93-102.86,56.94-153.63h22.08c19.86,49.91,38.59,100.26,58.75,150.05,8.63,19.75,25.42,12.91,24,20.44-24.91,1.16-49.92.12-74.87.45-3,.27-4.28-.09-5.77-3.22,9.55-1.83,19.92-3.9,15.83-15.55C868,366.33,862.09,351.67,856.32,337Zm24.42-66.2-1-.07c-6.32,17.82-12.65,35.63-19.14,53.94h40.88Z"/><path class="cls-2" d="M966.55,397c10.57-1.46,20-3.64,21-15.46,1.13-19.62.3-39.36.39-59a13,13,0,0,0-2.38-7.19c-18.88-24.49-36.42-50.14-56.44-73.69-8.67-10.13-18.7-4.32-17.43-10,3.9-1.37,78-1.55,83.94,0-1.87,2.94-3.69,3.3-6.79,3.43-7.07,1.14-9.37,5.21-6.43,11.63,11.28,17.86,23.66,35.11,36.44,51.95,9.2-11.94,17.1-24.66,25.36-37.25,5.15-8.38,11.22-24.12-3.3-26.4-1.94-.43-4.89.3-4.89-3.2,3.67-1.5,56.42-1.93,63.07-.57,1.08,2.32-.2,3.24-2.26,3.43-17.25,1.56-28.37,12.24-37.55,25.46-10.53,15.17-20.73,30.56-30.92,45.95a12.2,12.2,0,0,0-2,6.33c.07,22.84-.49,45.71.22,68.53.74,11.87,10.1,14.63,20.66,15.9-1.58,3.09-2.84,3.62-5.93,3.25-24.08-.25-48.34.52-72.35-.27C968.21,399.58,967.72,398.44,966.55,397Z"/><path class="cls-2" d="M559.77,315.31c5.06,96-102.19,122.84-123,29.74C407.93,213.2,556.14,177.14,559.77,315.31Zm-91.49.05c-.81,21.7.27,44.71,10.27,63.58,9,16.05,27.29,15.95,36.39,0,14.75-30.45,12-68.08,8.42-101.65-1.83-28.42-26.84-54.26-45.18-25.11C468.33,270.9,467.44,293.9,468.28,315.36Z"/><path class="cls-2" d="M316.89,401.65v-9.86c41,2,70.57-32.75,73.74-80.53-21.52,28.65-62.56,21.62-73.24-14.56-15.11-53.94,49.11-88.54,83.16-57.08C439.67,276,427,353.56,386.49,385,365.89,400.87,340.94,404.66,316.89,401.65ZM391,285c-.43-12.19-1.61-23.76-7.12-34-4.77-8.87-11.92-12.27-20.57-11-20.73,4.09-20.51,37.52-14.79,55.92C356.12,323.91,394.64,310,391,285Z"/><path class="cls-2" d="M410.43,456.17c2.18-1.36,23-1.74,28-.73-.68.72-1.07,1.52-1.61,1.65-5.88,1.39-9,5.64-11,10.77-8.44,22.79-15.95,45.92-24,68.86-.39.94-1.2,2.55-2,2.77-1.55.28-1.53-1.38-1.87-2.37-7.64-22.13-14.59-44.3-22.54-66.34-8,21.87-15.29,43.39-23,65.26a8,8,0,0,1-2.33,3.58c-.57-.66-1.4-1.23-1.67-2-1.88-5.31-3.63-10.65-5.42-16-6.1-18.16-12.16-36.33-18.34-54.47a26.72,26.72,0,0,0-3.24-6.31c-3.59-5.41-9.74-2.27-8.68-5.68H352c-1.16,1.78-1.63,1.93-3.37,2.18-3.72,1.05-5.57,3.91-4.53,7.64,4,13.3,8.26,26.08,13.32,39.19,4.7-12.82,9.11-25.75,13.72-38.6,1.42-4-.38-7.27-4.61-8.18-1.81-.4-3.51,0-4.8-1.68,2.9-.5,33.46-2.15,38.33-.09l.05.68c-4.12,1.16-7.88.95-7,6.37a26.12,26.12,0,0,0,1.28,5.55c4.22,12.21,7.71,24.26,12.43,36.35,4.11-11.76,7.74-22.4,11.62-34C421.31,461.27,420.29,458.29,410.43,456.17Z"/><path class="cls-2" d="M517.28,455.12c14.6-.41,29.23-.07,43.84-.14a38.17,38.17,0,0,1,16.73,3.48c17.69,8.7,14.33,32-3.54,37.49,10.64,10.15,16.09,24.66,25,36.47a11.43,11.43,0,0,0,6,4.25,7.3,7.3,0,0,1,1.8,1.15l-.27.66H579.33c-5-9.36-10.06-19.19-15.31-28.52-3.7-6.71-9.15-11.53-17.34-10.06-.52,8.8-.07,17.56-.2,26.36-.29,7.8,2.94,10.28,10.32,11.17v.84c-12.45,1.24-25.26.1-37.82.46a16.4,16.4,0,0,1-2.53-.5,10,10,0,0,1,1.91-1.28c6.64-.29,9.56-4.58,9-11-.06-20.21.13-40.43-.07-60.64-.33-6.84-4.66-7.54-10.32-9.13Zm29.41,4.9v34.6c15.56,1.29,25.13-6,22.64-22.18C568.13,461.7,555.84,459,546.69,460Z"/><path class="cls-2" d="M608.08,455.12c14.6-.41,29.23-.07,43.84-.14a38.17,38.17,0,0,1,16.73,3.48c17.69,8.7,14.33,32-3.54,37.49,10.64,10.15,16.09,24.66,24.95,36.47a11.43,11.43,0,0,0,6,4.25,7.3,7.3,0,0,1,1.8,1.15l-.27.66H670.13c-5-9.36-10.06-19.19-15.31-28.52-3.7-6.71-9.15-11.53-17.33-10.06-.53,8.8-.08,17.56-.21,26.36-.29,7.8,2.94,10.28,10.32,11.17v.84c-12.45,1.24-25.25.1-37.82.46a16.4,16.4,0,0,1-2.53-.5,10,10,0,0,1,1.91-1.28c6.64-.29,9.56-4.58,9-11-.06-20.21.13-40.43-.07-60.64-.33-6.84-4.66-7.54-10.32-9.13Zm29.41,4.9v34.6c15.56,1.29,25.13-6,22.64-22.18C658.93,461.7,646.64,459,637.49,460Z"/><path class="cls-2" d="M829.52,538.47H799.67l-.23-.56a6.32,6.32,0,0,1,1.31-1c6.84-1,11.5-4.66,11.3-12,.07-17.83,0-35.65,0-53.48a3.78,3.78,0,0,0-.81-2.56c-3.52-3.21-7.09-6.38-10.83-9.34-2-1.51-4.89-1.79-6.73-3.68l.31-.75c9.23-.39,18.49,0,27.74-.2a5.93,5.93,0,0,1,4.73,2.06c15.94,17.23,32.91,33.6,48.35,51.24l.73-.42c.66-12,.06-24.07.24-36.09,0-7.45-2-13.29-10.15-14.43-1-.21-2.44,0-2.2-2.06h28.76l.34.58c-.53.44-1,1.09-1.58,1.28-7.12,2.18-9.19,4.68-9.22,12.08-.08,23.34,0,46.74-.05,70.07-2.13,1.11-3-.16-4-1.19-19.43-20.76-39.84-40.73-58.75-61.92l-.7.35c-.39,17-.89,34.24.27,51.18,1.08,6.37,5.88,8.12,11.36,10Z"/><path class="cls-2" d="M473.78,507.77H448.53c-2.23,6.53-4.69,12.93-6.57,19.5-1.5,5.26.26,7.78,5.49,9.44a3.2,3.2,0,0,1,1.78,1.51c-8.51.57-16.91.51-25.31.53l-.29-.82c.49-.39.94-1,1.5-1.13,4.35-1.08,7.2-4,9.07-7.78,10.69-24.27,17.88-49.95,27.56-74.63h11c10.15,24.92,19.22,50.23,29.69,75,2.66,5.53,6.9,6.15,12.14,8.4-2.46,1.13-37.27,1.34-41.16.36,6-3.57,10.69-1.47,7.84-10.41C479.09,521,476.31,514.39,473.78,507.77Zm-2.52-6.19c-3.57-9.19-7-17.94-10.38-26.69l-.6.13-9.48,26.56Z"/><path class="cls-2" d="M751,507.77H725.77c-2.23,6.53-4.69,12.93-6.56,19.5-1.51,5.26.26,7.78,5.49,9.44a3.2,3.2,0,0,1,1.78,1.51c-8.52.57-16.92.51-25.31.53l-.3-.82c.5-.39.94-1,1.5-1.13,4.36-1.08,7.2-4,9.07-7.78,10.69-24.27,17.89-49.95,27.56-74.63h11c10.15,24.92,19.23,50.23,29.69,75,2.66,5.53,6.91,6.15,12.14,8.4-2.46,1.13-37.27,1.34-41.16.36,6-3.57,10.7-1.47,7.84-10.41C756.34,521,753.55,514.39,751,507.77Zm-2.52-6.19c-3.58-9.19-7-17.94-10.38-26.69l-.61.13c-3.12,8.74-6.24,17.48-9.47,26.56Z"/><path class="cls-2" d="M1043.53,538.49h-39.37l-.22-.71c6.73-2.6,10.38-1.94,10.36-10.57.11-9,.09-17.92,0-26.88a6.64,6.64,0,0,0-1.25-3.63q-12.39-16.47-24.94-32.83c-2.56-3.14-5.4-6.58-9.76-6.89a10.62,10.62,0,0,1-2.12-.67l0-.73A5.64,5.64,0,0,1,978,455c13.35.27,26.75-.63,40,.35-.66,1.25-1.06,1.79-2.43,1.74-4.8.83-6,3.05-3.26,7.12,5.64,8.33,11.38,16.35,17.3,24.51,4.87-5.75,8.65-12.32,12.88-18.54,2.57-4.15,5.49-11.75-1.59-13-.93-.24-2.46.24-2.54-1.51,2.13-.92,28.94-1,32.07,0-.76.55-1.22,1.18-1.74,1.23-8.61.86-14.21,6.12-18.81,12.75-5.28,7.61-10.43,15.29-15.57,23a5.6,5.6,0,0,0-.87,2.9c-.06,10.58-.1,21.16,0,31.74-.13,7.78,4,8.43,10.36,10.3Z"/><path class="cls-2" d="M953.55,538.73c-13.11,0-26.21,0-39.32,0l-.29-.61c1.95-3,9.06.6,10.27-9,.35-22.91,0-45.72.12-68.66-5.26,0-10,0-15.2,0a8.64,8.64,0,0,0-8.51,5.21c-1.49,2.78-1.86,6.19-4.26,8.39l-.44-.35V454.13a5.1,5.1,0,0,1,1.51-.15c4.4,1.36,8.92,1,13.41,1,20.33-.26,40.66.87,60.92-.95v20.28c-.74-.81-1.32-1.18-1.5-1.7-.74-2.16-1.19-4.42-2-6.52a8.23,8.23,0,0,0-7.7-5.53c-5.35-.14-10.72-.06-16.08,0-.26,0-.52.21-1.08.45.12,22.71-.25,45.48.14,68.18.41,6.12,5,7.39,10.23,8.31Z"/></g></g></svg>