<svg xmlns="http://www.w3.org/2000/svg" viewBox="0 0 431.36 385.61"><defs><style>.seal17-1{fill:#968230;}.seal17-2{fill:#fff6d4;stroke:#ffe785;stroke-width:4px;}.seal17-2,.seal17-3,.seal17-4{stroke-miterlimit:10;}.seal17-3,.seal17-4{fill:none;stroke:#fff;}.seal17-3{stroke-width:3px;}.seal17-4{stroke-width:3.84px;}.seal17-5{fill:#ebcb4b;}.seal17-6{fill:#a8954a;}.seal17-7{fill:#fff;}.seal17-8{fill:#403815;}.seal17-9{isolation:isolate;}.seal17-10{fill:#85763a;}.seal17-11{fill:#f7db6c;}</style></defs><g id="Layer_2" data-name="Layer 2"><g id="Layer_1-2" data-name="Layer 1"><circle class="seal17-1" cx="215.68" cy="166.45" r="157"></circle><circle class="seal17-2" cx="215.68" cy="166.45" r="137.98"></circle><circle class="seal17-3" cx="215.68" cy="166.45" r="146.25"></circle><polygon class="seal17-4" points="215.68 150.63 228.58 35.46 218.76 150.94 253.89 40.49 221.73 151.84 277.73 50.37 224.47 153.3 299.18 64.7 226.87 155.26 317.43 82.95 228.83 157.66 331.76 104.4 230.29 160.4 341.64 128.24 231.19 163.36 346.67 153.55 231.5 166.45 346.67 179.35 231.19 169.54 341.64 204.66 230.29 172.5 331.76 228.5 228.83 175.24 317.43 249.95 226.87 177.64 299.18 268.2 224.47 179.6 277.73 282.53 221.73 181.06 253.89 292.41 218.76 181.97 228.58 297.44 215.68 182.27 202.78 297.44 212.59 181.97 177.47 292.41 209.63 181.06 153.63 282.53 206.89 179.6 132.18 268.2 204.49 177.64 113.93 249.95 202.53 175.24 99.6 228.5 201.06 172.5 89.72 204.66 200.16 169.54 84.69 179.35 199.86 166.45 84.69 153.55 200.16 163.36 89.72 128.24 201.06 160.4 99.6 104.4 202.53 157.66 113.93 82.95 204.49 155.26 132.18 64.7 206.89 153.3 153.63 50.37 209.63 151.84 177.47 40.49 212.59 150.94 202.78 35.46 215.68 150.63"></polygon><path class="seal17-5" d="M215.3,361.53c-104.11,0-185.87-83.68-185.87-186.89C29.43,96.86,77.36,30.18,145.53,2,79.84,29.92,33.66,96,33.66,173c0,102.25,81.33,185.14,181.64,185.14"></path><path class="seal17-5" d="M46.75,97.15c-1.65-9.4,9.49-10.27,0-20.55C47.31,84.07,39.57,86.88,46.75,97.15Z"></path><path class="seal17-5" d="M40,112.21C37.21,102,49.48,99.84,37.89,89.44,39.28,97.65,31,101.57,40,112.21Z"></path><path class="seal17-5" d="M35.1,129c-4.31-10.67,8.62-14.49-5.14-24.23C32.48,113.47,24.05,118.72,35.1,129Z"></path><path class="seal17-5" d="M31.13,148.69c-5.71-11.17,8-16.58-7.93-25.83C26.77,132,18.13,138.55,31.13,148.69Z"></path><path class="seal17-5" d="M29.67,175.08c-7.9-13,8.2-20.79-11.88-30.6C22.93,155.27,13,163.93,29.67,175.08Z"></path><path class="seal17-5" d="M31.21,201.08c-10.71-12.89,5.53-23.94-17.9-31.34C20.66,180.64,11.3,191.67,31.21,201.08Z"></path><path class="seal17-5" d="M37.25,227.51c-13.58-11.46,1.31-26-24.51-29.37C22.43,208.15,14.72,221.4,37.25,227.51Z"></path><path class="seal17-5" d="M45.89,251.65c-15.83-9.34-3.15-26.76-30.08-25.73C27.43,234.45,21.85,249.3,45.89,251.65Z"></path><path class="seal17-5" d="M59,275.13c-17.39-7.92-6.2-27.32-33.92-23.29C38,259.38,33.89,275.35,59,275.13Z"></path><path class="seal17-5" d="M78.09,300.08C58.74,295,66.88,273,39,282,53.67,287.52,52.22,304.72,78.09,300.08Z"></path><path class="seal17-5" d="M98.81,322c-19.93-1.76-15.63-24.81-41.6-11.19C72.62,313.75,74.1,330.94,98.81,322Z"></path><path class="seal17-5" d="M128.31,339.43c-20.78,2.29-21.1-22.2-44.91-2.93C99.79,336.36,104.83,353.68,128.31,339.43Z"></path><path class="seal17-5" d="M157.31,351.34c-20.9,5.62-25.35-18.49-46.49,4.39C127.58,352.93,135.66,369.2,157.31,351.34Z"></path><path class="seal17-5" d="M189,358.84c-20.56,10.24-30.26-13.91-47.44,14.34C158.38,366.74,170.2,382,189,358.84Z"></path><path class="seal17-5" d="M215.47,360.14C198,375.09,182.73,354,173,385.61,187.73,375.26,202.9,387.15,215.47,360.14Z"></path><path class="seal17-5" d="M53.69,84.14c-1.5-8.46,8.55-9.25,0-18.51C54.19,72.36,47.22,74.89,53.69,84.14Z"></path><path class="seal17-5" d="M52.76,88.6C62.86,86.21,59,74.51,73.3,79.7,65.6,82.37,66.09,91.45,52.76,88.6Z"></path><path class="seal17-5" d="M45.52,103.53c10.31-3.31,5.32-15.17,20.64-10.94C58.37,96,59.62,105.41,45.52,103.53Z"></path><path class="seal17-5" d="M41,118.69c10.52-3.85,4.86-15.9,20.87-12.18C54,110.36,55.66,120,41,118.69Z"></path><path class="seal17-5" d="M36.14,133.15c11.15-4,5.15-16.59,22.12-12.7C49.88,124.46,51.67,134.55,36.14,133.15Z"></path><path class="seal17-5" d="M32.81,150.87c11-5.73,3-17.91,21.12-16.26C45.82,140,49.09,150.14,32.81,150.87Z"></path><path class="seal17-5" d="M31.82,173.27c11-8.23.1-20.15,20.24-21.58C44.12,159,49.52,169.57,31.82,173.27Z"></path><path class="seal17-5" d="M33.47,198.07c10.34-11-3.78-21.86,17.76-27.29C44,180.21,51.94,190.64,33.47,198.07Z"></path><path class="seal17-5" d="M38.28,225c9.77-13.48-7.13-23.34,15.65-32.23C47.37,204,57.43,214.34,38.28,225Z"></path><path class="seal17-5" d="M48.77,250.48c8.36-15.09-10.25-23.11,12-35.11C55.5,227.8,67.12,237.13,48.77,250.48Z"></path><path class="seal17-5" d="M61.87,277.78c5.55-17.64-15.73-22.08,5.13-39.47C64.07,252.51,78.29,259.82,61.87,277.78Z"></path><path class="seal17-5" d="M81.32,302.71c2.71-19.4-20.3-20.32-1.54-42.14C79.2,275.92,95.34,281.08,81.32,302.71Z"></path><path class="seal17-5" d="M104.64,326.47c-1-20.5-24.81-17-9.7-43.08C97.3,299.3,114.9,301.5,104.64,326.47Z"></path><path class="seal17-5" d="M133,341.61c-5.61-20.71-29.18-11.75-19.65-41.78C119.39,315.54,137.85,313.8,133,341.61Z"></path><path class="seal17-5" d="M168.43,354.27c-9.82-19.08-31-5.39-28-36.75C149.64,331.62,167.33,326.06,168.43,354.27Z"></path><path class="seal17-5" d="M205.11,361.3c-14.13-16.14-31.36,2.26-36-28.9C181.4,343.87,197.23,334.19,205.11,361.3Z"></path><path class="seal17-5" d="M59.8,76.91c9.85-2.19,6.24-13.62,20.09-8.38C72.37,71,72.72,79.86,59.8,76.91Z"></path><path class="seal17-5" d="M67.65,65.32c9.27-1.41,6.64-12.23,19.14-6.51C79.67,60.65,79.45,68.86,67.65,65.32Z"></path><path class="seal17-5" d="M75,55.56c8.6-.65,6.94-10.77,18-4.64C86.39,52.11,85.61,59.63,75,55.56Z"></path><path class="seal17-5" d="M82.4,46.69c7.8.34,7.39-8.92,16.68-2.24C93,44.81,91.47,51.48,82.4,46.69Z"></path><path class="seal17-5" d="M89.37,39.72c7,.63,7-7.7,15.07-1.31C98.93,38.47,97.3,44.4,89.37,39.72Z"></path><path class="seal17-5" d="M96,33.23c6.52.92,6.94-6.9,14.2-.52C105,32.51,103.17,38,96,33.23Z"></path><path class="seal17-5" d="M103.05,27.57c6,1.18,6.73-6,13.09.25C111.4,27.37,109.45,32.32,103.05,27.57Z"></path><path class="seal17-5" d="M109.6,22.53c5.49,1.4,6.57-5.26,12.2.88C117.39,22.76,115.34,27.28,109.6,22.53Z"></path><path class="seal17-5" d="M115.7,18c4.92,1.79,6.52-4.22,11.12,1.93C122.83,18.92,120.53,22.89,115.7,18Z"></path><path class="seal17-5" d="M121.8,14.24c4.58,1.9,6.36-3.72,10.45,2.3C128.52,15.42,126.16,19.08,121.8,14.24Z"></path><path class="seal17-5" d="M127.12,10.6c4,1.91,5.83-3,9.17,2.55C133,12,130.77,15.11,127.12,10.6Z"></path><path class="seal17-5" d="M133,7.87c3.58,1.72,5.24-2.69,8.25,2.29C138.35,9.11,136.31,11.93,133,7.87Z"></path><path class="seal17-5" d="M138.87,5.21C142.05,6.3,143,2.43,146,6.32,143.46,5.72,142,8.29,138.87,5.21Z"></path><path class="seal17-5" d="M59.63,73.37c-.91-7.39,7.81-7.62.83-16C60.59,63.2,54.45,65.08,59.63,73.37Z"></path><path class="seal17-5" d="M65.87,64.22c-.46-7,7.76-6.75,1.64-15C67.32,54.7,61.44,56.13,65.87,64.22Z"></path><path class="seal17-5" d="M72.27,56c.09-6.49,7.66-5.65,2.62-13.74C74.31,47.36,68.77,48.25,72.27,56Z"></path><path class="seal17-5" d="M78.79,48.31c.18-5.79,6.91-4.93,2.54-12.21C80.74,40.6,75.8,41.32,78.79,48.31Z"></path><path class="seal17-5" d="M85.44,42.28c.49-5.76,7.16-4.54,3.2-12C87.8,34.7,82.83,35.14,85.44,42.28Z"></path><path class="seal17-5" d="M92.47,35.39c.63-5.24,6.67-3.91,3.3-10.86C94.86,28.56,90.32,28.8,92.47,35.39Z"></path><path class="seal17-5" d="M98.72,30c.84-4.73,6-3.2,3.46-9.71C101.17,23.87,97.22,23.86,98.72,30Z"></path><path class="seal17-5" d="M104.61,25.63c1-4.34,5.67-2.73,3.58-8.83C107.11,20.1,103.47,19.93,104.61,25.63Z"></path><path class="seal17-5" d="M110.51,21.38c1.15-4,5.46-2.23,3.85-8.06C113.17,16.35,109.76,16,110.51,21.38Z"></path><path class="seal17-5" d="M116,17.35c1.32-3.68,5.25-1.75,4.11-7.31C118.79,12.8,115.62,12.25,116,17.35Z"></path><path class="seal17-5" d="M121.28,14.29c1.37-3.44,5-1.49,4.12-6.79C124.07,10.08,121.1,9.45,121.28,14.29Z"></path><path class="seal17-5" d="M126.87,11.23c1.34-3.21,4.75-1.31,4-6.31C129.57,7.32,126.78,6.67,126.87,11.23Z"></path><path class="seal17-5" d="M132.35,8.15c1.52-3.13,4.82-1,4.34-6.08C135.26,4.4,132.51,3.6,132.35,8.15Z"></path><path class="seal17-5" d="M138.31,5.5c1.49-2.85,4.48-.83,4.17-5.5C141.1,2.11,138.58,1.3,138.31,5.5Z"></path><path class="seal17-5" d="M215.3,361.53c104.12,0,185.88-83.68,185.88-186.89,0-77.78-47.93-144.46-116.1-172.6C350.77,29.92,397,96,397,173c0,102.25-81.33,185.14-181.65,185.14"></path><path class="seal17-5" d="M383.86,97.15c1.65-9.4-9.5-10.27,0-20.55C383.3,84.07,391,86.88,383.86,97.15Z"></path><path class="seal17-5" d="M390.58,112.21c2.82-10.25-9.45-12.37,2.13-22.77C391.33,97.65,399.61,101.57,390.58,112.21Z"></path><path class="seal17-5" d="M395.51,129c4.31-10.67-8.62-14.49,5.14-24.23C398.13,113.47,406.56,118.72,395.51,129Z"></path><path class="seal17-5" d="M399.48,148.69c5.71-11.17-8-16.58,7.93-25.83C403.83,132,412.48,138.55,399.48,148.69Z"></path><path class="seal17-5" d="M400.94,175.08c7.9-13-8.2-20.79,11.88-30.6C407.68,155.27,417.58,163.93,400.94,175.08Z"></path><path class="seal17-5" d="M399.4,201.08c10.71-12.89-5.53-23.94,17.89-31.34C410,180.64,419.31,191.67,399.4,201.08Z"></path><path class="seal17-5" d="M393.36,227.51c13.58-11.46-1.31-26,24.51-29.37C408.18,208.15,415.89,221.4,393.36,227.51Z"></path><path class="seal17-5" d="M384.72,251.65c15.83-9.34,3.15-26.76,30.08-25.73C403.18,234.45,408.76,249.3,384.72,251.65Z"></path><path class="seal17-5" d="M371.61,275.13c17.4-7.92,6.21-27.32,33.93-23.29C392.59,259.38,396.72,275.35,371.61,275.13Z"></path><path class="seal17-5" d="M352.52,300.08C371.87,295,363.73,273,391.62,282,376.94,287.52,378.39,304.72,352.52,300.08Z"></path><path class="seal17-5" d="M331.8,322c19.93-1.76,15.63-24.81,41.6-11.19C358,313.75,356.51,330.94,331.8,322Z"></path><path class="seal17-5" d="M302.3,339.43c20.78,2.29,21.1-22.2,44.91-2.93C330.82,336.36,325.78,353.68,302.3,339.43Z"></path><path class="seal17-5" d="M273.3,351.34c20.9,5.62,25.35-18.49,46.49,4.39C303,352.93,295,369.2,273.3,351.34Z"></path><path class="seal17-5" d="M241.64,358.84c20.56,10.24,30.26-13.91,47.44,14.34C272.23,366.74,260.41,382,241.64,358.84Z"></path><path class="seal17-5" d="M215.14,360.14c17.44,14.95,32.74-6.11,42.51,25.47C242.88,375.26,227.71,387.15,215.14,360.14Z"></path><path class="seal17-5" d="M376.92,84.14c1.5-8.46-8.55-9.25,0-18.51C376.42,72.36,383.39,74.89,376.92,84.14Z"></path><path class="seal17-5" d="M377.85,88.6c-10.1-2.39-6.23-14.09-20.54-8.9C365,82.37,364.52,91.45,377.85,88.6Z"></path><path class="seal17-5" d="M385.09,103.53c-10.31-3.31-5.32-15.17-20.64-10.94C372.24,96,371,105.41,385.09,103.53Z"></path><path class="seal17-5" d="M389.6,118.69c-10.52-3.85-4.86-15.9-20.87-12.18C376.64,110.36,375,120,389.6,118.69Z"></path><path class="seal17-5" d="M394.47,133.15c-11.15-4-5.15-16.59-22.12-12.7C380.73,124.46,378.94,134.55,394.47,133.15Z"></path><path class="seal17-5" d="M397.8,150.87c-11-5.73-3-17.91-21.12-16.26C384.79,140,381.52,150.14,397.8,150.87Z"></path><path class="seal17-5" d="M398.79,173.27c-11-8.23-.1-20.15-20.24-21.58C386.49,159,381.09,169.57,398.79,173.27Z"></path><path class="seal17-5" d="M397.14,198.07c-10.34-11,3.78-21.86-17.76-27.29C386.56,180.21,378.67,190.64,397.14,198.07Z"></path><path class="seal17-5" d="M392.33,225c-9.77-13.48,7.13-23.34-15.65-32.23C383.24,204,373.18,214.34,392.33,225Z"></path><path class="seal17-5" d="M381.84,250.48c-8.36-15.09,10.25-23.11-12-35.11C375.11,227.8,363.49,237.13,381.84,250.48Z"></path><path class="seal17-5" d="M368.74,277.78c-5.55-17.64,15.73-22.08-5.13-39.47C366.54,252.51,352.32,259.82,368.74,277.78Z"></path><path class="seal17-5" d="M349.29,302.71c-2.71-19.4,20.3-20.32,1.54-42.14C351.41,275.92,335.27,281.08,349.29,302.71Z"></path><path class="seal17-5" d="M326,326.47c.95-20.5,24.81-17,9.7-43.08C333.31,299.3,315.71,301.5,326,326.47Z"></path><path class="seal17-5" d="M297.58,341.61c5.61-20.71,29.18-11.75,19.65-41.78C311.22,315.54,292.76,313.8,297.58,341.61Z"></path><path class="seal17-5" d="M262.18,354.27c9.82-19.08,31-5.39,27.95-36.75C281,331.62,263.28,326.06,262.18,354.27Z"></path><path class="seal17-5" d="M225.5,361.3c14.13-16.14,31.36,2.26,36-28.9C249.21,343.87,233.38,334.19,225.5,361.3Z"></path><path class="seal17-5" d="M370.81,76.91c-9.85-2.19-6.24-13.62-20.09-8.38C358.24,71,357.89,79.86,370.81,76.91Z"></path><path class="seal17-5" d="M363,65.32c-9.27-1.41-6.64-12.23-19.14-6.51C350.94,60.65,351.16,68.86,363,65.32Z"></path><path class="seal17-5" d="M355.58,55.56c-8.6-.65-6.94-10.77-18-4.64C344.22,52.11,345,59.63,355.58,55.56Z"></path><path class="seal17-5" d="M348.21,46.69c-7.8.34-7.39-8.92-16.68-2.24C337.64,44.81,339.14,51.48,348.21,46.69Z"></path><path class="seal17-5" d="M341.24,39.72c-7,.63-7-7.7-15.07-1.31C331.68,38.47,333.31,44.4,341.24,39.72Z"></path><path class="seal17-5" d="M334.66,33.23c-6.52.92-6.94-6.9-14.2-.52C325.63,32.51,327.44,38,334.66,33.23Z"></path><path class="seal17-5" d="M327.56,27.57c-6,1.18-6.73-6-13.09.25C319.21,27.37,321.16,32.32,327.56,27.57Z"></path><path class="seal17-5" d="M321,22.53c-5.49,1.4-6.57-5.26-12.2.88C313.22,22.76,315.27,27.28,321,22.53Z"></path><path class="seal17-5" d="M314.91,18c-4.92,1.79-6.52-4.22-11.12,1.93C307.77,18.92,310.08,22.89,314.91,18Z"></path><path class="seal17-5" d="M308.81,14.24c-4.58,1.9-6.36-3.72-10.45,2.3C302.09,15.42,304.45,19.08,308.81,14.24Z"></path><path class="seal17-5" d="M303.49,10.6c-4,1.91-5.83-3-9.18,2.55C297.57,12,299.84,15.11,303.49,10.6Z"></path><path class="seal17-5" d="M297.58,7.87c-3.58,1.72-5.24-2.69-8.25,2.29C292.26,9.11,294.3,11.93,297.58,7.87Z"></path><path class="seal17-5" d="M291.74,5.21c-3.18,1.09-4.14-2.78-7.16,1.11C287.15,5.72,288.59,8.29,291.74,5.21Z"></path><path class="seal17-5" d="M371,73.37c.91-7.39-7.81-7.62-.83-16C370,63.2,376.16,65.08,371,73.37Z"></path><path class="seal17-5" d="M364.74,64.22c.46-7-7.76-6.75-1.64-15C363.29,54.7,369.17,56.13,364.74,64.22Z"></path><path class="seal17-5" d="M358.34,56c-.09-6.49-7.66-5.65-2.62-13.74C356.3,47.36,361.84,48.25,358.34,56Z"></path><path class="seal17-5" d="M351.82,48.31c-.18-5.79-6.91-4.93-2.54-12.21C349.87,40.6,354.81,41.32,351.82,48.31Z"></path><path class="seal17-5" d="M345.17,42.28c-.49-5.76-7.16-4.54-3.2-12C342.81,34.7,347.78,35.14,345.17,42.28Z"></path><path class="seal17-5" d="M338.14,35.39c-.63-5.24-6.67-3.91-3.3-10.86C335.75,28.56,340.29,28.8,338.14,35.39Z"></path><path class="seal17-5" d="M331.89,30c-.84-4.73-6-3.2-3.46-9.71C329.44,23.87,333.39,23.86,331.89,30Z"></path><path class="seal17-5" d="M326,25.63c-1-4.34-5.67-2.73-3.58-8.83C323.5,20.1,327.14,19.93,326,25.63Z"></path><path class="seal17-5" d="M320.1,21.38c-1.15-4-5.46-2.23-3.85-8.06C317.44,16.35,320.85,16,320.1,21.38Z"></path><path class="seal17-5" d="M314.62,17.35c-1.32-3.68-5.25-1.75-4.11-7.31C311.82,12.8,315,12.25,314.62,17.35Z"></path><path class="seal17-5" d="M309.33,14.29c-1.37-3.44-5-1.49-4.12-6.79C306.54,10.08,309.51,9.45,309.33,14.29Z"></path><path class="seal17-5" d="M303.74,11.23c-1.35-3.21-4.75-1.31-4-6.31C301,7.32,303.83,6.67,303.74,11.23Z"></path><path class="seal17-5" d="M298.26,8.15c-1.52-3.13-4.82-1-4.34-6.08C295.34,4.4,298.1,3.6,298.26,8.15Z"></path><path class="seal17-5" d="M292.3,5.5c-1.49-2.85-4.48-.83-4.17-5.5C289.51,2.11,292,1.3,292.3,5.5Z"></path><path class="seal17-6" d="M119.54,87a1.15,1.15,0,0,0-.14-.17l-.21-.18a.76.76,0,0,0-.69,0,5.88,5.88,0,0,0-1.1.67,14.26,14.26,0,0,0-1.31,1.14A12.92,12.92,0,0,0,114.77,90a10.5,10.5,0,0,0-1.06,1.8,6.74,6.74,0,0,0-.58,2.06,4.38,4.38,0,0,0,.23,2,4.23,4.23,0,0,0,3.41,2.54,4.41,4.41,0,0,0,2-.35,6.49,6.49,0,0,0,1.82-1A11.14,11.14,0,0,0,122,95.42a9.32,9.32,0,0,0,.69-1.18,15.56,15.56,0,0,0,.77-1.72,10.7,10.7,0,0,0,.5-1.67c.11-.51.07-.83-.13-1a.47.47,0,0,0-.25-.11h-.26v-.43l6.18.38-.05.46a.34.34,0,0,0-.28,0,.64.64,0,0,0-.2.2,2.69,2.69,0,0,0-.33.91c-.13.48-.33,1.08-.6,1.79a23.77,23.77,0,0,1-1.1,2.41,19.81,19.81,0,0,1-1.8,2.82,15.15,15.15,0,0,1-2.76,2.84A10.5,10.5,0,0,1,119,103a8.53,8.53,0,0,1-3.72.35,8.31,8.31,0,0,1-6.21-4.64,8.59,8.59,0,0,1-.72-3.67,11.47,11.47,0,0,1,.75-3.8,14.53,14.53,0,0,1,1.9-3.48,23,23,0,0,1,2.22-2.61c.69-.68,1.3-1.23,1.83-1.66s.94-.71,1.25-.92A2.58,2.58,0,0,0,117,82a.58.58,0,0,0,.08-.55l.3-.23L120,86.86Z"></path><path class="seal17-6" d="M138.37,75a1.07,1.07,0,0,0-.57-.21,1,1,0,0,0-.67.32l-4.54,4.13,2.07,2.27,7.83-7.13a.45.45,0,0,0,.17-.4,1.87,1.87,0,0,0-.4-.73l.3-.27,3.8,4.17-.3.27a.87.87,0,0,0-.5-.26.7.7,0,0,0-.36.19L133,88.44l-.27-.29a1.52,1.52,0,0,0,.43-.68.5.5,0,0,0-.15-.38L122.69,75.72a.55.55,0,0,0-.37-.18,1.38,1.38,0,0,0-.71.36l-.27-.29,12.17-11.09a.45.45,0,0,0,.17-.4,1.58,1.58,0,0,0-.35-.68l.29-.27,3.87,4.25-.29.26a1.93,1.93,0,0,0-.65-.41.44.44,0,0,0-.41.13l-7.84,7.13,1.85,2,4.54-4.14a1,1,0,0,0,.38-.63,1,1,0,0,0-.16-.59l.29-.27,3.47,3.81Z"></path><path class="seal17-6" d="M161.72,61.9a.44.44,0,0,0,.24-.36,1.76,1.76,0,0,0-.22-.74l.34-.2,3,4.86-.34.21q-.33-.42-.51-.45a.6.6,0,0,0-.39.11l-14.68,9L149,74c.34-.26.52-.45.55-.59a.47.47,0,0,0-.07-.4l-8-13.1a.56.56,0,0,0-.33-.25,1.42,1.42,0,0,0-.77.23l-.21-.34L145.85,56l.21.34c-.33.25-.52.45-.55.58a.54.54,0,0,0,.07.41l6.47,10.51Z"></path><path class="seal17-6" d="M177.51,53a1,1,0,0,0-.45-.41,1,1,0,0,0-.74,0l-5.74,2.18,1.09,2.87,9.9-3.76a.48.48,0,0,0,.31-.31,2,2,0,0,0-.11-.83l.37-.14,2,5.28-.37.14c-.15-.25-.27-.39-.38-.42a.55.55,0,0,0-.4,0l-15.4,5.84-.14-.37c.38-.19.59-.34.65-.47a.49.49,0,0,0,0-.41L162.66,47.9a.5.5,0,0,0-.27-.3,1.46,1.46,0,0,0-.8.07l-.14-.37,15.39-5.84a.44.44,0,0,0,.31-.31,1.77,1.77,0,0,0-.08-.76l.37-.14,2,5.37-.37.14a2,2,0,0,0-.45-.63.49.49,0,0,0-.44,0l-9.9,3.76,1,2.56,5.72-2.2a1,1,0,0,0,.59-.46,1.15,1.15,0,0,0,.07-.61L176,48l1.82,4.82Z"></path><path class="seal17-6" d="M185.88,40a.49.49,0,0,0-.2-.35,1.5,1.5,0,0,0-.81-.08l-.06-.39,12.4-2.07A11.52,11.52,0,0,1,199.7,37a6,6,0,0,1,2.05.48,3.72,3.72,0,0,1,1.5,1.19,4.32,4.32,0,0,1,.8,2,3.25,3.25,0,0,1-.48,2.5,4.42,4.42,0,0,1-2,1.57v.06a6.75,6.75,0,0,1,3,1A3.57,3.57,0,0,1,206,48.31a4.78,4.78,0,0,1-.07,1.92A4.09,4.09,0,0,1,205,52a5.9,5.9,0,0,1-1.87,1.38,10.29,10.29,0,0,1-2.92.89l-12.56,2.09-.07-.39a1.45,1.45,0,0,0,.73-.34.57.57,0,0,0,.09-.4Zm10.22,3.92c.7-.11,1.27-.22,1.72-.33a3.59,3.59,0,0,0,1-.39,1.22,1.22,0,0,0,.48-.55,1.85,1.85,0,0,0,0-.81,1.57,1.57,0,0,0-.29-.75,1.1,1.1,0,0,0-.63-.37,4.13,4.13,0,0,0-1.11,0q-.69.06-1.74.24l-4.42.73.5,3Zm2.31,7a5,5,0,0,0,2.4-.86,2,2,0,0,0-.24-2.82,2,2,0,0,0-.26-.18,5,5,0,0,0-2.55,0l-5.53.92.65,3.91Z"></path><path class="seal17-6" d="M216.35,52.19a.52.52,0,0,0,.14.39,1.52,1.52,0,0,0,.77.24v.39L210.45,53v-.4a1.45,1.45,0,0,0,.79-.19.52.52,0,0,0,.16-.37l.53-15.37a.52.52,0,0,0-.13-.38A1.53,1.53,0,0,0,211,36v-.4l12.07.42q3.66.12,5.27,1.52a5,5,0,0,1,1.5,4.19,4.72,4.72,0,0,1-1.46,3.52A7.67,7.67,0,0,1,225,47l3.7,5.61a1.15,1.15,0,0,0,.94.63v.39l-6.86-.24V53c.48,0,.73-.2.74-.57a1.92,1.92,0,0,0-.25-.47c-.16-.27-.37-.6-.62-1l-.83-1.23c-.31-.44-.6-.87-.89-1.27s-.53-.77-.73-1.09-.35-.52-.41-.64l-3.23-.11Zm5.86-8.84a2.79,2.79,0,0,0,2-.48,1.75,1.75,0,0,0,.09-2.54,2.83,2.83,0,0,0-2-.61l-5.54-.19-.12,3.63Z"></path><path class="seal17-6" d="M237.77,54.51a.32.32,0,0,0,0,.27,1,1,0,0,0,.44.19l-.09.38L232.5,54l.09-.39a1,1,0,0,0,.56-.08,1.61,1.61,0,0,0,.45-.45l.54-.79c.28-.43.65-1,1.1-1.61l1.52-2.16,1.68-2.43c.56-.82,1.11-1.63,1.66-2.41l1.45-2.11,1-1.52c.26-.39.4-.59.4-.61a.32.32,0,0,0-.15-.28l-.41-.2.1-.38,8.36,2-.09.39a1.62,1.62,0,0,0-.44,0c-.12,0-.2.11-.24.28a6.85,6.85,0,0,0,.1.91c.08.56.18,1.29.3,2.2s.26,1.92.42,3.06.34,2.3.52,3.49.36,2.34.53,3.47.32,2.14.46,3a3.33,3.33,0,0,0,.25.87.59.59,0,0,0,.41.31L253,59l-6.31-1.54.09-.39c.41.08.65,0,.7-.23a2.5,2.5,0,0,0,0-.47c0-.3-.09-.63-.13-1s-.1-.71-.14-1a3.68,3.68,0,0,1-.06-.66l-7.6-1.86-.86,1.28c-.21.34-.39.6-.51.79l-.28.43A.48.48,0,0,0,237.77,54.51Zm9.13-3.61-1.24-8.39-4.72,6.93Z"></path><path class="seal17-6" d="M258.25,61a1.43,1.43,0,0,0,.79.11.52.52,0,0,0,.29-.29l4.95-11.3-5.2-2.28a.47.47,0,0,0-.43,0,1.87,1.87,0,0,0-.48.6l-.36-.16,2.35-5.38.36.16a1.52,1.52,0,0,0-.11.76.43.43,0,0,0,.29.32l14.93,6.54a.49.49,0,0,0,.44,0,2.15,2.15,0,0,0,.48-.6l.36.15L274.55,55l-.36-.16a2,2,0,0,0,.12-.76.5.5,0,0,0-.29-.33l-5.2-2.28-5,11.31a.49.49,0,0,0,0,.41c0,.13.26.3.62.51l-.16.36-6.22-2.73Z"></path><path class="seal17-6" d="M272.66,68a1.61,1.61,0,0,0,.77.23.59.59,0,0,0,.33-.25l8.08-13.08a.51.51,0,0,0,.07-.4c0-.14-.21-.33-.54-.59l.2-.34,5.79,3.57-.21.34a1.41,1.41,0,0,0-.77-.22.51.51,0,0,0-.33.24L278,70.59a.52.52,0,0,0-.08.4,1.56,1.56,0,0,0,.55.59l-.21.34-5.78-3.57Z"></path><path class="seal17-6" d="M293.61,62.4a.52.52,0,0,0,.14-.39,1.53,1.53,0,0,0-.45-.67l.26-.3,6,5.2-.26.3a1.73,1.73,0,0,0-.66-.37.34.34,0,0,0-.32.09,3,3,0,0,0-.06.73v4.1c0,.88,0,1.74.06,2.62s.05,1.72.09,2.52.07,1.49.09,2.07l5.76-6.67c.25-.28.2-.59-.13-.9l.25-.3L309,74.37l-.25.3a1.45,1.45,0,0,0-.73-.34.52.52,0,0,0-.36.19l-10,11.64a.49.49,0,0,0-.14.38,1.53,1.53,0,0,0,.45.67l-.26.3L293,83.41l.26-.3a1.39,1.39,0,0,0,.53.33.32.32,0,0,0,.29-.11.44.44,0,0,0,.08-.25,3.75,3.75,0,0,0,0-.67,13.89,13.89,0,0,0-.06-1.42c-.06-.62-.06-1.45-.1-2.48s-.07-2.32-.11-3.86-.08-3.39-.12-5.57L287,76.93a.49.49,0,0,0-.14.38,1.53,1.53,0,0,0,.45.67l-.26.3-4.74-4.1.25-.3a1.55,1.55,0,0,0,.73.35.53.53,0,0,0,.36-.2Z"></path><path class="seal17-6" d="M311.83,95.16a.36.36,0,0,0-.36-.18,1.1,1.1,0,0,0-.46.19l-.24-.32,3.67-2.79.24.31c-.28.28-.34.53-.17.75l5.89,7.75-.31.24a.51.51,0,0,0-.71-.13l-.06,0L315,104.35a1.06,1.06,0,0,0-.27.29c-.06.1,0,.22.07.36l.09.13-.31.24a22.29,22.29,0,0,1-8.32-7,15.18,15.18,0,0,1-2-3.5,9.89,9.89,0,0,1-.8-3.68,8.34,8.34,0,0,1,.75-3.58,8.82,8.82,0,0,1,6.22-4.73,8.24,8.24,0,0,1,3.66.23,10.47,10.47,0,0,1,3.38,1.71,15,15,0,0,1,2.86,2.87c.33.43.62.83.85,1.17s.44.66.64,1,.36.73.54,1.13.37.86.59,1.41a10.22,10.22,0,0,1,.49,1.54,3.1,3.1,0,0,0,.29.89.58.58,0,0,0,.49.21l.14.4-4.77.93-.06-.46a1.26,1.26,0,0,0,.33-.16c.12-.1.15-.35.07-.76a9.23,9.23,0,0,0-.45-1.44,19.43,19.43,0,0,0-.86-1.78A14,14,0,0,0,317.43,90a7.73,7.73,0,0,0-1.62-1.61,5.42,5.42,0,0,0-1.93-.94,4.85,4.85,0,0,0-2.11-.07,5.06,5.06,0,0,0-2.15,1,4.19,4.19,0,0,0-1.47,1.86,5.37,5.37,0,0,0-.37,2.17,6.48,6.48,0,0,0,.5,2.17,8.44,8.44,0,0,0,1.1,1.94A16.56,16.56,0,0,0,311,98.45a15,15,0,0,0,1.66,1.42l1.73-1.32Z"></path><path class="seal17-1" d="M398.18,372.45a779.67,779.67,0,0,0-364,0q9.95-19.4,19.94-38.52-10-14.88-19.94-29.5a779.67,779.67,0,0,1,364,0q-9.94,14.61-19.94,29.5Q388.23,353.06,398.18,372.45Z"></path><path class="seal17-3" d="M386.25,363.77a779.76,779.76,0,0,0-340.14,0q8.25-15.88,16.54-31.6-8.28-12.39-16.54-24.59a779.46,779.46,0,0,1,340.14,0q-8.25,12.19-16.54,24.59Q378,347.88,386.25,363.77Z"></path><path class="seal17-7" d="M78.07,339.77a.82.82,0,0,0,.62-.36,1.45,1.45,0,0,0,.16-.71v-7.1l-6.29-9.07a6.73,6.73,0,0,0-.73-.87.69.69,0,0,0-.67-.19V321l4.92-.91v.46c-.54.13-.81.36-.81.7a.63.63,0,0,0,.19.41,2.54,2.54,0,0,1,.36.5l4.5,6.52q2.37-4.2,4.76-8.39l.29-.48a.83.83,0,0,0,.17-.46c0-.31-.24-.42-.72-.34v-.47l4.7-.79v.47a1.09,1.09,0,0,0-.73.45c-.19.26-.43.63-.74,1.12l-6.46,11.32v7.1a1.05,1.05,0,0,0,.16.65c.11.15.32.2.62.15v.47l-4.3.76Z"></path><path class="seal17-7" d="M91.73,318.8a1.19,1.19,0,0,0-.17-.66c-.11-.15-.31-.2-.62-.15v-.47q6.84-1.11,13.7-2.11a2.31,2.31,0,0,0,1.08-.33.78.78,0,0,0,.23-.63l.39-.06v4.45l-.39.05a1,1,0,0,0-.26-.76c-.17-.17-.5-.22-1-.15-3.4.5-6.8,1-10.2,1.55v6.16c2.21-.35,4.43-.69,6.64-1a1.92,1.92,0,0,0,1-.38,1.05,1.05,0,0,0,.38-.91l.39-.06V328l-.39.06a.86.86,0,0,0-.3-.78,1.56,1.56,0,0,0-1-.09l-6.7,1v6.63q5.46-.85,10.92-1.64a1.78,1.78,0,0,0,1-.44,1.55,1.55,0,0,0,.33-1.08l.39-.06v4.65l-.39.05c0-.49-.38-.69-1.15-.58q-7.33,1-14.65,2.24v-.46a.82.82,0,0,0,.62-.36,1.36,1.36,0,0,0,.17-.71Z"></path><path class="seal17-7" d="M112.22,332.53l-.3.82a2,2,0,0,0-.16.69c0,.28.18.4.56.35v.47l-4,.55v-.47a1.3,1.3,0,0,0,.34-.08.63.63,0,0,0,.28-.28,4.15,4.15,0,0,0,.29-.6l.43-1.06q3-8.28,5.93-16.55c.17-.46.31-.81.39-1a1.48,1.48,0,0,0,.13-.55c0-.31-.19-.44-.59-.39V314l4.79-.6v.46c-.35.05-.52.22-.52.54a1.48,1.48,0,0,0,.16.58c.11.23.25.56.43,1l6.3,14.77c.19.44.35.79.46,1a2.29,2.29,0,0,0,.31.55.58.58,0,0,0,.31.2,1.77,1.77,0,0,0,.46,0v.47l-4.56.53V333a.83.83,0,0,0,.52-.19.66.66,0,0,0,.13-.43,1.1,1.1,0,0,0-.08-.4,5.48,5.48,0,0,0-.34-.87l-1.25-3c-3.09.38-6.19.77-9.28,1.18Zm9.28-6.88-3.71-8.75-3.41,9.65C116.75,326.24,119.13,325.94,121.5,325.65Z"></path><path class="seal17-7" d="M133.36,330.92a1.18,1.18,0,0,0,.16.66.6.6,0,0,0,.62.19v.47l-4.33.47v-.47a.75.75,0,0,0,.62-.32,1.32,1.32,0,0,0,.17-.7V313.51a1.19,1.19,0,0,0-.17-.66c-.11-.16-.31-.22-.62-.19v-.47c3.67-.4,7.33-.79,11-1.14,2.17-.21,3.73.12,4.66,1a5.38,5.38,0,0,1,1.42,4.1,6.83,6.83,0,0,1-1.09,4,5.84,5.84,0,0,1-3.55,2.16l4.15,7.23a3,3,0,0,0,.57.76,1,1,0,0,0,.71.14v.46l-4.74.44v-.47a1.13,1.13,0,0,0,.54-.13.33.33,0,0,0,.12-.28.67.67,0,0,0-.16-.42l-4-7.25c-2,.2-4,.4-6,.62ZM140.55,320a4.11,4.11,0,0,0,2.83-1.17,3.79,3.79,0,0,0,.82-2.53,4.41,4.41,0,0,0-.2-1.3,1.72,1.72,0,0,0-.59-.86,2.5,2.5,0,0,0-1.17-.44,8.53,8.53,0,0,0-1.89,0q-3.53.35-7,.72v6.32C135.75,320.52,138.15,320.28,140.55,320Z"></path><path class="seal17-7" d="M151.37,324.45a1.32,1.32,0,0,0,.47,1.59,5.33,5.33,0,0,0,1.52.95,8.76,8.76,0,0,0,2.12.63,9.2,9.2,0,0,0,2.4.13,7.82,7.82,0,0,0,4.53-1.42,3.68,3.68,0,0,0,1.4-2.9,2.34,2.34,0,0,0-.35-1.34,2,2,0,0,0-1-.77A4.58,4.58,0,0,0,161,321a12.49,12.49,0,0,0-1.73,0c-1,.08-2.08.15-3.21.22A9.5,9.5,0,0,1,153,321a4.53,4.53,0,0,1-2.33-1.42,4.87,4.87,0,0,1-.92-3.28,5.52,5.52,0,0,1,.65-2.61,7.06,7.06,0,0,1,1.8-2.12,9.56,9.56,0,0,1,2.68-1.5,12.09,12.09,0,0,1,3.36-.73,11.14,11.14,0,0,1,2.45.06,13.91,13.91,0,0,1,1.79.38q.77.23,1.26.42a1.79,1.79,0,0,0,.82.18.8.8,0,0,0,.53-.19,3.8,3.8,0,0,0,.33-.37l.39.17-1.81,4.6-.36-.25a2.17,2.17,0,0,0,0-.51,1,1,0,0,0-.39-.63,4.63,4.63,0,0,0-1.12-.69,8.14,8.14,0,0,0-1.73-.5,8.92,8.92,0,0,0-2.19-.09,8.08,8.08,0,0,0-4.23,1.34,3.35,3.35,0,0,0-1.57,2.78,1.77,1.77,0,0,0,.35,1.16,2,2,0,0,0,1,.62,4.58,4.58,0,0,0,1.42.22c.54,0,1.11,0,1.73-.05,1-.08,2.1-.14,3.22-.18a8.78,8.78,0,0,1,3.1.38,4.89,4.89,0,0,1,2.34,1.6,5.54,5.54,0,0,1,.92,3.49,5.87,5.87,0,0,1-.54,2.44,6.73,6.73,0,0,1-1.63,2.15,8.51,8.51,0,0,1-2.69,1.59,12.72,12.72,0,0,1-3.7.77,12.21,12.21,0,0,1-3.08-.09,10.72,10.72,0,0,1-2.22-.6,13.78,13.78,0,0,1-1.51-.7,1.88,1.88,0,0,0-1-.29,1.11,1.11,0,0,0-.69.53l-.33-.2c.59-1.55,1.19-3.1,1.78-4.64Z"></path><path class="seal17-7" d="M177.58,328.4a.71.71,0,0,0,.63-.29,1.28,1.28,0,0,0,.16-.69v-17.7a1.24,1.24,0,0,0-.16-.68.66.66,0,0,0-.63-.22v-.47l4.35-.2v.47a.66.66,0,0,0-.62.28,1.13,1.13,0,0,0-.17.69v17.7a1.08,1.08,0,0,0,.17.68.64.64,0,0,0,.62.22v.47l-4.35.21Z"></path><path class="seal17-7" d="M200.71,322.91V309a1.24,1.24,0,0,0-.16-.68.72.72,0,0,0-.63-.24v-.47l4-.07V308a.72.72,0,0,0-.63.26,1.28,1.28,0,0,0-.16.69v17.71a1.24,1.24,0,0,0,.16.68.72.72,0,0,0,.63.24V328l-4.22.07v-.46q.66,0,.66-.33a.76.76,0,0,0-.13-.44,3,3,0,0,1-.2-.29q-5.88-7.79-11.74-15.47V327a1.21,1.21,0,0,0,.16.67.63.63,0,0,0,.63.23v.47l-4,.15v-.47a.71.71,0,0,0,.63-.28,1.28,1.28,0,0,0,.16-.69v-17.7a1.24,1.24,0,0,0-.16-.68.68.68,0,0,0-.63-.23V308l5.57-.21v.47a.93.93,0,0,0-.49.11.43.43,0,0,0-.13.34.46.46,0,0,0,.08.25l.18.25q5.18,6.81,10.36,13.69Z"></path><path class="seal17-7" d="M216.68,308.8a1.34,1.34,0,0,0-.16-.68.7.7,0,0,0-.63-.26v-.46c3.78,0,7.56,0,11.35.07a7.67,7.67,0,0,1,2.68.46,4.65,4.65,0,0,1,1.8,1.16,4.58,4.58,0,0,1,1,1.7,6.74,6.74,0,0,1,.31,2.09,5.92,5.92,0,0,1-.54,2.62,2.9,2.9,0,0,1-1.93,1.5v.08a3.57,3.57,0,0,1,2.17,1.78,6.64,6.64,0,0,1,.76,3.27,6,6,0,0,1-1.51,4.38c-1,1-2.67,1.51-5,1.47-3.7-.05-7.41-.07-11.11-.07v-.47a.69.69,0,0,0,.63-.25,1.34,1.34,0,0,0,.16-.68ZM227,315.66a3.88,3.88,0,0,0,2.61-.62,2.6,2.6,0,0,0,.73-2,2.69,2.69,0,0,0-.73-2,4,4,0,0,0-2.61-.7c-2.51,0-5-.06-7.55-.07v5.38C222,315.6,224.49,315.63,227,315.66Zm.73,9.53a3.1,3.1,0,0,0,2.39-.82,3.45,3.45,0,0,0,.81-2.48,3.57,3.57,0,0,0-.81-2.51,3.09,3.09,0,0,0-2.39-.9q-4.14-.06-8.28-.08v6.71Q223.59,325.13,227.73,325.19Z"></path><path class="seal17-7" d="M236.79,309.07a1.29,1.29,0,0,0-.17-.69.7.7,0,0,0-.63-.26v-.47c1.45,0,2.91.07,4.36.12v.47a.68.68,0,0,0-.63.23,1.24,1.24,0,0,0-.16.68v12.48a3.54,3.54,0,0,0,1.4,3.18,7.93,7.93,0,0,0,4.17,1.06,7.61,7.61,0,0,0,4.17-.75,3.3,3.3,0,0,0,1.4-3.08V309.56a1.38,1.38,0,0,0-.16-.69.76.76,0,0,0-.63-.28v-.46c1.45.06,2.9.12,4.35.2v.46a.65.65,0,0,0-.63.23,1.21,1.21,0,0,0-.16.67v11.62a10.25,10.25,0,0,1-.58,3.8,5,5,0,0,1-1.65,2.26,5.54,5.54,0,0,1-2.62,1,22,22,0,0,1-7-.26,6.21,6.21,0,0,1-2.62-1.23,5.76,5.76,0,0,1-1.65-2.39,10.92,10.92,0,0,1-.57-3.84Z"></path><path class="seal17-7" d="M258.23,322.88a1.44,1.44,0,0,0-.1.5,1.76,1.76,0,0,0,.58,1.17,6.29,6.29,0,0,0,1.51,1.15,11.85,11.85,0,0,0,2.13.93,9.78,9.78,0,0,0,2.4.45c2.09.14,3.6-.13,4.53-.79a3.16,3.16,0,0,0,1.4-2.71,2.38,2.38,0,0,0-1.34-2.3,5.38,5.38,0,0,0-1.41-.5,11.23,11.23,0,0,0-1.73-.23l-3.22-.22a10.32,10.32,0,0,1-3.11-.69,5.55,5.55,0,0,1-2.34-1.75,5.41,5.41,0,0,1-.92-3.4,4.85,4.85,0,0,1,.66-2.52,5.82,5.82,0,0,1,1.79-1.87,8.43,8.43,0,0,1,2.69-1.14,10.84,10.84,0,0,1,3.36-.26,11.28,11.28,0,0,1,2.45.39,14.78,14.78,0,0,1,1.8.63c.5.22.92.42,1.25.59a2.38,2.38,0,0,0,.82.3.82.82,0,0,0,.53-.12l.33-.33.39.22q-.9,2.19-1.81,4.36l-.36-.3a2.09,2.09,0,0,0,0-.5,1.13,1.13,0,0,0-.39-.69,5.13,5.13,0,0,0-1.12-.84,8.5,8.5,0,0,0-1.73-.74,9.09,9.09,0,0,0-2.19-.4,7.38,7.38,0,0,0-4.23.76,2.85,2.85,0,0,0-1.57,2.57,2,2,0,0,0,.35,1.21,2.58,2.58,0,0,0,.95.75A5.81,5.81,0,0,0,262,317c.54.08,1.11.14,1.73.18,1,.06,2.11.15,3.23.26a9.74,9.74,0,0,1,3.09.81,5.75,5.75,0,0,1,2.34,1.92,6.16,6.16,0,0,1,.92,3.62,5.34,5.34,0,0,1-.54,2.36,5.42,5.42,0,0,1-1.63,1.93,7.46,7.46,0,0,1-2.69,1.22,12.11,12.11,0,0,1-3.7.27,13.41,13.41,0,0,1-3.08-.52,12.63,12.63,0,0,1-2.22-.91,15.56,15.56,0,0,1-1.52-.9,2,2,0,0,0-1-.42.92.92,0,0,0-.69.43L256,327l1.78-4.39Z"></path><path class="seal17-7" d="M275.66,329.71a.63.63,0,0,0,.62-.2,1.2,1.2,0,0,0,.17-.67V311.13a1.29,1.29,0,0,0-.17-.69.72.72,0,0,0-.62-.3v-.47L280,310v.47a.63.63,0,0,0-.63.2,1.21,1.21,0,0,0-.16.67v17.71a1.28,1.28,0,0,0,.16.69.78.78,0,0,0,.63.31v.47l-4.34-.35Z"></path><path class="seal17-7" d="M298.73,327.14v-14a1.32,1.32,0,0,0-.17-.7.75.75,0,0,0-.62-.32v-.47l3.94.43v.47a.63.63,0,0,0-.62.18,1.2,1.2,0,0,0-.17.67v17.7a1.32,1.32,0,0,0,.17.7.79.79,0,0,0,.62.33v.46l-4.2-.45v-.47c.43.05.65,0,.65-.24a.77.77,0,0,0-.13-.46,2.07,2.07,0,0,1-.19-.32q-5.85-8.5-11.71-16.94v15.92a1.29,1.29,0,0,0,.17.69.72.72,0,0,0,.62.31v.47l-3.94-.35v-.47a.63.63,0,0,0,.62-.2,1.19,1.19,0,0,0,.17-.66V311.75a1.32,1.32,0,0,0-.17-.7.76.76,0,0,0-.62-.31v-.46c1.85.16,3.7.32,5.55.5v.46a.82.82,0,0,0-.49.06.31.31,0,0,0-.13.31.65.65,0,0,0,.08.27l.18.27q5.16,7.46,10.32,15Z"></path><path class="seal17-7" d="M305.81,314a1.31,1.31,0,0,0-.16-.7A.79.79,0,0,0,305,313v-.47q6.87.79,13.74,1.7a2,2,0,0,0,1.08,0,.63.63,0,0,0,.23-.57l.39.05v4.45l-.39-.05a1.33,1.33,0,0,0-.26-.84,1.57,1.57,0,0,0-1-.43q-5.11-.68-10.23-1.29v6.17q3.33.39,6.66.82a1.8,1.8,0,0,0,1-.11c.25-.12.37-.39.37-.81l.4.05v4.72l-.4-.05a1.13,1.13,0,0,0-.29-.86,1.82,1.82,0,0,0-1-.36c-2.24-.29-4.49-.56-6.73-.83v6.63c3.65.44,7.31.9,10.95,1.39a1.45,1.45,0,0,0,1-.16,1.19,1.19,0,0,0,.33-1l.39.05v4.64l-.39-.05c0-.49-.39-.79-1.15-.89q-7.34-1-14.69-1.83v-.47a.58.58,0,0,0,.62-.18,1.18,1.18,0,0,0,.16-.66Z"></path><path class="seal17-7" d="M325.26,329.42a1.19,1.19,0,0,0-.1.49,2,2,0,0,0,.57,1.21,7.75,7.75,0,0,0,1.51,1.29,12.86,12.86,0,0,0,2.11,1.11,10.47,10.47,0,0,0,2.39.66c2.07.31,3.57.18,4.5-.4a2.9,2.9,0,0,0,1.39-2.59,2.73,2.73,0,0,0-1.3-2.41,5.51,5.51,0,0,0-1.4-.63,14.25,14.25,0,0,0-1.72-.38l-3.19-.49a10.86,10.86,0,0,1-3.09-1,6.37,6.37,0,0,1-2.33-1.95,5.84,5.84,0,0,1-.91-3.48,4.52,4.52,0,0,1,.65-2.46,5,5,0,0,1,1.79-1.72,7.55,7.55,0,0,1,2.66-.9,11,11,0,0,1,3.34,0,11.47,11.47,0,0,1,2.44.61,16.55,16.55,0,0,1,1.78.78c.5.26.92.49,1.24.7a2.08,2.08,0,0,0,.82.36.63.63,0,0,0,.52-.07,2.35,2.35,0,0,0,.33-.3l.39.26-1.8,4.2-.36-.33a2.09,2.09,0,0,0,0-.5,1.28,1.28,0,0,0-.39-.73,5.89,5.89,0,0,0-1.12-.93,9.91,9.91,0,0,0-1.71-.89,9.12,9.12,0,0,0-2.18-.58,7,7,0,0,0-4.2.39,2.59,2.59,0,0,0-1.56,2.43,2.18,2.18,0,0,0,.35,1.24,2.53,2.53,0,0,0,.95.83,5.41,5.41,0,0,0,1.4.54c.54.13,1.11.24,1.72.33,1,.15,2.09.34,3.21.54a10.14,10.14,0,0,1,3.07,1.09,6,6,0,0,1,3.24,5.81,5,5,0,0,1-.54,2.32,4.81,4.81,0,0,1-1.62,1.79,6.77,6.77,0,0,1-2.67,1,11.65,11.65,0,0,1-3.68-.05,13.42,13.42,0,0,1-3.05-.79,12.31,12.31,0,0,1-2.21-1.1,17.16,17.16,0,0,1-1.51-1,2.29,2.29,0,0,0-.95-.5.82.82,0,0,0-.69.37l-.33-.28,1.77-4.24Z"></path><path class="seal17-7" d="M343.92,332.28a1.43,1.43,0,0,0-.09.5,2,2,0,0,0,.57,1.22,7.61,7.61,0,0,0,1.5,1.33,11.88,11.88,0,0,0,2.1,1.15,10,10,0,0,0,2.39.73c2.06.36,3.56.26,4.48-.3a2.8,2.8,0,0,0,1.38-2.55,2.85,2.85,0,0,0-.34-1.43,2.9,2.9,0,0,0-.94-1,5.6,5.6,0,0,0-1.4-.66,10.27,10.27,0,0,0-1.72-.42l-3.18-.58a11.11,11.11,0,0,1-3.08-1,6.31,6.31,0,0,1-2.32-2,5.92,5.92,0,0,1-.91-3.5,4.51,4.51,0,0,1,.65-2.45,4.92,4.92,0,0,1,1.78-1.67,7.59,7.59,0,0,1,2.66-.84,10.63,10.63,0,0,1,3.33.11,11.35,11.35,0,0,1,2.43.66c.6.25,1.19.52,1.77.83a13.9,13.9,0,0,1,1.24.73,2.28,2.28,0,0,0,.82.38.6.6,0,0,0,.52-.06l.32-.29.39.27c-.59,1.38-1.19,2.77-1.79,4.15l-.36-.33a2.09,2.09,0,0,0,0-.5,1.34,1.34,0,0,0-.39-.74,5.84,5.84,0,0,0-1.11-1,10.86,10.86,0,0,0-1.71-.93,9.66,9.66,0,0,0-2.17-.64,6.94,6.94,0,0,0-4.2.29,2.52,2.52,0,0,0-1.55,2.39,2.21,2.21,0,0,0,.35,1.25,2.68,2.68,0,0,0,.94.86,5.56,5.56,0,0,0,1.41.57c.53.15,1.1.27,1.71.38,1,.17,2.09.38,3.2.62a10.43,10.43,0,0,1,3.1,1.19,6.88,6.88,0,0,1,2.31,2.18,6.73,6.73,0,0,1,.92,3.72,5.08,5.08,0,0,1-.54,2.3,4.67,4.67,0,0,1-1.61,1.75,6.65,6.65,0,0,1-2.66.92,11.9,11.9,0,0,1-3.67-.14,14.72,14.72,0,0,1-3.05-.86,14,14,0,0,1-2.2-1.16c-.61-.4-1.11-.75-1.5-1.06a2.35,2.35,0,0,0-.95-.53.78.78,0,0,0-.69.35l-.32-.28c.58-1.4,1.17-2.8,1.76-4.2Z"></path><rect class="seal17-1" x="365.68" y="168.28" width="22" height="31.93"></rect><polygon class="seal17-8" points="387.68 164.03 333.68 151.27 333.68 187.45 387.68 200.21 387.68 164.03"></polygon><polygon class="seal17-1" points="333.68 187.45 431.36 187.45 423.68 169.36 431.36 151.27 333.68 151.27 333.68 187.45"></polygon><rect class="seal17-1" x="43.68" y="168.28" width="22" height="31.93"></rect><polygon class="seal17-8" points="43.68 164.03 97.68 151.27 97.68 187.45 43.68 200.21 43.68 164.03"></polygon><polygon class="seal17-1" points="97.68 187.45 0 187.45 7.68 169.36 0 151.27 97.68 151.27 97.68 187.45"></polygon><path class="seal17-7" d="M13.36,179.38a7.11,7.11,0,0,1,.91-3.73,9,9,0,0,1,2.29-2.59,15.92,15.92,0,0,1,3-1.82c1.08-.5,2.07-1,3-1.51a10.73,10.73,0,0,0,2.29-1.61,2.85,2.85,0,0,0,.91-2.15,2.91,2.91,0,0,0-1-2.4,4.53,4.53,0,0,0-2.9-.82,6.12,6.12,0,0,0-2.47.46,7.06,7.06,0,0,0-1.77,1,5,5,0,0,0-1.05,1.14,1.4,1.4,0,0,0-.31.77,1.52,1.52,0,0,0,.05.38l.12.35-.35.28-2.76-3.64.35-.24.31.22a.62.62,0,0,0,.35.16,1.4,1.4,0,0,0,.9-.49,9,9,0,0,1,1.38-1.07,10.78,10.78,0,0,1,2.2-1,10.33,10.33,0,0,1,3.36-.47A6.76,6.76,0,0,1,26.76,162,5,5,0,0,1,28.41,166a4.47,4.47,0,0,1-.79,2.68,7.68,7.68,0,0,1-2,1.91A17.43,17.43,0,0,1,23,172c-.95.42-1.84.85-2.68,1.3a11.72,11.72,0,0,0-2.19,1.45A3.22,3.22,0,0,0,17,176.68H28.41a1,1,0,0,0,.7-.19,1,1,0,0,0,.17-.65h.42v4h-.42a.57.57,0,0,0-.17-.46,1.24,1.24,0,0,0-.7-.14H14.76c-.59,0-.91.2-1,.6h-.42Z"></path><path class="seal17-7" d="M50.3,170a10.48,10.48,0,0,1-.64,3.71,8.75,8.75,0,0,1-1.86,3,8,8,0,0,1-3,1.94,11.88,11.88,0,0,1-8,0,8,8,0,0,1-3-1.94,8.59,8.59,0,0,1-1.86-3,10.91,10.91,0,0,1,0-7.42,8.54,8.54,0,0,1,1.86-3,8.68,8.68,0,0,1,3-2,11.13,11.13,0,0,1,8,0,8.47,8.47,0,0,1,4.82,5A10.44,10.44,0,0,1,50.3,170Zm-2.87,0a8.05,8.05,0,0,0-1.61-5.29,6,6,0,0,0-5-2,6.06,6.06,0,0,0-5,2,9.48,9.48,0,0,0,0,10.57,6.06,6.06,0,0,0,5,2,6,6,0,0,0,5-2A8,8,0,0,0,47.43,170Z"></path><path class="seal17-7" d="M70.65,170a10.48,10.48,0,0,1-.65,3.71,8.72,8.72,0,0,1-1.85,3,8.07,8.07,0,0,1-3,1.94,11.88,11.88,0,0,1-8,0,8.07,8.07,0,0,1-3-1.94,8.72,8.72,0,0,1-1.85-3,10.91,10.91,0,0,1,0-7.42,8.42,8.42,0,0,1,4.81-5,11.13,11.13,0,0,1,8,0,8.42,8.42,0,0,1,4.81,5A10.44,10.44,0,0,1,70.65,170Zm-2.87,0a8.11,8.11,0,0,0-1.61-5.29,6,6,0,0,0-5-2,6,6,0,0,0-5,2,9.48,9.48,0,0,0,0,10.57,6,6,0,0,0,5,2,6,6,0,0,0,5-2A8.1,8.1,0,0,0,67.78,170Z"></path><path class="seal17-7" d="M82.43,178.78a.75.75,0,0,0,.66-.23.94.94,0,0,0,.18-.61v-2.38H73.15a1,1,0,0,0-.7.19,1,1,0,0,0-.17.65h-.42v-3.08l9.48-11.27.23-.24a.49.49,0,0,0,.12-.32.27.27,0,0,0-.15-.23.87.87,0,0,0-.37-.08v-.39h5.88v.42a.82.82,0,0,0-.67.23,1,1,0,0,0-.17.61v11.2h1.61a.7.7,0,0,0,.87-.84h.42v4h-.42a1,1,0,0,0-.17-.65,1,1,0,0,0-.7-.19H86.21v2.38a1,1,0,0,0,.17.61.79.79,0,0,0,.67.23v.42H82.43Zm.84-15.54-8.61,10h8.61Z"></path><path class="seal17-7" d="M347.13,179.38a7.11,7.11,0,0,1,.91-3.73,9,9,0,0,1,2.29-2.59,15.92,15.92,0,0,1,3-1.82c1.07-.5,2.07-1,3-1.51a10.81,10.81,0,0,0,2.3-1.61,2.84,2.84,0,0,0,.91-2.15,2.91,2.91,0,0,0-1-2.4,4.55,4.55,0,0,0-2.9-.82,6.12,6.12,0,0,0-2.47.46,7.06,7.06,0,0,0-1.77,1,4.54,4.54,0,0,0-1.05,1.14,1.4,1.4,0,0,0-.31.77,1.13,1.13,0,0,0,.05.38,2.42,2.42,0,0,0,.12.35l-.35.28-2.76-3.64.35-.24.31.22a.62.62,0,0,0,.35.16,1.38,1.38,0,0,0,.89-.49,9.69,9.69,0,0,1,1.39-1.07,10.53,10.53,0,0,1,2.2-1,10.33,10.33,0,0,1,3.36-.47,6.8,6.8,0,0,1,4.62,1.44,5,5,0,0,1,1.65,3.95,4.54,4.54,0,0,1-.79,2.68,8,8,0,0,1-2,1.91A17.06,17.06,0,0,1,356.8,172c-.94.42-1.83.85-2.67,1.3a11.72,11.72,0,0,0-2.19,1.45,3.22,3.22,0,0,0-1.14,1.94h11.38a1,1,0,0,0,.7-.19,1,1,0,0,0,.17-.65h.42v4h-.42a.57.57,0,0,0-.17-.46,1.24,1.24,0,0,0-.7-.14H348.53c-.59,0-.91.2-1,.6h-.42Z"></path><path class="seal17-7" d="M384.07,170a10.26,10.26,0,0,1-.65,3.71,8.72,8.72,0,0,1-1.85,3,8.07,8.07,0,0,1-3,1.94,11.88,11.88,0,0,1-8,0,8.07,8.07,0,0,1-3-1.94,8.72,8.72,0,0,1-1.85-3,10.91,10.91,0,0,1,0-7.42,8.42,8.42,0,0,1,4.81-5,11.13,11.13,0,0,1,8,0,8.42,8.42,0,0,1,4.81,5A10.23,10.23,0,0,1,384.07,170Zm-2.87,0a8.11,8.11,0,0,0-1.61-5.29,7.28,7.28,0,0,0-9.94,0,9.48,9.48,0,0,0,0,10.57,7.28,7.28,0,0,0,9.94,0A8.1,8.1,0,0,0,381.2,170Z"></path><path class="seal17-7" d="M385.32,179.38a7.21,7.21,0,0,1,.91-3.73,9.07,9.07,0,0,1,2.3-2.59,15.6,15.6,0,0,1,3-1.82c1.07-.5,2.07-1,3-1.51a10.48,10.48,0,0,0,2.29-1.61,2.8,2.8,0,0,0,.91-2.15,2.9,2.9,0,0,0-1-2.4,4.58,4.58,0,0,0-2.91-.82,6.1,6.1,0,0,0-2.46.46,6.71,6.71,0,0,0-1.77,1,4.54,4.54,0,0,0-1.05,1.14,1.44,1.44,0,0,0-.32.77,1.12,1.12,0,0,0,.06.38,2.42,2.42,0,0,0,.12.35l-.35.28-2.77-3.64.35-.24.32.22a.59.59,0,0,0,.35.16,1.41,1.41,0,0,0,.89-.49,10.12,10.12,0,0,1,1.38-1.07,10.88,10.88,0,0,1,2.21-1,10.25,10.25,0,0,1,3.36-.47,6.8,6.8,0,0,1,4.62,1.44,4.94,4.94,0,0,1,1.64,3.95,4.54,4.54,0,0,1-.78,2.68,8,8,0,0,1-2,1.91A17.54,17.54,0,0,1,395,172c-.94.42-1.84.85-2.68,1.3a11.31,11.31,0,0,0-2.18,1.45,3.22,3.22,0,0,0-1.14,1.94h11.37a.93.93,0,0,0,.7-.19,1,1,0,0,0,.18-.65h.42v4h-.42a.55.55,0,0,0-.18-.46,1.22,1.22,0,0,0-.7-.14H386.72c-.58,0-.91.2-1,.6h-.42Z"></path><path class="seal17-7" d="M407.65,178.78a.78.78,0,0,0,.66-.23.94.94,0,0,0,.18-.61V164.78a3.87,3.87,0,0,0-.56,0,2.05,2.05,0,0,0-.58.14,1.07,1.07,0,0,0-.44.31.79.79,0,0,0-.17.53h-.42v-3.57h.42q0,.66.45.66a2.46,2.46,0,0,0,1-.28c.39-.19.59-.43.59-.73s-.27-.67-.8-.67v-.42h4.13v.42a.68.68,0,0,0-.56.19,1.18,1.18,0,0,0-.14.69v15.85a.94.94,0,0,0,.17.61.79.79,0,0,0,.67.23v.42h-4.62Z"></path><g class="seal17-9"><polygon class="seal17-10" points="302.5 115.78 294.77 121.13 294.6 101.02 302.32 94.52 302.5 115.78"></polygon><polygon class="seal17-10" points="302.32 94.52 294.6 101.02 190.56 100.59 192.31 94.02 302.32 94.52"></polygon><polygon class="seal17-11" points="267.35 121.03 261.51 126.11 190.61 125.92 192.37 120.81 267.35 121.03"></polygon><polygon class="seal17-11" points="192.37 120.81 190.61 125.92 190.56 100.59 192.31 94.02 192.37 120.81"></polygon><polygon class="seal17-10" points="265.84 122.01 260.09 127.03 189.67 126.85 191.37 121.8 265.84 122.01"></polygon><polygon class="seal17-10" points="191.37 121.8 189.67 126.85 189.62 99.65 191.32 93.03 191.37 121.8"></polygon><polygon class="seal17-10" points="248.52 242.09 243.67 240.56 294.77 121.13 302.5 115.78 248.52 242.09"></polygon><polygon class="seal17-10" points="214.68 242.24 211.68 240.7 243.67 240.56 248.52 242.09 214.68 242.24"></polygon><polygon class="seal17-11" points="214.68 242.24 211.68 240.7 261.51 126.11 267.35 121.03 214.68 242.24"></polygon><polygon class="seal17-11" points="302.32 94.52 302.5 115.78 248.52 242.09 214.68 242.24 267.35 121.03 192.37 120.81 192.31 94.02 302.32 94.52"></polygon><polygon class="seal17-10" points="213.14 243.25 210.22 241.66 260.09 127.03 265.84 122.01 213.14 243.25"></polygon><path class="seal17-10" d="M191.32,93l112,.52.16,22.53-54.27,127-36,.16L265.84,122l-74.47-.22ZM302.5,115.77l-.18-21.25-110-.5.06,26.78,75,.23L214.67,242.24l33.85-.15,54-126.32"></path></g><g class="seal17-9"><polygon class="seal17-10" points="183.37 93.98 182.11 100.55 156.56 100.45 156.34 93.86 183.37 93.98"></polygon><polygon class="seal17-10" points="156.34 93.86 156.56 100.45 112.31 144.4 109.52 140.33 156.34 93.86"></polygon><polygon class="seal17-11" points="152.59 132.91 153.01 137.38 128.89 161.75 127.06 158.69 152.59 132.91"></polygon><polygon class="seal17-11" points="127.06 158.69 128.89 161.75 112.31 144.4 109.52 140.33 127.06 158.69"></polygon><polygon class="seal17-10" points="151.59 135.35 152.06 139.69 128.88 163.11 127.05 160.13 151.59 135.35"></polygon><polygon class="seal17-10" points="127.05 160.13 128.88 163.11 110.98 144.38 108.11 140.31 127.05 160.13"></polygon><polygon class="seal17-10" points="183.59 242.38 182.3 240.83 182.11 100.55 183.37 93.98 183.59 242.38"></polygon><polygon class="seal17-10" points="152.59 132.91 153.01 137.38 152.96 240.95 152.54 242.51 152.59 132.91"></polygon><path class="seal17-10" d="M155.93,92.86l28.44.13.22,150.39-33.06.15.06-108.17-24.54,24.77-18.94-19.82.35-.34Zm27.65,149.51L183.37,94l-27-.12-46.83,46.47,17.54,18.36,25.53-25.78-.05,109.6,31-.14"></path><polygon class="seal17-11" points="183.37 93.98 183.59 242.38 152.54 242.51 152.59 132.91 127.06 158.69 109.52 140.33 156.34 93.86 183.37 93.98"></polygon><polygon class="seal17-10" points="152.54 242.51 152.96 240.95 182.3 240.83 183.59 242.38 152.54 242.51"></polygon></g></g></g></svg>