<svg xmlns="http://www.w3.org/2000/svg" xmlns:xlink="http://www.w3.org/1999/xlink" viewBox="0 0 1771.42 884.85"><defs><style>.ConciergeDecal-1{fill:url(#linear-gradient);}.ConciergeDecal-2{fill:#fff;}.ConciergeDecal-3{fill:url(#linear-gradient-2);}.ConciergeDecal-4{fill:url(#linear-gradient-3);}.ConciergeDecal-5{fill:url(#linear-gradient-4);}.ConciergeDecal-6{fill:url(#linear-gradient-5);}.ConciergeDecal-7{fill:url(#linear-gradient-6);}.ConciergeDecal-8{fill:url(#linear-gradient-7);}.ConciergeDecal-9{fill:url(#linear-gradient-8);}.ConciergeDecal-10{fill:url(#linear-gradient-9);}.ConciergeDecal-11{fill:url(#linear-gradient-10);}</style><linearGradient id="linear-gradient" x1="-9.57" y1="381.7" x2="1771.27" y2="502.49" gradientUnits="userSpaceOnUse"><stop offset="0" stop-color="#fff"></stop><stop offset="0.27" stop-color="#c4c3c3"></stop><stop offset="0.44" stop-color="#454545"></stop><stop offset="0.63" stop-color="#c4c3c3"></stop><stop offset="0.8" stop-color="#fff"></stop><stop offset="1" stop-color="#c4c3c3"></stop></linearGradient><linearGradient id="linear-gradient-2" x1="720.77" y1="-106.01" x2="456.69" y2="543.33" gradientUnits="userSpaceOnUse"><stop offset="0" stop-color="#c4c3c3"></stop><stop offset="0.49" stop-color="#fff"></stop><stop offset="0.73" stop-color="#c4c3c3"></stop><stop offset="1" stop-color="#fff"></stop></linearGradient><linearGradient id="linear-gradient-3" x1="1428.17" y1="181.68" x2="1164.09" y2="831.02" xlink:href="#linear-gradient-2"/><linearGradient id="linear-gradient-4" x1="863.39" y1="-48.01" x2="599.31" y2="601.34" xlink:href="#linear-gradient-2"/><linearGradient id="linear-gradient-5" x1="1298.28" y1="128.85" x2="1034.2" y2="778.2" xlink:href="#linear-gradient-2"/><linearGradient id="linear-gradient-6" x1="1177.94" y1="79.92" x2="913.87" y2="729.26" xlink:href="#linear-gradient-2"/><linearGradient id="linear-gradient-7" x1="1549.61" y1="231.07" x2="1285.53" y2="880.41" xlink:href="#linear-gradient-2"/><linearGradient id="linear-gradient-8" x1="588.81" y1="-159.68" x2="324.73" y2="489.67" xlink:href="#linear-gradient-2"/><linearGradient id="linear-gradient-9" x1="1006.08" y1="10.02" x2="742" y2="659.37" xlink:href="#linear-gradient-2"/><linearGradient id="linear-gradient-10" x1="1095.32" y1="46.32" x2="831.24" y2="695.66" xlink:href="#linear-gradient-2"/></defs><g id="Layer_2" data-name="Layer 2"><g id="Layer_1-2" data-name="Layer 1"><ellipse cx="885.71" cy="442.42" rx="866.4" ry="424.84"></ellipse><path class="ConciergeDecal-1" d="M885.71,884.85C396.55,884.85,0,686.77,0,442.42S396.55,0,885.71,0s885.71,198.08,885.71,442.42S1374.87,884.85,885.71,884.85ZM55.7,435.74c4.12,222.87,346.43,345.73,813.93,345.73,411.75,0,644-98.49,719.83-252.46-59.83,170.19-357,288.39-803,288.39-171.35,0-330.42-22.9-462-61.82C467.21,812.73,651.58,847,857,847c487.63,0,862.79-176.84,858.71-397.92-4.12-222.88-346.43-345.73-813.93-345.73-411.75,0-644,98.49-719.83,252.46,59.83-170.19,357-288.39,803-288.39,171.35,0,330.42,22.9,462,61.82-142.79-57.15-327.16-91.45-532.59-91.45C426.78,37.82,51.62,214.66,55.7,435.74Z"></path><path class="ConciergeDecal-2" d="M567.22,618.62H551.71v10.62h15v6.27h-15v21H545v-44.2h22.23Z"></path><path class="ConciergeDecal-2" d="M572.07,628.66h6.49v2.5a12.08,12.08,0,0,1,3.17-2.55,7.25,7.25,0,0,1,3.34-.72,10.58,10.58,0,0,1,5.36,1.66l-3,5.9a6.21,6.21,0,0,0-3.6-1.32q-5.31,0-5.3,8v14.46h-6.49Z"></path><path class="ConciergeDecal-2" d="M618.2,644.12H598.08a8.4,8.4,0,0,0,2.25,5.47,6.85,6.85,0,0,0,5.1,2,6.72,6.72,0,0,0,4-1.15,16,16,0,0,0,3.54-4.24l5.48,3a21.46,21.46,0,0,1-2.68,3.68,14.19,14.19,0,0,1-3,2.52,11.91,11.91,0,0,1-3.49,1.44,16.82,16.82,0,0,1-4.06.46,13.26,13.26,0,0,1-10.09-4q-3.81-4-3.81-10.7T595,631.93a12.78,12.78,0,0,1,9.86-4c4.14,0,7.4,1.31,9.81,3.92s3.57,6.2,3.57,10.8Zm-6.66-5.26q-1.35-5.16-6.54-5.16a6.71,6.71,0,0,0-2.22.36,6.19,6.19,0,0,0-1.89,1,6.67,6.67,0,0,0-1.46,1.62,7.47,7.47,0,0,0-.92,2.15Z"></path><path class="ConciergeDecal-2" d="M649.75,644.12H629.62a8.45,8.45,0,0,0,2.25,5.47,6.88,6.88,0,0,0,5.1,2,6.68,6.68,0,0,0,4-1.15,16.17,16.17,0,0,0,3.55-4.24l5.48,3a22,22,0,0,1-2.68,3.68,14.7,14.7,0,0,1-3,2.52,12,12,0,0,1-3.49,1.44,16.91,16.91,0,0,1-4.07.46,13.28,13.28,0,0,1-10.09-4q-3.79-4-3.8-10.7t3.69-10.71a12.76,12.76,0,0,1,9.86-4q6.2,0,9.8,3.92t3.58,10.8Zm-6.66-5.26q-1.37-5.16-6.55-5.16a6.71,6.71,0,0,0-2.22.36,6.43,6.43,0,0,0-1.89,1,6.63,6.63,0,0,0-1.45,1.62,7.48,7.48,0,0,0-.93,2.15Z"></path><path class="ConciergeDecal-2" d="M676.25,612.35l11.59,29.54L700,610.2l11.59,31.69,12.31-29.54h7.3l-19.9,47L699.81,628l-11.94,31.35-18.91-47Z"></path><path class="ConciergeDecal-2" d="M733.92,617.07a4,4,0,0,1,1.24-2.92,4.06,4.06,0,0,1,3-1.23,4.11,4.11,0,0,1,3,1.23,4,4,0,0,1,1.24,3,4.08,4.08,0,0,1-1.24,3,4,4,0,0,1-3,1.23,4.22,4.22,0,0,1-4.24-4.24Zm7.47,11.59v27.89H734.9V628.66Z"></path><path class="ConciergeDecal-2" d="M755.17,634.68v21.87h-6.49V634.68h-2.76v-6h2.76V618.44h6.49v10.22h5.05v6Z"></path><path class="ConciergeDecal-2" d="M764.69,608.19h6.49V631a11.2,11.2,0,0,1,7.64-3.09,9.92,9.92,0,0,1,7.61,3.06c1.61,1.78,2.42,4.61,2.42,8.51v17.09h-6.49V640.06q0-3.34-1.19-4.85a4.62,4.62,0,0,0-3.85-1.51q-3.41,0-4.79,2.09c-.9,1.42-1.35,3.84-1.35,7.28v13.48h-6.49Z"></path><path class="ConciergeDecal-2" d="M838.85,618.62H821v10.62h17.33v6.27H821v14.77h17.85v6.27H814.29v-44.2h24.56Z"></path><path class="ConciergeDecal-2" d="M848.8,628.66l7.27,15.66,7.23-15.66h7.3L856,658.47l-14.47-29.81Z"></path><path class="ConciergeDecal-2" d="M898.42,644.12H878.3a8.4,8.4,0,0,0,2.25,5.47,6.86,6.86,0,0,0,5.1,2,6.7,6.7,0,0,0,4-1.15,16.17,16.17,0,0,0,3.55-4.24l5.47,3a21.46,21.46,0,0,1-2.68,3.68,14.4,14.4,0,0,1-3,2.52,12,12,0,0,1-3.49,1.44,16.91,16.91,0,0,1-4.07.46,13.28,13.28,0,0,1-10.09-4q-3.81-4-3.81-10.7t3.69-10.71a12.79,12.79,0,0,1,9.87-4q6.2,0,9.8,3.92t3.57,10.8Zm-6.66-5.26q-1.35-5.16-6.54-5.16a6.71,6.71,0,0,0-2.22.36,6.43,6.43,0,0,0-1.89,1,6.67,6.67,0,0,0-1.46,1.62,7.47,7.47,0,0,0-.92,2.15Z"></path><path class="ConciergeDecal-2" d="M904.4,628.66h6.48v2.5a12.24,12.24,0,0,1,3.17-2.55,7.32,7.32,0,0,1,3.35-.72,10.58,10.58,0,0,1,5.36,1.66l-3,5.9a6.21,6.21,0,0,0-3.6-1.32q-5.31,0-5.31,8v14.46H904.4Z"></path><path class="ConciergeDecal-2" d="M936.81,651.37l-12.63-22.71h7.52l8.6,16,8-16h7.32l-22.37,43.06h-7.41Z"></path><path class="ConciergeDecal-2" d="M984,612.35v44.2h-6.72v-44.2Z"></path><path class="ConciergeDecal-2" d="M992.32,628.66h6.51v2.58a10.69,10.69,0,0,1,7.67-3.35,9.71,9.71,0,0,1,7.64,3.06q2.37,2.61,2.37,8.51v17.09H1010V641q0-4.12-1.15-5.7c-.75-1.07-2.12-1.61-4.1-1.61q-3.22,0-4.58,2.12c-.88,1.4-1.33,3.83-1.33,7.3v13.46h-6.51Z"></path><path class="ConciergeDecal-2" d="M1039.89,633.42l-5.36,2.83c-.85-1.72-1.89-2.58-3.14-2.58a2.17,2.17,0,0,0-1.53.59,2,2,0,0,0-.64,1.5q0,1.61,3.75,3.18,5.16,2.2,7,4.07a6.94,6.94,0,0,1,1.79,5,8.73,8.73,0,0,1-3,6.75,10.24,10.24,0,0,1-7,2.58q-7.07,0-10-6.84l5.54-2.55a11.61,11.61,0,0,0,1.76,2.55,4,4,0,0,0,2.82,1.09c2.19,0,3.29-1,3.29-3,0-1.15-.85-2.21-2.54-3.21-.65-.32-1.31-.64-2-.94s-1.32-.62-2-1a12.09,12.09,0,0,1-4-2.75,6.72,6.72,0,0,1-1.47-4.49,7.93,7.93,0,0,1,2.51-6,8.82,8.82,0,0,1,6.23-2.38Q1037.26,627.89,1039.89,633.42Z"></path><path class="ConciergeDecal-2" d="M1052.9,671.72h-6.49V628.66h6.49v3a12.36,12.36,0,0,1,18.25.43,15.2,15.2,0,0,1,3.81,10.62,15,15,0,0,1-3.78,10.45,12.37,12.37,0,0,1-18.28.23Zm15.43-28.94a9.61,9.61,0,0,0-2.2-6.53,7.09,7.09,0,0,0-5.59-2.55,7.41,7.41,0,0,0-5.79,2.47,9.28,9.28,0,0,0-2.23,6.47,9.51,9.51,0,0,0,2.23,6.47,7.3,7.3,0,0,0,5.76,2.49,7.06,7.06,0,0,0,5.57-2.52A9.11,9.11,0,0,0,1068.33,642.78Z"></path><path class="ConciergeDecal-2" d="M1106.27,644.12h-20.12a8.4,8.4,0,0,0,2.25,5.47,6.85,6.85,0,0,0,5.1,2,6.72,6.72,0,0,0,4-1.15,16.17,16.17,0,0,0,3.54-4.24l5.48,3a21.46,21.46,0,0,1-2.68,3.68,14.19,14.19,0,0,1-3,2.52,11.91,11.91,0,0,1-3.49,1.44,16.82,16.82,0,0,1-4.06.46,13.26,13.26,0,0,1-10.09-4q-3.81-4-3.81-10.7t3.69-10.71a12.78,12.78,0,0,1,9.86-4q6.19,0,9.8,3.92t3.58,10.8Zm-6.66-5.26q-1.35-5.16-6.54-5.16a6.71,6.71,0,0,0-2.22.36,6.19,6.19,0,0,0-1.89,1,6.47,6.47,0,0,0-1.46,1.62,7.47,7.47,0,0,0-.92,2.15Z"></path><path class="ConciergeDecal-2" d="M1134.1,629.87v8.56a15.78,15.78,0,0,0-4-3.7,7.89,7.89,0,0,0-4.07-1,8,8,0,0,0-6.08,2.55,8.89,8.89,0,0,0-2.42,6.39,9.13,9.13,0,0,0,2.33,6.44,7.92,7.92,0,0,0,6,2.52,8.25,8.25,0,0,0,4.12-1,16.18,16.18,0,0,0,4.07-3.77v8.5a17.22,17.22,0,0,1-7.9,2,15.15,15.15,0,0,1-10.9-4.18,13.9,13.9,0,0,1-4.38-10.45,14.07,14.07,0,0,1,4.44-10.53,15,15,0,0,1,10.89-4.3A16.37,16.37,0,0,1,1134.1,629.87Z"></path><path class="ConciergeDecal-2" d="M1146,634.68v21.87h-6.49V634.68h-2.76v-6h2.76V618.44H1146v10.22h5v6Z"></path><path class="ConciergeDecal-2" d="M1153.31,617.07a4,4,0,0,1,1.23-2.92,4.24,4.24,0,0,1,6,0,3.93,3.93,0,0,1,1.24,3,4,4,0,0,1-1.24,3,4,4,0,0,1-3,1.23,4.2,4.2,0,0,1-4.23-4.24Zm7.46,11.59v27.89h-6.48V628.66Z"></path><path class="ConciergeDecal-2" d="M1166.54,642.41a13.78,13.78,0,0,1,4.36-10.28,15.42,15.42,0,0,1,21.27,0,14.85,14.85,0,0,1,0,21,14.94,14.94,0,0,1-10.76,4.21,14.62,14.62,0,0,1-14.85-14.94Zm6.63.11a9.34,9.34,0,0,0,2.25,6.61,8.77,8.77,0,0,0,12.17,0,10.39,10.39,0,0,0,0-13,8.66,8.66,0,0,0-12.11,0A8.91,8.91,0,0,0,1173.17,642.52Z"></path><path class="ConciergeDecal-2" d="M1202.24,628.66h6.52v2.58a10.66,10.66,0,0,1,7.67-3.35,9.74,9.74,0,0,1,7.64,3.06q2.36,2.61,2.36,8.51v17.09h-6.52V641q0-4.12-1.15-5.7c-.75-1.07-2.11-1.61-4.09-1.61-2.16,0-3.68.71-4.59,2.12s-1.32,3.83-1.32,7.3v13.46h-6.52Z"></path><path class="ConciergeDecal-2" d="M441.12,294.7h41V260.14h14.34v88.35H482.09V307.23h-41v41.26H426.78V260.14h14.34Z"></path><path class="ConciergeDecal-2" d="M513.72,320.22A26.76,26.76,0,0,1,523,299.68a34.56,34.56,0,0,1,45.4.06,28.37,28.37,0,0,1-.06,41.94q-9.36,8.42-23,8.41t-22.58-8.58A27.84,27.84,0,0,1,513.72,320.22Zm14.15.23q0,8.35,4.79,13.22c3.29,3.28,7.61,4.92,13,4.92s9.74-1.62,13-4.86,4.86-7.58,4.86-13-1.62-9.75-4.86-13-7.61-4.92-13-4.92-9.58,1.64-12.86,4.92A17.18,17.18,0,0,0,527.87,320.45Z"></path><path class="ConciergeDecal-2" d="M592.28,292.76h13.84v5.15a28.64,28.64,0,0,1,6.83-5.27,17.69,17.69,0,0,1,7.57-1.43,18.74,18.74,0,0,1,16.06,8.24q6.51-8.24,17.65-8.24,20.25,0,20.24,22.83v34.45h-13.9v-31q0-8-2.09-11.33t-7.08-3.37q-5.71,0-8.33,4t-2.62,12.88v28.78h-13.9V317.7q0-14.86-9.23-14.87-5.85,0-8.52,4.06t-2.68,12.82v28.78H592.28Z"></path><path class="ConciergeDecal-2" d="M746.52,323.65H703.58a16.27,16.27,0,0,0,4.79,10.93,15.23,15.23,0,0,0,10.89,4,14.94,14.94,0,0,0,8.56-2.29q3.31-2.3,7.56-8.47l11.69,6.07a43.25,43.25,0,0,1-5.72,7.35,29.76,29.76,0,0,1-6.46,5,27,27,0,0,1-7.44,2.89,38.91,38.91,0,0,1-8.68.92q-13.41,0-21.53-8t-8.12-21.4q0-13.21,7.87-21.4t21-8.07q13.23,0,20.92,7.84t7.63,21.57Zm-14.21-10.52q-2.89-10.31-14-10.3a15.57,15.57,0,0,0-4.74.71,14.21,14.21,0,0,0-4,2.06,13.45,13.45,0,0,0-3.1,3.24,14.41,14.41,0,0,0-2,4.29Z"></path><path class="ConciergeDecal-3" d="M416.4,449.07c-.57-69.66,106.78-98.23,143.44-31.09C616.41,534.07,417.17,583.67,416.4,449.07Zm121.73,8.56c3.26-45.43-55.1-72.32-81.66-33-30.4,41.63,18.56,106,63.66,69.92C532.33,484.32,537.92,471,538.13,457.63Z"></path><path class="ConciergeDecal-4" d="M1352.18,467.21h-35.65v-24.3h65.19c1.06,17.56.18,35.32.32,52.94-33.69,62.09-140,33.91-140.24-39.43-4.23-68,94.7-104.82,134.87-50.16l-22.24,17.87c-47.47-56.12-114.09,28-63.75,70.41,17.57,14.9,48.53,13.91,61.39-6.05C1352.3,481.62,1352.18,474.73,1352.18,467.21Z"></path><path class="ConciergeDecal-5" d="M693.05,466.48V382.64h29.89v149L625,442.41v85H594.74V378.33l97.18,88.47Z"></path><path class="ConciergeDecal-6" d="M1108.09,382.33h59.58a64.18,64.18,0,0,1,24.9,4.65c37.25,15.19,33.44,63.19-1.26,79.08,10.53,20.14,21.12,40.4,32,61.25-9.8,1.09-19.21.07-29,.55-3.13.07-4.76-1-6.17-3.78-8.81-17.35-17.9-34.56-26.7-51.91-2.91-7.32-16.23-2.88-23.59-4.07v59.24h-29.8Zm29.82,61.2c12.89,0,24.65.23,37.24-.85a14.78,14.78,0,0,0,11.9-7.5c13.47-33.95-28.73-27.85-49.14-28.33Z"></path><path class="ConciergeDecal-7" d="M1062.13,466h-56.26v36.84h69.38v24.52H975.54V382.66h98.7v24.21h-68.4v34.54h56.29Z"></path><path class="ConciergeDecal-8" d="M1495.27,466H1439v36.84h69.38v24.52h-99.71V382.66h98.7v24.21H1439v34.54h56.29Z"></path><path class="ConciergeDecal-9" d="M397.48,406,375,423.83c-12.93-15.92-34.14-24.52-53.12-13.44-64.34,35.38-1.76,136.8,55.05,75l23.53,18.13C333.12,578.52,220.08,482,280,409.44,308.08,372.49,368.63,368.45,397.48,406Z"></path><path class="ConciergeDecal-10" d="M883.77,406l-22.48,17.85c-12.92-15.92-34.13-24.52-53.11-13.44-64.34,35.38-1.76,136.8,55.05,75l23.52,18.13c-67.35,75-180.38-21.52-120.51-94.11C794.37,372.49,854.92,368.45,883.77,406Z"></path><path class="ConciergeDecal-11" d="M914,382.53h30.19V527.39H914Z"></path></g></g></svg>