<svg xmlns="http://www.w3.org/2000/svg" xmlns:xlink="http://www.w3.org/1999/xlink" viewBox="0 0 863.5 863.5"><defs><style>.cls-1,.cls-2,.cls-3{stroke:#000;stroke-miterlimit:10;}.cls-1,.cls-2{stroke-width:8px;}.cls-1{fill:url(#radial-gradient);}.cls-2,.cls-3{fill:none;}.cls-3{stroke-width:6px;}</style><radialGradient id="radial-gradient" cx="431.75" cy="431.75" r="427.75" gradientUnits="userSpaceOnUse"><stop offset="0.31" stop-color="#fff"/><stop offset="1" stop-color="#8cc77d"/></radialGradient></defs><g id="Layer_2" data-name="Layer 2"><g id="Layer_1-2" data-name="Layer 1"><circle class="cls-1" cx="431.75" cy="431.75" r="427.75"/><circle class="cls-2" cx="431.75" cy="431.75" r="318.98"/><path d="M74,511.8c-1.79.38-15.18,3.46-16.29,3.77-1.76.52-2.36,1.36-1.8,4l.85,4c.07.34,0,.58-.33.65l-2,.43a.44.44,0,0,1-.55-.39c-.17-.82-.7-4.36-2.06-10.72-1.3-6.09-2-8.24-2.2-9.2a.47.47,0,0,1,.42-.59l1.87-.4a.49.49,0,0,1,.64.44l.69,3.22c.29,1.37,1.11,2.27,2.6,1.95.74-.16,17.28-3.48,18.17-3.67L79.73,504c.74-.16,17.94-4.05,18.76-4.22,2.31-.5,2.46-1.6,2-3.8l-.6-2.8a.48.48,0,0,1,.4-.66l1.94-.42c.3-.06.49.11.58.53.18.82.54,3.6,1.81,9.56,1.39,6.5,2.24,9.4,2.41,10.15.07.34,0,.58-.34.64l-2,.43c-.3.07-.49-.11-.56-.45l-.82-3.83c-.3-1.37-.83-2.76-2.83-2.62-1.15.1-17.31,3.34-21.26,4.19Z"/><path d="M96.64,456.29c.79-.09,1.7,0,1.81,1a3.47,3.47,0,0,1-.65,1.95c-.55.64-3.81,3.8-7.72,7.62l-9.46,9.29c-2.23,2.22-10.91,9.88-12.34,11.35l0,.16,12-1.44c5.26-.63,14-2,14.76-2.26,2-.48,2.85-1.48,2.75-2.29l-.2-1.68c-.05-.41.12-.43.47-.47l2.11-.25c.35,0,.52-.06.57.34.07.56.19,3.81.47,6.14.14,1.13.83,4.72.91,5.36,0,.16-.14.26-.58.31l-2.28.28c-.18,0-.27,0-.3-.29l-.23-1.85c-.09-.81-.86-2-2.9-2-1.07.05-7.31.63-17.22,1.82l-9.2,1.1c-3.16.38-4.41,2.57-4.14,4.82l.09.73c0,.32-.12.5-.47.54l-2.1.25a.47.47,0,0,1-.58-.41c0-.17,0-1.06-.17-2.11s-.1-2.35-.21-3.23c-.15-1.29-.53-3-.65-3.92-.13-1.13,0-1.63.47-2s11.93-11.06,13.92-13c1.66-1.67,11-10.38,12.05-11.48l0-.32-5.79.69c-5,.6-7.7,1-10.49,1.51-2.1.25-7.16,1.1-8.16,1.63A3,3,0,0,0,62,467.3l.16,1.37c0,.4-.1.59-.54.64l-2.11.25c-.26,0-.45-.11-.5-.51-.07-.56-.22-4.05-.53-6.63-.2-1.68-.8-4.47-.87-5-.05-.4.11-.59.63-.65l1.84-.22c.35,0,.64.09.67.41l.1.8c.24,2,.9,2.34,2.15,2.36,4.08-.09,9.58-.91,13.18-1.34Z"/><path d="M60.58,436.71c0,1.54-.06,7,.84,10a20.09,20.09,0,0,0,6.82,4.75c.35.16.62.4.44.72l-.61,1.46c-.17.41-.53.41-.88.33-1.94-.55-9.1-2.47-10.7-2.78-.61-.16-.88-.4-.88-.73a1,1,0,0,1,.26-.65l.53-.65a4.56,4.56,0,0,0,1-3.16c.17-2.84.33-5.91.31-10.61l0-3.24c0-3.24-.21-8.1-.41-11.42a5,5,0,0,0-.8-2.91l-.72-1a1.27,1.27,0,0,1-.26-.65c0-.32.26-.48,1.94-.74,1.23-.16,7.58-1.57,10-2,.36-.08.53.08.71.41l.45,1.37c.18.49.09.73-.35.89-2.2,1-5.11,2.38-6.78,4.08-.78,2-.84,8.84-.83,10.3l14.83-.07c9.27-.05,15.89-.08,16.6-.16,1.41-.17,2.29-.58,2.28-1.88V425.3c0-.41.26-.57.79-.57h1.85a.51.51,0,0,1,.54.56c0,.57-.24,5.59-.23,8.26,0,2.27.3,7.53.3,8.18,0,.49-.26.65-.79.65H95c-.44,0-.62-.16-.62-.48l0-3.24a1.67,1.67,0,0,0-1.42-1.86c-3.36-.22-8-.2-13.33-.18Z"/><path d="M76.57,400.2c.05-.49.25-5.27.14-5.93-.41-2.16-1.56-3.09-4.28-3.35-.35,0-.43-.13-.4-.45l.26-1.76c0-.33.23-.55.58-.44.77.24,5.43.7,6.22.78,1.93.19,4.68.21,5.83.25.35,0,.42.2.4.44v1.71c0,.24,0,.4-.4.45-2.24.19-3.69.53-4.42,2.58a26.19,26.19,0,0,0-1.21,6l3,.3c3.08.3,8.19.64,9.33.75,4.13.41,4.63-1.91,5-5.37s.48-5.81-1.62-8.79a47.12,47.12,0,0,0-5.47-4.85c-.57-.46-.62-.87-.42-1.1l.92-1.21a.54.54,0,0,1,.63-.18l9,3.81c.42.21.82.66.79,1s-.23,1.44-.64,4.74-.93,8.53-1.76,17c-.07.72-.13,2.18-.27,3.63s-.1,2.76-.14,3.25-.31.45-.67.42l-2-.2c-.35,0-.51-.21-.47-.62l.07-.72c.38-3.79,0-4.07-1.18-4.19l-18.72-1.84c-4.65-.45-10.37-.94-11.26-.94-1.87.06-2.27.51-2.58,3.73l-.08.81c0,.24-.21.3-.65.26L58,409.92a.39.39,0,0,1-.4-.44c.12-1.21.82-5.62.94-6.83l1.69-18.06c.08-.81,0-1.88,0-2.2,0-.16.21-.3,1.28-.36.8-.08,8.58-1.6,9.21-1.7.36-.05.54,0,.61.14l.49,1.35c.07.17,0,.49-.43.69-.28.14-5.58,3.52-7.12,4.76a4.61,4.61,0,0,0-1.62,2.93l-1,8.53Z"/><path d="M68,370.48c-1.75-.27-2.84.26-3.29,2.48l-.15.79c0,.24-.33.27-.67.2l-2.08-.41a.43.43,0,0,1-.34-.57c.08-.39,1.32-5.27,1.6-6.7.19-.95,1.31-7.91,1.52-8.95,1-4.76,3.13-8,5.43-9.65a10,10,0,0,1,6.88-1.52c6,1.19,8.82,5,10,11.74l.18,0c.79-1.74,3.79-2.79,9.47-5.05a26.75,26.75,0,0,0,6.42-3.34,5.27,5.27,0,0,0,1.67-3.39c.06-.31.34-.34.86-.24l1.73.35c.34.07.57.28.51.59s-.25.78-.49,1.56-.42,1.65-.58,2.44c-.36,1.83-.65,3.75-.84,5.12-1.51,1.27-9.22,3.37-10.66,3.82-5.94,1.79-8.08,2.61-8.75,5.94a7.63,7.63,0,0,0-.24,2.1l11.43,2.28c1.25.08,2.3-.2,2.61-1.79l.41-2.07a.43.43,0,0,1,.53-.39l2.08.42c.43.08.58.28.48.75s-1.23,4.8-1.75,7.42c-.39,2-.94,6.09-1,6.64-.06.32-.36.43-.79.34l-2-.4a.42.42,0,0,1-.34-.56l.19-.95c.38-1.91.23-2.93-1.68-3.31-4.23-.93-9.35-1.86-14.62-3Zm15.23-3.24a16.05,16.05,0,0,0,.65-2.35c1.75-8.82-4.73-11.52-7-12a7.82,7.82,0,0,0-6.5,1.43,12.65,12.65,0,0,0-3.75,7.1c-.24,1.19-.13,2.45,1.43,2.76Z"/><path d="M117.4,312.84c.76.25,1.52.75,1.22,1.67a3.39,3.39,0,0,1-1.41,1.5c-.77.35-5.06,1.85-10.2,3.68l-12.49,4.45c-3,1.09-14,4.39-16,5.13l0,.15L90,333.16c5,1.63,13.54,4,14.34,4.14,2,.4,3.21-.15,3.46-.92l.52-1.62c.13-.38.3-.33.63-.22l2,.66c.33.11.5.16.38.54-.18.54-1.43,3.54-2.16,5.78-.35,1.08-1.22,4.63-1.42,5.24,0,.16-.24.18-.66,0l-2.19-.71c-.16,0-.22-.16-.15-.39l.58-1.77c.25-.77.06-2.19-1.8-3.05-1-.41-6.89-2.5-16.38-5.58l-8.82-2.86c-3-1-5.07.48-5.77,2.64l-.23.69c-.1.31-.31.41-.65.3l-2-.65a.5.5,0,0,1-.35-.63c0-.15.41-1,.73-2s.9-2.18,1.17-3c.4-1.24.76-2.91,1.06-3.83.35-1.08.67-1.49,1.27-1.63.41-.13,15.46-5,18.09-6,2.21-.81,14.36-4.79,15.75-5.36l.1-.3L102,310.9c-4.78-1.56-7.41-2.33-10.15-3-2-.66-7-2-8.09-1.95a3,3,0,0,0-2.44,2.36l-.42,1.31c-.13.38-.35.48-.77.35l-2-.66c-.25-.08-.37-.29-.25-.68s1.51-3.77,2.31-6.23c.52-1.62,1.14-4.4,1.32-4.93s.34-.49.85-.33l1.76.58c.34.11.54.34.44.65l-.25.77c-.63,1.93-.16,2.5,1,3,3.74,1.64,9.08,3.2,12.52,4.32Z"/><path d="M109.81,294.41l7.25,6.86c1.4,1.18,2.55,1.43,3.25-.12l.84-1.84c.21-.44.48-.4.8-.26l1.77.81c.32.14.53.33.36.7-.27.59-2.29,4.38-2.83,5.56-.64,1.4-2.08,5.2-2.38,5.86-.13.29-.53.11-.86,0l-1.68-.77c-.32-.15-.49-.22-.35-.52l.47-1a4.22,4.22,0,0,0-.31-3.79c-.41-.81-8.33-9-11.54-12.56-.89-1-9.84-10.36-11-11.43-.42-.36-1.1-1.21-1.57-.8a1.22,1.22,0,0,1-.94-.07c-.2,0-.37-.26-.23-1a11.62,11.62,0,0,0-.45-5.19,1,1,0,0,1-.16-1.14c.21-.44.59-.44,1.22-.33,3.69.43,16.89,1.91,20.54,2.42,4.52.72,15.44,1.88,16.48,1.73a4.68,4.68,0,0,0,3.75-2.48l.64-1.4c.13-.29.41-.26.65-.15l1.69.77c.24.11.69.4.49.85-.41.88-2.43,4.68-3.2,6.37-.64,1.4-2.38,5.86-2.82,6.82-.23.51-.67.41-1,.26l-1.69-.77c-.24-.11-.45-.29-.31-.59l.54-1.18a1.32,1.32,0,0,0-.83-1.8c-1.74-.44-9.08-1.38-11.19-1.63Zm2.5-12.3-15.6-2.4c-.55-.07-.9-.14-1,.08s.08.48.62,1,10.78,10.61,11.42,11.35Z"/><path d="M109,248.22c-.77,1.33-3.58,6-4.32,9a20.22,20.22,0,0,0,3.47,7.54c.23.32.34.67,0,.86l-1.27.95c-.35.26-.66.08-.92-.17-1.4-1.46-6.6-6.74-7.81-7.82-.46-.45-.56-.79-.4-1.07a1,1,0,0,1,.55-.43l.79-.29a4.65,4.65,0,0,0,2.43-2.25c1.57-2.36,3.27-4.93,5.64-9l1.63-2.8c1.62-2.8,3.92-7.09,5.43-10.05a5,5,0,0,0,.78-2.92l-.12-1.2a1.23,1.23,0,0,1,.1-.69c.16-.28.47-.29,2,.34,1.15.48,7.34,2.49,9.6,3.34.35.11.42.33.41.7l-.31,1.42c-.09.51-.29.67-.75.59-2.4-.27-5.61-.55-7.92.08-1.7,1.35-5.2,7.19-5.93,8.45L125,250.29c8,4.66,13.74,8,14.39,8.27,1.3.57,2.27.67,2.92-.45l1.55-2.66c.2-.35.51-.36,1-.1l1.6.94a.51.51,0,0,1,.18.75c-.29.49-3,4.7-4.39,7-1.14,2-3.55,6.65-3.88,7.21s-.55.43-1,.16l-1.53-.89c-.38-.22-.45-.45-.29-.73l1.63-2.8a1.67,1.67,0,0,0-.28-2.32c-2.78-1.9-6.83-4.25-11.41-6.91Z"/><path d="M144.59,226.83c.43.3,8.74,6.13,9.87,6.83,1.76,1,3.33.94,4.68-1l.7-1c.23-.34.42-.3.64-.15l1.73,1.22c.29.2.46.42.23.75-.37.53-3,3.83-5.1,6.81-1.58,2.26-4.07,6.26-4.35,6.65s-.49.25-.85,0l-1.59-1.12a.49.49,0,0,1-.16-.7l1-1.46c1.16-1.66,1.83-2.77.62-3.82-.6-.52-9.73-7-12.19-8.75l-3.18-2.23c-1.16-.81-8.48-5.75-9.49-6.46-.8-.56-1.94-.47-3.89,2.32l-.84,1.19c-.23.33-.5.25-.78.05L120,224.82a.44.44,0,0,1-.15-.7c.28-.4,3.45-4.31,5.57-7.48,1.35-1.92,3.5-5.45,3.87-6a.42.42,0,0,1,.64-.15l1.74,1.22c.29.2.46.42.23.75l-.8,1.13c-1.25,1.79-1.38,2.59.09,3.72l9.78,7Z"/><path d="M164.25,225.78c-3.54,1-11,.25-17.38-5A22.13,22.13,0,0,1,139,208.4c-1.77-7.68.55-12.28,4-16.39a16.62,16.62,0,0,1,11.36-6.37c4.8-.54,11,.58,17.1,5.66a22.06,22.06,0,0,1,7.38,10.32c1.71,5.42,1.29,11.17-4,17.6A21,21,0,0,1,164.25,225.78Zm2.83-29c-8.9-7.38-18.87-6.28-21.92-2.6-.47.56-3.32,2.61-2.56,8.19.57,4.58,4,9.24,7.51,12.12,10.81,9,20.15,5.44,22.63,2.45C179.82,208.38,170.75,199.81,167.08,196.77Z"/><path d="M210.72,178.69c.55.57,1,1.38.29,2.05a3.52,3.52,0,0,1-2,.66c-.83-.06-5.33-.76-10.72-1.58l-13.12-2c-3.11-.44-14.45-2.77-16.48-3l-.12.11,8.38,8.72c3.67,3.82,10,10,10.69,10.42,1.58,1.3,2.9,1.38,3.48.82l1.23-1.18c.29-.28.41-.15.65.1l1.47,1.53c.25.25.37.38.08.66s-2.93,2.45-4.62,4.08c-.82.78-3.27,3.5-3.73,3.95-.12.11-.3,0-.61-.28L184,202.13c-.12-.13-.12-.25.05-.42l1.35-1.29c.58-.56,1.09-1.91-.14-3.54-.68-.82-4.91-5.45-11.82-12.64l-6.42-6.69c-2.2-2.29-4.7-2-6.34-.4l-.53.51a.44.44,0,0,1-.71,0L158,176.08a.49.49,0,0,1,0-.71c.12-.12.82-.67,1.58-1.4s1.82-1.5,2.46-2.12c.93-.89,2-2.2,2.74-2.87s1.29-1,1.89-.84c.42.08,16,2.86,18.76,3.27,2.34.33,14.92,2.56,16.42,2.71l.23-.22-4-4.2c-3.49-3.63-5.44-5.55-7.52-7.47-1.47-1.53-5.19-5-6.22-5.54a3,3,0,0,0-3.26.93l-1,1c-.29.28-.53.26-.84-.06L177.74,157c-.18-.2-.19-.43.11-.71s3.1-2.62,5-4.41c1.23-1.18,3.09-3.34,3.49-3.73s.54-.27.9.11l1.29,1.34c.24.26.31.56.07.78l-.58.56c-1.46,1.41-1.32,2.13-.58,3.14,2.52,3.21,6.49,7.1,9,9.71Z"/><path d="M212.71,158.84l3.17,9.47c.68,1.7,1.57,2.46,2.93,1.43l1.6-1.23c.39-.3.62-.14.83.14l1.18,1.55c.21.28.31.54,0,.78-.52.4-4.09,2.79-5.11,3.58-1.23.94-4.28,3.61-4.86,4.05-.26.2-.53-.15-.74-.43l-1.13-1.47c-.21-.28-.32-.43-.06-.62l.9-.69a4.26,4.26,0,0,0,1.51-3.49c0-.91-3.14-11.83-4.28-16.52-.3-1.33-3.8-13.77-4.32-15.26-.2-.52-.4-1.58-1-1.45-.24,0-.7-.24-.8-.5-.17-.09-.2-.4.27-1a11.61,11.61,0,0,0,2.05-4.79,1,1,0,0,1,.39-1.08c.39-.29.73-.11,1.24.28,3,2.12,14,9.63,17,11.8,3.65,2.77,12.74,8.93,13.73,9.28a4.64,4.64,0,0,0,4.47-.42l1.23-.93c.25-.2.48,0,.64.17l1.13,1.47c.16.22.41.69,0,1-.77.59-4.34,3-5.82,4.12-1.23.94-4.86,4.05-5.7,4.69-.45.35-.78,0-1-.24L231,161.05c-.16-.21-.26-.47,0-.67l1-.78a1.33,1.33,0,0,0,.12-2c-1.34-1.21-7.36-5.49-9.11-6.71Zm8-9.68-12.64-9.45c-.45-.33-.73-.56-.92-.41s-.16.46.07,1.17,4.52,14.44,4.74,15.38Z"/><path d="M236.34,129.55c-1.89-3.08-4.78-7.63-5.17-8.12-.92-1.19-1.4-1.52-3.89,0l-1,.64c-.27.17-.48,0-.66-.32l-1.11-1.8a.41.41,0,0,1,.11-.59c.49-.3,4.15-2.23,6.7-3.8,2.28-1.39,6.15-4.07,6.63-4.37.28-.17.44-.06.62.24l1.11,1.81a.49.49,0,0,1-.14.71l-1,.63c-2.56,1.57-2.49,2.14-1.75,3.35.37.6,4.29,7.31,6.37,10.7l2.53,4.14c.51.83,6.51,10.61,7.71,12.26.83-.51,8.61-5.17,10.19-6.45.88-1.06,1.17-8.17,1.05-10.69,0-.43.07-.66.4-.76l1.42-.15c.19,0,.37.29.53.71l3.58,10.65c-1.22.64-16.73,10-18.74,11.27-1.1.68-2.5,1.64-3.82,2.45s-2.25,1.59-2.6,1.8-.5.1-.83-.42l-1-1.59c-.23-.37-.07-.57.21-.74l2.14-1.32c1.24-.76,1.45-1.82,1.1-2.54-.73-1.2-7.24-12.13-9-15Z"/><path d="M288.29,105.93c.07,2,.85,14.22,1.13,15.84.14.52.29,1.28.44,1.63.4,1,1.4,1.24,2.83.66l3.05-1.23c.46-.19.71-.12.85.23l.66,1.63c.2.49.06.71-.26.84-.91.37-3.66,1.24-7.48,2.79-4.74,1.92-6.08,2.71-7,3.08-.32.13-.51,0-.68-.38l-.69-1.7a.52.52,0,0,1,.32-.71l2.27-.92c1.95-.79,2.45-2.14,2.44-4.77,0-1.32-.57-16.32-1-22.88-.12-1.6-1-18.93-1.22-21.08a3.34,3.34,0,0,0-.91-2.43c-.31-.2-.71-.45-.82-.73a.75.75,0,0,1,.32-.88,13.88,13.88,0,0,0,4-5.71c.19-.49.27-.85.59-1s.69.21,1.2.91c3,4,14.52,17.74,17.58,21.77,3.73,4.91,13.28,16.35,15,18,2.05,1.88,4.08,2,5.7,1.39l2.14-.87a.49.49,0,0,1,.72.29l.72,1.77c.14.35,0,.57-.45.75-1.17.48-2.62.82-7.87,3s-7.57,3.31-9.06,3.92c-.33.13-.61,0-.78-.43l-.66-1.63c-.17-.42,0-.57.38-.73l1.62-.66c1.82-.73,2.12-1.68.86-3.47-1.55-2.34-7.88-10.31-9.93-12.77Zm14.15-8.7C301,95.35,288.58,79.8,287.82,78.87c-.39-.42-.72-.86-.92-.78s-.32.7-.28,1.35c.05,1,1.22,21.65,1.48,23.6Z"/><path d="M332.78,109.85c-.66-.27-1.15-.23-1.12.5l0,.74c0,.47-.38.75-1.05.76a.85.85,0,0,1-.89-.76c-.43-2.45-1.8-9.4-2.1-10.79,0-.36.07-.66.38-.74l1.45-.23c.33,0,.69.08.79.42a12,12,0,0,0,3,5.39,7.58,7.58,0,0,0,7.82,2.39c2.5-.7,5.64-3.88,4.62-7.53-1.37-4.85-5-6.12-9.62-6.66-1.72-.16-5.89-.64-8.88-2.27-2.32-1.37-4-3.83-5.19-8A10.72,10.72,0,0,1,323.33,75a11.14,11.14,0,0,1,6.61-4.61,11.69,11.69,0,0,1,5.85-.44c.92.29,1.34.26,1.37-.21l.15-.68c.08-.3.32-.36.94-.54s.8.14.92.57c.79,2.8,3,8.13,3.45,9.3a.49.49,0,0,1-.17.6l-1.3.73c-.21.15-.42,0-.57-.21-.75-.88-2.21-3.68-4.42-5.26a6.58,6.58,0,0,0-5.8-.86,5.57,5.57,0,0,0-4.08,6.74,7.67,7.67,0,0,0,2.42,3.82c1.63,1.29,4.79,1.77,6.44,2,4,.44,7.14.57,9.71,2.23,2.06,1.35,3.6,3.21,4.79,7.46,1.79,6.37-.42,12.87-7.52,14.86A13.22,13.22,0,0,1,332.78,109.85Z"/><path d="M357.68,103.24c-.64-.32-1.13-.31-1.15.41l-.1.74c-.07.47-.44.72-1.11.67-.51-.08-.82-.38-.82-.82-.25-2.48-1.07-9.51-1.27-10.92,0-.36.12-.65.44-.71l1.46-.12c.34,0,.69.14.76.48a11.9,11.9,0,0,0,2.6,5.61,7.58,7.58,0,0,0,7.62,3c2.54-.51,5.92-3.43,5.18-7.15-1-4.94-4.52-6.49-9.07-7.38-1.71-.29-5.84-1.09-8.68-3-2.21-1.54-3.72-4.12-4.56-8.36a10.66,10.66,0,0,1,2-8,11.14,11.14,0,0,1,6.95-4.09,11.77,11.77,0,0,1,5.87,0c.9.37,1.31.37,1.38-.09l.2-.67c.11-.29.35-.34,1-.47s.78.21.87.64c.57,2.86,2.41,8.34,2.73,9.54a.47.47,0,0,1-.22.58l-1.36.63c-.22.14-.41,0-.54-.25-.69-.94-1.93-3.84-4-5.59a6.53,6.53,0,0,0-5.71-1.29,5.55,5.55,0,0,0-4.58,6.4,7.59,7.59,0,0,0,2.11,4c1.52,1.41,4.64,2.14,6.27,2.44,3.95.75,7.08,1.11,9.51,3,1.95,1.5,3.34,3.48,4.2,7.81,1.29,6.49-1.41,12.79-8.64,14.23A13.22,13.22,0,0,1,357.68,103.24Z"/><path d="M385,97.36c-3.2-1.8-8-7.52-8.86-15.77a22.06,22.06,0,0,1,3-14.33c4.11-6.73,9-8.38,14.31-8.93a16.61,16.61,0,0,1,12.56,3.42c3.81,3,7.43,8.11,8.24,16a22.08,22.08,0,0,1-2,12.54c-2.58,5.06-6.91,8.88-15.21,9.73A21,21,0,0,1,385,97.36Zm22.35-18.71c-1.18-11.51-9.06-17.71-13.82-17.22-.72.07-4.2-.46-7.56,4.06-2.8,3.66-3.6,9.42-3.14,13.9,1.43,14,10.56,18,14.43,17.6C408.34,95.86,407.88,83.39,407.39,78.65Z"/><path d="M421.9,93.05c-3.9-4-5.58-10.51-5.49-16.16A23.14,23.14,0,0,1,422.08,62a17.1,17.1,0,0,1,13.06-5.53,19.48,19.48,0,0,1,9.92,2.72c.72.45,1.29.46,1.37,0l.26-1c.09-.27.33-.44,1.06-.43,1,.11,1.22.2,1.2,1,0,1,.66,9.29.71,11.4.07.45,0,.89-.26.88l-1.95.32c-.32.09-.4-.18-.55-.71a16.27,16.27,0,0,0-3.46-6.94A12.32,12.32,0,0,0,435,59.44c-7.86-.13-11.89,8.46-11.92,15.52A23.76,23.76,0,0,0,428,89.7a10.2,10.2,0,0,0,8.44,4.2c5.83.09,10.33-2.75,12.34-6.42.33-.62.58-.7.82-.52l1.36,1c.32.18.15.62-.1,1.15a17.42,17.42,0,0,1-15.95,9.19C428.3,98.18,424.53,95.82,421.9,93.05Z"/><path d="M463.69,80.42c0,.53-.86,10.65-.89,12,0,2,.87,3.34,3.21,3.53l1.21.1c.41,0,.47.22.45.48l-.17,2.11c0,.35-.13.61-.53.58-.65,0-4.83-.66-8.46-1-2.75-.22-7.45-.34-7.93-.38-.33,0-.47-.3-.43-.74l.16-1.94a.49.49,0,0,1,.52-.49l1.78.15c2,.16,3.32.18,3.61-1.39.14-.79,1.13-12,1.37-14.95l.31-3.87c.12-1.41.67-10.22.77-11.45.08-1-.58-1.91-4-2.18l-1.45-.12c-.41,0-.47-.31-.44-.66l.17-2c0-.35.2-.52.52-.49.49,0,5.47.8,9.27,1,2.34.19,6.48.25,7.12.31.33,0,.47.21.45.47l-.17,2.12c0,.35-.13.61-.53.57l-1.38-.11c-2.18-.17-2.93.12-3.16,2-.07.88-1,11.35-1.05,12Z"/><path d="M482.12,85.42l-4.77,8.78c-.77,1.66-.72,2.83,1,3.11l2,.34c.48.08.52.36.46.7l-.32,1.92c-.06.35-.19.6-.59.53-.63-.11-4.82-1.09-6.1-1.3-1.52-.26-5.56-.67-6.28-.79-.32-.06-.24-.49-.18-.84L467.6,96c0-.35.08-.52.4-.47l1.12.19a4.21,4.21,0,0,0,3.58-1.27c.68-.6,6.52-10.36,9.17-14.39.76-1.13,7.47-12.17,8.2-13.57.25-.49.89-1.37.38-1.73a1.2,1.2,0,0,1-.18-.92c0-.19.16-.42.91-.47a11.72,11.72,0,0,0,4.89-1.77,1,1,0,0,1,1.07-.45c.47.08.58.45.63,1.09.53,3.67,2.5,16.81,3,20.47.46,4.55,2.16,15.4,2.57,16.37a4.67,4.67,0,0,0,3.36,3l1.52.26c.31,0,.35.33.31.59l-.31,1.83c-.05.26-.21.77-.69.69-1-.17-5.15-1.14-7-1.45-1.51-.26-6.27-.79-7.31-1-.56-.09-.56-.54-.51-.89l.31-1.83c.05-.26.17-.51.49-.45l1.28.21a1.32,1.32,0,0,0,1.53-1.26c0-1.8-1-9.13-1.31-11.24Zm12.53-.75L492.94,69c-.07-.55-.09-.91-.33-1s-.44.2-.8.85-7.48,13.16-8,14Z"/><path d="M526.59,72.77c-1.48-.4-6.7-1.92-9.82-1.86a20.44,20.44,0,0,0-6.4,5.3c-.25.3-.56.49-.82.24l-1.25-1c-.34-.28-.25-.62-.07-.94,1-1.73,4.81-8.11,5.55-9.56.31-.55.62-.75.93-.66a1,1,0,0,1,.56.43l.48.68a4.62,4.62,0,0,0,2.79,1.77c2.69.92,5.62,1.9,10.15,3.13l3.12.86c3.13.85,7.86,2,11.11,2.67a5.11,5.11,0,0,0,3,0l1.12-.43a1.29,1.29,0,0,1,.69-.08c.32.09.4.38.2,2.07-.17,1.23-.52,7.73-.76,10.13,0,.37-.22.49-.57.58l-1.45.06c-.51,0-.73-.11-.77-.58-.35-2.38-.91-5.55-2.11-7.62-1.75-1.3-8.29-3.18-9.69-3.56L528.7,88.73c-2.44,8.94-4.19,15.33-4.3,16-.21,1.41-.06,2.36,1.19,2.71l3,.81c.39.1.48.4.34.91l-.49,1.79a.5.5,0,0,1-.68.36c-.55-.15-5.33-1.73-7.9-2.43-2.19-.6-7.34-1.73-8-1.9-.47-.13-.55-.43-.41-.94l.46-1.7c.12-.43.32-.55.64-.47l3.12.85a1.67,1.67,0,0,0,2.17-.87c1.12-3.17,2.35-7.68,3.75-12.79Z"/><path d="M556.4,101.66c-.18.49-3.68,10-4.06,11.29-.55,2-.07,3.46,2.14,4.27l1.14.42c.38.14.39.34.3.58l-.73,2c-.12.33-.29.56-.67.42-.61-.23-4.47-1.93-7.89-3.19-2.58-1-7.08-2.32-7.54-2.49-.3-.11-.37-.42-.21-.83l.67-1.82a.49.49,0,0,1,.64-.33l1.67.61c1.9.7,3.15,1.07,3.85-.37.35-.72,4.29-11.21,5.33-14l1.34-3.65c.49-1.32,3.38-9.67,3.81-10.83.33-.91-.05-2-3.24-3.16L551.58,80c-.38-.14-.36-.41-.24-.74l.7-1.91a.45.45,0,0,1,.64-.33c.46.17,5.05,2.23,8.65,3.46,2.21.81,6.17,2,6.78,2.21a.43.43,0,0,1,.31.59l-.74,2c-.12.33-.29.55-.67.41l-1.29-.48c-2.05-.75-2.86-.67-3.57,1-.31.83-4,10.66-4.22,11.24Z"/><path d="M562.43,120.38c-1.83-3.18-3.06-10.56.43-18.09a22.15,22.15,0,0,1,9.9-10.79c7-3.68,12-2.61,16.86-.37a16.65,16.65,0,0,1,9.06,9.35c1.76,4.51,2.25,10.77-1.09,18a22.1,22.1,0,0,1-8.09,9.78c-4.8,3-10.47,4.1-18,.6A21,21,0,0,1,562.43,120.38Zm28.77-4.68c4.86-10.5,1.24-19.86-3.1-21.86-.66-.31-3.37-2.54-8.57-.37-4.28,1.71-7.9,6.26-9.79,10.35-5.9,12.74-.11,20.87,3.42,22.5C583.23,131,589.2,120,591.2,115.7Z"/><path d="M619.83,153.29c-.41.68-1.08,1.31-1.91.8a3.52,3.52,0,0,1-1.13-1.72c-.16-.82-.63-5.35-1.21-10.77l-1.45-13.19c-.37-3.12-1-14.67-1.29-16.71l-.14-.08L606.41,122c-2.76,4.52-7.08,12.23-7.36,13-.85,1.86-.59,3.15.1,3.57l1.45.89c.35.21.26.36.07.66l-1.1,1.81c-.18.3-.28.45-.62.24-.49-.29-3.11-2.21-5.12-3.43-1-.59-4.22-2.26-4.77-2.6-.14-.08-.12-.27.11-.65l1.2-2c.09-.15.21-.19.41-.06l1.59,1c.7.42,2.12.57,3.39-1,.62-.86,4-6.13,9.21-14.65l4.83-7.91c1.65-2.71.71-5-1.23-6.23l-.62-.38a.44.44,0,0,1-.14-.7l1.1-1.81a.49.49,0,0,1,.69-.2c.14.08.86.62,1.75,1.17s1.92,1.37,2.68,1.83c1.1.68,2.65,1.41,3.48,1.92s1.29,1,1.29,1.62c0,.42,1.31,16.2,1.62,19,.28,2.34,1.33,15.08,1.56,16.57l.28.17,3-5c2.62-4.29,4-6.67,5.31-9.17,1.1-1.81,3.56-6.31,3.77-7.42a3,3,0,0,0-1.74-2.92l-1.17-.71c-.35-.22-.39-.45-.16-.83l1.1-1.81c.14-.22.37-.29.71-.08s3.32,2.33,5.54,3.68c1.45.89,4,2.14,4.49,2.44s.39.44.12.89l-1,1.59c-.18.3-.46.44-.73.27l-.7-.42c-1.72-1-2.39-.74-3.17.23-2.46,3.26-5.22,8.09-7.1,11.18Z"/><path d="M644,169.24c-.87-3.57,0-11,5.45-17.26a22.11,22.11,0,0,1,12.51-7.6c7.72-1.6,12.27.83,16.3,4.34a16.66,16.66,0,0,1,6.1,11.5c.43,4.82-.84,11-6.06,17a22.11,22.11,0,0,1-10.49,7.13c-5.46,1.58-11.2,1-17.5-4.45A20.93,20.93,0,0,1,644,169.24ZM673,172.75c7.59-8.73,6.73-18.72,3.12-21.86-.55-.47-2.54-3.37-8.13-2.74-4.59.46-9.34,3.82-12.29,7.22-9.21,10.59-5.92,20-3,22.56C661.05,185.21,669.83,176.35,673,172.75Z"/><path d="M676.35,196.69c-1.09,1-.67,1.86.23,2.8l1.33,1.41c.17.18.15.42-.1.66l-1.41,1.34c-.26.24-.57.42-.79.19s-3-3.59-5.27-6c-1.73-1.82-4.71-4.58-4.93-4.81s-.14-.54.18-.84l1.41-1.34a.5.5,0,0,1,.72,0l1.56,1.65c1,1,1.79.87,2.36.44.76-.61,5.3-4.8,12.29-11.42l2.88-2.73c1.73-1.64,6.22-5.89,6.68-6.44.53-.72,1.35-2.17.29-3.28l-2.18-2.3c-.22-.23-.08-.47.17-.72l1.41-1.33c.26-.25.56-.31.79-.07s4,4.65,5.21,5.88c.61.65,13.59,14.35,14.4,14.82-1.18,1.45-5.64,7.79-6.36,8.81-.21.3-.4.49-.57.43l-1.34-.52c-.24,0-.28-.29-.06-.83a47,47,0,0,0,1.9-6.72,4.61,4.61,0,0,0-.71-3.57c-.69-1.24-6-7-6.69-7.71L687.63,186c.5.53,3.93,3.76,4.44,4.17,1.31.88,3.46.19,5.09-.92.5-.36.69-.42.91-.19l1,1.3c.17.18.16.29-.09.54-.7.55-4.1,3.76-4.74,4.37-1.41,1.34-3.28,3.34-3.93,4.06-.26.25-.5.25-.66.07l-1.19-1a.49.49,0,0,1,0-.72c1.11-1.27,2-3,.93-4.79a27.13,27.13,0,0,0-3.84-5Z"/><path d="M705.2,228.38c1.47-7.08,7.43-14.08,13.49-18.19a30.55,30.55,0,0,1,20.75-5.43,23.43,23.43,0,0,1,16.19,10.17A27.28,27.28,0,0,1,760.09,229c0,1.09.26,1.34.78,1.16l2.15-.78c.46-.14.54,0,.89.5s.31.72-.58,1.32c-1.2.81-9.7,8.26-11.27,9.75-.28.27-.57.39-.79.2l-.84-.7c-.26-.25-.28-.41.11-.92a30.37,30.37,0,0,0,4.77-9.83c1.07-4.28,1.13-8.8-2-13.38-7-10.37-19.9-7.74-29.08-1.43-3.66,2.48-10.1,8.36-12.47,16.56-2.13,7.19-.39,10.84,2.24,14.72A20.92,20.92,0,0,0,731.75,255c.43,0,.57,0,.5.34l-.12,1.18c0,.26-.06.46-.49.5-7.85.24-16.78-1.91-22.31-10.08C704.69,240.14,704.09,234.21,705.2,228.38Z"/><path d="M746.14,263.42c.23.43,2.68,4.54,3.13,5,1.53,1.58,3,1.73,5.42.46.32-.16.43-.13.58.15l.75,1.62c.15.29.11.59-.24.68-.78.22-4.93,2.39-5.63,2.76-1.72.9-4,2.38-5,3-.31.16-.46.06-.58-.16l-.94-1.42c-.11-.22-.19-.36.09-.6,1.77-1.38,2.79-2.46,2.29-4.57a26.66,26.66,0,0,0-2.27-5.67l-2.66,1.39c-2.74,1.43-7.2,3.94-8.22,4.48-3.68,1.92-2.82,4.12-1.21,7.21s2.78,5.13,6.17,6.46A46.41,46.41,0,0,0,745,285.3c.74.07,1,.39,1,.68l-.1,1.52a.58.58,0,0,1-.44.5l-9.64,1.75a1.27,1.27,0,0,1-1.2-.38c-.11-.21-.6-1.33-2.06-4.31s-3.9-7.65-7.84-15.19c-.34-.64-1.09-1.9-1.77-3.19s-1.43-2.36-1.65-2.79,0-.55.32-.71l1.8-.94c.31-.17.54-.11.73.25l.34.65c1.76,3.37,2.19,3.42,3.28,2.85l16.67-8.71c4.14-2.17,9.19-4.9,9.94-5.38,1.53-1.08,1.61-1.67.11-4.54l-.37-.72c-.12-.22,0-.37.39-.57l1.88-1a.4.4,0,0,1,.58.16c.56,1.08,2.39,5.15,3,6.22l8.48,16c.38.72,1,1.57,1.17,1.86.08.14,0,.36-.87,1-.63.51-6.3,6-6.78,6.47-.27.23-.43.32-.58.21l-1.15-.86c-.15-.1-.3-.39,0-.81.16-.26,2.73-6,3.35-7.88a4.64,4.64,0,0,0-.25-3.34l-3.83-7.69Z"/><path d="M769.59,283.61c1.6-.74,2.23-1.78,1.39-3.88l-.31-.75c-.09-.23.13-.4.46-.53l2-.79a.42.42,0,0,1,.59.28c.15.38,1.78,5.14,2.33,6.49.36.9,3.24,7.34,3.63,8.31,1.82,4.51,1.79,8.45.74,11.06a9.93,9.93,0,0,1-4.92,5c-5.65,2.28-10.1.67-14.79-4.34l-.16.06c.29,1.9-1.65,4.42-5.16,9.41a27.18,27.18,0,0,0-3.54,6.32,5.18,5.18,0,0,0,.46,3.74c.12.3-.1.48-.59.68l-1.64.66c-.32.13-.63.08-.75-.22-.06-.15-.22-.79-.44-1.57s-.56-1.61-.86-2.36c-.69-1.73-1.5-3.5-2.1-4.75.57-1.89,5.87-7.86,6.83-9,4-4.75,5.34-6.61,4.07-9.76a8.09,8.09,0,0,0-.95-1.89L745,300.13c-1.09.62-1.81,1.43-1.2,2.93l.78,2a.42.42,0,0,1-.23.61l-2,.79c-.41.17-.64.08-.82-.37s-1.6-4.68-2.59-7.16c-.76-1.88-2.55-5.61-2.76-6.14-.12-.3.06-.55.47-.71l1.88-.76a.44.44,0,0,1,.6.29l.36.9c.73,1.8,1.42,2.57,3.22,1.85,4-1.55,8.84-3.57,13.87-5.5Zm-11,11.05a16.13,16.13,0,0,0,.74,2.32c3.36,8.34,10.26,7,12.39,6.19a7.79,7.79,0,0,0,4.66-4.76,12.67,12.67,0,0,0-.75-8c-.45-1.13-1.23-2.12-2.71-1.53Z"/><path d="M788.06,327.33c-.41-1.48-1.81-6.72-3.47-9.37a20.33,20.33,0,0,0-7.84-2.75c-.39,0-.71-.22-.63-.58l.2-1.57c.06-.44.4-.53.76-.55,2,0,9.44-.06,11-.18.64,0,1,.15,1,.46a1,1,0,0,1-.08.7l-.33.76a4.61,4.61,0,0,0-.08,3.31c.61,2.77,1.27,5.78,2.55,10.3l.89,3.12c.88,3.12,2.37,7.75,3.44,10.9a5.11,5.11,0,0,0,1.56,2.59l1,.74a1.26,1.26,0,0,1,.43.55c.09.31-.13.54-1.67,1.23-1.15.49-6.89,3.55-9.07,4.59-.32.17-.54.06-.79-.2l-.8-1.2c-.31-.42-.29-.68.09-1,1.86-1.53,4.29-3.65,5.44-5.75.22-2.16-1.55-8.73-2-10.14l-14.27,4c-8.92,2.53-15.29,4.33-16,4.6-1.32.54-2.06,1.17-1.7,2.42l.83,3c.11.39-.1.62-.61.76l-1.78.5a.5.5,0,0,1-.66-.4c-.16-.54-1.27-5.45-2-8-.62-2.18-2.3-7.18-2.48-7.8-.13-.47.08-.69.59-.84l1.7-.48c.42-.12.64,0,.72.3l.89,3.12a1.67,1.67,0,0,0,1.86,1.41c3.3-.68,7.8-2,12.9-3.4Z"/><path d="M778.71,367.75c-.52.1-10.49,2-11.77,2.35-2,.55-3,1.74-2.55,4l.23,1.2c.07.39-.08.51-.34.56l-2.08.4c-.35.06-.63,0-.7-.36-.13-.64-.66-4.83-1.35-8.41-.52-2.7-1.67-7.26-1.76-7.74-.06-.32.16-.53.6-.61l1.91-.37a.49.49,0,0,1,.61.38l.33,1.75c.39,2,.72,3.24,2.31,3.1.8-.07,11.82-2.11,14.77-2.68l3.82-.73c1.38-.27,10-2.1,11.24-2.33.95-.19,1.68-1.07,1-4.41l-.28-1.43c-.08-.4.17-.53.52-.6l2-.38c.35-.07.55.06.61.38.09.48.7,5.47,1.5,9.2.45,2.3,1.49,6.31,1.61,6.95a.43.43,0,0,1-.34.56l-2.08.4c-.35.06-.62,0-.7-.36l-.26-1.36c-.41-2.14-.9-2.79-2.74-2.52-.86.17-11.19,2.07-11.8,2.19Z"/><path d="M768.31,388.92c-1.49.17-1.65,1.09-1.49,2.38l.23,1.93c0,.24-.13.42-.48.46l-1.93.23c-.35,0-.71,0-.75-.32-.06-.48-.29-4.69-.67-7.91-.3-2.49-1-6.49-1.08-6.81s.21-.51.65-.56l1.93-.23a.49.49,0,0,1,.58.42l.27,2.25c.16,1.37.92,1.77,1.63,1.76,1,0,7.12-.68,16.68-1.81l3.94-.47c2.37-.28,8.51-1,9.2-1.17.86-.27,2.38-.94,2.2-2.47l-.38-3.13c0-.33.22-.44.57-.48l1.93-.23c.35,0,.63.09.67.41s.46,6.15.66,7.84c.11.88,2.33,19.62,2.7,20.47-1.82.46-9.17,2.89-10.37,3.27-.34.13-.61.16-.71,0l-.77-1.22c-.2-.14,0-.4.45-.7a48.35,48.35,0,0,0,5.54-4.25,4.64,4.64,0,0,0,1.57-3.29c.19-1.4-.64-9.14-.77-10.18l-16.57,2c.09.73.91,5.36,1.07,6,.53,1.48,2.66,2.21,4.63,2.3.62,0,.81.07.85.39v1.63c0,.24,0,.33-.4.37-.89,0-5.53.58-6.41.68-1.93.23-4.63.71-5.58.91-.35,0-.55-.1-.58-.34l-.35-1.51a.48.48,0,0,1,.47-.54c1.64-.36,3.41-1.22,3.61-3.29a28.25,28.25,0,0,0-.12-6.26Z"/><path d="M784.29,419.19c-.53,0-10.68.47-12,.61-2,.25-3.21,1.28-3.11,3.62l.05,1.22c0,.4-.15.49-.42.5l-2.11.09c-.36,0-.62-.05-.64-.45,0-.65.05-4.87-.11-8.51-.12-2.75-.59-7.44-.61-7.92,0-.32.24-.5.68-.52l2-.08a.5.5,0,0,1,.55.46l.07,1.78c.09,2,.24,3.31,1.83,3.41.8,0,12-.37,15-.5l3.89-.17c1.41-.06,10.22-.61,11.46-.66,1,0,1.82-.81,1.67-4.21l-.07-1.46c0-.4.25-.49.6-.51l2-.09c.35,0,.54.14.55.46,0,.49-.11,5.52.14,9.32.11,2.35.55,6.46.58,7.11a.44.44,0,0,1-.42.51l-2.12.09c-.35,0-.62-.06-.64-.46l-.06-1.38c-.09-2.18-.48-2.89-2.33-2.89l-12,.44Z"/><path d="M788.24,438.92c0,.49.1,5.27.26,5.93.55,2.12,1.77,3,4.5,3,.36,0,.44.09.43.42l-.14,1.77c0,.33-.19.57-.54.48-.79-.19-5.47-.33-6.27-.35-1.94-.06-4.68.1-5.83.14-.35,0-.44-.17-.43-.41l-.13-1.71c0-.24,0-.4.37-.48,2.22-.33,3.65-.78,4.24-2.87a26.25,26.25,0,0,0,.8-6.05l-3-.09c-3.09-.09-8.21-.08-9.36-.12-4.15-.12-4.48,2.22-4.59,5.7s-.08,5.83,2.21,8.65a44.89,44.89,0,0,0,5.79,4.47c.6.43.68.83.5,1.07l-.84,1.27a.55.55,0,0,1-.62.23l-9.27-3.2c-.44-.17-.86-.59-.85-.92s.13-1.45.32-4.77.34-8.58.6-17.08c0-.73,0-2.19,0-3.64s-.09-2.76-.08-3.25.28-.48.63-.47l2,.07c.36,0,.53.17.52.58l0,.73c-.11,3.8.24,4.06,1.47,4.09l18.8.57c4.68.14,10.42.23,11.3.18,1.86-.19,2.23-.67,2.33-3.9l0-.81c0-.25.19-.32.63-.31l2.12.06a.41.41,0,0,1,.43.42c0,1.22-.44,5.66-.48,6.88l-.45,18.13c0,.81.12,1.87.11,2.2,0,.16-.19.31-1.25.44-.8.14-8.46,2.18-9.08,2.32-.36.07-.54.07-.62-.09l-.58-1.32c-.08-.16-.07-.49.38-.72.27-.15,5.33-3.89,6.78-5.22a4.65,4.65,0,0,0,1.42-3l.43-8.58Z"/><path d="M790.56,468c1.49.21,8.07,1,9.49,1,.8,0,1.6-.6,1.8-2l.41-3c0-.24.22-.3.66-.23l2,.28c.35,0,.52.15.47.47-.08.56-1.18,6.54-1.39,8.07-.19,1.36-.67,6.69-.91,8.46-1.05,7.54-2.33,12.84-7.63,17-3.91,3.05-8.38,4.47-14.85,3.57-6.65-.92-10.52-2.61-14.11-6.87-4.9-5.76-3.71-15.57-3.4-17.82.2-1.44,1.5-9.52,1.66-10.64s.72-7.1.78-7.5.23-.38.84-.29l1.92.27c.27,0,.43.14.39.46l-.5,3.53a2,2,0,0,0,1.16,2c.76.27,12.63,2.09,17.09,2.71Zm-6.28,5.42c-.7-.09-9.81-1.28-12.62-1.59a5.25,5.25,0,0,0-3.28.52c-1.33.63-2.25,2.72-2.5,4.56a16.22,16.22,0,0,0,4.31,13.2c2.35,2.29,6.3,4,10.33,4.55a18.72,18.72,0,0,0,12.68-2.08,16.5,16.5,0,0,0,7.29-12c.15-1.12.39-2.81-.11-3.69a2.31,2.31,0,0,0-2-1.42c-2.34-.41-9.25-1.37-10.21-1.51Z"/><path d="M118.82,604.06c1.6-.9,13.46-7.83,14.42-8.45,1.53-1,1.85-2,.54-4.32l-2-3.54c-.17-.3-.14-.56.12-.71l1.8-1a.44.44,0,0,1,.64.2c.41.73,2,3.95,5.16,9.62,3.06,5.43,4.36,7.27,4.84,8.12a.47.47,0,0,1-.22.69l-1.66.94a.49.49,0,0,1-.75-.23l-1.61-2.86c-.69-1.22-1.74-1.84-3.07-1.09-.66.38-15.45,8.47-16.25,8.92l-5.12,2.89c-.66.37-15.91,9.21-16.64,9.62-2.06,1.16-1.88,2.26-.78,4.21l1.41,2.5a.48.48,0,0,1-.19.75l-1.73,1c-.27.15-.5,0-.71-.33-.41-.73-1.59-3.28-4.58-8.59-3.26-5.79-4.94-8.3-5.32-9-.17-.3-.14-.56.12-.71l1.8-1c.26-.15.5,0,.67.26l1.93,3.42c.69,1.22,1.61,2.38,3.47,1.65,1.07-.44,15.53-8.34,19-10.33Z"/><path d="M121.15,665c-.66.46-1.52.76-2.07,0a3.4,3.4,0,0,1-.33-2c.18-.82,1.6-5.14,3.27-10.33l4-12.63c.94-3,5.06-13.82,5.63-15.79l-.09-.13-10,6.86c-4.36,3-11.44,8.29-12,8.88-1.54,1.35-1.83,2.63-1.37,3.3l1,1.4c.23.33.08.43-.21.63l-1.75,1.21c-.29.2-.43.3-.66,0s-1.94-3.28-3.28-5.21c-.64-.94-2.93-3.79-3.3-4.32-.09-.13,0-.3.37-.55l1.89-1.3c.15-.1.27-.09.4.11l1.06,1.54c.46.66,1.71,1.38,3.52.43.91-.54,6.17-4,14.38-9.63L129.3,622c2.62-1.81,2.7-4.33,1.41-6.19l-.41-.6a.45.45,0,0,1,.16-.7l1.75-1.21a.5.5,0,0,1,.71.1c.09.14.52.92,1.12,1.79s1.19,2,1.7,2.76c.73,1.07,1.84,2.37,2.39,3.17s.78,1.43.53,2c-.16.4-5.41,15.34-6.26,18-.7,2.26-4.92,14.32-5.31,15.77l.18.27,4.8-3.31c4.14-2.86,6.35-4.48,8.58-6.21,1.74-1.21,5.82-4.31,6.46-5.25a3,3,0,0,0-.39-3.37l-.78-1.13c-.23-.33-.18-.57.18-.82l1.75-1.2c.22-.15.45-.12.68.21s2.09,3.49,3.56,5.62c1,1.4,2.79,3.58,3.11,4s.18.57-.26.87l-1.52,1.05c-.29.2-.6.22-.79-.05l-.46-.66c-1.15-1.67-1.89-1.65-3-1.08-3.57,2-8.06,5.26-11,7.31Z"/><path d="M150,661.62c1.13-1,6-5.5,6.94-6.56.54-.59.58-1.6-.38-2.69l-2-2.25c-.16-.18-.09-.36.24-.65l1.53-1.34c.26-.24.45-.29.66,0,.38.42,4.2,5.15,5.22,6.3s4.65,4.87,5.83,6.2c5,5.71,8.23,10.13,7.94,16.87-.22,4.95-2,9.27-6.95,13.6s-8.83,6.28-14.4,6.23c-7.56,0-14.24-7.31-15.74-9-1-1.09-6.25-7.34-7-8.19s-4.91-5.16-5.18-5.47-.14-.42.33-.83l1.45-1.28c.2-.18.39-.23.6,0l2.36,2.67a2,2,0,0,0,2.24.4c.7-.4,9.81-8.23,13.18-11.22Zm0,8.3c-.53.46-7.36,6.6-9.42,8.53a5.27,5.27,0,0,0-1.74,2.84c-.39,1.42.59,3.47,1.83,4.87a16.24,16.24,0,0,0,12.82,5.31,19.25,19.25,0,0,0,10.18-4.88,18.68,18.68,0,0,0,6.67-11A16.41,16.41,0,0,0,166,662.28c-.75-.85-1.88-2.13-2.88-2.33a2.33,2.33,0,0,0-2.34.56c-1.84,1.51-7.06,6.13-7.79,6.78Z"/><path d="M165.22,711.61c-.82-3.58.16-11,5.7-17.18A22.08,22.08,0,0,1,183.54,687c7.75-1.48,12.25,1,16.23,4.58a16.56,16.56,0,0,1,5.93,11.59c.36,4.82-1,10.95-6.3,16.87a22.08,22.08,0,0,1-10.6,7c-5.47,1.5-11.21.87-17.43-4.7A21,21,0,0,1,165.22,711.61Zm28.87,3.94c7.72-8.62,7-18.62,3.44-21.81-.54-.49-2.49-3.42-8.09-2.87-4.59.4-9.39,3.69-12.39,7-9.37,10.46-6.21,19.92-3.31,22.52C182,727.83,190.91,719.1,194.09,715.55Z"/><path d="M198.63,740c-1.22-3.46-1.07-10.94,3.73-17.71a22.13,22.13,0,0,1,11.71-8.79c7.53-2.35,12.28-.38,16.64,2.72a16.62,16.62,0,0,1,7.2,10.85c.9,4.75.24,11-4.36,17.48a22.17,22.17,0,0,1-9.75,8.13c-5.27,2.1-11,2.12-17.84-2.71A20.94,20.94,0,0,1,198.63,740Zm29.14.66c6.69-9.43,4.85-19.3,1-22.06-.6-.42-2.86-3.11-8.37-1.93-4.52.9-8.91,4.71-11.52,8.39-8.12,11.44-3.92,20.49-.75,22.74C217.14,754.25,225,744.56,227.77,740.68Z"/><path d="M247.56,735.55c.8-1.58.64-2.78-1.33-3.9l-.7-.39c-.22-.12-.16-.39,0-.7l1-1.85a.42.42,0,0,1,.64-.14c.35.2,4.59,2.9,5.86,3.62.85.47,7.12,3.71,8,4.22,4.23,2.39,6.67,5.49,7.48,8.18a10,10,0,0,1-.7,7c-3,5.31-7.49,6.83-14.27,5.84l-.09.15c1.41,1.3,1.47,4.48,1.84,10.57a26.81,26.81,0,0,0,1.18,7.15,5.21,5.21,0,0,0,2.69,2.64c.28.16.22.43,0,.89l-.86,1.54c-.18.31-.45.46-.73.3s-.66-.48-1.33-.95-1.43-.92-2.14-1.31c-1.62-.92-3.36-1.8-4.6-2.4-.73-1.83-.32-9.81-.3-11.32.15-6.2.05-8.49-2.91-10.16a7.83,7.83,0,0,0-1.92-.89l-5.73,10.15c-.47,1.16-.53,2.24.88,3l1.84,1a.42.42,0,0,1,.2.63l-1,1.84c-.21.39-.44.46-.86.22s-4.18-2.66-6.5-4c-1.77-1-5.49-2.8-6-3.08-.28-.16-.29-.47-.07-.85l1-1.77a.42.42,0,0,1,.64-.14l.85.47c1.69,1,2.71,1.13,3.67-.56,2.2-3.73,4.69-8.3,7.41-12.95ZM245.89,751a15.28,15.28,0,0,0,2,1.35c7.83,4.42,12.41-.9,13.54-2.9a7.75,7.75,0,0,0,.67-6.62,12.66,12.66,0,0,0-5.57-5.78c-1.06-.6-2.29-.89-3.07.5Z"/><path d="M297.85,774.7c-1.31,1.56-8.83,11.18-9.7,12.57-.25.48-.64,1.15-.77,1.51-.36,1,.23,1.87,1.68,2.39l3.1,1.1c.46.17.61.38.48.74l-.59,1.65c-.18.51-.43.58-.76.46-.92-.33-3.55-1.51-7.44-2.9-4.81-1.72-6.34-2-7.26-2.35-.33-.12-.41-.31-.26-.74l.62-1.73a.51.51,0,0,1,.71-.31l2.3.82c2,.71,3.26,0,5-1.94.87-1,10.43-12.55,14.45-17.76,1-1.27,11.84-14.81,13.12-16.54a3.32,3.32,0,0,0,.94-2.42,2.29,2.29,0,0,1-.13-1.1.75.75,0,0,1,.83-.43,14.13,14.13,0,0,0,6.75-1.64c.46-.24.76-.46,1.09-.34s.38.62.29,1.48c-.36,5-1,22.91-1.37,27.95-.48,6.15-1,21-.8,23.46.28,2.77,1.68,4.24,3.33,4.83l2.17.78a.48.48,0,0,1,.35.69l-.64,1.8c-.13.36-.38.43-.84.27-1.19-.43-2.49-1.14-7.83-3s-7.86-2.56-9.37-3.1c-.33-.12-.45-.41-.3-.84l.59-1.65c.16-.43.38-.43.77-.29l1.65.59c1.85.66,2.7.15,3-2,.39-2.77,1-12.94,1.08-16.14Zm16.34,2.92c.18-2.37,1.26-22.24,1.32-23.43,0-.58,0-1.13-.17-1.2s-.71.32-1.11.82c-.66.82-13.5,17-14.6,18.6Z"/><path d="M346,792.74c-.13.51-2.55,10.37-2.79,11.68-.32,2,.33,3.44,2.61,4l1.18.29c.39.1.43.29.37.55l-.51,2c-.08.35-.23.59-.62.49-.63-.16-4.66-1.42-8.2-2.29-2.67-.65-7.29-1.52-7.77-1.63-.31-.08-.41-.37-.3-.8l.46-1.89a.49.49,0,0,1,.6-.4l1.73.43c2,.48,3.25.7,3.78-.8.27-.75,3-11.62,3.74-14.54l.92-3.77c.34-1.37,2.29-10,2.58-11.19.23-.94-.26-2-3.57-2.78l-1.41-.35c-.4-.1-.41-.37-.33-.72l.49-2c.08-.34.28-.47.59-.39.48.11,5.27,1.65,9,2.47,2.28.56,6.35,1.29,7,1.45a.42.42,0,0,1,.37.54l-.51,2.06c-.08.34-.22.58-.62.48l-1.33-.33c-2.13-.52-2.92-.35-3.44,1.43-.21.86-2.79,11-2.94,11.64Z"/><path d="M362.46,780.22c.21-1.76-.35-2.83-2.59-3.2l-.8-.13c-.24,0-.28-.32-.22-.67l.35-2.09a.41.41,0,0,1,.55-.35c.4.07,5.31,1.14,6.75,1.38,1,.16,7.95,1,9,1.21,4.8.79,8.15,2.86,9.83,5.11a10,10,0,0,1,1.75,6.82c-1,6-4.67,9-11.39,10.38l0,.17c1.77.74,2.92,3.7,5.37,9.3a27.12,27.12,0,0,0,3.56,6.31A5.27,5.27,0,0,0,388,816c.32,0,.35.33.27.85L388,818.6c-.06.35-.26.58-.58.53-.16,0-.78-.22-1.57-.44s-1.66-.36-2.46-.49c-1.84-.3-3.77-.53-5.15-.67-1.31-1.47-3.67-9.1-4.17-10.53-2-5.87-2.88-8-6.23-8.54a7.75,7.75,0,0,0-2.11-.17l-1.89,11.5c0,1.25.28,2.28,1.88,2.55l2.08.34c.32.05.45.25.4.51l-.34,2.1c-.07.43-.26.58-.74.5s-4.83-1.06-7.47-1.5c-2-.33-6.12-.74-6.68-.83-.32-.05-.43-.34-.36-.77l.33-2a.41.41,0,0,1,.55-.35l1,.15c1.92.32,2.93.13,3.25-1.79.78-4.25,1.55-9.41,2.5-14.71Zm3.76,15.11a15.32,15.32,0,0,0,2.37.57c8.87,1.46,11.34-5.11,11.72-7.38a7.79,7.79,0,0,0-1.65-6.44,12.69,12.69,0,0,0-7.22-3.52c-1.2-.19-2.46,0-2.72,1.53Z"/><path d="M418.84,815.23c-5.13-5.11-7.72-13.92-7.84-21.24a30.54,30.54,0,0,1,6.81-20.34,23.43,23.43,0,0,1,17.37-8,27.28,27.28,0,0,1,14.21,4c.92.6,1.27.52,1.4,0l.53-2.22c.13-.46.27-.46.9-.47s.77.14.79,1.21c0,1.44,1.6,12.64,2,14.77.07.38,0,.68-.27.77l-1.05.32c-.34.08-.49,0-.71-.6a30.1,30.1,0,0,0-5.61-9.37c-3-3.24-6.74-5.77-12.27-5.68-12.53.2-17.37,12.41-17.12,23.55.07,4.42,1.47,13,7,19.5,4.86,5.72,8.86,6.27,13.55,6.19a21,21,0,0,0,17.13-10c.2-.38.34-.46.55-.23l.93.74c.21.15.35.3.15.69-4.09,6.7-10.78,13-20.65,13.15C428.4,822.09,423.1,819.36,418.84,815.23Z"/><path d="M470.07,816.34c-3.25-1.71-8.22-7.3-9.29-15.53a22.15,22.15,0,0,1,2.63-14.41c3.93-6.83,8.76-8.61,14.06-9.3a16.61,16.61,0,0,1,12.65,3.08c3.89,2.88,7.64,7.91,8.67,15.79a22.16,22.16,0,0,1-1.64,12.59c-2.44,5.12-6.67,9.05-14.94,10.13A21,21,0,0,1,470.07,816.34ZM491.9,797c-1.49-11.47-9.53-17.46-14.27-16.84-.72.09-4.21-.35-7.45,4.26-2.7,3.73-3.34,9.51-2.76,14,1.8,13.92,11,17.71,14.89,17.21C493.31,814.22,492.51,801.77,491.9,797Z"/><path d="M540.88,804.59c.19.77.16,1.69-.78,1.92a3.44,3.44,0,0,1-2-.41c-.7-.46-4.24-3.31-8.51-6.71l-10.39-8.25c-2.48-1.93-11.14-9.61-12.78-10.84l-.16,0,2.91,11.74c1.28,5.14,3.71,13.63,4.06,14.36.72,1.92,1.82,2.64,2.61,2.45l1.65-.41c.39-.1.44.07.52.42l.51,2.05c.08.35.13.52-.27.62-.55.13-3.76.65-6,1.22-1.1.27-4.57,1.41-5.2,1.56-.16,0-.28-.11-.38-.54l-.56-2.23c0-.17,0-.27.25-.33l1.81-.45c.79-.2,1.9-1.11,1.65-3.14-.18-1-1.53-7.17-3.93-16.85l-2.23-9c-.76-3.08-3.09-4-5.29-3.51l-.71.18c-.31.08-.51-.06-.59-.4L496.5,776a.49.49,0,0,1,.34-.63c.16,0,1-.17,2.07-.42s2.32-.39,3.18-.6c1.26-.32,2.87-.9,3.81-1.13,1.1-.27,1.62-.22,2.06.22.32.28,12.44,10.46,14.62,12.2,1.86,1.45,11.66,9.66,12.88,10.54l.31-.08-1.4-5.65c-1.21-4.89-1.94-7.52-2.78-10.23-.51-2-2-7-2.62-7.9a3,3,0,0,0-3.3-.82l-1.33.33c-.4.1-.6,0-.7-.46l-.51-2.06c-.06-.25,0-.47.44-.56.55-.14,4-.72,6.51-1.34,1.66-.41,4.34-1.35,4.89-1.49.4-.1.6,0,.72.55l.45,1.8c.09.34,0,.64-.32.72l-.79.19c-2,.49-2.21,1.19-2.07,2.43.58,4,2.08,9.39,2.95,12.91Z"/><path d="M553.24,799.47c-.68-.23-1.17-.15-1.09.57v.75c0,.47-.33.77-1,.82a.86.86,0,0,1-.94-.7c-.59-2.41-2.41-9.26-2.8-10.62,0-.36,0-.66.32-.77l1.44-.32c.33,0,.7,0,.81.37a12,12,0,0,0,3.38,5.17,7.59,7.59,0,0,0,8,1.87c2.45-.87,5.38-4.24,4.11-7.82-1.68-4.75-5.39-5.77-10-6-1.73,0-5.93-.24-9-1.68-2.41-1.21-4.26-3.55-5.71-7.63a10.63,10.63,0,0,1,.82-8.15,11.12,11.12,0,0,1,6.29-5,11.73,11.73,0,0,1,5.81-.83c.94.23,1.35.18,1.35-.29l.1-.69c.07-.31.3-.39.91-.61s.8.09.95.51c1,2.75,3.57,7.91,4.06,9a.49.49,0,0,1-.13.61l-1.26.82c-.2.16-.41,0-.57-.17-.81-.84-2.45-3.54-4.76-5a6.58,6.58,0,0,0-5.84-.46,5.56,5.56,0,0,0-3.63,7,7.62,7.62,0,0,0,2.67,3.65c1.7,1.18,4.89,1.45,6.55,1.52,4,.18,7.16.09,9.84,1.58,2.14,1.21,3.8,3,5.27,7.13,2.2,6.24.42,12.86-6.53,15.32A13.14,13.14,0,0,1,553.24,799.47Z"/><path d="M566.61,760.72c-.66-1.44-1.47-2.43-3.68-1.41l-1.32.61c-.3.14-.52.05-.67-.28l-.92-2a.43.43,0,0,1,.25-.61c.45-.2,5.26-2.13,7.54-3.18,1.77-.82,6-3.06,6.44-3.26s.59-.08.73.24l.89,1.93a.48.48,0,0,1-.22.68l-1,.48c-2.35,1.08-2.79,2.26-2.57,2.93.34,1.11,1.67,3.8,3,6.77l1.51,3.29c1.22,2.64,4.33,9,4.85,10.11a13.54,13.54,0,0,0,4.65,5.63,9.55,9.55,0,0,0,8.43.29,10.76,10.76,0,0,0,5.47-5.73c1.1-3,.06-6.25-1.42-9.46l-5.1-11.06a68.41,68.41,0,0,0-3.66-7.16c-.78-1.29-1.88-1.76-4.16-.7l-.81.37c-.3.13-.56,0-.74-.44L583.3,747a.49.49,0,0,1,.21-.69c.37-.17,4.6-1.83,6.51-2.71,1.25-.58,4.82-2.52,5.26-2.72a.55.55,0,0,1,.78.33l.81,1.76c.15.32.11.63-.18.76L596,744c-2.58,1.19-2.21,2.57-2,3.56.15.71,3,6.8,3.4,7.76.34.72,4.29,9.69,5.14,11.73,1.63,4.3,2.12,8.06.51,11.72-1.1,2.84-3.6,5.36-8.38,7.56a19.92,19.92,0,0,1-7.32,2.12,10.28,10.28,0,0,1-9-4.14c-1.59-2.08-3.4-5.43-6.58-12.32Z"/><path d="M609.21,749.71c-1.85-3.11-4.66-7.7-5.05-8.19-.9-1.21-1.38-1.54-3.89-.06l-1,.62c-.28.17-.48,0-.66-.32l-1.08-1.83a.39.39,0,0,1,.12-.58c.49-.29,4.18-2.17,6.76-3.7,2.3-1.36,6.2-4,6.69-4.27.28-.17.44-.06.62.25l1.08,1.82a.48.48,0,0,1-.15.7l-1,.62c-2.58,1.53-2.52,2.11-1.8,3.33.36.6,4.18,7.37,6.21,10.79l2.47,4.18c.5.83,6.35,10.71,7.53,12.37.83-.49,8.68-5,10.29-6.3.89-1,1.29-8.16,1.21-10.67,0-.43.08-.67.4-.76l1.43-.12c.18,0,.36.29.52.71l3.42,10.7c-1.23.63-16.88,9.8-18.9,11-1.12.66-2.54,1.6-3.86,2.39s-2.28,1.55-2.63,1.76-.51.1-.82-.44l-.95-1.59c-.22-.38-.06-.58.22-.75l2.16-1.28c1.25-.74,1.48-1.79,1.14-2.52-.72-1.22-7.06-12.24-8.77-15.12Z"/><path d="M634.55,720.09c-1.25.9-5.71,4-7.62,6.46a20.22,20.22,0,0,0,.08,8.31c.08.38,0,.74-.33.79l-1.54.35c-.44.09-.64-.2-.78-.53-.68-1.91-3.27-8.85-3.94-10.33-.23-.6-.18-1,.08-1.14a1,1,0,0,1,.68-.17l.83,0a4.55,4.55,0,0,0,3.14-1c2.4-1.51,5-3.17,8.82-5.91L636.6,715c2.63-1.89,6.47-4.87,9.07-6.95a5,5,0,0,0,1.9-2.35l.38-1.14a1.24,1.24,0,0,1,.37-.6c.26-.19.55-.06,1.72,1.15.86.91,5.69,5.27,7.41,7,.27.24.24.48.08.81l-.86,1.16c-.29.43-.54.5-.93.24-2.08-1.23-4.9-2.79-7.26-3.16-2.11.54-7.68,4.44-8.87,5.29l8.66,12c5.42,7.53,9.28,12.91,9.76,13.43,1,1.05,1.8,1.54,2.85.78l2.5-1.8c.33-.23.62-.11.93.32l1.08,1.5a.51.51,0,0,1-.15.76c-.46.33-4.69,3-6.86,4.61-1.85,1.32-6,4.61-6.49,5s-.68.16-1-.27l-1-1.43c-.26-.36-.23-.6,0-.79l2.63-1.89a1.66,1.66,0,0,0,.69-2.23c-1.76-2.87-4.49-6.67-7.59-11Z"/><path d="M672.08,718.23l3.8,9.24c.8,1.65,1.74,2.35,3,1.23l1.52-1.34c.36-.32.6-.18.83.09l1.28,1.46c.24.27.35.52.05.78-.49.43-3.89,3.07-4.86,3.92-1.16,1-4,3.89-4.57,4.37-.25.22-.54-.12-.77-.38l-1.23-1.39c-.23-.27-.35-.4-.1-.62l.85-.74a4.26,4.26,0,0,0,1.27-3.59c0-.9-3.93-11.59-5.38-16.19-.39-1.3-4.73-13.48-5.35-14.93-.23-.5-.51-1.55-1.11-1.38a1.12,1.12,0,0,1-.82-.45c-.18-.08-.23-.38.2-1a11.75,11.75,0,0,0,1.72-4.91,1,1,0,0,1,.32-1.11c.36-.32.72-.16,1.25.2,3.18,1.9,14.62,8.66,17.74,10.62,3.82,2.51,13.32,8,14.33,8.33a4.66,4.66,0,0,0,4.43-.72l1.16-1c.24-.21.47-.07.65.13l1.22,1.39c.18.2.47.65.1,1-.73.64-4.13,3.27-5.53,4.5-1.15,1-4.57,4.37-5.36,5.07-.43.37-.78.09-1-.17l-1.22-1.4c-.18-.19-.29-.45,0-.66l1-.86a1.32,1.32,0,0,0,0-2c-1.41-1.11-7.72-5-9.54-6.07ZM679.4,708l-13.25-8.58c-.47-.29-.76-.5-.94-.34s-.13.47.15,1.16,5.49,14.1,5.77,15Z"/><path d="M730.86,679.49c.59.53,1.09,1.3.44,2a3.47,3.47,0,0,1-1.91.79c-.83,0-5.37-.36-10.8-.79l-13.23-1c-3.14-.21-14.62-1.72-16.66-1.82l-.11.12,9,8.1c3.93,3.54,10.71,9.21,11.41,9.62,1.67,1.18,3,1.17,3.53.57l1.14-1.27c.27-.3.4-.18.66.06l1.58,1.41c.26.24.39.36.12.66s-2.74,2.65-4.31,4.39c-.76.85-3,3.73-3.44,4.22-.11.12-.29.06-.62-.24l-1.71-1.53c-.13-.12-.14-.24,0-.42l1.25-1.39c.54-.6.95-2-.4-3.51-.73-.77-5.28-5.09-12.69-11.76l-6.89-6.21c-2.37-2.12-4.84-1.62-6.35.06l-.49.54a.45.45,0,0,1-.72,0l-1.57-1.42A.48.48,0,0,1,678,680c.11-.12.77-.73,1.47-1.51s1.7-1.63,2.3-2.29c.87-1,1.88-2.35,2.53-3.07s1.21-1.08,1.82-1c.43.06,16.17,1.7,19,1.91,2.36.16,15.07,1.48,16.58,1.52l.21-.24-4.33-3.9c-3.74-3.37-5.83-5.14-8-6.91-1.58-1.42-5.55-4.66-6.6-5.07a3,3,0,0,0-3.19,1.16l-.92,1c-.27.3-.51.3-.84,0l-1.58-1.41c-.19-.18-.22-.42.06-.72s2.9-2.84,4.64-4.76c1.13-1.27,2.83-3.55,3.21-4s.51-.3.91.05l1.38,1.24c.26.24.35.54.13.78l-.54.6c-1.36,1.51-1.17,2.22-.36,3.17,2.75,3,7,6.62,9.68,9Z"/><path d="M717.41,638.31c-.89,1.26-4.11,5.63-5.12,8.58a20.16,20.16,0,0,0,2.77,7.84c.19.33.27.69-.06.85l-1.35.83c-.38.23-.67,0-.91-.25-1.25-1.59-6-7.31-7.06-8.5-.42-.49-.49-.84-.3-1.1a1,1,0,0,1,.59-.38l.81-.22a4.65,4.65,0,0,0,2.62-2c1.78-2.21,3.71-4.62,6.43-8.45l1.88-2.64c1.87-2.64,4.54-6.71,6.32-9.52a5,5,0,0,0,1-2.83V619.3a1.19,1.19,0,0,1,.16-.68c.19-.26.5-.24,2,.53,1.11.59,7.08,3.15,9.26,4.2.34.13.39.37.34.74l-.43,1.37c-.14.5-.35.65-.81.53-2.36-.49-5.53-1.06-7.88-.64-1.82,1.19-5.84,6.69-6.68,7.88l12.09,8.59c7.56,5.36,13,9.2,13.58,9.54,1.24.69,2.2.87,2.95-.19l1.78-2.51c.24-.33.55-.31,1,0l1.51,1.08a.5.5,0,0,1,.1.77c-.33.46-3.45,4.4-5,6.58-1.31,1.85-4.14,6.29-4.52,6.82s-.59.38-1,.07L742,663c-.36-.26-.41-.49-.22-.76l1.87-2.64a1.67,1.67,0,0,0-.07-2.34c-2.6-2.14-6.41-4.85-10.73-7.92Z"/><path d="M763.19,632c-.66.27-1,.65-.45,1.14l.49.56c.3.37.25.8-.23,1.28a.84.84,0,0,1-1.16.07c-2-1.44-7.86-5.47-9-6.24-.26-.25-.41-.52-.25-.8l.88-1.18c.24-.23.55-.43.86-.25a11.91,11.91,0,0,0,5.93,1.74,7.58,7.58,0,0,0,7.26-3.75c1.3-2.25,1.33-6.72-2-8.62-4.35-2.51-7.84-.88-11.52,2-1.35,1.1-4.67,3.67-8,4.58-2.61.64-5.54.07-9.29-2.09a10.65,10.65,0,0,1-4.68-6.73,11.09,11.09,0,0,1,1.51-7.91,11.79,11.79,0,0,1,3.87-4.41c.87-.44,1.14-.74.84-1.1l-.37-.59c-.15-.28,0-.49.3-1s.67-.45,1-.23c2.52,1.46,7.86,3.69,9,4.24a.49.49,0,0,1,.3.55l-.43,1.44c0,.25-.28.3-.55.24-1.16-.11-4.16-1.09-6.84-.68a6.53,6.53,0,0,0-4.74,3.44,5.55,5.55,0,0,0,1.79,7.67,7.68,7.68,0,0,0,4.39,1c2.06-.21,4.67-2.07,6-3.1,3.17-2.47,5.51-4.58,8.51-5.19,2.41-.48,4.81-.21,8.63,2,5.74,3.31,8.69,9.51,5,15.89A13.15,13.15,0,0,1,763.19,632Z"/><circle class="cls-3" cx="431.75" cy="431.75" r="415.83"/><line class="cls-3" x1="222.19" y1="261.04" x2="641.31" y2="261.04"/><line class="cls-3" x1="641.31" y1="602.46" x2="222.19" y2="602.46"/><path d="M182.65,304.42h34.81v158.2H182.65Z"/><path d="M305.1,303.29h32.09L405,462.62H368.61l-14.47-35.48H287.25l-14.47,35.48H237.3Zm36.61,93.11-21-51.3-21,51.3Z"/><path d="M408.2,384v-.45c0-45,33.9-81.81,82.49-81.81,29.83,0,47.69,9.94,62.38,24.41l-22.15,25.54c-12.21-11.08-24.64-17.86-40.46-17.86-26.66,0-45.87,22.15-45.87,49.27v.45c0,27.12,18.75,49.72,45.87,49.72,18.08,0,29.16-7.23,41.59-18.53l22.15,22.37c-16.28,17.4-34.36,28.25-64.87,28.25C442.78,465.33,408.2,429.4,408.2,384Z"/><path d="M571.69,435.05l52.65-43.17c19.67-16.27,27.35-24.86,27.35-38,0-13.34-8.81-20.57-21.24-20.57-12.21,0-20.57,6.78-32.32,21.24l-24.41-19.66c15.6-21.24,30.74-32.77,59-32.77,32.77,0,54.46,19.21,54.46,48.82v.45c0,26.44-13.56,39.55-41.58,61.25l-25.76,19.88h68.92v30.06H571.69Z"/><path d="M174.71,520.8v-.24c0-23.54,15-42.82,36.2-42.82,13.08,0,20.92,5.32,27.66,12.89l-7.95,10.77c-5.73-6.15-11.66-10.17-19.81-10.17-13.27,0-23.12,12.89-23.12,29.1v.23c0,16.21,9.75,29.34,23.22,29.34,8.65,0,14.18-4,20.22-10.64l7.94,9.46c-7.34,9-15.39,14.67-28.56,14.67C189.9,563.39,174.71,544.58,174.71,520.8Z"/><path d="M248.31,479.16H300.5v13H260.68V513.7H296v13.13H260.68V549H301v13H248.31Z"/><path d="M313,479.16h31.37c8.85,0,15.79,3.07,20.31,8.28,3.72,4.5,5.83,10.65,5.83,17.86v.24c0,13.6-6.93,21.77-16.69,25.08l19,31.35H358.15l-17.3-28.87H325.37V562H313Zm30.47,41.05c8.84,0,14.48-5.44,14.48-13.84v-.24c0-8.87-5.43-13.72-14.58-13.72h-18v27.8Z"/><path d="M399,492.64H376.57V479.16h57.21v13.48H411.36V562H399Z"/><path d="M442.62,479.16H455V562H442.62Z"/><path d="M470.63,479.16H523v13.25H483V515h35.5v13.25H483V562H470.63Z"/><path d="M532.43,479.16H544.8V562H532.43Z"/><path d="M560.45,479.16h52.19v13H572.82V513.7h35.29v13.13H572.82V549h40.32v13H560.45Z"/><path d="M625.13,479.16h26.25c22.12,0,37.41,17.86,37.41,41.17v.23c0,23.31-15.29,41.41-37.41,41.41H625.13Zm12.37,13.25v56.31h13.88c14.78,0,24.43-11.71,24.43-27.92v-.24c0-16.2-9.65-28.15-24.43-28.15Z"/></g></g></svg>