<svg xmlns="http://www.w3.org/2000/svg" xmlns:xlink="http://www.w3.org/1999/xlink" viewBox="0 0 1771.42 884.85"><defs><style>.InfraspectedDecal-1{fill:url(#linear-gradient);}.InfraspectedDecal-2{fill:#fff;}.InfraspectedDecal-3{fill:url(#linear-gradient-2);}.InfraspectedDecal-4{fill:url(#linear-gradient-3);}</style><linearGradient id="linear-gradient" y1="442.42" x2="1771.42" y2="442.42" gradientUnits="userSpaceOnUse"><stop offset="0"></stop><stop offset="0.21" stop-color="#8d2edc"></stop><stop offset="0.37" stop-color="#c4005e"></stop><stop offset="0.55" stop-color="#ff0b64"></stop><stop offset="0.7" stop-color="#ff8e0b"></stop><stop offset="0.86" stop-color="#ff0"></stop><stop offset="1" stop-color="#fff"></stop></linearGradient><linearGradient id="linear-gradient-2" x1="232.12" y1="546.82" x2="1539.31" y2="546.82" xlink:href="#linear-gradient"/><linearGradient id="linear-gradient-3" x1="815.11" y1="369.99" x2="1539.31" y2="369.99" xlink:href="#linear-gradient"/></defs><g id="Layer_2" data-name="Layer 2"><g id="Layer_1-2" data-name="Layer 1"><ellipse cx="885.71" cy="442.42" rx="866.4" ry="424.84"></ellipse><path class="InfraspectedDecal-1" d="M885.71,884.85C396.55,884.85,0,686.77,0,442.42S396.55,0,885.71,0s885.71,198.08,885.71,442.42S1374.87,884.85,885.71,884.85ZM55.7,435.74c4.12,222.87,346.43,345.73,813.93,345.73,411.75,0,644-98.49,719.83-252.46-59.83,170.19-357,288.39-803,288.39-171.35,0-330.42-22.9-462-61.82C467.21,812.73,651.58,847,857,847c487.63,0,862.79-176.84,858.71-397.92-4.12-222.88-346.43-345.73-813.93-345.73-411.75,0-644,98.49-719.83,252.46,59.83-170.19,357-288.39,803-288.39,171.35,0,330.42,22.9,462,61.82-142.79-57.15-327.16-91.45-532.59-91.45C426.78,37.82,51.62,214.66,55.7,435.74Z"></path><path class="InfraspectedDecal-2" d="M567.22,654.75H551.71v10.62h15v6.27h-15v21.05H545V648.48h22.23Z"></path><path class="InfraspectedDecal-2" d="M572.07,664.8h6.49v2.49a12.29,12.29,0,0,1,3.17-2.55,7.38,7.38,0,0,1,3.34-.71,10.48,10.48,0,0,1,5.36,1.66l-3,5.9a6.21,6.21,0,0,0-3.6-1.32q-5.31,0-5.3,8v14.46h-6.49Z"></path><path class="InfraspectedDecal-2" d="M618.2,680.26H598.08a8.42,8.42,0,0,0,2.25,5.47,6.88,6.88,0,0,0,5.1,2,6.72,6.72,0,0,0,4-1.14,16.32,16.32,0,0,0,3.54-4.24l5.48,3a21.36,21.36,0,0,1-2.68,3.67,13.63,13.63,0,0,1-3,2.52,12.21,12.21,0,0,1-3.49,1.45,17.34,17.34,0,0,1-4.06.46,13.26,13.26,0,0,1-10.09-4q-3.81-4-3.81-10.71T595,668.06a12.77,12.77,0,0,1,9.86-4c4.14,0,7.4,1.31,9.81,3.92s3.57,6.19,3.57,10.79ZM611.54,675q-1.35-5.15-6.54-5.15a6.71,6.71,0,0,0-2.22.36,6.19,6.19,0,0,0-1.89,1,6.67,6.67,0,0,0-1.46,1.62,7.52,7.52,0,0,0-.92,2.14Z"></path><path class="InfraspectedDecal-2" d="M649.75,680.26H629.62a8.47,8.47,0,0,0,2.25,5.47,6.91,6.91,0,0,0,5.1,2,6.68,6.68,0,0,0,4-1.14,16.52,16.52,0,0,0,3.55-4.24l5.48,3a21.9,21.9,0,0,1-2.68,3.67,14.09,14.09,0,0,1-3,2.52,12.33,12.33,0,0,1-3.49,1.45,17.43,17.43,0,0,1-4.07.46,13.28,13.28,0,0,1-10.09-4q-3.79-4-3.8-10.71t3.69-10.71a12.76,12.76,0,0,1,9.86-4q6.2,0,9.8,3.92t3.58,10.79ZM643.09,675q-1.37-5.15-6.55-5.15a6.71,6.71,0,0,0-2.22.36,6.43,6.43,0,0,0-1.89,1,6.63,6.63,0,0,0-1.45,1.62,7.54,7.54,0,0,0-.93,2.14Z"></path><path class="InfraspectedDecal-2" d="M676.25,648.48,687.84,678,700,646.34,711.54,678l12.31-29.55h7.3l-19.9,47-11.44-31.32-11.94,31.35-18.91-47Z"></path><path class="InfraspectedDecal-2" d="M733.92,653.21a4,4,0,0,1,1.24-2.92,4.06,4.06,0,0,1,3-1.23,4.11,4.11,0,0,1,3,1.23,4,4,0,0,1,1.24,2.94,4.06,4.06,0,0,1-1.24,3,4,4,0,0,1-3,1.23,4.22,4.22,0,0,1-4.24-4.23Zm7.47,11.59v27.89H734.9V664.8Z"></path><path class="InfraspectedDecal-2" d="M755.17,670.81v21.88h-6.49V670.81h-2.76v-6h2.76V654.58h6.49V664.8h5.05v6Z"></path><path class="InfraspectedDecal-2" d="M764.69,644.33h6.49v22.79a11.2,11.2,0,0,1,7.64-3.09,9.92,9.92,0,0,1,7.61,3.06q2.42,2.67,2.42,8.5v17.1h-6.49V676.2q0-3.36-1.19-4.86a4.65,4.65,0,0,0-3.85-1.5q-3.41,0-4.79,2.09c-.9,1.41-1.35,3.84-1.35,7.27v13.49h-6.49Z"></path><path class="InfraspectedDecal-2" d="M838.85,654.75H821v10.62h17.33v6.27H821v14.78h17.85v6.27H814.29V648.48h24.56Z"></path><path class="InfraspectedDecal-2" d="M848.8,664.8l7.27,15.66,7.23-15.66h7.3L856,694.6l-14.47-29.8Z"></path><path class="InfraspectedDecal-2" d="M898.42,680.26H878.3a8.42,8.42,0,0,0,2.25,5.47,6.89,6.89,0,0,0,5.1,2,6.7,6.7,0,0,0,4-1.14,16.52,16.52,0,0,0,3.55-4.24l5.47,3a21.36,21.36,0,0,1-2.68,3.67,13.81,13.81,0,0,1-3,2.52,12.33,12.33,0,0,1-3.49,1.45,17.43,17.43,0,0,1-4.07.46,13.28,13.28,0,0,1-10.09-4q-3.81-4-3.81-10.71t3.69-10.71a12.78,12.78,0,0,1,9.87-4q6.2,0,9.8,3.92t3.57,10.79ZM891.76,675q-1.35-5.15-6.54-5.15a6.71,6.71,0,0,0-2.22.36,6.43,6.43,0,0,0-1.89,1,6.67,6.67,0,0,0-1.46,1.62,7.52,7.52,0,0,0-.92,2.14Z"></path><path class="InfraspectedDecal-2" d="M904.4,664.8h6.48v2.49a12.46,12.46,0,0,1,3.17-2.55,7.45,7.45,0,0,1,3.35-.71,10.48,10.48,0,0,1,5.36,1.66l-3,5.9a6.21,6.21,0,0,0-3.6-1.32q-5.31,0-5.31,8v14.46H904.4Z"></path><path class="InfraspectedDecal-2" d="M936.81,687.5l-12.63-22.7h7.52l8.6,16,8-16h7.32l-22.37,43.06h-7.41Z"></path><path class="InfraspectedDecal-2" d="M984,648.48v44.21h-6.72V648.48Z"></path><path class="InfraspectedDecal-2" d="M992.32,664.8h6.51v2.58a10.65,10.65,0,0,1,7.67-3.35,9.71,9.71,0,0,1,7.64,3.06q2.37,2.61,2.37,8.5v17.1H1010V677.11q0-4.12-1.15-5.7c-.75-1.06-2.12-1.6-4.1-1.6q-3.22,0-4.58,2.12c-.88,1.39-1.33,3.83-1.33,7.3v13.46h-6.51Z"></path><path class="InfraspectedDecal-2" d="M1039.89,669.55l-5.36,2.84c-.85-1.72-1.89-2.58-3.14-2.58a2.17,2.17,0,0,0-1.53.59,2,2,0,0,0-.64,1.5q0,1.61,3.75,3.18,5.16,2.2,7,4.06a6.94,6.94,0,0,1,1.79,5,8.74,8.74,0,0,1-3,6.76,10.24,10.24,0,0,1-7,2.58q-7.07,0-10-6.84l5.54-2.55a12.16,12.16,0,0,0,1.76,2.55,4,4,0,0,0,2.82,1.08q3.29,0,3.29-3c0-1.15-.85-2.22-2.54-3.21-.65-.33-1.31-.64-2-.95l-2-.94a12.24,12.24,0,0,1-4-2.75,6.72,6.72,0,0,1-1.47-4.49,8,8,0,0,1,2.51-6,8.85,8.85,0,0,1,6.23-2.37Q1037.26,664,1039.89,669.55Z"></path><path class="InfraspectedDecal-2" d="M1052.9,707.86h-6.49V664.8h6.49v3a12.36,12.36,0,0,1,18.25.43,15.2,15.2,0,0,1,3.81,10.62,15,15,0,0,1-3.78,10.45,12.37,12.37,0,0,1-18.28.23Zm15.43-28.94a9.59,9.59,0,0,0-2.2-6.53,7.09,7.09,0,0,0-5.59-2.55,7.43,7.43,0,0,0-5.79,2.46,9.3,9.3,0,0,0-2.23,6.47,9.49,9.49,0,0,0,2.23,6.47,7.3,7.3,0,0,0,5.76,2.49,7.06,7.06,0,0,0,5.57-2.52A9.1,9.1,0,0,0,1068.33,678.92Z"></path><path class="InfraspectedDecal-2" d="M1106.27,680.26h-20.12a8.42,8.42,0,0,0,2.25,5.47,6.88,6.88,0,0,0,5.1,2,6.72,6.72,0,0,0,4-1.14,16.52,16.52,0,0,0,3.54-4.24l5.48,3a21.36,21.36,0,0,1-2.68,3.67,13.63,13.63,0,0,1-3,2.52,12.21,12.21,0,0,1-3.49,1.45,17.34,17.34,0,0,1-4.06.46,13.26,13.26,0,0,1-10.09-4q-3.81-4-3.81-10.71t3.69-10.71a12.77,12.77,0,0,1,9.86-4q6.19,0,9.8,3.92t3.58,10.79Zm-6.66-5.27q-1.35-5.15-6.54-5.15a6.71,6.71,0,0,0-2.22.36,6.19,6.19,0,0,0-1.89,1,6.47,6.47,0,0,0-1.46,1.62,7.52,7.52,0,0,0-.92,2.14Z"></path><path class="InfraspectedDecal-2" d="M1134.1,666v8.56a15.9,15.9,0,0,0-4-3.69,7.79,7.79,0,0,0-4.07-1,8,8,0,0,0-6.08,2.55,8.87,8.87,0,0,0-2.42,6.38,9.12,9.12,0,0,0,2.33,6.44,7.92,7.92,0,0,0,6,2.52,8.24,8.24,0,0,0,4.12-1,16.46,16.46,0,0,0,4.07-3.78v8.5a17.11,17.11,0,0,1-7.9,2,15.19,15.19,0,0,1-10.9-4.18,13.91,13.91,0,0,1-4.38-10.45,14.11,14.11,0,0,1,4.44-10.54,15.08,15.08,0,0,1,10.89-4.29A16.47,16.47,0,0,1,1134.1,666Z"></path><path class="InfraspectedDecal-2" d="M1146,670.81v21.88h-6.49V670.81h-2.76v-6h2.76V654.58H1146V664.8h5v6Z"></path><path class="InfraspectedDecal-2" d="M1153.31,653.21a4,4,0,0,1,1.23-2.92,4.24,4.24,0,0,1,6,0,3.92,3.92,0,0,1,1.24,2.94,4,4,0,0,1-1.24,3,4,4,0,0,1-3,1.23,4.2,4.2,0,0,1-4.23-4.23Zm7.46,11.59v27.89h-6.48V664.8Z"></path><path class="InfraspectedDecal-2" d="M1166.54,678.54a13.77,13.77,0,0,1,4.36-10.27,15.43,15.43,0,0,1,21.27,0,14.86,14.86,0,0,1,0,21,15,15,0,0,1-10.76,4.21,14.64,14.64,0,0,1-14.85-15Zm6.63.12a9.36,9.36,0,0,0,2.25,6.61,8.79,8.79,0,0,0,12.17,0,10.41,10.41,0,0,0,0-13,8.68,8.68,0,0,0-12.11,0A8.92,8.92,0,0,0,1173.17,678.66Z"></path><path class="InfraspectedDecal-2" d="M1202.24,664.8h6.52v2.58a10.62,10.62,0,0,1,7.67-3.35,9.74,9.74,0,0,1,7.64,3.06q2.36,2.61,2.36,8.5v17.1h-6.52V677.11q0-4.12-1.15-5.7c-.75-1.06-2.11-1.6-4.09-1.6-2.16,0-3.68.71-4.59,2.12s-1.32,3.83-1.32,7.3v13.46h-6.52Z"></path><path class="InfraspectedDecal-2" d="M314.87,406q0-15.66-.45-26.33t-.69-18.84A61.81,61.81,0,0,0,324,362a61.81,61.81,0,0,0,10.22-1.13q24.74,27.46,48.91,54t49.6,54V427.1q0-11.12-.11-21.91t-.23-19.86c-.08-6.05-.22-11.27-.45-15.66a73.2,73.2,0,0,0-.8-8.85,46.74,46.74,0,0,0,20.43,0q-1.12,20.65-1.81,37.34t-1.14,31.44q-.45,14.76-.56,29.17t-.12,30.75v27.25a91.41,91.41,0,0,0-9.31-.46,74.77,74.77,0,0,0-8.85.46Q383,462.28,330.53,407.12c-.15,4.4-.26,8.78-.34,13.17s-.11,8.85-.11,13.39V460q0,13.62.11,23.15t.34,16.12q.23,6.58.46,10.78t.45,6.7a32.25,32.25,0,0,0-5.45-.46h-5.22q-5.22,0-10.44.46.45-1.82,1.13-12.94t1.48-27.13q.8-16,1.36-34.73T314.87,406Z"></path><path class="InfraspectedDecal-2" d="M481.15,390.21q-.47-14.64-1.36-29.39,10.21.23,20.2.68t20.2.45q16.8,0,29.85-.34t17.59-.79a40.92,40.92,0,0,0-.9,9.53A55.14,55.14,0,0,0,567,376c.15,1.37.38,2.88.68,4.54q-6.58-.45-14.41-.9L538,378.75q-7.38-.45-13.28-.68c-3.94-.15-6.73-.23-8.4-.23q-.9,12.5-1,24.74t-.11,24.75q14.74-.22,26.67-.68t24.86-1.14c-.46,2.58-.76,4.54-.91,5.9a39.41,39.41,0,0,0-.23,4.32,22.13,22.13,0,0,0,.34,3.74c.23,1.29.49,3.14.8,5.56q-25.89-2-51.53-2v11.58q0,18.84.45,33.48T517,516.77a70.44,70.44,0,0,0-8.4-.46H488.18a70.38,70.38,0,0,0-8.39.46q.9-14.08,1.36-28.72t.45-33.48V423.69Q481.6,404.87,481.15,390.21Z"></path><path class="InfraspectedDecal-2" d="M621.12,445.26v9.31q0,18.84.45,33.48t1.36,28.72a70.44,70.44,0,0,0-8.4-.46H594.1a70.56,70.56,0,0,0-8.4.46q.91-14.08,1.37-28.72t.45-33.48V423.69q0-18.82-.45-33.48t-1.37-29.39c2.58.3,5.37.56,8.4.79s6.43.34,10.22.34q6.12,0,14-.57t19.41-.56q8.63,0,14.75.45A84.85,84.85,0,0,1,663,362.63a37.22,37.22,0,0,1,7.72,2.39,39,39,0,0,1,6.24,3.51,36.84,36.84,0,0,1,10.78,12.38q4,7.36,4,17.59,0,16.58-9.08,27t-26.1,14.76q10.89,19.29,23.38,38.47t25,38q-5.22-.46-10.22-.46H674.12c-3.4,0-6.85.15-10.33.46l-40.63-71.51ZM657,403.49q0-10-2-15.89a18,18,0,0,0-6.24-9,23.65,23.65,0,0,0-10.9-4,122.14,122.14,0,0,0-16-.91q-.69,30.88-.68,61.75c.9.15,1.77.27,2.61.34s1.62.11,2.38.11q15,0,22.93-8.06T657,403.49Z"></path><path class="InfraspectedDecal-2" d="M856.69,516.77q-5.45-.46-10.32-.46h-19.3q-4.87,0-9.65.46-3.63-11.13-7.49-22.71t-8.17-23.15q-7.26-.23-14.53-.34t-14.53-.11c-3.93,0-7.87,0-11.8.11s-7.87.19-11.8.34q-4.54,11.58-8.4,23.15t-7,22.71a31.73,31.73,0,0,0-5.33-.46H717.54a41,41,0,0,0-5.9.46q2.73-5.91,7.27-16.35t10-23.61q5.46-13.15,11.69-28.26T753.07,418q6.24-15.43,12.26-30.42t11-27.92c1.51.31,2.95.57,4.31.79a26.77,26.77,0,0,0,8.63,0c1.36-.22,2.79-.48,4.31-.79Q800.85,379,809.14,401t16.68,43.25q8.4,21.22,16.35,40.29T856.69,516.77ZM776.34,403.49q-5.91,13.62-11.13,26.9T755,457.52h41.54q-5-13.84-9.87-27.13T776.34,403.49Z"></path><path class="InfraspectedDecal-2" d="M866.8,514.8c-2.12-1.06-2.27-1.66-2.27-5.74,0-7.55.61-13.59.76-16,.15-1.66.45-2.42,1.21-2.42s1,.45,1,1.66a26.82,26.82,0,0,0,.45,5.59c2.27,11.17,12.24,15.4,22.35,15.4,14.5,0,21.6-10.42,21.6-20.08,0-10.42-4.38-16.46-17.37-27.18l-6.79-5.59c-16-13.14-19.63-22.5-19.63-32.77,0-16.15,12.08-27.18,31.25-27.18A59,59,0,0,1,913.46,402a24.38,24.38,0,0,0,5.28.76c1.21,0,1.51.3,1.51,1.05s-.6,5.74-.6,16c0,2.42-.3,3.47-1.06,3.47-.91,0-1.06-.75-1.21-2a26.37,26.37,0,0,0-2-7.55c-.91-1.66-5-8-18.88-8-10.41,0-18.57,6.49-18.57,17.51,0,8.61,3.93,14,18.42,25.37l4.23,3.32c17.82,14,22,23.41,22,35.49,0,6.19-2.42,17.67-12.84,25.07-6.49,4.53-14.64,6.34-22.8,6.34C879.93,518.88,873,517.82,866.8,514.8Z"></path><path class="InfraspectedDecal-2" d="M953.52,446.4c0-23.56,0-27.79-.31-32.62-.3-5.13-1.51-7.55-6.49-8.61a28.39,28.39,0,0,0-5.13-.45c-.61,0-1.21-.3-1.21-.91,0-.9.75-1.2,2.41-1.2,6.8,0,15.86.45,17.07.45,3.32,0,12.08-.45,19-.45,18.88,0,25.67,6.34,28.09,8.6,3.32,3.18,7.55,10,7.55,19.79,0,19.63-15.7,34.12-37.15,34.12a22.5,22.5,0,0,1-3.17-.15c-.75,0-1.66-.3-1.66-1.06,0-1.2.91-1.36,4.08-1.36,14.65,0,26.12-10,26.12-25.82,0-3.77-.45-13.89-8.45-22s-17.22-7.55-20.69-7.55a18.62,18.62,0,0,0-6.49.9c-.91.31-1.21,1.36-1.21,2.87V473c0,14.5,0,26.43.75,32.77.46,4.38,1.36,7.7,5.89,8.31a66.49,66.49,0,0,0,6.8.6c.9,0,1.2.45,1.2.91,0,.75-.75,1.2-2.41,1.2-8.31,0-17.82-.45-18.58-.45-.45,0-10,.45-14.49.45-1.66,0-2.42-.3-2.42-1.2,0-.46.31-.91,1.21-.91a23.46,23.46,0,0,0,4.53-.6c3-.61,3.78-3.93,4.38-8.31.76-6.34.76-18.27.76-32.77Z"></path><path class="InfraspectedDecal-2" d="M1038.62,446.4c0-23.56,0-27.79-.3-32.62-.31-5.13-1.51-7.55-6.5-8.61a35.67,35.67,0,0,0-4.38-.45c-1-.15-2-.3-2-.91,0-.9.76-1.2,2.42-1.2,3.47,0,7.55,0,17.06.45,1.06,0,31.11,0,34.58-.15,3.32-.15,6-.45,7-.91a3.63,3.63,0,0,1,1.66-.6c.45,0,.6.6.6,1.36,0,1.05-.91,2.87-1.21,7.09-.15,2.27-.3,5.14-.6,9.07-.15,1.51-.61,2.56-1.21,2.56-.91,0-1.21-.75-1.21-2a15.1,15.1,0,0,0-.75-5c-1.06-3.48-4.23-5-10.87-5.59-2.57-.3-19-.45-20.69-.45-.61,0-.91.45-.91,1.51v41.67c0,1.06.15,1.51.91,1.51,2,0,20.53,0,24-.3,4.07-.3,6-.75,7.55-2.57.75-.9,1.21-1.51,1.81-1.51s.75.31.75,1.21-.75,3.47-1.2,8.46c-.46,4.68-.46,8.15-.61,10.27-.15,1.51-.45,2.26-1,2.26-.91,0-1.06-1.21-1.06-2.42a13.39,13.39,0,0,0-.61-4.22c-.6-2.27-2.41-4.38-7.85-5-4.07-.45-19-.75-21.59-.75a1,1,0,0,0-1.06,1.05V473c0,5.14-.15,22.65,0,25.82.3,6.2,1.21,9.52,5,11,2.56,1.05,6.64,1.36,12.53,1.36,4.53,0,9.51-.15,13.59-1.36,4.83-1.51,6.49-4.68,7.7-11.18.3-1.66.6-2.26,1.36-2.26s.9,1.21.91,2.26a146.54,146.54,0,0,1-2,14.65c-1.06,3.93-2.26,3.93-8.15,3.93-11.18,0-16.16-.31-22-.46-6-.15-13-.45-18.87-.45-3.63,0-7.25.6-11.18.45-1.66,0-2.41-.3-2.41-1.2,0-.46.75-.76,1.66-.91a19.63,19.63,0,0,0,3.47-.45c3.17-.76,5.13-2.87,5.44-14.2.15-5.89.3-13.59.3-27Z"></path><path class="InfraspectedDecal-2" d="M1125.15,502.57c-14.64-13.14-18.27-30.35-18.27-44.7,0-10.11,3.48-27.78,16.91-41.22,9.07-9.06,22.81-16.16,46.06-16.16a129.45,129.45,0,0,1,21.9,1.82c5.73,1.05,10.42,1.5,16,2.26,1.06.15,1.36.75,1.36,1.66,0,1.21-.45,3-.75,8.46-.31,5-.31,13.28-.46,15.55s-.45,3.17-1.36,3.17-1.2-1.06-1.2-3.17c0-5.89-2.42-12.08-6.35-15.4-5.28-4.53-16.91-8.61-30.2-8.61-20.08,0-29.44,5.89-34.73,11-11,10.57-13.59,24-13.59,39.42,0,28.84,22.2,55.26,54.51,55.26,11.33,0,20.24-1.36,26.28-7.55,3.17-3.32,5.13-10,5.59-12.68.3-1.66.6-2.27,1.51-2.27.75,0,1.05,1.06,1.05,2.27,0,1.05-1.81,14.19-3.32,19.33-.91,2.86-1.21,3.17-3.92,4.37-6,2.42-17.52,3.48-27.19,3.48C1152.33,518.88,1137.08,513.29,1125.15,502.57Z"></path><path class="InfraspectedDecal-2" d="M1277.1,473c0,14.5,0,26.43.76,32.77.45,4.38,1.36,7.7,5.89,8.31a66.09,66.09,0,0,0,6.79.6c.91,0,1.21.45,1.21.91,0,.75-.75,1.2-2.41,1.2-8.31,0-17.82-.45-18.58-.45s-10.27.45-14.8.45c-1.66,0-2.41-.3-2.41-1.2,0-.46.3-.91,1.21-.91a23.46,23.46,0,0,0,4.53-.6c3-.61,3.77-3.93,4.38-8.31.75-6.34.75-18.27.75-32.77V409.1c-7.4.15-15,.15-22.35.3-9.36.15-13,1.21-15.4,4.83a27.18,27.18,0,0,0-2.57,4.69c-.45,1.2-.9,1.51-1.51,1.51-.45,0-.75-.46-.75-1.36,0-1.51,3-14.5,3.32-15.71.3-.9.91-2.87,1.51-2.87,1.06,0,2.57,1.51,6.64,1.82,4.38.45,10.12.75,11.93.75h56.63a60.79,60.79,0,0,0,10.72-.75c2.26-.31,3.62-.76,4.23-.76s.75.91.75,1.81c0,4.53-.45,14.95-.45,16.61,0,1.36-.45,2-1.06,2s-1-.45-1.21-2.56c0-.61-.15-1.06-.15-1.66-.45-4.53-4.07-8-18.57-8.31-6.34-.15-12.68-.15-19-.3Z"></path><path class="InfraspectedDecal-2" d="M1346.16,446.4c0-23.56,0-27.79-.31-32.62-.3-5.13-1.51-7.55-6.49-8.61a35.88,35.88,0,0,0-4.38-.45c-1.06-.15-2-.3-2-.91,0-.9.75-1.2,2.41-1.2,3.48,0,7.55,0,17.07.45,1,0,31.1,0,34.58-.15,3.32-.15,6-.45,6.94-.91a3.71,3.71,0,0,1,1.66-.6c.46,0,.61.6.61,1.36,0,1.05-.91,2.87-1.21,7.09-.15,2.27-.3,5.14-.6,9.07-.15,1.51-.61,2.56-1.21,2.56-.91,0-1.21-.75-1.21-2a15.1,15.1,0,0,0-.75-5c-1.06-3.48-4.23-5-10.88-5.59-2.56-.3-19-.45-20.68-.45-.61,0-.91.45-.91,1.51v41.67c0,1.06.15,1.51.91,1.51,2,0,20.53,0,24-.3,4.08-.3,6-.75,7.56-2.57.75-.9,1.2-1.51,1.81-1.51.45,0,.75.31.75,1.21s-.75,3.47-1.21,8.46c-.45,4.68-.45,8.15-.6,10.27-.15,1.51-.45,2.26-1.06,2.26-.9,0-1-1.21-1-2.42a13.69,13.69,0,0,0-.61-4.22c-.6-2.27-2.41-4.38-7.85-5-4.08-.45-19-.75-21.59-.75a1,1,0,0,0-1.06,1.05V473c0,5.14-.15,22.65,0,25.82.3,6.2,1.21,9.52,5,11,2.57,1.05,6.65,1.36,12.54,1.36,4.53,0,9.51-.15,13.59-1.36,4.83-1.51,6.49-4.68,7.7-11.18.3-1.66.6-2.26,1.36-2.26s.9,1.21.9,2.26c0,1.21-1.21,11.48-2,14.65-1.06,3.93-2.27,3.93-8.16,3.93-11.17,0-16.15-.31-22-.46s-13-.45-18.88-.45c-3.62,0-7.24.6-11.17.45-1.66,0-2.42-.3-2.42-1.2,0-.46.76-.76,1.66-.91a19.62,19.62,0,0,0,3.48-.45c3.17-.76,5.13-2.87,5.43-14.2.15-5.89.31-13.59.31-27Z"></path><path class="InfraspectedDecal-2" d="M1429.42,446.4c0-23.56,0-27.79-.31-32.62-.3-5.13-1-7.55-6-8.61a28.31,28.31,0,0,0-5.13-.45c-1.06,0-1.66-.3-1.66-.91,0-.9.75-1.2,2.41-1.2,6.8,0,16.31.45,17.07.45,1.81,0,11.32-.45,20.38-.45,14.95,0,42.58-1.36,60.55,17.21,7.55,7.85,14.65,20.39,14.65,38.36,0,19-7.85,33.67-16.31,42.58-6.49,6.79-20.08,17.36-45.75,17.36-6.49,0-14.5-.45-21-.9s-11.78-.91-12.53-.91c-.3,0-2.87,0-6,.15-3,0-6.5.3-8.76.3-1.66,0-2.42-.3-2.42-1.2,0-.46.3-.91,1.51-.91a31.88,31.88,0,0,0,4.23-.6c3-.61,3.78-3.93,4.38-8.31.76-6.34.76-18.27.76-32.77Zm12.68,16.31c0,16,.15,29.89.3,32.76.15,3.78.45,9.82,1.66,11.48,2,2.87,7.85,6,25.67,6,14,0,27-5.14,35.94-14,7.85-7.71,12.08-22.2,12.08-36.09,0-19.18-8.3-31.56-14.5-38.06-14.19-14.95-31.4-17.06-49.37-17.06-3,0-8.61.45-9.82,1.06s-1.81,1.36-1.81,3c-.15,5.13-.15,20.53-.15,32.16Z"></path><path class="InfraspectedDecal-2" d="M238.06,366.88q-.54-17.36-1.61-34.83,4.56.54,10,.94t12.11.4q6.72,0,12.1-.4c3.59-.27,6.9-.58,9.95-.94q-1.08,17.49-1.61,34.83t-.54,39.68v36.58q0,22.33.54,39.68t1.61,34a85.09,85.09,0,0,0-9.95-.54H246.4a85,85,0,0,0-10,.54q1.06-16.68,1.61-34t.54-39.68V406.56Q238.6,384.24,238.06,366.88Z"></path><rect class="InfraspectedDecal-3" x="232.12" y="540.83" width="1307.19" height="11.97"></rect><polygon class="InfraspectedDecal-4" points="1539.31 375.98 819.82 375.98 815.11 364.01 1539.31 364.01 1539.31 375.98"></polygon><path class="InfraspectedDecal-2" d="M1518.86,508.22V506.6h8.28v1.62H1524v8.09H1522v-8.09Zm12.7-1.62,2.49,6.95,2.49-6.95h2.77v9.71h-1.79v-7.84l-2.68,7.84h-1.56l-2.71-7.84v7.84h-1.78V506.6Z"></path></g></g></svg>