<svg xmlns="http://www.w3.org/2000/svg" xmlns:xlink="http://www.w3.org/1999/xlink" viewBox="0 0 1307.19 220.76"><defs><style>.cls-1{fill:url(#linear-gradient);}.cls-2{fill:url(#linear-gradient-2);}</style><linearGradient id="linear-gradient" y1="214.77" x2="1307.19" y2="214.77" gradientUnits="userSpaceOnUse"><stop offset="0"/><stop offset="0.21" stop-color="#8d2edc"/><stop offset="0.37" stop-color="#c4005e"/><stop offset="0.55" stop-color="#ff0b64"/><stop offset="0.7" stop-color="#ff8e0b"/><stop offset="0.86" stop-color="#ff0"/><stop offset="1" stop-color="#fff"/></linearGradient><linearGradient id="linear-gradient-2" x1="583" y1="37.95" x2="1307.19" y2="37.95" xlink:href="#linear-gradient"/></defs><g id="Layer_2" data-name="Layer 2"><g id="Layer_1-2" data-name="Layer 1"><path d="M82.75,73.94q0-15.66-.45-26.33t-.68-18.84a60.83,60.83,0,0,0,10.21,1.14,60.82,60.82,0,0,0,10.22-1.14q24.74,27.47,48.92,54t49.6,54V95.05q0-11.11-.12-21.9t-.22-19.86q-.12-9.07-.46-15.67a74.33,74.33,0,0,0-.79-8.85,60.73,60.73,0,0,0,10.21,1.14,60.82,60.82,0,0,0,10.22-1.14q-1.14,20.65-1.82,37.34t-1.13,31.44q-.47,14.76-.57,29.17t-.11,30.76v27.24a91.44,91.44,0,0,0-9.31-.45,74.94,74.94,0,0,0-8.85.45q-46.77-54.48-99.2-109.64-.23,6.58-.34,13.16T98,101.64V128q0,13.62.12,23.15t.34,16.12q.22,6.58.45,10.78t.46,6.7a32.41,32.41,0,0,0-5.45-.45H88.66c-3.49,0-7,.14-10.45.45q.47-1.82,1.14-12.94t1.48-27.13q.78-16,1.36-34.73T82.75,73.94Z"/><path d="M249,58.17q-.45-14.64-1.36-29.4,10.22.23,20.2.68t20.21.46q16.79,0,29.85-.35t17.59-.79a40.31,40.31,0,0,0-.91,9.53,54.7,54.7,0,0,0,.23,5.68c.15,1.36.37,2.88.68,4.54q-6.58-.45-14.42-.91t-15.2-.91q-7.38-.45-13.28-.68t-8.4-.23q-.92,12.49-1,24.75t-.12,24.74q14.76-.23,26.67-.68t24.86-1.13c-.45,2.57-.76,4.54-.91,5.9a39.43,39.43,0,0,0-.22,4.31,21.34,21.34,0,0,0,.34,3.75c.22,1.28.49,3.14.79,5.56q-25.87-2.05-51.53-2v11.58q0,18.84.46,33.48t1.36,28.72a70.78,70.78,0,0,0-8.4-.45H256.07a70.54,70.54,0,0,0-8.4.45q.9-14.07,1.36-28.72t.46-33.48V91.65Q249.49,72.81,249,58.17Z"/><path d="M389,113.21v9.31q0,18.84.45,33.48t1.37,28.72a70.78,70.78,0,0,0-8.4-.45H362a70.54,70.54,0,0,0-8.4.45q.9-14.07,1.36-28.72t.45-33.48V91.65q0-18.84-.45-33.48t-1.36-29.4q3.86.46,8.4.79c3,.23,6.43.35,10.21.35q6.14,0,14-.57t19.41-.57q8.63,0,14.76.45a84.75,84.75,0,0,1,10.55,1.37A37.24,37.24,0,0,1,438.6,33a39.84,39.84,0,0,1,6.24,3.52,36.83,36.83,0,0,1,10.79,12.37,36.7,36.7,0,0,1,4,17.59q0,16.58-9.08,27t-26.11,14.75q10.9,19.29,23.38,38.48t25,38c-3.48-.31-6.88-.45-10.21-.45H442c-3.41,0-6.85.14-10.33.45L391,113.21Zm35.87-41.76q0-10-2.05-15.89a17.94,17.94,0,0,0-6.24-9,23.56,23.56,0,0,0-10.89-4,120.48,120.48,0,0,0-16-.91Q389,72.58,389,103.45c.91.16,1.78.27,2.61.34s1.63.12,2.38.12q15,0,22.93-8.06T424.87,71.45Z"/><path d="M624.58,184.72c-3.63-.31-7.08-.45-10.33-.45H595c-3.26,0-6.47.14-9.65.45q-3.63-11.11-7.49-22.7t-8.17-23.15q-7.27-.23-14.53-.35t-14.53-.11q-5.91,0-11.8.11t-11.81.35q-4.54,11.56-8.4,23.15t-7,22.7a31.53,31.53,0,0,0-5.33-.45H485.43a40.65,40.65,0,0,0-5.9.45q2.72-5.9,7.26-16.34t10-23.61q5.45-13.17,11.69-28.26T521,86q6.24-15.43,12.26-30.41t11-27.92c1.51.3,2.95.56,4.31.79a26,26,0,0,0,4.32.34,25.88,25.88,0,0,0,4.31-.34c1.36-.23,2.8-.49,4.31-.79Q568.75,46.93,577,69t16.69,43.24q8.38,21.23,16.34,40.3T624.58,184.72ZM544.22,71.45q-5.91,13.62-11.12,26.9t-10.22,27.12h41.54q-5-13.84-9.87-27.12T544.22,71.45Z"/><path d="M634.68,182.76c-2.11-1.06-2.26-1.67-2.26-5.74,0-7.55.6-13.59.75-16,.15-1.66.46-2.41,1.21-2.41.91,0,1.06.45,1.06,1.66a26.68,26.68,0,0,0,.45,5.58c2.26,11.18,12.23,15.41,22.35,15.41,14.49,0,21.59-10.42,21.59-20.09,0-10.42-4.38-16.46-17.36-27.18l-6.8-5.58c-16-13.14-19.63-22.5-19.63-32.77,0-16.16,12.08-27.18,31.26-27.18a58.29,58.29,0,0,1,14,1.51,24.88,24.88,0,0,0,5.29.75c1.2,0,1.51.3,1.51,1.06s-.61,5.74-.61,16c0,2.41-.3,3.47-1.06,3.47s-1.05-.76-1.2-2a26.31,26.31,0,0,0-2-7.55c-.9-1.66-5-8-18.87-8-10.42,0-18.57,6.5-18.57,17.52,0,8.61,3.92,14,18.42,25.37l4.23,3.32c17.81,14,22,23.4,22,35.48,0,6.2-2.41,17.67-12.83,25.07-6.5,4.53-14.65,6.34-22.8,6.34C647.82,186.83,640.87,185.78,634.68,182.76Z"/><path d="M721.4,114.35c0-23.55,0-27.78-.3-32.61-.3-5.14-1.51-7.55-6.5-8.61a28.31,28.31,0,0,0-5.13-.45c-.6,0-1.21-.31-1.21-.91,0-.91.76-1.21,2.42-1.21,6.79,0,15.85.45,17.06.45,3.32,0,12.08-.45,19-.45,18.87,0,25.67,6.34,28.08,8.61,3.33,3.17,7.55,10,7.55,19.78,0,19.63-15.7,34.13-37.14,34.13a21,21,0,0,1-3.17-.16c-.76,0-1.66-.3-1.66-1,0-1.21.9-1.36,4.07-1.36,14.65,0,26.13-10,26.13-25.82,0-3.78-.46-13.89-8.46-22S745,75.09,741.48,75.09A18.43,18.43,0,0,0,735,76c-.91.3-1.21,1.36-1.21,2.87v62.06c0,14.49,0,26.42.76,32.77.45,4.37,1.36,7.7,5.89,8.3a66.09,66.09,0,0,0,6.79.6c.91,0,1.21.46,1.21.91,0,.76-.76,1.21-2.42,1.21-8.3,0-17.81-.45-18.57-.45-.45,0-10,.45-14.5.45-1.66,0-2.41-.3-2.41-1.21,0-.45.3-.91,1.21-.91a23.56,23.56,0,0,0,4.53-.6c3-.6,3.77-3.93,4.37-8.3.76-6.35.76-18.28.76-32.77Z"/><path d="M806.5,114.35c0-23.55,0-27.78-.3-32.61-.3-5.14-1.51-7.55-6.49-8.61a35.88,35.88,0,0,0-4.38-.45c-1.06-.16-2-.31-2-.91,0-.91.75-1.21,2.41-1.21,3.47,0,7.55,0,17.06.45,1.06,0,31.11,0,34.58-.15s6-.45,7-.9a3.64,3.64,0,0,1,1.66-.61c.45,0,.61.61.61,1.36,0,1.06-.91,2.87-1.21,7.1-.15,2.27-.3,5.13-.61,9.06-.15,1.51-.6,2.57-1.2,2.57-.91,0-1.21-.76-1.21-2a14.86,14.86,0,0,0-.76-5c-1-3.47-4.23-5-10.87-5.59-2.57-.3-19-.45-20.69-.45-.6,0-.9.45-.9,1.51v41.68c0,1,.15,1.51.9,1.51,2,0,20.54,0,24-.31,4.08-.3,6-.75,7.55-2.56.76-.91,1.21-1.51,1.81-1.51s.76.3.76,1.21-.76,3.47-1.21,8.45c-.45,4.68-.45,8.16-.6,10.27-.15,1.51-.46,2.26-1.06,2.26-.91,0-1.06-1.2-1.06-2.41a13.74,13.74,0,0,0-.6-4.23c-.61-2.26-2.42-4.38-7.85-5-4.08-.46-19-.76-21.6-.76a1,1,0,0,0-1,1.06v13.29c0,5.13-.15,22.65,0,25.82.3,6.19,1.21,9.51,5,11,2.57,1.06,6.64,1.36,12.53,1.36,4.53,0,9.52-.15,13.59-1.36,4.84-1.51,6.5-4.68,7.7-11.17.31-1.66.61-2.27,1.36-2.27.91,0,.91,1.21.91,2.27,0,1.21-1.21,11.47-2,14.65-1.06,3.92-2.27,3.92-8.16,3.92-11.17,0-16.15-.3-22-.45-6-.15-13-.45-18.88-.45-3.62,0-7.25.6-11.17.45-1.66,0-2.42-.3-2.42-1.21,0-.45.76-.75,1.66-.91a19.5,19.5,0,0,0,3.47-.45c3.18-.75,5.14-2.87,5.44-14.19.15-5.89.3-13.59.3-27Z"/><path d="M893,170.52c-14.65-13.13-18.27-30.35-18.27-44.69,0-10.12,3.47-27.79,16.91-41.23,9.06-9.06,22.8-16.15,46.06-16.15a129.26,129.26,0,0,1,21.89,1.81c5.74,1.06,10.42,1.51,16,2.26A1.44,1.44,0,0,1,977,74.19c0,1.2-.46,3-.76,8.45-.3,5-.3,13.29-.45,15.56s-.46,3.17-1.36,3.17c-1.06,0-1.21-1.06-1.21-3.17,0-5.89-2.42-12.08-6.34-15.41-5.29-4.53-16.91-8.6-30.2-8.6-20.09,0-29.45,5.89-34.73,11-11,10.57-13.59,24-13.59,39.41,0,28.84,22.19,55.27,54.51,55.27,11.32,0,20.23-1.36,26.27-7.55,3.17-3.33,5.14-10,5.59-12.69.3-1.66.6-2.26,1.51-2.26s1.06,1.05,1.06,2.26c0,1.06-1.81,14.2-3.32,19.33-.91,2.87-1.21,3.17-3.93,4.38-6,2.42-17.52,3.47-27.18,3.47C920.22,186.83,905,181.25,893,170.52Z"/><path d="M1045,140.93c0,14.49,0,26.42.75,32.77.46,4.37,1.36,7.7,5.89,8.3a66.49,66.49,0,0,0,6.8.6c.9,0,1.21.46,1.21.91,0,.76-.76,1.21-2.42,1.21-8.3,0-17.82-.45-18.57-.45s-10.27.45-14.8.45c-1.66,0-2.42-.3-2.42-1.21,0-.45.31-.91,1.21-.91a23.46,23.46,0,0,0,4.53-.6c3-.6,3.78-3.93,4.38-8.3.76-6.35.76-18.28.76-32.77V77.05c-7.4.16-14.95.16-22.35.31-9.37.15-13,1.2-15.41,4.83A26.21,26.21,0,0,0,992,86.87c-.45,1.21-.91,1.51-1.51,1.51s-.76-.45-.76-1.36c0-1.51,3-14.5,3.32-15.7.31-.91.91-2.87,1.51-2.87,1.06,0,2.57,1.51,6.65,1.81,4.38.45,10.12.75,11.93.75h56.62a60.62,60.62,0,0,0,10.72-.75c2.27-.3,3.63-.76,4.23-.76.76,0,.76.91.76,1.82,0,4.53-.46,15-.46,16.61,0,1.36-.45,2-1,2-.76,0-1.06-.45-1.21-2.57,0-.6-.15-1-.15-1.66-.45-4.53-4.08-8-18.57-8.3-6.35-.15-12.69-.15-19-.31Z"/><path d="M1114,114.35c0-23.55,0-27.78-.3-32.61-.3-5.14-1.51-7.55-6.49-8.61a35.88,35.88,0,0,0-4.38-.45c-1.06-.16-2-.31-2-.91,0-.91.76-1.21,2.42-1.21,3.47,0,7.55,0,17.06.45,1.06,0,31.11,0,34.58-.15,3.32-.15,6-.45,7-.9a3.6,3.6,0,0,1,1.66-.61c.45,0,.6.61.6,1.36,0,1.06-.9,2.87-1.21,7.1-.15,2.27-.3,5.13-.6,9.06-.15,1.51-.6,2.57-1.21,2.57-.9,0-1.2-.76-1.2-2a15.11,15.11,0,0,0-.76-5c-1.06-3.47-4.23-5-10.87-5.59-2.57-.3-19-.45-20.69-.45-.6,0-.91.45-.91,1.51v41.68c0,1,.16,1.51.91,1.51,2,0,20.54,0,24-.31,4.08-.3,6-.75,7.55-2.56.76-.91,1.21-1.51,1.81-1.51s.76.3.76,1.21-.76,3.47-1.21,8.45c-.45,4.68-.45,8.16-.6,10.27-.16,1.51-.46,2.26-1.06,2.26-.91,0-1.06-1.2-1.06-2.41a13.74,13.74,0,0,0-.6-4.23c-.61-2.26-2.42-4.38-7.85-5-4.08-.46-19-.76-21.6-.76a1,1,0,0,0-1.06,1.06v13.29c0,5.13-.15,22.65,0,25.82.31,6.19,1.21,9.51,5,11,2.56,1.06,6.64,1.36,12.53,1.36,4.53,0,9.51-.15,13.59-1.36,4.83-1.51,6.49-4.68,7.7-11.17.3-1.66.61-2.27,1.36-2.27.91,0,.91,1.21.91,2.27a146.92,146.92,0,0,1-2,14.65c-1,3.92-2.26,3.92-8.15,3.92-11.17,0-16.16-.3-22-.45-6-.15-13-.45-18.87-.45-3.63,0-7.25.6-11.18.45-1.66,0-2.41-.3-2.41-1.21,0-.45.75-.75,1.66-.91a19.5,19.5,0,0,0,3.47-.45c3.17-.75,5.14-2.87,5.44-14.19.15-5.89.3-13.59.3-27Z"/><path d="M1197.3,114.35c0-23.55,0-27.78-.3-32.61-.3-5.14-1.06-7.55-6-8.61a28.5,28.5,0,0,0-5.14-.45c-1,0-1.66-.31-1.66-.91,0-.91.76-1.21,2.42-1.21,6.79,0,16.31.45,17.06.45,1.81,0,11.33-.45,20.39-.45,15,0,42.58-1.36,60.55,17.22,7.55,7.85,14.65,20.38,14.65,38.35,0,19-7.86,33.67-16.31,42.58-6.5,6.8-20.09,17.37-45.76,17.37-6.49,0-14.49-.46-21-.91s-11.77-.9-12.53-.9c-.3,0-2.87,0-6,.15-3,0-6.49.3-8.76.3-1.66,0-2.41-.3-2.41-1.21,0-.45.3-.91,1.51-.91a31.88,31.88,0,0,0,4.23-.6c3-.6,3.77-3.93,4.37-8.3.76-6.35.76-18.28.76-32.77ZM1210,130.66c0,16,.15,29.9.31,32.77.15,3.77.45,9.81,1.66,11.47,2,2.87,7.85,6,25.67,6,14,0,27-5.13,35.94-14,7.85-7.7,12.08-22.2,12.08-36.09,0-19.18-8.31-31.56-14.5-38-14.19-15-31.41-17.06-49.38-17.06-3,0-8.6.45-9.81,1-1.36.61-1.82,1.36-1.82,3-.15,5.14-.15,20.54-.15,32.17Z"/><path d="M6,34.84Q5.4,17.49,4.33,0q4.57.54,10,.94t12.1.41q6.72,0,12.11-.41t10-.94q-1.08,17.49-1.62,34.84T46.3,74.51V111.1q0,22.32.53,39.67t1.62,34a85.31,85.31,0,0,0-10-.53H14.29a85.37,85.37,0,0,0-10,.53q1.08-16.67,1.62-34t.53-39.67V74.51Q6.48,52.19,6,34.84Z"/><rect class="cls-1" y="208.79" width="1307.19" height="11.97"/><polygon class="cls-2" points="1307.19 43.93 587.71 43.93 583 31.96 1307.19 31.96 1307.19 43.93"/><path d="M1286.74,176.17v-1.62H1295v1.62h-3.17v8.1h-1.93v-8.1Zm12.71-1.62,2.48,6.95,2.5-6.95h2.76v9.72h-1.78v-7.84l-2.69,7.84h-1.55l-2.72-7.84v7.84h-1.78v-9.72Z"/></g></g></svg>