<svg xmlns="http://www.w3.org/2000/svg" viewBox="0 0 1771.42 884.85"><defs><style>.MoldSafeDecal-1{fill:#f05b26;}.MoldSafeDecal-2{fill:#fff;}</style></defs><g id="Layer_2" data-name="Layer 2"><g id="Layer_1-2" data-name="Layer 1"><ellipse cx="885.71" cy="442.42" rx="866.4" ry="424.84"></ellipse><path class="MoldSafeDecal-1" d="M885.71,884.85C396.55,884.85,0,686.77,0,442.42S396.55,0,885.71,0s885.71,198.08,885.71,442.42S1374.87,884.85,885.71,884.85ZM55.7,435.74c4.12,222.87,346.43,345.73,813.93,345.73,411.75,0,644-98.49,719.83-252.46-59.83,170.19-357,288.39-803,288.39-171.35,0-330.42-22.9-462-61.82C467.21,812.73,651.58,847,857,847c487.63,0,862.79-176.84,858.71-397.92-4.12-222.88-346.43-345.73-813.93-345.73-411.75,0-644,98.49-719.83,252.46,59.83-170.19,357-288.39,803-288.39,171.35,0,330.42,22.9,462,61.82-142.79-57.15-327.16-91.45-532.59-91.45C426.78,37.82,51.62,214.66,55.7,435.74Z"></path><path class="MoldSafeDecal-2" d="M614.16,645H598.65V655.6h15v6.27h-15v21h-6.72v-44.2h22.23Z"></path><path class="MoldSafeDecal-2" d="M619,655h6.49v2.49a12.46,12.46,0,0,1,3.17-2.55,7.29,7.29,0,0,1,3.35-.72,10.61,10.61,0,0,1,5.36,1.66l-3,5.9a6.21,6.21,0,0,0-3.61-1.32q-5.29,0-5.3,8v14.46H619Z"></path><path class="MoldSafeDecal-2" d="M665.15,670.49H645a8.37,8.37,0,0,0,2.25,5.46,6.88,6.88,0,0,0,5.1,2,6.63,6.63,0,0,0,4-1.15,16.26,16.26,0,0,0,3.55-4.23l5.48,3a21.48,21.48,0,0,1-2.69,3.68,14.4,14.4,0,0,1-3,2.52,12,12,0,0,1-3.49,1.44,16.91,16.91,0,0,1-4.07.46,13.24,13.24,0,0,1-10.09-4q-3.81-4-3.8-10.7c0-4.41,1.22-8,3.69-10.71a12.76,12.76,0,0,1,9.86-4q6.19,0,9.8,3.93T665.18,669Zm-6.66-5.27q-1.37-5.16-6.55-5.16a6.54,6.54,0,0,0-4.11,1.39,6.43,6.43,0,0,0-1.45,1.62,7.6,7.6,0,0,0-.93,2.15Z"></path><path class="MoldSafeDecal-2" d="M696.69,670.49H676.57a8.37,8.37,0,0,0,2.25,5.46,6.85,6.85,0,0,0,5.1,2,6.65,6.65,0,0,0,4-1.15,16.26,16.26,0,0,0,3.54-4.23l5.48,3a21.46,21.46,0,0,1-2.68,3.68,14.19,14.19,0,0,1-3,2.52,11.91,11.91,0,0,1-3.49,1.44,16.82,16.82,0,0,1-4.06.46,13.23,13.23,0,0,1-10.09-4q-3.81-4-3.81-10.7t3.69-10.71a12.78,12.78,0,0,1,9.86-4q6.2,0,9.81,3.93T696.72,669ZM690,665.22q-1.35-5.16-6.54-5.16a6.71,6.71,0,0,0-2.22.36,6.41,6.41,0,0,0-1.89,1,6.67,6.67,0,0,0-1.46,1.62,7.59,7.59,0,0,0-.92,2.15Z"></path><path class="MoldSafeDecal-2" d="M723.19,638.71l11.59,29.54,12.11-31.69,11.6,31.69,12.31-29.54h7.29l-19.89,47L746.75,654.4l-11.94,31.34-18.91-47Z"></path><path class="MoldSafeDecal-2" d="M780.86,643.43a4,4,0,0,1,1.24-2.92,4.24,4.24,0,0,1,6,0,3.94,3.94,0,0,1,1.24,3,4.22,4.22,0,0,1-4.21,4.21,4.22,4.22,0,0,1-4.24-4.24Zm7.47,11.6v27.88h-6.49V655Z"></path><path class="MoldSafeDecal-2" d="M802.11,661v21.87h-6.48V661h-2.77v-6h2.77V644.81h6.48V655h5v6Z"></path><path class="MoldSafeDecal-2" d="M811.63,634.56h6.49v22.78a11.22,11.22,0,0,1,7.64-3.09,9.88,9.88,0,0,1,7.61,3.07c1.62,1.77,2.42,4.61,2.42,8.5v17.09h-6.48V666.42q0-3.34-1.2-4.85a4.64,4.64,0,0,0-3.85-1.51c-2.27,0-3.86.7-4.79,2.09s-1.35,3.84-1.35,7.28v13.48h-6.49Z"></path><path class="MoldSafeDecal-2" d="M885.79,645H868V655.6h17.33v6.27H868v14.77h17.84v6.27H861.23v-44.2h24.56Z"></path><path class="MoldSafeDecal-2" d="M895.75,655,903,670.69,910.25,655h7.29L903,684.83,888.48,655Z"></path><path class="MoldSafeDecal-2" d="M945.37,670.49H925.24a8.47,8.47,0,0,0,2.25,5.46,6.89,6.89,0,0,0,5.11,2,6.6,6.6,0,0,0,4-1.15,16.26,16.26,0,0,0,3.55-4.23l5.48,3a22,22,0,0,1-2.68,3.68,14.44,14.44,0,0,1-3,2.52,12,12,0,0,1-3.49,1.44,16.82,16.82,0,0,1-4.06.46,13.25,13.25,0,0,1-10.1-4q-3.79-4-3.8-10.7t3.69-10.71a12.76,12.76,0,0,1,9.86-4q6.19,0,9.8,3.93T945.4,669Zm-6.66-5.27q-1.37-5.16-6.55-5.16a6.8,6.8,0,0,0-2.22.36,6.46,6.46,0,0,0-3.34,2.65,7.31,7.31,0,0,0-.92,2.15Z"></path><path class="MoldSafeDecal-2" d="M951.34,655h6.49v2.49A12.46,12.46,0,0,1,961,655a7.25,7.25,0,0,1,3.34-.72,10.64,10.64,0,0,1,5.37,1.66l-3,5.9a6.23,6.23,0,0,0-3.61-1.32q-5.31,0-5.3,8v14.46h-6.49Z"></path><path class="MoldSafeDecal-2" d="M983.75,677.73,971.12,655h7.53l8.59,16,8-16h7.33L980.2,698.08h-7.41Z"></path><path class="MoldSafeDecal-2" d="M1030.93,638.71v44.2h-6.72v-44.2Z"></path><path class="MoldSafeDecal-2" d="M1039.26,655h6.52v2.57a10.68,10.68,0,0,1,7.67-3.35,9.71,9.71,0,0,1,7.64,3.07c1.57,1.73,2.36,4.57,2.36,8.5v17.09h-6.51V667.34q0-4.12-1.16-5.7c-.75-1.07-2.11-1.6-4.09-1.6-2.16,0-3.68.7-4.59,2.11s-1.32,3.83-1.32,7.3v13.46h-6.52Z"></path><path class="MoldSafeDecal-2" d="M1086.84,659.78l-5.37,2.83c-.84-1.72-1.89-2.57-3.14-2.57a2.2,2.2,0,0,0-1.53.58,2,2,0,0,0-.63,1.51q0,1.59,3.75,3.17c3.44,1.47,5.75,2.83,6.95,4.07a6.93,6.93,0,0,1,1.78,5,8.77,8.77,0,0,1-3,6.76,10.26,10.26,0,0,1-7,2.57q-7.06,0-10-6.84l5.54-2.55a12,12,0,0,0,1.76,2.55,4,4,0,0,0,2.83,1.09q3.29,0,3.28-3c0-1.14-.84-2.21-2.54-3.21-.65-.32-1.3-.64-2-.94l-2-1a12.07,12.07,0,0,1-4-2.74,6.77,6.77,0,0,1-1.47-4.5,7.92,7.92,0,0,1,2.5-6,8.82,8.82,0,0,1,6.23-2.38Q1084.22,654.25,1086.84,659.78Z"></path><path class="MoldSafeDecal-2" d="M1099.84,698.08h-6.48V655h6.48v3a12,12,0,0,1,8.71-3.81,12.18,12.18,0,0,1,9.54,4.24,15.24,15.24,0,0,1,3.81,10.62,15,15,0,0,1-3.78,10.45,12.37,12.37,0,0,1-18.28.23Zm15.43-28.94a9.6,9.6,0,0,0-2.19-6.53,7.11,7.11,0,0,0-5.6-2.55,7.44,7.44,0,0,0-5.79,2.47,9.28,9.28,0,0,0-2.22,6.47,9.5,9.5,0,0,0,2.22,6.47,7.31,7.31,0,0,0,5.77,2.49,7.05,7.05,0,0,0,5.56-2.52A9.11,9.11,0,0,0,1115.27,669.14Z"></path><path class="MoldSafeDecal-2" d="M1153.22,670.49h-20.13a8.37,8.37,0,0,0,2.25,5.46,6.88,6.88,0,0,0,5.1,2,6.63,6.63,0,0,0,4-1.15,16.26,16.26,0,0,0,3.55-4.23l5.47,3a20.94,20.94,0,0,1-2.68,3.68,14.4,14.4,0,0,1-3,2.52,12,12,0,0,1-3.49,1.44,16.91,16.91,0,0,1-4.07.46,13.24,13.24,0,0,1-10.09-4q-3.81-4-3.81-10.7t3.7-10.71a12.75,12.75,0,0,1,9.86-4q6.2,0,9.8,3.93t3.57,10.79Zm-6.66-5.27q-1.36-5.16-6.55-5.16a6.54,6.54,0,0,0-4.11,1.39,6.43,6.43,0,0,0-1.45,1.62,7.33,7.33,0,0,0-.93,2.15Z"></path><path class="MoldSafeDecal-2" d="M1181,656.23v8.56a15.53,15.53,0,0,0-4-3.69,7.76,7.76,0,0,0-4.06-1,8.06,8.06,0,0,0-6.09,2.55,8.93,8.93,0,0,0-2.42,6.39,9.1,9.1,0,0,0,2.34,6.44,7.88,7.88,0,0,0,6,2.52,8.42,8.42,0,0,0,4.13-1,16.45,16.45,0,0,0,4.06-3.78v8.5a17.19,17.19,0,0,1-7.9,2,15.17,15.17,0,0,1-10.9-4.18,13.9,13.9,0,0,1-4.38-10.45,14.07,14.07,0,0,1,4.44-10.53,15.05,15.05,0,0,1,10.9-4.3A16.33,16.33,0,0,1,1181,656.23Z"></path><path class="MoldSafeDecal-2" d="M1192.89,661v21.87h-6.48V661h-2.77v-6h2.77V644.81h6.48V655h5v6Z"></path><path class="MoldSafeDecal-2" d="M1200.25,643.43a4,4,0,0,1,1.24-2.92,4.24,4.24,0,0,1,6,0,4,4,0,0,1,1.24,3,4.08,4.08,0,0,1-1.24,3,4,4,0,0,1-3,1.23,4.22,4.22,0,0,1-4.24-4.24Zm7.47,11.6v27.88h-6.49V655Z"></path><path class="MoldSafeDecal-2" d="M1213.49,668.77a13.81,13.81,0,0,1,4.35-10.28,15.43,15.43,0,0,1,21.28,0,14.86,14.86,0,0,1,0,21,14.92,14.92,0,0,1-10.75,4.21,14.61,14.61,0,0,1-14.85-14.94Zm6.63.11a9.39,9.39,0,0,0,2.25,6.62,8.77,8.77,0,0,0,12.16,0,10.39,10.39,0,0,0,0-13,8.66,8.66,0,0,0-12.11,0A9,9,0,0,0,1220.12,668.88Z"></path><path class="MoldSafeDecal-2" d="M1249.18,655h6.52v2.57a10.68,10.68,0,0,1,7.67-3.35,9.7,9.7,0,0,1,7.64,3.07c1.58,1.73,2.36,4.57,2.36,8.5v17.09h-6.51V667.34q0-4.12-1.16-5.7c-.74-1.07-2.11-1.6-4.09-1.6q-3.22,0-4.58,2.11t-1.33,7.3v13.46h-6.52Z"></path><path class="MoldSafeDecal-1" d="M566.8,663.87a34.38,34.38,0,1,1-34.38-34.37A34.38,34.38,0,0,1,566.8,663.87Zm-33.92-3.32a14.05,14.05,0,0,0-6.46,1.58,8.69,8.69,0,0,0-1.12-3,6.57,6.57,0,1,0-8.06-6.4,6.67,6.67,0,0,0,.33,2,8.93,8.93,0,0,0,.07,17.86,9.22,9.22,0,0,0,1.4-.12,13.69,13.69,0,0,0-.17,2,14,14,0,1,0,14-14Zm8.53-20.24a5.68,5.68,0,1,0,5.68,5.68A5.68,5.68,0,0,0,541.41,640.31Zm9.55,14a5.13,5.13,0,1,0,5.13,5.13A5.13,5.13,0,0,0,551,654.32Z"></path><path class="MoldSafeDecal-2" d="M529.37,550.4H489.72V347.72l-1.71-.17q-15.3,101.22-30.63,202.75H421.43Q406.19,449.74,391,349.4l-1.14.05V550.12H352.57V278.45h60.69q13.49,96,26.92,191.78l1.49,0c9-63.76,17.92-127.52,26.93-191.68h60.77Z"></path><path class="MoldSafeDecal-1" d="M1076.06,353.66h-40.57c.82-17,1.39-41-20.47-40.48-32.47-.31-24.59,46.13-8.09,61.8,7,7.86,14.87,14.91,22.22,22.46,10,10.24,20.81,19.84,29.52,31.07,20.56,26.51,22.59,56.67,13.4,87.79-8.94,33.92-49.11,43.43-79.77,36-37.62-7.51-45.64-48.22-42.91-81.28h40.06c1,18.55-3.43,46.17,23.52,44.63,11.31-.3,18.14-6,20.2-17.26,7.87-36.56-22.87-59.53-46.45-81.53-15.27-14.59-28.58-30.56-33.94-51.62-9.26-34.66,1.91-81.5,42-88.91C1050.62,264.55,1080.76,299.13,1076.06,353.66Z"></path><path class="MoldSafeDecal-2" d="M789.47,328.67c22.37,0,43.43,0,65.46,0,57.58,1.1,43.39,72.94,44.7,115.11-1.85,36.62,11.44,93.1-31.87,105.89-25.76,3.18-52.36,1.56-78.29.94ZM828.22,519.3c15.49.11,34.93,3,33.69-19.91q0-47.08,0-94.17c-.38-35.76,5.67-47-33.7-43.61Z"></path><path class="MoldSafeDecal-2" d="M663.69,439.73c-1.27,49.08,13.54,119.14-53.86,114.13C582,557.62,554,540.66,554,508.17q-.88-68.21,0-136.44c.33-26.39,19.71-45.64,44.21-45.79C677.14,318.52,662.92,379.17,663.69,439.73Zm-37.5-.07h.17c0-21.83.15-43.66-.06-65.49.49-13.13-10.18-16.87-20.66-15.41-9.72.83-14.11,4.87-14.19,15.25-.35,42.07-.29,84.14-.33,126.21-.14,9.54,1.64,20.46,12.55,20.5,11.75,1,23.43-.57,22.47-16.16C626.32,482.93,626.19,461.3,626.19,439.66Z"></path><path class="MoldSafeDecal-1" d="M1108.48,550.65h-33.92c12.22-74.12,24.35-147.74,36.53-221.63h50.76c12.19,73.58,24.4,147.3,36.76,221.9H1163l-5.64-40.44h-43.09Zm27-180.3c-3.22,21.42-13,87.8-16.63,109.75h33.48C1148.67,458.08,1138.82,391.79,1135.53,370.35Z"></path><path class="MoldSafeDecal-1" d="M1356.84,454.15v64.61h62v32.08h-96.44V329.19h96.43v31.73H1357V423h49.13v31.17Z"></path><path class="MoldSafeDecal-1" d="M1248.13,550.8h-34.19V329.12h91.85v32h-57.2v67.4h45.34v30.16h-45.8Z"></path><path class="MoldSafeDecal-2" d="M686.49,328.89h37.25V520.65h54.6v30H686.49Z"></path><rect class="MoldSafeDecal-1" x="921.76" y="259.71" width="12.69" height="290"></rect></g></g></svg>