<svg xmlns="http://www.w3.org/2000/svg" viewBox="0 0 1617.51 807.97"><defs><style>.PlatinumRoofDecal-1{fill:#2676bd;}.PlatinumRoofDecal-2{fill:#47a8ff;}.PlatinumRoofDecal-3{fill:#fff;}</style></defs><g id="Layer_2" data-name="Layer 2"><g id="Layer_1-2" data-name="Layer 1"><ellipse cx="808.75" cy="403.98" rx="791.13" ry="387.93"></ellipse><rect class="PlatinumRoofDecal-1" x="519.23" y="401.85" width="818.35" height="88.33"></rect><path class="PlatinumRoofDecal-2" d="M1222.6,269.22l21.52-1.92c9.26,28.85,18.46,57.5,27.66,86.14l.82.08c9.07-26.82,17.4-53.9,26-80.86,2-6.91,16.17-3.51,22.58-5.27,5.49,39,10.9,77.45,16.37,116.33h-17.41l-12.6-94-.83,0-26.84,80.93h-18.17c-8.67-26.85-17.51-54.19-26.34-81.52h-.78c-4.31,31.43-8.62,62.85-13,94.58h-15C1211.92,345.66,1217.22,307.73,1222.6,269.22Z"></path><path class="PlatinumRoofDecal-2" d="M1050.34,383.88c-5.95-.33-14.29,4.79-17.59-1.44-20.26-29-38.24-60.09-59.7-88,.36,29.6.72,59.19,1.09,89.21H958.72V269.17c5.61.34,13.69-4.5,17.39,1.38,20.25,29.74,39.39,60.05,60.09,89.48-.46-30.61-.91-60.34-1.36-90.47h15.5Z"></path><path class="PlatinumRoofDecal-2" d="M753.79,267.35,793.2,383.78H775.81l-9.34-27.66H719.29L710,383.75H693.45c11.61-37.43,25-74.27,37.36-111.46C733.4,266.13,747.26,268.92,753.79,267.35Zm-10.37,17.56-1-.06-19,58.41h39C756,323.5,749.69,304.2,743.42,284.91Z"></path><path class="PlatinumRoofDecal-2" d="M1087.76,269.18l16.68-1.81c.65,24.07,0,47.91.29,72-1,19.21,8.78,35.48,29.82,32.7,15-1.13,23.72-10.15,24-25.36.44-25.76.21-51.36.28-77.14h16.66c-.6,29.51,3,59.8-2.3,88.89-6.17,24.66-35.45,31.48-57.4,25.21-26.32-6.11-29.34-34.59-28-57.78C1087.7,306.83,1087.77,288.27,1087.76,269.18Z"></path><path class="PlatinumRoofDecal-2" d="M535.72,342.09v41.69H519.23V269.55c18.35,0,37.72-2.31,55.61,2.49,13.12,4.5,19.93,14.29,20.67,28.94C598.32,336.51,565,344.42,535.72,342.09Zm.33-12.43c17.4.34,41.09.66,42-21.93,4.21-27.85-22-27.75-42-25.46Z"></path><path class="PlatinumRoofDecal-2" d="M797.6,282.73c.42-4.77.79-8.85,1.17-13.24h79.07c-.41,4.36-.79,8.43-1.23,13.09H845.78V383.73H829.33v-101Z"></path><path class="PlatinumRoofDecal-2" d="M619.24,383.76V269.23l16.62-1.89v103h47.67c-.73,4.87-1.35,9-2,13.42Z"></path><path class="PlatinumRoofDecal-2" d="M902.71,269.13l16.38-1.79V383.7H902.71Z"></path><path class="PlatinumRoofDecal-3" d="M1301.79,459.49c-.16-12.07-.33-24.14-.5-36.51,2.35.28,6.68-1.25,6.28,2.4v42.26c0,2.25,0,2.31-2.16,2.52-5.08.49-3.56,1.25-6.39-3-7.48-11.27-14.86-22.63-22.34-33.91l-.46.07c.16,12.09.32,24.17.47,36.41h-6.11V423c2.47,0,5.64-1.73,7.21,1.06,7.85,11.84,15.61,23.74,23.44,35.59Z"></path><path class="PlatinumRoofDecal-3" d="M1119.22,459.49c-.17-12.07-.33-24.14-.5-36.51,2.35.28,6.68-1.25,6.27,2.4v42.26c0,2.25,0,2.31-2.16,2.52-5.07.49-3.55,1.25-6.38-3-7.49-11.27-14.87-22.63-22.34-33.91l-.46.07c.15,12.09.31,24.17.47,36.41H1088V423c2.46,0,5.64-1.73,7.2,1.06,7.85,11.84,15.61,23.74,23.45,35.59Z"></path><path class="PlatinumRoofDecal-3" d="M627,445.47c1.49,30.15-39.59,34.72-42.22,5.3C579.65,417.24,626.93,410.33,627,445.47Zm-35.31.55c-.41,8.8,3.86,19.53,13.92,19.16,14.51.43,16.86-18.88,12.4-29.57-3.71-10.74-20.78-10.44-24.56.18A26.48,26.48,0,0,0,591.69,446Z"></path><path class="PlatinumRoofDecal-3" d="M855.72,445.47c1.48,30.15-39.6,34.72-42.22,5.3C808.37,417.24,855.65,410.33,855.72,445.47Zm-35.31.55c-.41,8.8,3.85,19.53,13.92,19.16,14.51.43,16.86-18.88,12.39-29.57-3.7-10.74-20.77-10.44-24.55.18A26.3,26.3,0,0,0,820.41,446Z"></path><path class="PlatinumRoofDecal-3" d="M1076.88,445.47c1.48,30.15-39.6,34.72-42.22,5.3C1029.53,417.24,1076.81,410.33,1076.88,445.47Zm-35.31.55c-.41,8.8,3.85,19.53,13.92,19.16,14.51.43,16.86-18.88,12.39-29.57-3.7-10.74-20.77-10.44-24.55.18A26.3,26.3,0,0,0,1041.57,446Z"></path><path class="PlatinumRoofDecal-3" d="M677.12,445.47c1.49,30.15-39.59,34.72-42.22,5.3C629.77,417.24,677.05,410.33,677.12,445.47Zm-35.31.55c-.41,8.8,3.85,19.53,13.92,19.16,14.51.43,16.86-18.88,12.4-29.57-3.71-10.74-20.78-10.44-24.56.18A26.3,26.3,0,0,0,641.81,446Z"></path><path class="PlatinumRoofDecal-3" d="M578.62,469.85c-2.63,0-5.76,1.84-7.28-.64-2.94-5.22-5.87-10.45-8.65-15.76a2.93,2.93,0,0,0-3.17-1.83c-2,.12-4,0-6.39,0v18.09h-6.77c-.26-14.81,0-29.63-.09-44.45,0-2.32,0-2.36,2.36-2.32,7.11.49,14.62-.87,21.43,1.62,11.32,4.7,8.37,22.33-2.31,25.48C571.32,456.56,574.87,463,578.62,469.85Zm-25.46-23.47c9,.89,19.33-.72,16.92-12.52-1.86-7.62-11.09-5.69-16.92-5.82Z"></path><path class="PlatinumRoofDecal-3" d="M806.94,469.85c-2.63,0-5.76,1.84-7.28-.64-2.94-5.22-5.87-10.45-8.66-15.76a2.92,2.92,0,0,0-3.17-1.83c-2,.12-4,0-6.38,0v18.09h-6.77c-.26-14.81,0-29.63-.1-44.45,0-2.32,0-2.36,2.37-2.32,7.11.49,14.62-.87,21.43,1.62,11.32,4.7,8.37,22.33-2.31,25.48C799.64,456.56,803.19,463,806.94,469.85Zm-25.47-23.47c9,.89,19.33-.72,16.93-12.52-1.86-7.62-11.09-5.69-16.93-5.82Z"></path><path class="PlatinumRoofDecal-3" d="M1222.61,469.86c5-15.17,10-29.86,14.92-45,1-3.42,5.16-1.63,7.73-2.46,1.3-.17,1.92.27,2.34,1.56,4.93,15.34,10.45,30.45,15.13,45.86-2.1,0-4,.1-6-.07-2-.95-3.06-7.4-4-9.65a2,2,0,0,0-2.26-1.73q-7.89.11-15.78,0a2,2,0,0,0-2.24,1.75C1228.53,470.67,1232,469.94,1222.61,469.86Zm28-16.56c-2.61-8.14-5.15-16-7.68-23.94h-.5l-7.67,23.93Z"></path><path class="PlatinumRoofDecal-3" d="M1151.64,469.7V425.39c0-2.41,0-2.46,2.29-2.42,9.13.93,22-3,27.2,7.11,4.68,9.69-.77,20.48-11.25,22.1a90.24,90.24,0,0,1-11.42.58V469.7Zm6.86-21.81c6.21-.63,14.71.91,16.68-6.84,2.9-13.51-6.55-13.6-16.68-13Z"></path><path class="PlatinumRoofDecal-3" d="M733.59,469.7q0-22.17,0-44.31c0-2.41,0-2.46,2.29-2.42,9.13.93,22-3,27.19,7.11,4.68,9.69-.77,20.48-11.24,22.1a90.4,90.4,0,0,1-11.43.58V469.7Zm6.86-21.81c6.2-.63,14.7.91,16.67-6.84,2.91-13.51-6.55-13.6-16.67-13Z"></path><path class="PlatinumRoofDecal-3" d="M929.9,464.77c-.24,1.68-.46,3.21-.7,4.91H901.73q0-22.17,0-44.31c0-2.39,0-2.41,2.3-2.41h22.85c2,0,2,0,2.06,2,0,1,0,2,0,3.25H908.6v15.1h16.32c0,1.55,0,2.82,0,4.09s-1,1-1.79,1c-4.9,0-9.61,0-14.53,0-.47,4.74,0,9.43-.23,14.18,0,1.54.46,2,2,2C916.88,464.68,923.34,464.41,929.9,464.77Z"></path><path class="PlatinumRoofDecal-3" d="M967.23,463c2,5.71,1.78,4.77-2.94,6.26-22.34,7.1-36.45-11.79-28.81-33,4.23-12.88,19.64-16.85,31.49-11.93,2.78.93.4,4,.25,6-18.28-7.76-29.56,3.78-26,22.69C943.83,466.54,956.9,466.57,967.23,463Z"></path><path class="PlatinumRoofDecal-3" d="M714.69,423.09c-.2,1.62-.35,3-.56,4.43-.17,1.12-1.09.83-1.77.84-5.89,0-11.63,0-17.54,0v16.32H710V450H694.66v19.73H688c-.31-14.81,0-29.63-.12-44.45,0-2.29,0-2.31,2.21-2.31C698.3,423,706.44,422.77,714.69,423.09Z"></path><path class="PlatinumRoofDecal-3" d="M891.57,423.06l-.59,5.28h-12.3v41.39H872V428.44H859.21c.46-2-.41-4.53,1.51-5.43C871,422.92,881.23,422.86,891.57,423.06Z"></path><path class="PlatinumRoofDecal-3" d="M1006.52,423.06l-.58,5.28H993.63v41.39h-6.71V428.44H974.17c.46-2-.42-4.53,1.51-5.43C986,422.92,996.19,422.86,1006.52,423.06Z"></path><path class="PlatinumRoofDecal-3" d="M1199.52,422.34c0,13.32,0,26.44,0,39.74,0,2.38,0,2.39,2.31,2.4h16.87c-.31,1.95-.56,3.58-.83,5.28h-25c-.3-14.85,0-29.7-.11-44.55,0-2.19,0-2.21,2.2-2.46C1196.33,422.6,1197.73,422.5,1199.52,422.34Z"></path><path class="PlatinumRoofDecal-3" d="M1023.6,469.74h-6.51c-.29-14.82,0-29.64-.11-44.46,0-2.27,0-2.29,2.31-2.55,1.38-.15,2.77-.24,4.31-.37Z"></path><path class="PlatinumRoofDecal-1" d="M808.75,808C362.09,808,0,627.1,0,404S362.09,0,808.75,0s808.76,180.87,808.76,404S1255.42,808,808.75,808ZM50.86,397.88c3.76,203.51,316.33,315.69,743.21,315.69,376,0,588-89.93,657.29-230.53-54.64,155.41-325.94,263.34-733.25,263.34-156.46,0-301.71-20.91-421.88-56.45C426.61,742.11,595,773.44,782.55,773.44c445.26,0,787.82-161.48,784.1-363.35C1562.89,206.58,1250.31,94.4,823.44,94.4c-376,0-588,89.93-657.29,230.53C220.79,169.52,492.09,61.59,899.4,61.59c156.46,0,301.71,20.91,421.88,56.45C1190.9,65.85,1022.55,34.53,835,34.53,389.7,34.53,47.14,196,50.86,397.88Z"></path><path class="PlatinumRoofDecal-1" d="M322,330.74,253.41,390c8.59,55.8,60.69,98.73,123.69,98.73a134.54,134.54,0,0,0,38-5.42V408.21Z"></path><path class="PlatinumRoofDecal-1" d="M502,373.74c0-63.53-55.94-115-124.94-115s-124.94,51.49-124.94,115a106.86,106.86,0,0,0,.81,13.09l68.64-66h23.15l115.76,89.67H442.14V472C478.06,451.76,502,415.33,502,373.74Z"></path><path class="PlatinumRoofDecal-1" d="M453.54,579.43l-18.41,15.91c2.31,15,16.29,26.5,33.2,26.5a36.21,36.21,0,0,0,10.19-1.45V600.22Z"></path><path class="PlatinumRoofDecal-1" d="M501.87,591c0-17.05-15-30.87-33.54-30.87S434.8,573.92,434.8,591a29,29,0,0,0,.21,3.51l18.43-17.71h6.21l31.07,24.06h-4.93v16.5C495.43,611.91,501.87,602.13,501.87,591Z"></path><path class="PlatinumRoofDecal-3" d="M545.13,573.1H531v9.78h13.68v5.78H531V608H524.8V567.33h20.33Z"></path><path class="PlatinumRoofDecal-3" d="M549.56,582.36h5.94v2.29a11.27,11.27,0,0,1,2.9-2.35,6.64,6.64,0,0,1,3.06-.66,9.56,9.56,0,0,1,4.9,1.53l-2.72,5.43a5.7,5.7,0,0,0-3.29-1.21q-4.86,0-4.85,7.33V608h-5.94Z"></path><path class="PlatinumRoofDecal-3" d="M591.75,596.59h-18.4a7.79,7.79,0,0,0,2.06,5,6.25,6.25,0,0,0,4.66,1.85,6.11,6.11,0,0,0,3.67-1.06,14.84,14.84,0,0,0,3.24-3.9l5,2.79a19.75,19.75,0,0,1-2.45,3.39,12.94,12.94,0,0,1-2.77,2.32,10.94,10.94,0,0,1-3.19,1.33,15.56,15.56,0,0,1-3.72.43,12.1,12.1,0,0,1-9.23-3.7q-3.48-3.71-3.48-9.86a14.24,14.24,0,0,1,3.38-9.86,12.85,12.85,0,0,1,18-.1q3.27,3.59,3.27,9.94Zm-6.09-4.85c-.82-3.16-2.82-4.74-6-4.74a6.13,6.13,0,0,0-2,.33,5.61,5.61,0,0,0-1.73.95,5.9,5.9,0,0,0-1.33,1.48,7.09,7.09,0,0,0-.85,2Z"></path><path class="PlatinumRoofDecal-3" d="M620.6,596.59H602.2a7.83,7.83,0,0,0,2,5,6.29,6.29,0,0,0,4.67,1.85,6.11,6.11,0,0,0,3.67-1.06,14.84,14.84,0,0,0,3.24-3.9l5,2.79a19.75,19.75,0,0,1-2.45,3.39,12.94,12.94,0,0,1-2.77,2.32,11.06,11.06,0,0,1-3.19,1.33,15.56,15.56,0,0,1-3.72.43,12.1,12.1,0,0,1-9.23-3.7q-3.48-3.71-3.48-9.86a14.24,14.24,0,0,1,3.38-9.86,12.85,12.85,0,0,1,18-.1q3.27,3.59,3.27,9.94Zm-6.09-4.85q-1.25-4.74-6-4.74a6.19,6.19,0,0,0-2,.33,5.68,5.68,0,0,0-1.72.95,5.9,5.9,0,0,0-1.33,1.48,7.09,7.09,0,0,0-.85,2Z"></path><path class="PlatinumRoofDecal-3" d="M644.84,567.33l10.6,27.21,11.07-29.19,10.6,29.19,11.26-27.21H695l-18.19,43.29-10.47-28.84-10.92,28.87-17.29-43.32Z"></path><path class="PlatinumRoofDecal-3" d="M697.58,571.68a3.64,3.64,0,0,1,1.13-2.69,3.68,3.68,0,0,1,2.71-1.14,3.74,3.74,0,0,1,2.75,1.14,3.66,3.66,0,0,1,1.13,2.71,3.77,3.77,0,0,1-1.13,2.75,3.68,3.68,0,0,1-2.72,1.13,3.86,3.86,0,0,1-3.87-3.9Zm6.82,10.68V608h-5.93V582.36Z"></path><path class="PlatinumRoofDecal-3" d="M717,587.89V608h-5.93V587.89h-2.53v-5.53h2.53v-9.42H717v9.42h4.61v5.53Z"></path><path class="PlatinumRoofDecal-3" d="M725.71,563.5h5.94v21a10.18,10.18,0,0,1,7-2.85,9,9,0,0,1,7,2.82q2.22,2.46,2.22,7.84V608h-5.93V592.85a7.22,7.22,0,0,0-1.1-4.47,4.22,4.22,0,0,0-3.52-1.38q-3.1,0-4.38,1.92t-1.23,6.7V608h-5.94Z"></path><path class="PlatinumRoofDecal-3" d="M793.53,573.1H777.21v9.78h15.85v5.78H777.21v13.6h16.32V608H771.07V567.33h22.46Z"></path><path class="PlatinumRoofDecal-3" d="M802.63,582.36l6.65,14.42,6.62-14.42h6.67L809.23,609.8,796,582.36Z"></path><path class="PlatinumRoofDecal-3" d="M848,596.59h-18.4a7.79,7.79,0,0,0,2.06,5,6.25,6.25,0,0,0,4.66,1.85,6.11,6.11,0,0,0,3.67-1.06,14.84,14.84,0,0,0,3.24-3.9l5,2.79a19.75,19.75,0,0,1-2.45,3.39A12.94,12.94,0,0,1,843,607a10.94,10.94,0,0,1-3.19,1.33,15.56,15.56,0,0,1-3.72.43,12.1,12.1,0,0,1-9.23-3.7q-3.48-3.71-3.48-9.86a14.24,14.24,0,0,1,3.38-9.86,12.85,12.85,0,0,1,18-.1q3.27,3.59,3.27,9.94Zm-6.09-4.85c-.82-3.16-2.82-4.74-6-4.74a6.13,6.13,0,0,0-2,.33,5.61,5.61,0,0,0-1.73.95,5.9,5.9,0,0,0-1.33,1.48,7.09,7.09,0,0,0-.85,2Z"></path><path class="PlatinumRoofDecal-3" d="M853.47,582.36h5.94v2.29a11.27,11.27,0,0,1,2.9-2.35,6.64,6.64,0,0,1,3.06-.66,9.59,9.59,0,0,1,4.9,1.53l-2.72,5.43a5.7,5.7,0,0,0-3.29-1.21q-4.86,0-4.85,7.33V608h-5.94Z"></path><path class="PlatinumRoofDecal-3" d="M883.11,603.26l-11.55-20.9h6.89l7.85,14.76,7.33-14.76h6.7L879.87,622h-6.78Z"></path><path class="PlatinumRoofDecal-3" d="M926.25,567.33V608h-6.14V567.33Z"></path><path class="PlatinumRoofDecal-3" d="M933.88,582.36h6v2.37a9.7,9.7,0,0,1,7-3.09,8.86,8.86,0,0,1,7,2.82q2.16,2.4,2.16,7.84V608h-6V593.69q0-3.8-1-5.24c-.69-1-1.94-1.48-3.75-1.48a4.57,4.57,0,0,0-4.19,1.95c-.81,1.28-1.21,3.53-1.21,6.72V608h-6Z"></path><path class="PlatinumRoofDecal-3" d="M977.38,586.73l-4.9,2.61c-.77-1.58-1.73-2.37-2.87-2.37a2,2,0,0,0-1.4.54,1.79,1.79,0,0,0-.58,1.38c0,1,1.14,2,3.43,2.93q4.71,2,6.35,3.75a6.4,6.4,0,0,1,1.64,4.61,8.08,8.08,0,0,1-2.75,6.22,9.34,9.34,0,0,1-6.43,2.38q-6.47,0-9.15-6.31l5.06-2.34a11,11,0,0,0,1.61,2.34,3.67,3.67,0,0,0,2.59,1c2,0,3-.92,3-2.75,0-1.05-.77-2-2.32-3-.6-.3-1.19-.59-1.79-.87l-1.82-.87a11.14,11.14,0,0,1-3.64-2.53,6.21,6.21,0,0,1-1.34-4.14,7.33,7.33,0,0,1,2.29-5.54,8,8,0,0,1,5.69-2.19Q975,581.64,977.38,586.73Z"></path><path class="PlatinumRoofDecal-3" d="M989.28,622h-5.93V582.36h5.93v2.79a11,11,0,0,1,8-3.51,11.09,11.09,0,0,1,8.73,3.91,14.08,14.08,0,0,1,3.48,9.78A13.86,13.86,0,0,1,1006,605a11.24,11.24,0,0,1-16.72.21Zm14.11-26.66a8.86,8.86,0,0,0-2-6,6.48,6.48,0,0,0-5.11-2.34,6.77,6.77,0,0,0-5.3,2.26,8.58,8.58,0,0,0-2,6,8.74,8.74,0,0,0,2,6,6.65,6.65,0,0,0,5.27,2.3,6.45,6.45,0,0,0,5.09-2.32A8.46,8.46,0,0,0,1003.39,595.35Z"></path><path class="PlatinumRoofDecal-3" d="M1038.09,596.59h-18.41a7.84,7.84,0,0,0,2.06,5,6.28,6.28,0,0,0,4.67,1.85,6.1,6.1,0,0,0,3.66-1.06,14.84,14.84,0,0,0,3.24-3.9l5,2.79a19.75,19.75,0,0,1-2.45,3.39,12.7,12.7,0,0,1-2.77,2.32,10.83,10.83,0,0,1-3.19,1.33,15.54,15.54,0,0,1-3.71.43,12.09,12.09,0,0,1-9.23-3.7q-3.48-3.71-3.48-9.86a14.23,14.23,0,0,1,3.37-9.86,11.63,11.63,0,0,1,9-3.72,11.51,11.51,0,0,1,9,3.62q3.27,3.59,3.27,9.94Zm-6.09-4.85q-1.24-4.74-6-4.74a6.13,6.13,0,0,0-2,.33,5.73,5.73,0,0,0-1.73.95,5.9,5.9,0,0,0-1.33,1.48,6.8,6.8,0,0,0-.84,2Z"></path><path class="PlatinumRoofDecal-3" d="M1063.53,583.46v7.89a14,14,0,0,0-3.64-3.4,7,7,0,0,0-3.71-1,7.35,7.35,0,0,0-5.57,2.34,8.27,8.27,0,0,0-2.21,5.88,8.45,8.45,0,0,0,2.13,5.94,7.24,7.24,0,0,0,5.51,2.32,7.51,7.51,0,0,0,3.78-.93,14.86,14.86,0,0,0,3.71-3.48v7.83a15.55,15.55,0,0,1-7.22,1.88,13.86,13.86,0,0,1-10-3.85,12.88,12.88,0,0,1-4-9.63,13,13,0,0,1,4.06-9.7,13.74,13.74,0,0,1,10-4A14.92,14.92,0,0,1,1063.53,583.46Z"></path><path class="PlatinumRoofDecal-3" d="M1074.37,587.89V608h-5.93V587.89h-2.53v-5.53h2.53v-9.42h5.93v9.42H1079v5.53Z"></path><path class="PlatinumRoofDecal-3" d="M1081.1,571.68a3.88,3.88,0,0,1,3.85-3.83,3.73,3.73,0,0,1,2.74,1.14,3.62,3.62,0,0,1,1.13,2.71,3.73,3.73,0,0,1-1.13,2.75,3.67,3.67,0,0,1-2.72,1.13,3.86,3.86,0,0,1-3.87-3.9Zm6.83,10.68V608H1082V582.36Z"></path><path class="PlatinumRoofDecal-3" d="M1093.2,595a12.73,12.73,0,0,1,4-9.46,14,14,0,0,1,19.45,0,13.75,13.75,0,0,1,0,19.33,13.63,13.63,0,0,1-9.84,3.88,13,13,0,0,1-9.67-4A13.27,13.27,0,0,1,1093.2,595Zm6.07.11a8.64,8.64,0,0,0,2.06,6.09,8,8,0,0,0,11.12,0,9.61,9.61,0,0,0,0-12,7.91,7.91,0,0,0-11.07,0A8.27,8.27,0,0,0,1099.27,595.12Z"></path><path class="PlatinumRoofDecal-3" d="M1125.85,582.36h6v2.37a9.7,9.7,0,0,1,7-3.09,8.86,8.86,0,0,1,7,2.82q2.16,2.4,2.16,7.84V608h-6V593.69q0-3.8-1-5.24c-.69-1-1.94-1.48-3.75-1.48a4.58,4.58,0,0,0-4.19,1.95c-.81,1.28-1.21,3.53-1.21,6.72V608h-6Z"></path></g></g></svg>