<svg xmlns="http://www.w3.org/2000/svg" viewBox="0 0 1771.42 884.85"><defs><style>.RecallChekDecal-1{fill:#9fcb57;}.RecallChekDecal-2{fill:#fff;}</style></defs><g id="Layer_2" data-name="Layer 2"><g id="Layer_1-2" data-name="Layer 1"><ellipse cx="885.71" cy="442.42" rx="866.4" ry="424.84"></ellipse><path class="RecallChekDecal-1" d="M885.71,884.85C396.55,884.85,0,686.77,0,442.42S396.55,0,885.71,0s885.71,198.08,885.71,442.42S1374.87,884.85,885.71,884.85ZM55.7,435.74c4.12,222.87,346.43,345.73,813.93,345.73,411.75,0,644-98.49,719.83-252.46-59.83,170.19-357,288.39-803,288.39-171.35,0-330.42-22.9-462-61.82C467.21,812.73,651.58,847,857,847c487.63,0,862.79-176.84,858.71-397.92-4.12-222.88-346.43-345.73-813.93-345.73-411.75,0-644,98.49-719.83,252.46,59.83-170.19,357-288.39,803-288.39,171.35,0,330.42,22.9,462,61.82-142.79-57.15-327.16-91.45-532.59-91.45C426.78,37.82,51.62,214.66,55.7,435.74Z"></path><path class="RecallChekDecal-2" d="M610,645H594.5V655.6h15v6.27h-15v21h-6.72v-44.2H610Z"></path><path class="RecallChekDecal-2" d="M614.86,655h6.48v2.49a12.48,12.48,0,0,1,3.18-2.55,7.25,7.25,0,0,1,3.34-.72,10.58,10.58,0,0,1,5.36,1.66l-3,5.9a6.21,6.21,0,0,0-3.6-1.32q-5.31,0-5.31,8v14.46h-6.48Z"></path><path class="RecallChekDecal-2" d="M661,670.49H640.87a8.37,8.37,0,0,0,2.25,5.46,6.85,6.85,0,0,0,5.1,2,6.65,6.65,0,0,0,4-1.15,16.26,16.26,0,0,0,3.54-4.23l5.48,3a22,22,0,0,1-2.68,3.68,14.19,14.19,0,0,1-3,2.52,12,12,0,0,1-3.49,1.44,16.82,16.82,0,0,1-4.06.46,13.23,13.23,0,0,1-10.09-4q-3.81-4-3.81-10.7t3.69-10.71a12.78,12.78,0,0,1,9.86-4q6.2,0,9.8,3.93T661,669Zm-6.66-5.27q-1.35-5.16-6.54-5.16a6.71,6.71,0,0,0-2.22.36,6.43,6.43,0,0,0-3.35,2.65,7.59,7.59,0,0,0-.92,2.15Z"></path><path class="RecallChekDecal-2" d="M692.54,670.49H672.41a8.37,8.37,0,0,0,2.25,5.46,6.88,6.88,0,0,0,5.1,2,6.63,6.63,0,0,0,4-1.15,16.26,16.26,0,0,0,3.55-4.23l5.48,3a21.48,21.48,0,0,1-2.69,3.68,14.4,14.4,0,0,1-3,2.52,12,12,0,0,1-3.49,1.44,16.91,16.91,0,0,1-4.07.46,13.24,13.24,0,0,1-10.09-4q-3.81-4-3.8-10.7t3.69-10.71a12.76,12.76,0,0,1,9.86-4q6.19,0,9.8,3.93T692.57,669Zm-6.66-5.27q-1.36-5.16-6.55-5.16a6.54,6.54,0,0,0-4.11,1.39,6.63,6.63,0,0,0-1.45,1.62,7.6,7.6,0,0,0-.93,2.15Z"></path><path class="RecallChekDecal-2" d="M719,638.71l11.59,29.54,12.11-31.69,11.59,31.69,12.31-29.54h7.3l-19.9,47L742.6,654.4l-11.94,31.34-18.92-47Z"></path><path class="RecallChekDecal-2" d="M776.71,643.43a4,4,0,0,1,1.24-2.92,4,4,0,0,1,3-1.23,4.11,4.11,0,0,1,3,1.23,4,4,0,0,1,1.24,3,4.08,4.08,0,0,1-1.24,3,4,4,0,0,1-3,1.23,4.22,4.22,0,0,1-4.24-4.24Zm7.47,11.6v27.88h-6.49V655Z"></path><path class="RecallChekDecal-2" d="M798,661v21.87h-6.49V661H788.7v-6h2.77V644.81H798V655h5v6Z"></path><path class="RecallChekDecal-2" d="M807.48,634.56H814v22.78a11.23,11.23,0,0,1,7.64-3.09,9.9,9.9,0,0,1,7.62,3.07c1.61,1.77,2.42,4.61,2.42,8.5v17.09h-6.49V666.42q0-3.34-1.19-4.85a4.65,4.65,0,0,0-3.85-1.51q-3.4,0-4.79,2.09c-.9,1.42-1.36,3.84-1.36,7.28v13.48h-6.48Z"></path><path class="RecallChekDecal-2" d="M881.64,645H863.79V655.6h17.33v6.27H863.79v14.77h17.85v6.27H857.07v-44.2h24.57Z"></path><path class="RecallChekDecal-2" d="M891.59,655l7.27,15.66L906.09,655h7.3l-14.59,29.8L884.32,655Z"></path><path class="RecallChekDecal-2" d="M941.21,670.49H921.09a8.37,8.37,0,0,0,2.25,5.46,6.85,6.85,0,0,0,5.1,2,6.63,6.63,0,0,0,4-1.15,16.07,16.07,0,0,0,3.54-4.23l5.48,3a21.46,21.46,0,0,1-2.68,3.68,14.19,14.19,0,0,1-3,2.52,12,12,0,0,1-3.48,1.44,16.91,16.91,0,0,1-4.07.46,13.24,13.24,0,0,1-10.09-4q-3.81-4-3.81-10.7T918,658.29a12.78,12.78,0,0,1,9.86-4c4.14,0,7.4,1.31,9.81,3.93s3.57,6.19,3.57,10.79Zm-6.66-5.27q-1.35-5.16-6.54-5.16a6.47,6.47,0,0,0-5.57,3,7.59,7.59,0,0,0-.92,2.15Z"></path><path class="RecallChekDecal-2" d="M947.18,655h6.49v2.49a12.46,12.46,0,0,1,3.17-2.55,7.32,7.32,0,0,1,3.35-.72,10.58,10.58,0,0,1,5.36,1.66l-3,5.9a6.21,6.21,0,0,0-3.6-1.32q-5.31,0-5.31,8v14.46h-6.49Z"></path><path class="RecallChekDecal-2" d="M979.6,677.73,967,655h7.52l8.59,16,8-16h7.32l-22.37,43.05h-7.41Z"></path><path class="RecallChekDecal-2" d="M1026.77,638.71v44.2h-6.72v-44.2Z"></path><path class="RecallChekDecal-2" d="M1035.11,655h6.51v2.57a10.69,10.69,0,0,1,7.67-3.35,9.69,9.69,0,0,1,7.64,3.07c1.58,1.73,2.37,4.57,2.37,8.5v17.09h-6.52V667.34q0-4.12-1.15-5.7c-.75-1.07-2.12-1.6-4.1-1.6q-3.22,0-4.58,2.11t-1.33,7.3v13.46h-6.51Z"></path><path class="RecallChekDecal-2" d="M1082.68,659.78l-5.36,2.83c-.85-1.72-1.89-2.57-3.14-2.57a2.16,2.16,0,0,0-1.53.58,2,2,0,0,0-.64,1.51q0,1.59,3.75,3.17,5.16,2.21,7,4.07a6.94,6.94,0,0,1,1.79,5,8.77,8.77,0,0,1-3,6.76,10.29,10.29,0,0,1-7,2.57q-7.05,0-10-6.84l5.54-2.55a11.68,11.68,0,0,0,1.75,2.55,4,4,0,0,0,2.83,1.09q3.29,0,3.29-3c0-1.14-.85-2.21-2.54-3.21-.65-.32-1.31-.64-2-.94s-1.32-.62-2-1a12.24,12.24,0,0,1-4-2.74,6.77,6.77,0,0,1-1.47-4.5,7.93,7.93,0,0,1,2.51-6,8.82,8.82,0,0,1,6.23-2.38Q1080.05,654.25,1082.68,659.78Z"></path><path class="RecallChekDecal-2" d="M1095.69,698.08h-6.49V655h6.49v3a12,12,0,0,1,8.71-3.81,12.2,12.2,0,0,1,9.54,4.24,15.24,15.24,0,0,1,3.81,10.62,15,15,0,0,1-3.78,10.45,12.37,12.37,0,0,1-18.28.23Zm15.42-28.94a9.6,9.6,0,0,0-2.19-6.53,7.09,7.09,0,0,0-5.59-2.55,7.46,7.46,0,0,0-5.8,2.47,9.28,9.28,0,0,0-2.22,6.47,9.5,9.5,0,0,0,2.22,6.47,7.34,7.34,0,0,0,5.77,2.49,7.07,7.07,0,0,0,5.57-2.52A9.15,9.15,0,0,0,1111.11,669.14Z"></path><path class="RecallChekDecal-2" d="M1149.06,670.49h-20.12a8.41,8.41,0,0,0,2.24,5.46,6.89,6.89,0,0,0,5.11,2,6.65,6.65,0,0,0,4-1.15,16.26,16.26,0,0,0,3.54-4.23l5.48,3a22,22,0,0,1-2.68,3.68,14.19,14.19,0,0,1-3,2.52,12,12,0,0,1-3.49,1.44,16.82,16.82,0,0,1-4.06.46,13.23,13.23,0,0,1-10.09-4q-3.81-4-3.81-10.7t3.69-10.71a12.78,12.78,0,0,1,9.86-4q6.19,0,9.8,3.93t3.58,10.79Zm-6.66-5.27c-.9-3.44-3.09-5.16-6.54-5.16a6.81,6.81,0,0,0-2.23.36,6.46,6.46,0,0,0-3.34,2.65,7.59,7.59,0,0,0-.92,2.15Z"></path><path class="RecallChekDecal-2" d="M1176.89,656.23v8.56a15.53,15.53,0,0,0-4-3.69,7.8,7.8,0,0,0-4.07-1,8,8,0,0,0-6.08,2.55,8.89,8.89,0,0,0-2.42,6.39,9.09,9.09,0,0,0,2.33,6.44,7.92,7.92,0,0,0,6,2.52,8.38,8.38,0,0,0,4.12-1,16.46,16.46,0,0,0,4.07-3.78v8.5a17.22,17.22,0,0,1-7.9,2,15.15,15.15,0,0,1-10.9-4.18,13.91,13.91,0,0,1-4.39-10.45,14.07,14.07,0,0,1,4.44-10.53,15.08,15.08,0,0,1,10.9-4.3A16.37,16.37,0,0,1,1176.89,656.23Z"></path><path class="RecallChekDecal-2" d="M1188.74,661v21.87h-6.49V661h-2.77v-6h2.77V644.81h6.49V655h5v6Z"></path><path class="RecallChekDecal-2" d="M1196.09,643.43a4,4,0,0,1,1.24-2.92,4.24,4.24,0,0,1,6,0,3.94,3.94,0,0,1,1.24,3,4,4,0,0,1-1.24,3,4,4,0,0,1-3,1.23,4.22,4.22,0,0,1-4.24-4.24Zm7.47,11.6v27.88h-6.49V655Z"></path><path class="RecallChekDecal-2" d="M1209.33,668.77a13.78,13.78,0,0,1,4.36-10.28,15.42,15.42,0,0,1,21.27,0,14.85,14.85,0,0,1,0,21,14.94,14.94,0,0,1-10.76,4.21,14.62,14.62,0,0,1-14.85-14.94Zm6.63.11a9.39,9.39,0,0,0,2.25,6.62,8.78,8.78,0,0,0,12.17,0,10.39,10.39,0,0,0,0-13,8.66,8.66,0,0,0-12.11,0A8.91,8.91,0,0,0,1216,668.88Z"></path><path class="RecallChekDecal-2" d="M1245,655h6.51v2.57a10.69,10.69,0,0,1,7.67-3.35,9.69,9.69,0,0,1,7.64,3.07c1.58,1.73,2.37,4.57,2.37,8.5v17.09h-6.52V667.34q0-4.12-1.15-5.7c-.75-1.07-2.11-1.6-4.09-1.6q-3.24,0-4.59,2.11c-.88,1.4-1.33,3.83-1.33,7.3v13.46H1245Z"></path><path class="RecallChekDecal-1" d="M562.65,663.87a34.38,34.38,0,1,1-34.38-34.37A34.38,34.38,0,0,1,562.65,663.87ZM524.58,684.5l22.28-37.16a4,4,0,1,0-6.86-4.11L521.25,674.5l-6.17-10.91a4,4,0,0,0-7,3.95l9.55,16.88a4,4,0,0,0,3.43,2h0A4,4,0,0,0,524.58,684.5Z"></path><path class="RecallChekDecal-2" d="M303.9,305.65v226.7h-22V285.76c2.19-.17,4.32-.47,6.46-.47q36.93-.07,73.86-.05c13.29,0,20,6.68,20.07,20.16q.13,44.39,0,88.77c0,12.44-5.54,18.62-17.94,19.69-6.08.52-12.25.09-19.65.09,14.16,39.7,28.05,78.66,42.24,118.43H363.58c-6.42-18.37-13-37-19.43-55.64Q332,441.58,319.87,406.39c-3.12-9.05-1.89-10.77,7.78-10.78,10.31,0,20.63,0,31.64,0v-90Z"></path><path class="RecallChekDecal-2" d="M503.48,451.1c-4.13,7.67-9.58,8.77-16.25,8.61-16.18-.38-32.38-.12-49-.12v55.23h44.53V487h20.39c0,11.07.63,22.15-.21,33.11-.59,7.73-6.36,12.5-14.36,12.64q-28.5.51-57,0c-7.93-.15-12.67-5.07-13.91-13.07a77,77,0,0,1-.73-11.67q-.08-52.71,0-105.43c0-1.4,0-2.79.05-4.19.6-14.38,5.83-19.42,20.26-19.44q23.06,0,46.12,0c14.71,0,20.12,5.41,20.17,20.26C503.52,416.79,503.48,434.36,503.48,451.1Zm-20.88-8.47V397.38H438.21v45.25Z"></path><path class="RecallChekDecal-2" d="M745.55,533c-6.12,0-11.13,0-16.14,0-1.36,0-3.65-.06-3.91-.72-2.12-5.33-6.2-2.48-9.28-2.18-10.85,1.05-21.63,2.79-32.48,3.82-21,2-26.1-2.78-26.1-23.76,0-15.91-.07-31.82,0-47.73.09-13.83,5.47-19.34,19.29-19.5,15.65-.18,31.31,0,47.54,0V397.4H680.07v24.75h-20c0-10.28-.69-21,.24-31.68.6-6.89,6.59-11.18,14.61-11.34,18.18-.37,36.37-.48,54.54,0,10.91.29,16,6.53,16.07,18.28.1,34.89,0,69.78,0,104.67Zm-21-18.92V459.9h-46v54.17Z"></path><path class="RecallChekDecal-2" d="M624,427.8h-20.8V398.57H559.91V513.7h42.73V481H624c0,11.95.33,23.67-.09,35.35-.41,11.25-6.23,16.51-17.77,16.62-16.78.16-33.58.19-50.36,0-11.89-.13-17.31-5.61-17.35-17.71q-.21-59,0-118.09c0-12.24,5.77-18,18-18.13q24.76-.27,49.53,0c11.29.14,17.31,5.19,17.91,15.74C624.45,405.55,624,416.41,624,427.8Z"></path><path class="RecallChekDecal-2" d="M801.87,532.75H781.65v-247h20.22Z"></path><path class="RecallChekDecal-2" d="M859.31,532.68H839.42V285.93h19.89Z"></path><path class="RecallChekDecal-1" d="M1138.93,432.86c15.87-13,30.23-28.85,51.85-32.85,17.06-4.38,39.51,2.86,39.82,22.18-2.85,28.67-17.45,55.34-25,83.14-1.48,6.75-6.4,16.71,1.43,21.4,3.77,2,7.16,0,9.67-2.27,5.61-5.2,10.85-10.75,16.11-16.27,3.15-3.08,6.44-12.1,10.81-4.49-8.67,11.79-16.51,24.64-32.12,30.13-15.35,5.65-33.3-1.78-32.88-19.59,3-28.61,16.77-55.55,24.45-83.28,3.91-10.27,8.47-27.64-9.62-25.13-33.63,7.65-57.82,36.22-67.67,66.83-6.35,19.52-13.63,44.11-21.25,63.22H1078c22.17-69.51,46.62-142.76,68.87-212.68h-18c-3.08-7.27,6.94-5.11,11.12-5.77,13.72.54,25.43-3.43,38.46-7C1165.86,351.89,1151.87,392.1,1138.93,432.86Z"></path><path class="RecallChekDecal-1" d="M1435.64,323.07h-18.06c-2.74-7.05,6.55-5,10.63-5.63,14,.68,25.86-3.66,39.21-6.83-16.17,45.56-32.08,90.36-48.18,135.68,36,5.62,38.7-36,61.28-51.63,16.63-12.22,42,11.73,22.62,24.63-9.37,5.9-19-.18-21-9.83-8.66-19.38-20.46,34-42.54,41,30.3,7.58,27.83,33.42,30.79,57.43.67,16.91,10.67,20.3,20.75,6,3.81-6.49,7.05-13.3,10.29-20.08,1.32-2.76,2.47-4.93,6.66-2.24-4.53,19.59-17.94,43.78-42.5,43-9.8-.3-17.2-5.08-19.86-14.08-4-14-3.81-28.66-4.72-43-.71-13.84-5.68-26.11-23.44-24.23-8.58,23.86-17.7,53.24-25.65,77.34-1.81,5.62-1.93,5.75-7.82,5.82-6.57.08-13.14,0-21,0C1386.4,465.47,1412.36,394.05,1435.64,323.07Z"></path><path class="RecallChekDecal-1" d="M1057.25,475.54l5.53,3.18c-93.53,139.89-241.78-3.5-143-117.32,30.4-38.42,91-66.39,137.56-36.85,29.7,18.69,19.47-4.2,32.59-1.5-4.63,22.43-9.75,44.67-14.79,67-.66,2.91-.5,6.65-6.57,5.51,1.62-13.08,4-26.17.29-39.15-9.66-40.88-69-49.77-96.4-19.5-10,10.17-17.38,22-23.93,34.24-18.68,37.26-33.11,80-24.29,121.46,14.55,51.81,88.6,41.41,116.35,5C1046.86,490.64,1051.53,483.13,1057.25,475.54Z"></path><path class="RecallChekDecal-1" d="M1286.54,463.27c-3.11,15-7.41,28.37-6.91,43.3.54,20.82,22.08,26.51,38.65,19.25,11.2-5,19.17-13.31,26.29-22.54,2.34-2.68,3.75-7.68,8.42-5.95-12.58,41.72-80.38,55-95.61,4.88-14.64-44.32,29.62-104.59,79.39-103C1389.47,407.81,1362.36,483,1286.54,463.27Zm2-7.37c30,16,58.65-11.8,52.69-41.77-1-7.18-8.52-11.21-16.13-9.56C1302.31,411,1294.75,436.77,1288.51,455.9Z"></path><path class="RecallChekDecal-1" d="M1562.36,334.26a21.74,21.74,0,0,1-43.47,0c0-11.74,9.68-21.15,21.8-21.15S1562.36,322.52,1562.36,334.26Zm-38,0c0,9.42,7,16.9,16.51,16.9,9.29,0,16.13-7.48,16.13-16.77s-6.84-17-16.26-17S1524.31,325,1524.31,334.26Zm13,11.1h-4.9V324.2a42.57,42.57,0,0,1,8.12-.64c4,0,5.81.64,7.36,1.54a5.88,5.88,0,0,1,2.06,4.65c0,2.32-1.81,4.13-4.39,4.9v.26c2.07.77,3.23,2.32,3.87,5.16.65,3.22,1,4.51,1.55,5.29h-5.29c-.64-.78-1-2.71-1.67-5.16-.39-2.33-1.68-3.36-4.39-3.36h-2.32Zm.13-12h2.32c2.71,0,4.9-.9,4.9-3.1,0-1.93-1.42-3.22-4.51-3.22a11.62,11.62,0,0,0-2.71.26Z"></path></g></g></svg>