<svg xmlns="http://www.w3.org/2000/svg" viewBox="0 0 1771.42 884.85"><defs><style>.SewerGardDecal-1{fill:#ffbd47;}.SewerGardDecal-2{fill:#fff;}</style></defs><g id="Layer_2" data-name="Layer 2"><g id="Layer_1-2" data-name="Layer 1"><ellipse cx="885.71" cy="442.42" rx="866.4" ry="424.84"></ellipse><path class="SewerGardDecal-1" d="M885.71,884.85C396.55,884.85,0,686.77,0,442.42S396.55,0,885.71,0s885.71,198.08,885.71,442.42S1374.87,884.85,885.71,884.85ZM55.7,435.74c4.12,222.87,346.43,345.73,813.93,345.73,411.75,0,644-98.49,719.83-252.46-59.83,170.19-357,288.39-803,288.39-171.35,0-330.42-22.9-462-61.82C467.21,812.73,651.58,847,857,847c487.63,0,862.79-176.84,858.71-397.92-4.12-222.88-346.43-345.73-813.93-345.73-411.75,0-644,98.49-719.83,252.46,59.83-170.19,357-288.39,803-288.39,171.35,0,330.42,22.9,462,61.82-142.79-57.15-327.16-91.45-532.59-91.45C426.78,37.82,51.62,214.66,55.7,435.74Z"></path><path class="SewerGardDecal-2" d="M525,521H507.68Q491.11,415.53,474.46,309.5h19q11.4,88.59,22.8,177.14l.85.16q17.25-88.53,34.54-177.3h17.93q17.22,88,34.47,176.22h1.3l22.08-176.24h18.93C635.62,380,624.92,450.3,614.17,520.92H596.49q-17.68-88.86-35.37-177.68l-1,0Q542.54,432,525,521Z"></path><path class="SewerGardDecal-2" d="M776.83,309.27c27.39,2.34,67.57-9.94,80.83,22.09,7.24,17.05,5.13,36.44,4.82,54.49-1.27,16.29-7.68,30.22-24.77,37.12,10.94,32.7,21.79,65.12,32.88,98.28-6.6-.87-18.49,3.08-20.06-4.4-7.87-24.14-15.6-48.31-23.37-72.47-7.66-25.43-4.09-16.55-33.06-18.09V520.9H776.83Zm17.48,101c30.38.51,50.17,4.09,51.53-33.86-.45-46.57-3.7-54-51.53-51.51Z"></path><path class="SewerGardDecal-2" d="M259.56,468.47H277c-3.08,49.84,51.5,49.39,55.54,16.92,0-21.32,7.25-52.09-18.24-61.33-23.94-9.95-51.84-16.27-52.33-47.78-15.16-82.54,91.81-96.68,89.17-16.52H334.32c-.57-17.23-6.54-37-26.68-36.55-13.5-.4-22.6,5.89-26.36,18.9-4.13,18.08-6.54,45.93,13.73,54.73,8.77,4,17.58,8.07,26.66,11.29,34.27,10.84,32,51.7,28,80.85-4.16,29.71-33,38.12-59,32.42C265.77,517.16,258.91,491.55,259.56,468.47Z"></path><path class="SewerGardDecal-2" d="M668.48,309.39H741.6v15.46H686.24v80.63H734V421H686.18v84.46h55.48V521H668.48Z"></path><path class="SewerGardDecal-2" d="M403.41,405.48h47.85v15.63H403.39v84.28h55.46V521h-73V309.58h73v15.3H403.41Z"></path><path class="SewerGardDecal-2" d="M565.24,624.41H549.73V635h15v6.27h-15v21.05H543V618.14h22.23Z"></path><path class="SewerGardDecal-2" d="M570.09,634.46h6.49V637a12.46,12.46,0,0,1,3.17-2.55,7.41,7.41,0,0,1,3.34-.71,10.54,10.54,0,0,1,5.37,1.66l-3,5.9a6.23,6.23,0,0,0-3.61-1.32q-5.29,0-5.3,8v14.46h-6.49Z"></path><path class="SewerGardDecal-2" d="M616.23,649.92H596.1a8.42,8.42,0,0,0,2.25,5.47,6.91,6.91,0,0,0,5.1,2,6.7,6.7,0,0,0,4-1.14A16.52,16.52,0,0,0,611,652l5.47,3a21.36,21.36,0,0,1-2.68,3.67,13.81,13.81,0,0,1-3,2.52,12.33,12.33,0,0,1-3.49,1.45,17.43,17.43,0,0,1-4.07.46,13.28,13.28,0,0,1-10.09-4q-3.81-4-3.81-10.71T593,637.72a14.16,14.16,0,0,1,19.67-.11q3.57,3.9,3.57,10.79Zm-6.67-5.27q-1.35-5.14-6.54-5.15a6.71,6.71,0,0,0-2.22.36,6.36,6.36,0,0,0-3.34,2.65,7.27,7.27,0,0,0-.93,2.14Z"></path><path class="SewerGardDecal-2" d="M647.77,649.92H627.65a8.46,8.46,0,0,0,2.24,5.47,6.92,6.92,0,0,0,5.11,2,6.72,6.72,0,0,0,4-1.14,16.52,16.52,0,0,0,3.54-4.24l5.48,3a21.9,21.9,0,0,1-2.68,3.67,13.63,13.63,0,0,1-3,2.52,12.33,12.33,0,0,1-3.49,1.45,17.34,17.34,0,0,1-4.06.46,13.26,13.26,0,0,1-10.09-4q-3.81-4-3.81-10.71t3.69-10.71a12.77,12.77,0,0,1,9.86-4q6.2,0,9.8,3.92t3.58,10.79Zm-6.66-5.27c-.9-3.43-3.09-5.15-6.55-5.15a6.8,6.8,0,0,0-2.22.36,6.26,6.26,0,0,0-1.88,1,6.47,6.47,0,0,0-1.46,1.62,7.52,7.52,0,0,0-.92,2.14Z"></path><path class="SewerGardDecal-2" d="M674.27,618.14l11.59,29.55L698,616l11.59,31.69,12.32-29.55h7.29l-19.89,47-11.45-31.32-11.94,31.35-18.91-47Z"></path><path class="SewerGardDecal-2" d="M731.94,622.87a4,4,0,0,1,1.24-2.92,4.24,4.24,0,0,1,6,0,3.92,3.92,0,0,1,1.24,2.94,4.22,4.22,0,0,1-4.21,4.21,4.11,4.11,0,0,1-3-1.23A4.05,4.05,0,0,1,731.94,622.87Zm7.47,11.59v27.89h-6.49V634.46Z"></path><path class="SewerGardDecal-2" d="M753.19,640.47v21.88h-6.48V640.47h-2.77v-6h2.77V624.24h6.48v10.22h5v6Z"></path><path class="SewerGardDecal-2" d="M762.71,614h6.49v22.79a11.2,11.2,0,0,1,7.64-3.09,9.91,9.91,0,0,1,7.61,3.06c1.62,1.78,2.42,4.61,2.42,8.5v17.1h-6.49V645.86c0-2.24-.39-3.86-1.19-4.86a4.63,4.63,0,0,0-3.85-1.5c-2.27,0-3.86.7-4.79,2.09s-1.35,3.84-1.35,7.27v13.49h-6.49Z"></path><path class="SewerGardDecal-2" d="M836.87,624.41H819V635h17.32v6.27H819v14.78h17.84v6.27H812.31V618.14h24.56Z"></path><path class="SewerGardDecal-2" d="M846.82,634.46l7.27,15.66,7.24-15.66h7.29L854,664.26l-14.47-29.8Z"></path><path class="SewerGardDecal-2" d="M896.45,649.92H876.32a8.47,8.47,0,0,0,2.25,5.47,6.91,6.91,0,0,0,5.1,2,6.68,6.68,0,0,0,4-1.14,16.52,16.52,0,0,0,3.55-4.24l5.48,3a21.9,21.9,0,0,1-2.68,3.67,14.09,14.09,0,0,1-3,2.52,12.33,12.33,0,0,1-3.49,1.45,17.43,17.43,0,0,1-4.07.46,13.28,13.28,0,0,1-10.09-4q-3.79-4-3.8-10.71t3.69-10.71a12.76,12.76,0,0,1,9.86-4q6.2,0,9.8,3.92t3.58,10.79Zm-6.66-5.27q-1.37-5.14-6.55-5.15a6.71,6.71,0,0,0-2.22.36,6.43,6.43,0,0,0-1.89,1,6.63,6.63,0,0,0-1.45,1.62,7.54,7.54,0,0,0-.93,2.14Z"></path><path class="SewerGardDecal-2" d="M902.42,634.46h6.49V637a12.29,12.29,0,0,1,3.17-2.55,7.38,7.38,0,0,1,3.34-.71,10.48,10.48,0,0,1,5.36,1.66l-3,5.9a6.21,6.21,0,0,0-3.6-1.32q-5.31,0-5.3,8v14.46h-6.49Z"></path><path class="SewerGardDecal-2" d="M934.83,657.16l-12.63-22.7h7.53l8.59,16,8-16h7.33l-22.38,43.06h-7.41Z"></path><path class="SewerGardDecal-2" d="M982,618.14v44.21h-6.71V618.14Z"></path><path class="SewerGardDecal-2" d="M990.34,634.46h6.52V637a10.62,10.62,0,0,1,7.67-3.35,9.74,9.74,0,0,1,7.64,3.06q2.36,2.61,2.36,8.5v17.1H1008V646.77q0-4.12-1.15-5.7c-.75-1.06-2.11-1.6-4.09-1.6-2.16,0-3.68.71-4.59,2.12s-1.32,3.83-1.32,7.3v13.46h-6.52Z"></path><path class="SewerGardDecal-2" d="M1037.92,639.21l-5.37,2.84c-.84-1.72-1.89-2.58-3.14-2.58a2.17,2.17,0,0,0-1.53.59,2,2,0,0,0-.63,1.5q0,1.61,3.75,3.18,5.16,2.21,6.94,4.06a6.89,6.89,0,0,1,1.79,5,8.74,8.74,0,0,1-3,6.76,10.22,10.22,0,0,1-7,2.58q-7.07,0-10-6.84l5.54-2.55a12.16,12.16,0,0,0,1.76,2.55,4,4,0,0,0,2.82,1.08c2.2,0,3.29-1,3.29-3,0-1.15-.84-2.22-2.54-3.21-.65-.33-1.3-.64-2-1l-2-.94a12.24,12.24,0,0,1-4-2.75,6.72,6.72,0,0,1-1.47-4.49,8,8,0,0,1,2.51-6,8.85,8.85,0,0,1,6.23-2.37Q1035.28,633.69,1037.92,639.21Z"></path><path class="SewerGardDecal-2" d="M1050.92,677.52h-6.48V634.46h6.48v3a12.36,12.36,0,0,1,18.25.43,15.2,15.2,0,0,1,3.81,10.62A15,15,0,0,1,1069.2,659a12.37,12.37,0,0,1-18.28.23Zm15.43-28.94a9.58,9.58,0,0,0-2.19-6.53,7.11,7.11,0,0,0-5.6-2.55,7.43,7.43,0,0,0-5.79,2.46,9.29,9.29,0,0,0-2.22,6.47,9.49,9.49,0,0,0,2.22,6.47,7.3,7.3,0,0,0,5.76,2.49,7.06,7.06,0,0,0,5.57-2.52A9.1,9.1,0,0,0,1066.35,648.58Z"></path><path class="SewerGardDecal-2" d="M1104.29,649.92h-20.12a8.42,8.42,0,0,0,2.25,5.47,6.89,6.89,0,0,0,5.1,2,6.7,6.7,0,0,0,4-1.14,16.52,16.52,0,0,0,3.55-4.24l5.47,3a21.36,21.36,0,0,1-2.68,3.67,13.63,13.63,0,0,1-3,2.52,12.15,12.15,0,0,1-3.48,1.45,17.43,17.43,0,0,1-4.07.46,13.28,13.28,0,0,1-10.09-4q-3.81-4-3.81-10.71t3.69-10.71a12.77,12.77,0,0,1,9.86-4q6.21,0,9.81,3.92t3.57,10.79Zm-6.66-5.27q-1.35-5.14-6.54-5.15a6.71,6.71,0,0,0-2.22.36,6.43,6.43,0,0,0-1.89,1,6.67,6.67,0,0,0-1.46,1.62,7.52,7.52,0,0,0-.92,2.14Z"></path><path class="SewerGardDecal-2" d="M1132.12,635.66v8.56a15.9,15.9,0,0,0-4-3.69,7.76,7.76,0,0,0-4.06-1,8,8,0,0,0-6.09,2.55,8.91,8.91,0,0,0-2.42,6.38,9.08,9.08,0,0,0,2.34,6.44,7.88,7.88,0,0,0,6,2.52,8.24,8.24,0,0,0,4.12-1,16.28,16.28,0,0,0,4.07-3.78v8.5a17.08,17.08,0,0,1-7.9,2,15.21,15.21,0,0,1-10.9-4.18,13.91,13.91,0,0,1-4.38-10.45,14.11,14.11,0,0,1,4.44-10.54,15.08,15.08,0,0,1,10.9-4.29A16.43,16.43,0,0,1,1132.12,635.66Z"></path><path class="SewerGardDecal-2" d="M1144,640.47v21.88h-6.48V640.47h-2.77v-6h2.77V624.24H1144v10.22h5v6Z"></path><path class="SewerGardDecal-2" d="M1151.33,622.87a4,4,0,0,1,1.24-2.92,4,4,0,0,1,3-1.23,4.11,4.11,0,0,1,3,1.23,4,4,0,0,1,1.24,2.94,4.06,4.06,0,0,1-1.24,3,4,4,0,0,1-3,1.23,4.22,4.22,0,0,1-4.24-4.23Zm7.47,11.59v27.89h-6.49V634.46Z"></path><path class="SewerGardDecal-2" d="M1164.57,648.2a13.8,13.8,0,0,1,4.35-10.27,15.44,15.44,0,0,1,21.28,0,14.87,14.87,0,0,1,0,21,15,15,0,0,1-10.76,4.21,14.62,14.62,0,0,1-14.84-14.95Zm6.63.12a9.36,9.36,0,0,0,2.25,6.61,8.78,8.78,0,0,0,12.16,0,10.41,10.41,0,0,0,0-13,8.68,8.68,0,0,0-12.11,0A9,9,0,0,0,1171.2,648.32Z"></path><path class="SewerGardDecal-2" d="M1200.26,634.46h6.52V637a10.64,10.64,0,0,1,7.67-3.35,9.73,9.73,0,0,1,7.64,3.06q2.36,2.61,2.36,8.5v17.1h-6.51V646.77q0-4.12-1.16-5.7c-.75-1.06-2.11-1.6-4.09-1.6a5,5,0,0,0-4.59,2.12c-.88,1.39-1.32,3.83-1.32,7.3v13.46h-6.52Z"></path><path class="SewerGardDecal-1" d="M517.88,643.31a34.38,34.38,0,1,1-34.38-34.38A34.38,34.38,0,0,1,517.88,643.31ZM483.5,621.48s-11.87,26.47-11.87,33a11.88,11.88,0,1,0,23.75,0C495.38,648,483.5,621.48,483.5,621.48Z"></path><path class="SewerGardDecal-1" d="M1245.22,299.5c39.48.66,103.67-13.74,110.87,40.81,4,28.77,5.42,66.15-23.94,82.38,11,32.8,21.93,65.39,33,98.44H1328.6l-29-90.6H1280.1V521.1h-34.88Zm35,99c7.71,0,14.84.16,22,0,25.77-.75,22.07-35.29,18.71-53.17-3.7-19.75-25.79-13.66-40.67-14.27Z"></path><path class="SewerGardDecal-1" d="M1394.61,521.42V299.09c44.58-.6,107.7-9.95,112.83,50.21,1.66,54,25.24,170.43-55.47,172.06C1433,521.68,1414.08,521.42,1394.61,521.42Zm35.15-31.73c15-.24,35.71,4,40.69-14.61,1.48-4.74,3.08-9.7,3.16-14.58.54-31,1-62.09.74-93.14-3.83-38.29-9.26-36-44.59-37.42Z"></path><path class="SewerGardDecal-1" d="M1034.39,357.36c-1.38-13.68-5.39-30.2-22.08-29.24-10.35-.14-17,4.23-19.61,14.72-8.72,38-2.85,77.62-3.52,116.29.16,6.65,2.05,13.41,4,19.86,4.33,17.2,30.6,17.74,37.1,1.93,1.22-2.55,2.57-5.37,2.62-8.09.26-14.23.12-28.46.12-43.38h-20.57V400.79h55.9c-1.09,34.8,10.65,88.68-20.44,111.86-53.58,35.94-99.47-12-94.79-68.67,3.51-38.55-9.77-105,19.38-132.46,39.1-35.51,99-6.92,96.13,45.84Z"></path><path class="SewerGardDecal-1" d="M1118.56,521.16h-36.89c18.27-74.16,36.43-147.92,54.67-222h34.29c18,73.81,35.94,147.61,54,221.89H1188.1c-3-14.4-6-28.69-9-43.3h-51.77C1124.42,492.11,1121.54,506.4,1118.56,521.16Zm35.37-165.67-1.22.08c-6.1,29.82-12.19,59.63-18.35,89.75h38C1166.12,415.05,1160,385.27,1153.93,355.49Z"></path><rect class="SewerGardDecal-1" x="902.62" y="297.09" width="13.73" height="223.14"></rect></g></g></svg>