<svg xmlns="http://www.w3.org/2000/svg" viewBox="0 0 350 349.84"><defs><style>.cls-1{fill:#fff;}.cls-2{fill:#213f77;}</style></defs><g id="Layer_2" data-name="Layer 2"><g id="Layer_1-2" data-name="Layer 1"><path class="cls-1" d="M349.54,186.47a8.87,8.87,0,0,0-2.27-5.38c1.27-2.15,3.25-6.27,2.6-10.31a8.8,8.8,0,0,0-2.72-5.11c1.06-2.24,2.65-6.49,1.66-10.44a9,9,0,0,0-3.19-4.91c.87-2.32,2.09-6.73.74-10.59a9,9,0,0,0-3.59-4.59c.64-2.39,1.43-6.87-.25-10.59a9.12,9.12,0,0,0-4-4.27c.43-2.44.83-7-1.17-10.49A8.85,8.85,0,0,0,333,105.9c.22-2.47.22-7-2.1-10.4a8.83,8.83,0,0,0-4.67-3.44c0-2.49-.43-7-3.05-10.17a8.83,8.83,0,0,0-5-3c-.23-2.47-1.05-7-3.94-9.84A8.91,8.91,0,0,0,309,66.44c-.46-2.44-1.69-6.81-4.82-9.42a8.86,8.86,0,0,0-5.45-2.09c-.67-2.4-2.26-6.68-5.61-9a8.9,8.9,0,0,0-5.6-1.6c-.87-2.32-2.84-6.39-6.37-8.41a9,9,0,0,0-5.76-1.11c-1.07-2.21-3.4-6.13-7.11-7.83a9,9,0,0,0-5.8-.58c-1.28-2.12-4-5.81-7.82-7.17a8.93,8.93,0,0,0-5.8-.06c-1.46-2-4.47-5.46-8.43-6.47a8.9,8.9,0,0,0-5.82.48c-1.65-1.86-4.94-5-9-5.66a8.92,8.92,0,0,0-5.72,1c-1.79-1.7-5.34-4.55-9.41-4.84a8.93,8.93,0,0,0-5.67,1.47c-2-1.55-5.74-4-9.79-4a8.92,8.92,0,0,0-5.49,2c-2.07-1.36-6.09-3.54-10.15-3.09a8.94,8.94,0,0,0-5.28,2.47c-2.2-1.18-6.36-3-10.35-2.17a8.84,8.84,0,0,0-5.07,2.94c-2.29-1-6.6-2.4-10.49-1.25a8.93,8.93,0,0,0-4.76,3.36c-2.37-.76-6.79-1.76-10.57-.26a8.92,8.92,0,0,0-4.44,3.78c-2.41-.55-7-1.19-10.61.65a8.92,8.92,0,0,0-4.08,4.19c-2.44-.33-7-.55-10.45,1.6a9,9,0,0,0-3.72,4.52c-2.49-.11-7,.1-10.28,2.54a8.94,8.94,0,0,0-3.28,4.83c-2.5.11-7,.72-10,3.44a9,9,0,0,0-2.84,5.08c-2.44.34-6.85,1.35-9.62,4.33a9,9,0,0,0-2.4,5.4c-4.93,1.26-11.77,4.77-11.73,11.55-4.78,1.64-11.57,5.8-10.93,12.59-2.25,1-6.31,3.2-8.15,6.9a8.86,8.86,0,0,0-.77,5.82c-2.15,1.18-6,3.73-7.49,7.56a9,9,0,0,0-.26,5.87c-2.05,1.39-5.65,4.29-6.8,8.26a8.88,8.88,0,0,0,.27,5.82c-1.92,1.57-5.21,4.77-6,8.79a9,9,0,0,0,.78,5.78c-1.78,1.75-4.75,5.22-5.16,9.29a8.85,8.85,0,0,0,1.33,5.66C4.67,141.3,2,145,2,149.1a8.94,8.94,0,0,0,1.79,5.54c-1.43,2-3.75,6-3.44,10A8.87,8.87,0,0,0,2.65,170C1.4,172.18-.53,176.29.13,180.3a8.94,8.94,0,0,0,2.77,5.16c-1,2.23-2.6,6.51-1.58,10.47a9.05,9.05,0,0,0,3.2,4.87c-.84,2.33-2,6.74-.63,10.57A8.88,8.88,0,0,0,7.54,216c-.62,2.42-1.38,6.89.32,10.6a9,9,0,0,0,4,4.23c-.4,2.45-.75,7,1.28,10.5a9,9,0,0,0,4.4,3.82c-.2,2.47-.16,7,2.18,10.37a9.07,9.07,0,0,0,4.7,3.46c.05,2.49.5,7,3.13,10.1a8.85,8.85,0,0,0,5,3c.26,2.48,1.12,7,4,9.83a8.81,8.81,0,0,0,5.25,2.54c.47,2.44,1.72,6.8,4.86,9.39a8.87,8.87,0,0,0,5.46,2.06c.68,2.38,2.31,6.62,5.66,8.93a9,9,0,0,0,5.63,1.57c.9,2.32,2.93,6.41,6.51,8.4a9,9,0,0,0,5.74,1.05c1.11,2.24,3.48,6.14,7.2,7.79a8.84,8.84,0,0,0,5.76.52c1.3,2.13,4,5.81,7.91,7.13a8.74,8.74,0,0,0,5.8,0c1.49,2,4.52,5.38,8.47,6.35a9,9,0,0,0,5.81-.5c1.65,1.87,5,5,9,5.61a8.92,8.92,0,0,0,5.78-1c1.81,1.7,5.36,4.48,9.4,4.75a9,9,0,0,0,5.64-1.52c1.94,1.52,5.78,4,9.88,3.92a9,9,0,0,0,5.44-2c2.08,1.34,6.08,3.44,10.12,3a9,9,0,0,0,5.29-2.51c2.2,1.16,6.4,2.93,10.39,2.09a9,9,0,0,0,5-3c2.27,1,6.64,2.35,10.57,1.15a9,9,0,0,0,4.73-3.4c2.38.75,6.82,1.73,10.59.19a8.91,8.91,0,0,0,4.38-3.82c2.41.53,6.92,1.12,10.57-.74a9,9,0,0,0,4.09-4.21c2.47.32,7,.5,10.42-1.67a8.81,8.81,0,0,0,3.66-4.53c2.47.09,7-.14,10.27-2.63a8.83,8.83,0,0,0,3.22-4.84c2.48-.13,7-.78,10-3.55a9,9,0,0,0,2.78-5.09c2.45-.36,6.91-1.41,9.65-4.43a8.85,8.85,0,0,0,2.31-5.33c2.43-.59,6.77-2,9.23-5.29a8.92,8.92,0,0,0,1.81-5.5c2.36-.79,6.56-2.6,8.72-6.07a8.91,8.91,0,0,0,1.32-5.66c2.28-1,6.28-3.19,8.12-6.83a8.8,8.8,0,0,0,.8-5.76c2.18-1.18,6-3.7,7.49-7.49a8.94,8.94,0,0,0,.29-5.8c2-1.37,5.61-4.23,6.79-8.15a9,9,0,0,0-.23-5.85c1.92-1.56,5.21-4.71,6-8.71a8.91,8.91,0,0,0-.74-5.76c1.78-1.73,4.79-5.19,5.22-9.26a8.91,8.91,0,0,0-1.28-5.69c1.62-1.87,4.28-5.55,4.37-9.61a8.93,8.93,0,0,0-1.75-5.56c1.47-2,3.82-5.93,3.54-10Z"/><path id="path385" class="cls-2" d="M344.23,179.87a1.3,1.3,0,0,0-.23.18l-9.29,8.85a11.85,11.85,0,0,1-.48-3.29,14.58,14.58,0,0,1,1.92-7c.05,0,9.14-10.19,9.14-10.19a5.6,5.6,0,0,1,1.39,2.88c.54,3.33-1.48,7-2.45,8.58m-1.09,15.07-.31.19-10,8a11.85,11.85,0,0,1-.23-2.25,14.2,14.2,0,0,1,2.58-7.92s0,0,0,0l10-9.29a5.54,5.54,0,0,1,1.13,3C346.54,190,344.26,193.46,343.14,194.94Zm-2.47,14.95a1.82,1.82,0,0,0-.31.16l-10.68,7.09c0-.41-.09-.8-.09-1.2a13.91,13.91,0,0,1,3.47-8.84l10.64-8.24a5.72,5.72,0,0,1,.85,3.1C344.48,205.3,341.91,208.53,340.67,209.89Zm.8,7.11c-.34,3.29-3.15,6.27-4.53,7.55a1.53,1.53,0,0,0-.39.14l-11.27,6.12c0-.05,0-.11,0-.18a13.72,13.72,0,0,1,4.27-9.53l11.3-7.23a5.47,5.47,0,0,1,.67,2.47A3.77,3.77,0,0,1,341.47,217ZM337,231.72c-.66,3.29-3.79,6-5.22,7.12a1.39,1.39,0,0,0-.33.1l-11.76,5a13.7,13.7,0,0,1,5.08-9.22l11.92-6.2a5.4,5.4,0,0,1,.43,2A5.88,5.88,0,0,1,337,231.72ZM331.33,246c-1,3.19-4.27,5.62-5.83,6.61a1.78,1.78,0,0,0-.39.07l-12.16,4a13.77,13.77,0,0,1,5.71-8.65l.06,0,12.6-5.22a5.41,5.41,0,0,1,.25,1.57A5.83,5.83,0,0,1,331.33,246Zm-7,13.68c-1.24,3.12-4.83,5.26-6.45,6.08l-.32,0-12.46,2.86a13.76,13.76,0,0,1,6.42-8.1h.07l13-4.06A5.54,5.54,0,0,1,324.34,259.68Zm-8.16,13c-1.51,3-5.24,4.8-6.95,5.5h-.34l-12.72,1.75a13.76,13.76,0,0,1,7.19-7.5c.06,0,13.34-2.9,13.34-2.9a2.93,2.93,0,0,1,.09.57A5.69,5.69,0,0,1,316.18,272.67Zm-9.31,12.23c-1.75,2.83-5.57,4.29-7.36,4.85a1.12,1.12,0,0,0-.41,0l-12.82.62a13.64,13.64,0,0,1,8.05-6.89l13.42-1.63v.05A5.6,5.6,0,0,1,306.87,284.9ZM296.5,296.23c-2,2.69-6,3.81-7.82,4.2l-.34-.05-12.81-.53a13.8,13.8,0,0,1,8.61-6.17l13.46-.42A5.62,5.62,0,0,1,296.5,296.23Zm-11.35,10.4c-2.22,2.45-6.22,3.23-8.09,3.46a2.12,2.12,0,0,0-.41-.12l-12.71-1.65a13.65,13.65,0,0,1,9.14-5.34l13.46.78A5.68,5.68,0,0,1,285.15,306.63ZM272.92,316c-2.44,2.27-6.55,2.66-8.4,2.72a1.4,1.4,0,0,0-.36-.13l-12.47-2.82a13.71,13.71,0,0,1,9.55-4.49l13.33,2A5.7,5.7,0,0,1,272.92,316Zm-13,8.21c-2.63,2-6.77,2.06-8.63,1.95A1.57,1.57,0,0,0,251,326L238.72,322a13.71,13.71,0,0,1,9.72-3.65l.1,0,13.26,3.17A5.59,5.59,0,0,1,259.92,324.16Zm-13.68,7c-2.82,1.79-6.93,1.42-8.76,1.14a1,1,0,0,0-.29-.15l-11.84-5a13.75,13.75,0,0,1,10.16-2.74l12.84,4.35A5.66,5.66,0,0,1,246.24,331.15ZM232,336.88c-3,1.51-7,.81-8.84.37a1.11,1.11,0,0,0-.3-.22l-11.31-6a13.49,13.49,0,0,1,10.43-1.8l12.36,5.44A5.76,5.76,0,0,1,232,336.88Zm-14.71,4.45c-3.05,1.25-7,.2-8.8-.41a3.08,3.08,0,0,0-.27-.24l-10.75-7A13.58,13.58,0,0,1,208,332.8l11.79,6.52A5.61,5.61,0,0,1,217.27,341.33Zm-15,3.11c-3.19,1-7.07-.45-8.77-1.2a2.4,2.4,0,0,0-.28-.27l-10.06-7.92a13.79,13.79,0,0,1,10.41,0c0,.05,11.37,7.68,11.37,7.68A5.68,5.68,0,0,1,202.24,344.44Zm-15.31,1.76c-3.21.69-6.89-1-8.55-1.94a2,2,0,0,0-.25-.34l-9.34-8.79a13.63,13.63,0,0,1,10.54,1l10.44,8.5a5.65,5.65,0,0,1-2.84,1.53Zm-15.38.38c-3.28.39-6.79-1.64-8.34-2.69a1.77,1.77,0,0,0-.21-.32L154.53,334a13.58,13.58,0,0,1,10.2,1.84l0,0,9.77,9.51a5.69,5.69,0,0,1-3,1.26Zm-15.28-1c-3.33.09-6.68-2.3-8.12-3.47a1.48,1.48,0,0,0-.19-.35l-7.63-10.36a13.67,13.67,0,0,1,10,2.7l.1.16,8.88,10.36A5.71,5.71,0,0,1,156.27,345.6Zm-15.22-2.39c-3.34-.22-6.45-2.92-7.76-4.21a1,1,0,0,0-.13-.27l-6.66-11a13.7,13.7,0,0,1,9.88,3.76l7.81,11A5.66,5.66,0,0,1,141.05,343.21Zm-14.9-3.67c-3.28-.51-6.13-3.45-7.34-4.88a1.63,1.63,0,0,0-.13-.37L113,322.78a13.63,13.63,0,0,1,9.41,4.51s0,0,0,0l6.92,11.72A5.84,5.84,0,0,1,126.15,339.54Zm-14.52-5.07c-3.27-.8-5.89-4-6.95-5.54a2.68,2.68,0,0,0-.07-.27l-4.56-12a13.66,13.66,0,0,1,9,5.46l5.75,12.16A5.63,5.63,0,0,1,111.63,334.47Zm-14-6.26c-3.17-1.08-5.48-4.53-6.43-6.14a1.44,1.44,0,0,0,0-.37l-3.5-12.33a13.7,13.7,0,0,1,8.55,6.3l4.61,12.68A5.74,5.74,0,0,1,97.63,328.21Zm-13.4-7.56c-3.06-1.35-5.06-5-5.83-6.71a1.53,1.53,0,0,0,0-.3L76,301a13.63,13.63,0,0,1,7.92,7l3.45,13A5.44,5.44,0,0,1,84.23,320.65Zm-9.11-23.16c-1-2.23-4-7.69-10.55-9.42-.79-2.31-3.32-8-9.7-10.34-.57-2.39-2.57-8.31-8.73-11.18-.35-2.41-1.81-8.4-7.64-11.82-.13-2.43-1-8.65-6.61-12.59.08-2.44-.28-8.64-5.47-13.06.31-2.43.52-8.65-4.22-13.52.51-2.37,1.25-8.5-3-13.75.72-2.29,2.05-8.38-1.75-14.06.92-2.26,2.78-8.21-.54-14.19,1.14-2.19,3.48-7.88.76-14.09,1.3-2,4.19-7.6,2-14.06,1.5-1.92,4.83-7.15,3.26-13.75,1.67-1.8,5.45-6.73,4.45-13.45,1.82-1.63,6-6.18,5.65-12.92a16.7,16.7,0,0,0,6.88-12.53c2-1.23,7.09-5,7.93-11.81,2.14-1,7.55-4.33,9-11.08,2.24-.94,8.66-4.16,10.76-11,2.43-.77,8.85-3.37,11.59-9.7,2.39-.43,8.46-2.09,11.67-8.1,2.43-.22,8.56-1.35,12.31-7,2.45,0,8.64-.53,12.89-5.86,2.48.22,8.67.21,13.34-4.68,2.45.44,8.63,1,13.69-3.49,2.36.65,8.45,1.74,13.93-2.24,2.25.84,8.29,2.5,14.16-1,2.23,1.08,8,3.25,14.15.3,2.13,1.25,7.73,3.91,14.06,1.52,2,1.43,7.3,4.6,13.87,2.81,1.86,1.62,6.91,5.26,13.57,4.05,1.71,1.77,6.41,5.84,13.17,5.19,1.52,1.91,5.83,6.4,12.6,6.38,1.35,2,5.26,6.87,12,7.46,1.16,2.15,4.61,7.35,11.29,8.55,1,2.24,3.94,7.74,10.51,9.55.75,2.32,3.21,8,9.58,10.38.56,2.38,2.51,8.24,8.6,11.21.34,2.38,1.74,8.43,7.59,11.92.11,2.41,1,8.6,6.51,12.6-.1,2.46.21,8.69,5.34,13.15-.32,2.46-.53,8.63,4.16,13.51-.54,2.39-1.36,8.54,2.9,13.85-.76,2.36-2.09,8.41,1.67,14.05-.95,2.25-2.82,8.14.42,14.09-1.13,2.11-3.59,7.86-.89,14.16-1.34,2.06-4.21,7.56-2.1,14-1.52,1.91-4.91,7.13-3.37,13.75-1.68,1.78-5.52,6.67-4.57,13.41-1.82,1.6-6.07,6.1-5.76,12.88A16.7,16.7,0,0,0,309.55,258c-2.05,1.26-7,5-7.93,11.69-2.18,1.06-7.53,4.31-9,10.95-2.29.86-7.92,3.6-10,10.1-2.35.67-8.13,2.93-10.78,9.18-2.41.44-8.38,2.11-11.57,8.16-2.43.23-8.53,1.39-12.23,7.06-2.46,0-8.67.64-12.87,6-2.48-.19-8.67-.11-13.28,4.79-2.41-.43-8.6-.94-13.69,3.6a16.41,16.41,0,0,0-13.93,2.36c-2.25-.83-8.29-2.45-14.13,1.11-2.21-1-8-3.2-14.17-.19-2.12-1.25-7.7-3.88-14-1.44-2-1.42-7.36-4.59-13.94-2.71-1.86-1.58-6.91-5.15-13.58-3.89-1.72-1.78-6.47-5.84-13.23-5.13-1.54-1.91-5.89-6.36-12.66-6.27-1.37-2-5.31-6.86-12.07-7.41C85.3,303.8,81.81,298.64,75.12,297.49ZM71.55,312c-2.92-1.63-4.59-5.4-5.23-7.15a1.51,1.51,0,0,0,0-.37l-1.21-12.75a13.68,13.68,0,0,1,7.27,7.67l2.3,13.27A5.8,5.8,0,0,1,71.55,312Zm-11.89-9.82c-2.75-1.89-4-5.82-4.5-7.59a1.86,1.86,0,0,0,0-.34l-.1-12.81a13.78,13.78,0,0,1,6.52,8.07c0,.06,1.1,13.67,1.1,13.67A5.63,5.63,0,0,1,59.66,302.13Zm-7.91-9.62a5.46,5.46,0,0,1-3-1.2c-2.61-2.15-3.55-6.24-3.84-8a.93.93,0,0,0,0-.25l1.07-12.82a13.71,13.71,0,0,1,5.8,8.9Zm-10-11.4a5.83,5.83,0,0,1-2.83-1.53c-2.39-2.36-3-6.46-3.13-8.31a2.07,2.07,0,0,0,.1-.33l2.22-12.58a13.69,13.69,0,0,1,5,9.29Zm-9-12.39A5.68,5.68,0,0,1,30.05,267c-2.08-2.45-2.36-6.42-2.36-8.37v-.06a2.17,2.17,0,0,0,.16-.38l3.31-12.45a13.77,13.77,0,0,1,4.14,9.56C35.26,255.32,32.73,268.72,32.73,268.72ZM24.9,255.64a5.68,5.68,0,0,1-2.5-2A11.87,11.87,0,0,1,20.72,247c0-.82.06-1.52.1-2a1.83,1.83,0,0,0,.18-.34l4.36-12a13.37,13.37,0,0,1,3.31,9,8.68,8.68,0,0,1-.06,1.12Zm-6.59-13.76a5.62,5.62,0,0,1-2.33-2.2,10.39,10.39,0,0,1-1.17-5.16,20.5,20.5,0,0,1,.35-3.62,1,1,0,0,0,.18-.29L20.83,219a13.11,13.11,0,0,1,2.51,7.86,12.67,12.67,0,0,1-.22,2.48l-4.81,12.59Zm-5.39-14.25a5.65,5.65,0,0,1-2.1-2.41c-1.39-3-.51-7.07,0-8.88a2.48,2.48,0,0,0,.19-.26l6.47-11a12.72,12.72,0,0,1,1.89,6.71,13.54,13.54,0,0,1-.48,3.71ZM8.87,212.92A5.75,5.75,0,0,1,7,210.3c-1.11-3.09.08-7,.76-8.76a1.44,1.44,0,0,0,.27-.28l7.47-10.44a12.59,12.59,0,0,1,1.3,5.61,14.39,14.39,0,0,1-.8,4.76C15.92,201.24,8.87,212.92,8.87,212.92ZM4.48,195.14c-.85-3.25.76-7.09,1.57-8.73a1.19,1.19,0,0,0,.23-.22l8.37-9.73a12.18,12.18,0,0,1,.89,4.53,14.44,14.44,0,0,1-1.24,5.79c0,.05-.08.07-.1.12l-8.09,11A5.74,5.74,0,0,1,4.48,195.14ZM3.35,179.81c-.55-3.33,1.42-7,2.38-8.57a.87.87,0,0,0,.22-.17l9.2-8.92a11.86,11.86,0,0,1,.51,3.38,14.37,14.37,0,0,1-1.88,6.93l0,0-9,10.22A5.61,5.61,0,0,1,3.35,179.81Zm3.33-23.63A1.55,1.55,0,0,0,7,156l10-8.1a12,12,0,0,1,.25,2.33A14.29,14.29,0,0,1,14.75,158a1.27,1.27,0,0,0-.13.11l-9.89,9.4a5.71,5.71,0,0,1-1.16-3C3.31,161.13,5.58,157.66,6.68,156.18Zm2.37-15a1.82,1.82,0,0,0,.31-.16L20,133.87a10.82,10.82,0,0,1,.09,1.25,13.91,13.91,0,0,1-3.39,8.79L6.1,152.26a5.5,5.5,0,0,1-.87-3.09C5.27,145.82,7.83,142.55,9.05,141.17Zm-.87-7.08c.33-3.29,3.11-6.29,4.48-7.57a1.61,1.61,0,0,0,.39-.16l11.21-6.21c0,.09,0,.19,0,.28a13.72,13.72,0,0,1-4,9.32l-.05,0L8.84,137.2a5.53,5.53,0,0,1-.69-2.51Zm4.33-14.76c.65-3.33,3.78-6.1,5.23-7.23a1.34,1.34,0,0,0,.31-.09l11.67-5.09a13.78,13.78,0,0,1-5,9.29l-11.87,6.3a5.62,5.62,0,0,1-.44-2A6.29,6.29,0,0,1,12.51,119.33ZM18.17,105c.95-3.28,4.41-5.8,5.92-6.76a1.43,1.43,0,0,0,.28-.07L36.48,94.1a13.91,13.91,0,0,1-5.68,8.79l-.12,0-12.49,5.27a5.44,5.44,0,0,1-.26-1.58A5.8,5.8,0,0,1,18.17,105Zm7-13.84c1.27-3.23,5-5.41,6.55-6.18l.24,0L44.33,82a13.74,13.74,0,0,1-6.53,8.25h0l-13,4.16A5.73,5.73,0,0,1,25.12,91.14ZM33.28,78c1.52-3.07,5.38-4.91,7-5.57a1.77,1.77,0,0,0,.32,0L53.22,70.6A13.72,13.72,0,0,1,46,78.26l-13.23,3A5.42,5.42,0,0,1,33.28,78ZM51.43,59.85l12.46-.52C61.52,64.43,56,66.72,55.15,67L41.74,68.81C41.76,63,50.18,60.23,51.43,59.85Zm11-11.28a.93.93,0,0,0,.24,0l12.76.63c-3,4.91-8.86,6.61-9.47,6.77l-13.23.56C53.17,51.36,59.88,49.2,62.44,48.57ZM66,42.33c2.27-2.46,6.33-3.19,8.15-3.39a1.57,1.57,0,0,0,.31.08l12.73,1.79a13.68,13.68,0,0,1-9,5.28c-.07,0-13.69-.86-13.69-.86A5.73,5.73,0,0,1,66,42.33Zm12.25-9.21c2.43-2.2,6.48-2.58,8.4-2.64a2.39,2.39,0,0,0,.37.15L99.5,33.48a13.81,13.81,0,0,1-9.63,4.45L76.54,35.84A5.65,5.65,0,0,1,78.21,33.12ZM91.29,25c2.63-2,6.72-2,8.61-1.88a1.44,1.44,0,0,0,.33.16l12.24,4a13.59,13.59,0,0,1-10,3.54L89.38,27.6A5.64,5.64,0,0,1,91.29,25ZM105,18.14c2.87-1.78,7-1.37,8.8-1.09a1.35,1.35,0,0,0,.26.15l11.8,5.12A13.65,13.65,0,0,1,115.71,25l-12.84-4.41A5.72,5.72,0,0,1,105,18.14Zm14.29-5.65c3-1.5,7-.75,8.84-.3a1.66,1.66,0,0,0,.3.22l11.27,6.12a13.68,13.68,0,0,1-10.36,1.75L117,14.71A5.59,5.59,0,0,1,119.33,12.49ZM134.1,8.17c3.06-1.22,7-.16,8.79.46a1.61,1.61,0,0,0,.28.24L153.82,16a13.61,13.61,0,0,1-10.53.79l-11.73-6.62A5.78,5.78,0,0,1,134.1,8.17Zm15.05-3c3.17-.94,7,.52,8.72,1.3a1.81,1.81,0,0,0,.24.24l10,8a13.82,13.82,0,0,1-10.4-.07s-11.27-7.78-11.27-7.78a5.6,5.6,0,0,1,2.68-1.73Zm15.28-1.62c3.27-.66,7,1.14,8.6,2.07a1.21,1.21,0,0,0,.21.24l9.24,8.91a13.67,13.67,0,0,1-10.37-1v0L161.57,5A5.67,5.67,0,0,1,164.43,3.54Zm15.35-.26c3.33-.37,6.9,1.78,8.4,2.83a1.79,1.79,0,0,0,.2.28L196.76,16a13.75,13.75,0,0,1-10.23-1.92h0l-9.69-9.59A5.49,5.49,0,0,1,179.78,3.28Zm15.34,1.11c3.29-.07,6.58,2.3,8,3.5a1.7,1.7,0,0,0,.19.35l7.54,10.4a13.67,13.67,0,0,1-10.16-3L192.06,5.38A5.47,5.47,0,0,1,195.12,4.39Zm15.17,2.48c3.32.23,6.4,2.92,7.71,4.23a1.46,1.46,0,0,0,.16.36l6.56,11A13.74,13.74,0,0,1,215,18.76l0-.05L207.15,7.55A5.7,5.7,0,0,1,210.29,6.87Zm14.85,3.84c3.34.52,6.23,3.57,7.39,5,0,.09.06.18.1.27l5.54,11.57A13.57,13.57,0,0,1,228.82,23s0,0,0-.05L222,11.15A5.53,5.53,0,0,1,225.14,10.71Zm14.51,5.11c3.24.82,5.81,4.07,6.86,5.58a1.9,1.9,0,0,0,.09.36l4.45,12a13.74,13.74,0,0,1-9-5.54L236.44,16A5.75,5.75,0,0,1,239.65,15.82Zm13.95,6.45c3.14,1.1,5.41,4.52,6.35,6.14a1.55,1.55,0,0,0,0,.37L263.4,41.1A13.65,13.65,0,0,1,255,35s0-.06,0-.07L250.41,22.1A5.69,5.69,0,0,1,253.6,22.27ZM267,29.91c3,1.38,5,5,5.74,6.69a1.42,1.42,0,0,0,0,.35L275,49.56a13.63,13.63,0,0,1-7.87-7.09l-3.35-13A5.68,5.68,0,0,1,267,29.91Zm12.61,8.8c2.88,1.64,4.48,5.37,5.1,7.12a1.28,1.28,0,0,0,0,.39L285.81,59a13.74,13.74,0,0,1-7.22-7.76L276.41,38A5.58,5.58,0,0,1,279.56,38.71Zm11.71,9.86c2.77,1.91,4,5.88,4.49,7.66a1.33,1.33,0,0,0-.05.34V69.38A13.58,13.58,0,0,1,289.24,61l-1-13.49A5.59,5.59,0,0,1,291.27,48.57Zm7.89,9.71a5.61,5.61,0,0,1,3,1.22c2.55,2.11,3.49,6.08,3.79,7.92a1.54,1.54,0,0,0-.09.37l-1.16,12.78A13.91,13.91,0,0,1,299,71.69Zm10,11.48A5.72,5.72,0,0,1,312,71.29c2.36,2.38,2.92,6.47,3.06,8.32a1.15,1.15,0,0,0-.1.33l-2.32,12.58a13.6,13.6,0,0,1-4.9-9.09C307.71,83.38,309.14,69.76,309.14,69.76ZM318,82.18A5.62,5.62,0,0,1,320.67,84c2,2.39,2.29,6.19,2.29,8.21,0,.14,0,.27,0,.39a2.33,2.33,0,0,0-.11.28l-3.45,12.36a13.63,13.63,0,0,1-4.05-9.55C315.36,95.59,318,82.18,318,82.18Zm7.71,13.16a5.6,5.6,0,0,1,2.49,2,11.63,11.63,0,0,1,1.62,6.47,22,22,0,0,1-.13,2.34,2.4,2.4,0,0,0-.11.23l-4.53,12a13.51,13.51,0,0,1-3.22-8.93c0-.42,0-.72,0-.94a.54.54,0,0,1,.05-.11Zm6.48,13.78a5.7,5.7,0,0,1,2.34,2.25c1.62,2.87,1.08,6.92.72,8.78a2.23,2.23,0,0,0-.2.3l-5.53,11.6a13,13,0,0,1-2.48-7.82,13.36,13.36,0,0,1,.21-2.45Zm5.27,14.32a5.66,5.66,0,0,1,2.1,2.44c1.37,3,.51,6.93,0,8.77a1.49,1.49,0,0,0-.27.33l-6.56,11a12.63,12.63,0,0,1-1.81-6.55,13.59,13.59,0,0,1,.54-3.91Zm4,14.75a5.62,5.62,0,0,1,1.86,2.59c1.11,3.16-.18,7.1-.86,8.81a2.16,2.16,0,0,0-.25.27l-7.54,10.41a12.26,12.26,0,0,1-1.26-5.5,14.8,14.8,0,0,1,.87-5l7.18-11.6ZM345.67,156c.82,3.25-.82,7.06-1.65,8.69l-.24.22-8.42,9.63a12,12,0,0,1-.84-4.4,14.41,14.41,0,0,1,1.4-6.13L344,153.21A5.74,5.74,0,0,1,345.67,156Zm3.87,30.46a8.87,8.87,0,0,0-2.27-5.38c1.27-2.15,3.25-6.27,2.6-10.31a8.8,8.8,0,0,0-2.72-5.11c1.06-2.24,2.65-6.49,1.66-10.44a9,9,0,0,0-3.19-4.91c.87-2.32,2.09-6.73.74-10.59a9,9,0,0,0-3.59-4.59c.64-2.39,1.43-6.87-.25-10.59a9.12,9.12,0,0,0-4-4.27c.43-2.44.83-7-1.17-10.49A8.85,8.85,0,0,0,333,105.9c.22-2.47.22-7-2.1-10.4a8.83,8.83,0,0,0-4.67-3.44c0-2.49-.43-7-3.05-10.17a8.83,8.83,0,0,0-5-3c-.23-2.47-1.05-7-3.94-9.84A8.91,8.91,0,0,0,309,66.44c-.46-2.44-1.69-6.81-4.82-9.42a8.86,8.86,0,0,0-5.45-2.09c-.67-2.4-2.26-6.68-5.61-9a8.9,8.9,0,0,0-5.6-1.6c-.87-2.32-2.84-6.39-6.37-8.41a9,9,0,0,0-5.76-1.11c-1.07-2.21-3.4-6.13-7.11-7.83a9,9,0,0,0-5.8-.58c-1.28-2.12-4-5.81-7.82-7.17a8.93,8.93,0,0,0-5.8-.06c-1.46-2-4.47-5.46-8.43-6.47a8.9,8.9,0,0,0-5.82.48c-1.65-1.86-4.94-5-9-5.66a8.92,8.92,0,0,0-5.72,1c-1.79-1.7-5.34-4.55-9.41-4.84a8.93,8.93,0,0,0-5.67,1.47c-2-1.55-5.74-4-9.79-4a8.92,8.92,0,0,0-5.49,2c-2.07-1.36-6.09-3.54-10.15-3.09a8.94,8.94,0,0,0-5.28,2.47c-2.2-1.18-6.36-3-10.35-2.17a8.84,8.84,0,0,0-5.07,2.94c-2.29-1-6.6-2.4-10.49-1.25a8.93,8.93,0,0,0-4.76,3.36c-2.37-.76-6.79-1.76-10.57-.26a8.92,8.92,0,0,0-4.44,3.78c-2.41-.55-7-1.19-10.61.65a8.92,8.92,0,0,0-4.08,4.19c-2.44-.33-7-.55-10.45,1.6a9,9,0,0,0-3.72,4.52c-2.49-.11-7,.1-10.28,2.54a8.94,8.94,0,0,0-3.28,4.83c-2.5.11-7,.72-10,3.44a9,9,0,0,0-2.84,5.08c-2.44.34-6.85,1.35-9.62,4.33a9,9,0,0,0-2.4,5.4c-4.93,1.26-11.77,4.77-11.73,11.55-4.78,1.64-11.57,5.8-10.93,12.59-2.25,1-6.31,3.2-8.15,6.9a8.86,8.86,0,0,0-.77,5.82c-2.15,1.18-6,3.73-7.49,7.56a9,9,0,0,0-.26,5.87c-2.05,1.39-5.65,4.29-6.8,8.26a8.88,8.88,0,0,0,.27,5.82c-1.92,1.57-5.21,4.77-6,8.79a9,9,0,0,0,.78,5.78c-1.78,1.75-4.75,5.22-5.16,9.29a8.85,8.85,0,0,0,1.33,5.66C4.67,141.3,2,145,2,149.1a8.94,8.94,0,0,0,1.79,5.54c-1.43,2-3.75,6-3.44,10A8.87,8.87,0,0,0,2.65,170C1.4,172.18-.53,176.29.13,180.3a8.94,8.94,0,0,0,2.77,5.16c-1,2.23-2.6,6.51-1.58,10.47a9.05,9.05,0,0,0,3.2,4.87c-.84,2.33-2,6.74-.63,10.57A8.88,8.88,0,0,0,7.54,216c-.62,2.42-1.38,6.89.32,10.6a9,9,0,0,0,4,4.23c-.4,2.45-.75,7,1.28,10.5a9,9,0,0,0,4.4,3.82c-.2,2.47-.16,7,2.18,10.37a9.07,9.07,0,0,0,4.7,3.46c.05,2.49.5,7,3.13,10.1a8.85,8.85,0,0,0,5,3c.26,2.48,1.12,7,4,9.83a8.81,8.81,0,0,0,5.25,2.54c.47,2.44,1.72,6.8,4.86,9.39a8.87,8.87,0,0,0,5.46,2.06c.68,2.38,2.31,6.62,5.66,8.93a9,9,0,0,0,5.63,1.57c.9,2.32,2.93,6.41,6.51,8.4a9,9,0,0,0,5.74,1.05c1.11,2.24,3.48,6.14,7.2,7.79a8.84,8.84,0,0,0,5.76.52c1.3,2.13,4,5.81,7.91,7.13a8.74,8.74,0,0,0,5.8,0c1.49,2,4.52,5.38,8.47,6.35a9,9,0,0,0,5.81-.5c1.65,1.87,5,5,9,5.61a8.92,8.92,0,0,0,5.78-1c1.81,1.7,5.36,4.48,9.4,4.75a9,9,0,0,0,5.64-1.52c1.94,1.52,5.78,4,9.88,3.92a9,9,0,0,0,5.44-2c2.08,1.34,6.08,3.44,10.12,3a9,9,0,0,0,5.29-2.51c2.2,1.16,6.4,2.93,10.39,2.09a9,9,0,0,0,5-3c2.27,1,6.64,2.35,10.57,1.15a9,9,0,0,0,4.73-3.4c2.38.75,6.82,1.73,10.59.19a8.91,8.91,0,0,0,4.38-3.82c2.41.53,6.92,1.12,10.57-.74a9,9,0,0,0,4.09-4.21c2.47.32,7,.5,10.42-1.67a8.81,8.81,0,0,0,3.66-4.53c2.47.09,7-.14,10.27-2.63a8.83,8.83,0,0,0,3.22-4.84c2.48-.13,7-.78,10-3.55a9,9,0,0,0,2.78-5.09c2.45-.36,6.91-1.41,9.65-4.43a8.85,8.85,0,0,0,2.31-5.33c2.43-.59,6.77-2,9.23-5.29a8.92,8.92,0,0,0,1.81-5.5c2.36-.79,6.56-2.6,8.72-6.07a8.91,8.91,0,0,0,1.32-5.66c2.28-1,6.28-3.19,8.12-6.83a8.8,8.8,0,0,0,.8-5.76c2.18-1.18,6-3.7,7.49-7.49a8.94,8.94,0,0,0,.29-5.8c2-1.37,5.61-4.23,6.79-8.15a9,9,0,0,0-.23-5.85c1.92-1.56,5.21-4.71,6-8.71a8.91,8.91,0,0,0-.74-5.76c1.78-1.73,4.79-5.19,5.22-9.26a8.91,8.91,0,0,0-1.28-5.69c1.62-1.87,4.28-5.55,4.37-9.61a8.93,8.93,0,0,0-1.75-5.56c1.47-2,3.82-5.93,3.54-10Z"/><path id="path387" class="cls-2" d="M21.46,174.92A153.53,153.53,0,1,1,175,328.43,153.52,153.52,0,0,1,21.46,174.92m308.62,0A155.07,155.07,0,1,0,175,330,155.07,155.07,0,0,0,330.08,174.93Z"/><path id="path389" class="cls-2" d="M174.14,57.15A118.66,118.66,0,1,1,55.48,175.81,118.67,118.67,0,0,1,174.14,57.15m0,239.71a121.05,121.05,0,1,0-121-121A121,121,0,0,0,174.16,296.86Z"/><path id="path391" class="cls-2" d="M174.14,62.91a112.9,112.9,0,1,1-112.9,112.9,112.91,112.91,0,0,1,112.9-112.9m0,228.07A115.17,115.17,0,1,0,59,175.81,115.18,115.18,0,0,0,174.16,291Z"/><path id="path413" class="cls-2" d="M263.67,207c-5.08,1.59-10.26,2.12-15.35,3.34-.62-.26-1.49.26-1.93-.17.87-1.68,2.81-2.11,4-3.43h13.25V207m.61,2.2c-4.56,1.66-9.91,2.72-14.47,4.56-3.24,1.93-6.05,5.08-6.67,8.86-1.49.52-3.24.26-5.08.18l-1.14-1.41,2.37-8.77.44-.26c2.19-.17,4,.35,5.79-.53,7.19-.69,14.48-2.71,21.49-4.2C266.48,208.54,265.25,208.79,264.28,209.15Zm-17.37,8.94c.26-.08.52.19.52.45.27,1.14-1.23,1.84-1.92,2.45C245.33,220.29,246.13,218.8,246.91,218.09Zm1.5,3.16-3,2.72-.27-.62,3.25-3.06C248.93,220.38,248.67,221,248.41,221.25Zm-5.53,3.87a37.63,37.63,0,0,1-3.77-.09c-.26-.26-.4-.92,0-.92l4,.14C243,224.19,243,224.55,242.88,225.12Zm-9.47,3c-.09.7-.4.79-.8,1.93,1.76-7.81,4.13-15.44,6.06-23.16.61-1.31,2.54-10.52,3.94-13.25l.36.36c-1.05,4.3-2.28,9.12-3.6,13.15C237,214.23,235.77,221.17,233.41,228.1ZM237,233c-3,1.4-8.16,1.1-10.44,0C228.4,231.16,234.63,231.61,237,233Zm-1.93,2.89-1.93.1c-.26,0-.26-.45-.17-.71,1.14-.17,2.45-.44,3.68-.52C236.65,235.47,235.69,235.64,235.07,235.9ZM226,234.67a4.34,4.34,0,0,1,3.33.72A3.54,3.54,0,0,1,226,234.67Zm.34-11.75c-.17-.87,1.06-1.13,1.23-1.93a3.91,3.91,0,0,0,.27-3.68c-1.14-2.55-3.95-3.51-5.71-5.18,4.66-.44,9.22.09,13.61,0l.26.27-2.37,8.5C231.73,223.09,228.93,223.09,226.29,222.92Zm3.6,2.37s-3.46.13-3.46-.13l-.31-.91,3.86-.1A.63.63,0,0,1,229.89,225.29Zm-9.73-15.17,1-.36,15,.27c.53.17.27.87-.17.87-5.35-.26-10.44,0-15.62-.26A1,1,0,0,1,220.16,210.12Zm6.05-5.62h11.41a31.83,31.83,0,0,0-.27,4l-15.88-.09C221.83,208.05,224.1,204.85,226.21,204.5ZM243,211l-3-.08c-.27-.09-.18-.44-.09-.62a5.64,5.64,0,0,1,3.6-.17C244,210.47,243.41,211.08,243,211Zm-.88-6.45h6l.17.31c-1.93,1.31-2.9,4.74-5.88,3.86a2.13,2.13,0,0,1-1.92-.35l.87-3.51Zm9.83.75c-1.59,0-.88-2.37-2.37-2.19h-7.64c1-2.9,1.49-6.41,2.63-9.3a1.89,1.89,0,0,0-.34-1.93,2.53,2.53,0,0,0-2.72.18c-.71,2.45-1.32,5.08-1.93,7.63-.53,1.14-.27,2.85-1.49,3.55H224.81l-5.7,5.31a3,3,0,0,0-.44,2.46c1.93,3.24,7,3.51,8.07,7.71,0,1.33-1.06,2.46-1.93,3.43-.35,1.31-1,3.07.18,4.29,1.83.44,3.68.1,5.61.1.44,0,1-.53,1.4-.27-.35,1.58-.44,3.33-1.67,4.38a30,30,0,0,0-7,2.2s-2,2.49,1.32,3.51c4.74,1.05,10.74,1.79,14.74-1a3.28,3.28,0,0,0,.18-3c-1.32-1.13-3.17-1-4.75-1.31l-.52-.53,1.14-4.55.52-1.06c1.06,0,1.59,1.24,2.37,1.67a44.35,44.35,0,0,0,5.88,0,33.93,33.93,0,0,0,5.88-5.27c1.23-2.1-2.9-4.2.26-5.79,2.81-1.14,5.7-2.1,8.51-3.15a32.57,32.57,0,0,0,6.41-2.2c1.39-.79,3.68-1.4,3.94-3.42,0-.44-.61-.61-.87-.88C262.71,205,257.44,205.38,251.92,205.29Z"/><path id="path467" class="cls-2" d="M177.52,106a7.63,7.63,0,0,1,6.41,5c-.45,2.45-1.58,4.82-2.29,7.28A4.15,4.15,0,0,0,181,121a.45.45,0,0,0,.78-.09c1-3,2.2-5.88,3.34-8.86l1-.61a22.58,22.58,0,0,1,9.92-1.14c5.61,1,10.44,3.86,15.88,5,3.85,1.14,8,2.2,12.11,1.76l.25.35c-3.94,13.85-8.15,27.72-12.36,41.67.18.43-.36.88-.44,1.31a92.63,92.63,0,0,1-3.34,10.53c-.79.71-1.84.53-2.81.71a72.14,72.14,0,0,1-15.26-3.34c-.61.09-1.23-.62-1.93-.8a66,66,0,0,0-8.16-2.1c-3.33-1-6.75-.44-10,.44L167.52,167l-.26-.35,2.1-6.4c1.32-5.7,3.34-10.88,4.74-16.58,0-.18,0-.44-.26-.53a1.7,1.7,0,0,0-1,1.32c-2.28,7.19-4.65,14.21-6.84,21.41-.44.44-1,.08-1.31-.18-3.08-1.84-6.06-4-9.92-3.33-5.26,1-10.79,1.31-15.7,3.24-3.69,1-7.37,2.2-11,2.54-.61-.17-1.32.18-1.93-.08.09-1.84,1.23-3.24,1.58-5,4.29-11.06,7.63-22.63,11.67-33.78,1.22-5.17,2.72-10.18,3.94-15.35.45-.62.45-1.67,1.41-1.67,4.47.44,9.21-1,13.42-2.45,5.61-1.23,10.61-4.38,16.67-3.95l.26.17a3.62,3.62,0,0,1,2.37-.09m47.9,14.12c.61,1.06-.61,2.11-.7,3.25-.79,5.26-2.72,10-3.95,15.17,0,.18.18.35.27.44.61-.17.7-.87.87-1.31,1.58-4.91,2.28-9.92,4.21-14.65.62.88,0,2.28-.26,3.33-1.84,6.14-3.5,12.55-5.18,18.78.09.18.09.52.27.52a1.08,1.08,0,0,0,.7-.7,31.92,31.92,0,0,1-2,6.93c.19,1.41-.69,2.46-.87,3.68-1.49,4.48-2.28,9-4,13.34a39.11,39.11,0,0,1-1.4,4.65l-.09-.26c.35-1.66,1.31-3.33,1.14-5.09-1.14-.17-1,1.5-1.49,2.2a4.16,4.16,0,0,1-1,2.28l-.18-.44,1.67-6.85c-.08-.18-.08-.44-.35-.52l-.35.26c-1,2.11-1,4.13-2.19,6.23-.44-.09-.09-.7,0-1C215.42,153.44,220,136.68,225.42,120.1Zm.26,10.44c0-.35,0-.87.35-1Zm-1.05,4.13-.26.61C224.28,135.28,224.36,134.76,224.63,134.67Zm-1.78,6-.15.75C222.56,141.12,222.78,140.89,222.85,140.67Zm5.47-15,1.05-1c.7.44.26,1.5.18,2.11-.88,3.77-2,7.45-2.81,11.32-1.5,4.47-2.29,9.13-4,13.6-1.93,8.5-4.29,16.93-6.66,25.26-.53.79-1.93.35-2.72.35A24.65,24.65,0,0,0,210,177c-4-.44-7.46-.35-11.4-1.32-.88.27-1.76-.25-2.64-.25-7.8-1.14-15.43-1.06-23.16-2.29,5.53-.26,10.35.79,15.8,1.23a41.2,41.2,0,0,1,7.54.71c4.74.61,10.18.87,15,1.84,1.23,0,2.55.08,3.51-.62,2.46-6.92,3.77-14.56,5.7-21.48C223.13,145.1,225.86,135.28,228.32,125.63ZM177,169.85c-1.84-.61-4.12.26-5.87.26.87-.87,2.81-.52,3.76-1.32-.52-1-1.92-.17-2.71-.17l-2.19.53a14,14,0,0,1,3.76-1.41c.09-.09.26-.34.09-.52a2.66,2.66,0,0,0-2,.18c-1.15.34-2.2,1.13-3.34,1,2.19-1.59,4.91-1.41,7.55-1.85a66.48,66.48,0,0,1,8.5,1.58c1.4,1,2.64.71,4.13,1.58a1,1,0,0,0,1,1c1,.79,1.31-.88,2.19-.18-.09.09-.35.35-.18.61a20.31,20.31,0,0,0,4.74,1.5c.45-.18,0-.44-.09-.62l-.61-.26c1.15-.26,2.46.61,3.86.7l2.55.35c-.18.09-.44.35-.26.61,1.93.71,4.12.61,6.14.88l.17-.17c-.71-.79-1.84-.62-2.89-.88,1.05.09,3-.27,4.46-.17.71.69,1.76,1.05,2.29,1.92l-.08.18A82.42,82.42,0,0,1,199.73,174c-8.34-.61-15.89-2-24.49-2.29-1.14-.07-2.19.27-3.15-.34,0-.44.53-.44.79-.53l3.94-.26a.68.68,0,0,0,.17-.7Zm-8.07,3.68.09-.79h.17A.86.86,0,0,1,168.92,173.53Zm-1.67.88H167a6.18,6.18,0,0,1,.61-2.28C168.13,172.83,167.43,173.79,167.25,174.41Zm-1.48-.52a4.35,4.35,0,0,1,.34-1.67A3.54,3.54,0,0,1,165.77,173.89Zm-.89-5.45c-1.75-1.31-3.33-2.89-5.52-3.33-.18-.09-.26.17-.35.26.52.88,1.58,1.23,2.45,1.76a4.87,4.87,0,0,1,2.37,1.84c-.79.18-1.23-.7-1.92-.79s-1.23-1-1.93-.53l.08.53a20.31,20.31,0,0,1,3.07,1.76,2.38,2.38,0,0,1-2.72,1c-11-2.28-21.93.79-32.89,1-2.11.09-4,.44-6,.44l-.17-.17,3.51-2.11c6.31-.35,11.84-2.1,17.72-3.86l6.14-1.4c.52-.18,1.13.34,1.57.7a23.28,23.28,0,0,1,4.22-.18.66.66,0,0,0,.17-.52l-.7-.44a8.61,8.61,0,0,1,7.81,1.49c1.05.79,2.72,1,3.24,2.46Zm-.61,5.27a1.15,1.15,0,0,1,.18-1.05l.26-.18C164.62,172.83,164.71,173.44,164.27,173.71Zm-3.68-.44c-14.83.35-29.05,1-43.69,1.23-.44-.09-.53-.71-.44-1,5.61-15.26,10.61-30.52,16-45.7l2.36-7.46c.35-.26.62-.61,1.05-.44.18,2-1.13,3.6-1.48,5.53-5.18,15.61-10.71,30.62-15.71,46.23-.17.7.52,1.41,1.14,1.75,3.69.09,7.45-.34,11.14-.34,6.4-.62,12.55-1.49,18.6-1.58a64,64,0,0,1,11.58,1C161.73,172.83,160.85,173.36,160.59,173.27Zm-23-53.43a5,5,0,0,1,1.76-1.58c-.09,2-1.58,3.86-1.49,6h.43c1.5-2.37,1.32-5.27,2.73-7.72-1.23,6-2.9,11.84-4.66,17.64-1.05,3.94-2.81,7.63-4,11.4a230.74,230.74,0,0,1-8.25,23l-1.4,1.15-.18-.18,2.2-6.84c-.09-.18-.09-.45-.36-.45-1,1-1,2.64-1.49,4a14.7,14.7,0,0,0-1.31,4.21,1.07,1.07,0,0,1-1,.52l-.09-.52c3.07-8.08,5.79-16,8.68-24-.7,3.69-2.45,7.19-3.24,11.06l.17.18a6.21,6.21,0,0,0,1.41-3.08c1.31-4.73,3.16-9.39,4.39-14l1.84-5.09c.17-.35-.17-.61-.35-.88C134.36,129.4,136.55,124.75,137.6,119.84Zm31.58-15c-7.72,2-15,5.45-23,6.15-1,.18-2.29-.62-3,.44-1.85,2.11-3.43,4.74-5.62,6.58a2.9,2.9,0,0,1-2.81.44c-1.4.79-1,2.63-1.75,4-6.32,17.1-11.67,34.12-17.9,51.23l-.08,1.4a2.14,2.14,0,0,0,1.66,1.14c12.28-.35,25.36-.44,37.47-1.14,2.54,0,5.08-.79,7.45-.26,3.07,1.66,6.93,2.37,9.91.35a6.54,6.54,0,0,1,3.43.26c13.77,1.14,27.72,2.63,41.41,3.95.87-.09,1.3-1,1.48-1.76,2.72-9.91,5-19.38,7.64-29.39,1.92-7.71,4.21-15.61,6-23.51-.62-1.75-2.37-1.13-3.6-1.75-1.14-1.93-1.06-4.65-1.76-6.85a2.36,2.36,0,0,0-2.1-.43c-4,.35-8.25-.8-12.11-1.85-7.11-2-14.21-6.84-22.11-5.17-1.49.35-3.07,1.4-4.47,1.22-1.05-1.4-2.1-2.45-3.24-3.77C178.31,103.69,173.31,104,169.18,104.83Z"/><path id="path429" class="cls-2" d="M248.06,213.37c.43-.1.35-.89-.1-1.15-.43-.09-.52.26-.52.61s.26.7.62.54"/><path id="path435" class="cls-2" d="M246.75,214.59c.25,0,.51-.36.51-.62a2.23,2.23,0,0,0-1.49-1.31c-.34.09-.34.44-.34.71.17.51.52,1.22,1.32,1.22"/><path id="path465" class="cls-2" d="M231.21,213.8a1.22,1.22,0,0,0,.45,1.14c.7.35.7-.62.52-.88a.64.64,0,0,0-1-.26"/><path id="path469" class="cls-2" d="M229.19,213.62c-.26.09-.26.36-.26.61.7.62.88,1.76,1.58,2.2.44-.09.35-.61.35-1a2.53,2.53,0,0,0-1.67-1.84"/><path id="path473" class="cls-2" d="M227.52,213.62c-.25,0-.7-.17-.87.18a.82.82,0,0,0,0,.79c1.4.62,1.32,2.28,2.46,3,1.14-1.31-.54-3-1.59-3.95"/><path id="path475" class="cls-2" d="M152.6,249.15a59.63,59.63,0,0,1-8.33-1.4c.17-1.05.87-2.18,1-3.15.7-3.51-1.4-6.5-3.42-9.21l.18-.54c2.71.18,5.08,1.68,7.28,3.34a17.87,17.87,0,0,1,5.44,10.18c.26,1.31-1.49.69-2.2.78m.79,6.5c-2-.18-4.38.35-6.66,0,.44-.44,1.23-.35,1.75-.62,1.84-.87,3.51-2.45,5.61-2.1C154.89,253.71,154.19,255.21,153.39,255.65Zm-1.13,2.72-.45-.09c-.17-.44,0-1.13.61-1.13C153.31,257.23,152.78,258.37,152.26,258.37Zm-2.64-.8c-.09-.43.26-.43.53-.61.79,0,.7,1.23.17,1.41A.72.72,0,0,1,149.62,257.57Zm-2.37,0a.77.77,0,0,1,.71-.52.75.75,0,0,1-.09,1.32C147.43,258.45,147.25,257.92,147.25,257.57Zm1.1,5.71c-2.72,1.84-6.27,3.33-9.43,2.81l2.71-6.57h9.57C151.47,260.21,148.7,262.67,148.35,263.28Zm-10-.09c-.26-1.05.53-2.19,1.14-3.07l.52.17C139.62,261.26,139.53,262.75,138.39,263.19Zm-.35-5.43c-.08-.19.18-.28.18-.36.26.08.44.62.08.7C138.13,258.1,138,257.92,138,257.76Zm-.61,3c-.27,0-.27-.36-.18-.62s.61-.17.61.09S137.69,260.74,137.43,260.74Zm-.61,2.54c.43.44.26,1.14.34,1.76Zm-2.73-8.6a.69.69,0,0,1,1.14.35c-.79,2.45.53,4.66,1.05,6.93C134.79,259.85,133.21,257.23,134.09,254.68Zm.18,10.79c-.35.09-.35-.35-.27-.52.53-.36.71-1.32,1.32-1.06C135.15,264.51,135,265.29,134.27,265.47Zm-2.28-.88c.17-1,1.31-1.84,1.92-2.72.35.27-.17,1.07-.44,1.49C133,263.81,132.77,264.86,132,264.59Zm.88-4c-.18.79-.88,1.23-1.32,1.93C131.9,261.79,132,260.38,132.87,260.56ZM128,262l-.52-.1c-2.72-3.07-4.75-6.66-4.75-10.7,0-1.31,4.48-3.59,10.44-2a8,8,0,0,0,.27,3.25C133,254.59,130.45,259.85,128,262Zm5.61-14.83c-1.05.52-2.28-.27-3.41-.09a11.47,11.47,0,0,0-1.76.09c1.31-.88,3.6-1.67,5.17-.53C133.56,246.78,133.83,247.05,133.56,247.14ZM127.43,239a17,17,0,0,1,10.17-4.65c1.32.18,4.13,7,3.16,10l-.44.44c-1.67-.27-3.6-.18-4.82.87-1.4-.52-3.07-1.4-4.65-1-2.29.61-7.55,2.28-7.55,2.28C123.57,243.89,125.32,241.26,127.43,239Zm13.44,11.4a2.48,2.48,0,1,1-2.48-2.48A2.48,2.48,0,0,1,140.87,250.38Zm-1.34-4.12c-1.48.18-3.07.35-4.12,1.58a3.53,3.53,0,0,1,2.54-1.75h1.67Zm1.32,11.5c-.09.16-.09.52-.26.52-.44-.19-.54-.52-.27-1C140.67,257.05,140.76,257.57,140.85,257.76Zm-1.59-3.17c-.32-.05-.66-.07-1-.1h0l0,0a3.75,3.75,0,0,1-2.6-.94,3.92,3.92,0,0,1-1.23-2.37,2.38,2.38,0,0,1,.35-1.67,5,5,0,0,0,1.32,3.6,9.4,9.4,0,0,0,2.16,1.39h.07c1.56-.34,2.87-.44,3.82-2a3.82,3.82,0,0,0,.44-3.5,7.2,7.2,0,0,0-2-2.28c.71-.26,1.14.7,1.67,1a4.46,4.46,0,0,1-.09,5.43A3.86,3.86,0,0,1,139.26,254.59Zm3.26,3.6c-.18-.17-.09-.44-.09-.71a.71.71,0,0,1,.44-.18C143.13,257.57,143.22,258.54,142.52,258.19Zm-1-2.72c.53-.61,1.49-.08,2.19.09A3,3,0,0,1,141.55,255.47Zm3.77,2.37a.36.36,0,0,1-.44.36c-.18.08-.26-.1-.35-.18l.09-.45C144.79,257.4,145.41,257.4,145.32,257.84Zm-.26-6.85,1.93.27c-.61.7-1.5.25-2.29.09C144.62,251.09,144.88,251.09,145.06,251Zm1.49,1.94a14.88,14.88,0,0,0,4.39-1.84c1.14-.18,2.37-.54,3.33.26v.26c-3.77-.88-6.05,3.16-9.65,2.55-.44,0-1.14,0-1.14-.62C144,252.14,145.58,253.37,146.55,252.93Zm-6.27-17.77c.79,1.67,2.06,3.12,2.85,4.87a7,7,0,0,1,.18,6.05l-.45.18c-1.75-.54-.17-2.28-.44-3.33.44-2.56-1.27-4.88-2.14-7.16v-.61ZM151,238a17.15,17.15,0,1,0,5,12.14A17.06,17.06,0,0,0,151,238Z"/><path id="path477" class="cls-2" d="M218.05,266.21H151.47c.34-.87,1.31-1.44,2-2a2.23,2.23,0,0,0,1.93-1.76,4.17,4.17,0,0,1,1.4-3h56.76c3.42-.62,2.89,3.16,4.83,4.74l1.93,1.75c-.35.88-1.58,0-2.28.3m4.83,3.17h-70c.26-.62-.18-1.45.44-1.81.61,0,.7,1.15,1.49.71.35-.62,1-.35,1.58-.35l1.49-.13h65.36A.93.93,0,0,1,222.88,269.38Zm-71.41.13c-.35,0-.79-.26-.7-.62,0-.53-.09-1.14.43-1.32.88,0,.35,1.15.88,1.5C152.16,269.51,151.64,269.51,151.47,269.51Zm-2.38-.17a.94.94,0,0,1-.44-1.32c.09-.36.53-.18.8-.18C149.71,268.19,149.8,269.25,149.09,269.34Zm-23.63-5.8a18.92,18.92,0,1,1,13.37,5.54,18.81,18.81,0,0,1-13.37-5.54Zm4,5.8a.58.58,0,0,1-.61-.45c.09-.26-.09-.53.26-.7a.82.82,0,0,1,.79.44A.62.62,0,0,1,129.44,269.34Zm-2.36-.19c-.36-.08-.45-.6-.45-.87s.27-.53.53-.44C127.86,267.84,127.78,269.25,127.08,269.15Zm-1.76-.26-.44-.09.09-.61c.09-.17.35,0,.43.18ZM158,257.15c.44.16.26,1-.09.87h-.26C157.43,257.76,157.69,257.31,158,257.15Zm2.23-4a15.78,15.78,0,0,1,6.8.91c.53.26.53,1.4-.27,1.32.18.08-8.11-.18-8.24-.09C158.3,254.59,158.44,253.37,160.19,253.15Zm9,.48s7.51-.44,12.81-.18a6,6,0,0,0-.26,1.58s-12.81-.13-12.63,0A1.56,1.56,0,0,1,169.18,253.63Zm5.36-7.46c.17-.45.7-.14,1,.05a9.06,9.06,0,0,0,2,5.21,33.37,33.37,0,0,0-5,0A8.84,8.84,0,0,0,174.54,246.17Zm38.07,10.09.26,1.58H160.59c-.27.08-1.06-.88-.62-.79s1.67-.44,2.37-.26c.79.87,1.84.44,2.72.17,5.08-.7,11.85-.26,17-.52C192.79,255.91,202.35,256.08,212.61,256.26Zm-29.13-2.1c1.24-1,7.2-.35,11-.53.45,0,.53.53.36.87-.88.88-8.51.62-11.23.44C183.48,254.68,183.22,254.42,183.48,254.16ZM193.4,252c.69.7-9.52,1.24-9.82,0C183.75,251.35,192.74,251.39,193.4,252Zm3.42-3.51c.26-.08.36.27.45.53,0,1.67,0,3.34-.09,5.09l-.18.17A13,13,0,0,1,196.82,248.53Zm2,.27h10.44c.87.26.43,1.23.79,1.93-.18,1.14.26,2.55-.36,3.6-.7-.35-.17-1-.43-1.67-.27-.17-.45-.44-.79-.35-.62.53-.44,1.32-.62,1.93-.61-.44.09-2.2-1.31-2-.61.53,0,1.67-.53,2.1-.53-.61,0-2.54-1.49-2.18-.61.7.26,1.66-.44,2.18-.61-.61-.09-2.45-1.4-2-.71.53,0,1.4-.36,2.1-.87.18-.35-1.23-.78-1.57a.44.44,0,0,0-.7-.27l-.45.79c-.35-.44-.26-1.85-1.22-1.23l-.27.09A6.48,6.48,0,0,1,198.84,248.8Zm12.81-.35.52.08c.26,1.85.18,4,.26,6l-.35.18c-.26.18-.44-.26-.52-.36A42.86,42.86,0,0,1,211.65,248.45Zm-88.43,20.62c-.53,0-.36-.61-.18-.79a.32.32,0,0,1,.53.18C123.65,268.73,123.48,269.07,123.22,269.07ZM169.54,241a.93.93,0,0,1-.93-.94.93.93,0,0,1,1.86,0A.94.94,0,0,1,169.54,241Zm9.87-1.86a.93.93,0,0,1,.93.92.94.94,0,1,1-.93-.92ZM217.35,260c-.61-.88,0-3.07-1.67-2.72-1.22-.16-.52-2-1.4-2.71.09-1.76-.44-3.43-.26-5.44.08-.88.18-2-.7-2.46a3.8,3.8,0,0,0-3.24.26H199a4,4,0,0,0-2.89-.44c-1.58.62-.62,2.55-1.23,3.68a2.65,2.65,0,0,1-1.67,0c-4.56,0-9.39-.08-14.12.09-1.89-.87-2-2.54-2.33-4.21-.08-.26.53-.92.53-1.58s-.22-1.57-.75-1.66c-1.66-.62-1.05-2.64-1.22-4.21a.68.68,0,0,1,.78-.35c.88.26.88,1.31.88,2.19a2.89,2.89,0,0,0,1.66,2.1c.79.17,1.76.44,2.46-.18a2.3,2.3,0,0,0,1-2.36c-.26-.88-1.84-2-2.72-2.45-1.66.34-2.18-.09-3.5-1.14-.13,0-.32-1.63-1.41-1.63s-2.28,2.14-3.33,2.94c-1.23-.09-2.54-.44-3.51.61a3,3,0,0,0-.53,2.1,2.49,2.49,0,0,0,1.5,1.76c.7.26,1.84.52,2.46-.08a3.26,3.26,0,0,0,.87-2.9c.35-.44.78-1.14,1.4-1.06.44,1.41.66,3.56-.88,4.83-.7.18-.7.87-.61,1.58s.61,1.06,1.14,1.49a3.47,3.47,0,0,1-.44,2.29c-1,2.28-4.12,1.75-6,2.19,0,0-5.58.22-7.73-1.32a20.14,20.14,0,0,0-20.87-19c-7.46.45-14.65,4.83-17.63,11.85-2.82,6.66-2.11,14.83,2.54,20.44.35.78,1.67,1.32,1.84,2.37-.87.87-1.93,1.05-2.89,1.84V271H224.37l.09-4.92A9.58,9.58,0,0,1,217.35,260Z"/><path id="path597" class="cls-2" d="M104.62,199.58l3.94.09c3.51.45,6.76,2.2,10.18,3.07l-6.93,11.94a64.65,64.65,0,0,1-10.61-3.43c-2.54-1.13-5.7-2.54-6.14-5.79-.35-.7.35-2.1.35-2.1,2.45-2.8,6-3.17,9.21-3.78m-17.2-27.36c0-1.23.26-2.9-1-3.6-1.49-1.15-3.77-1.15-4.65-3,0-.34.61-.44.79-.26,3,1,5.88,3,7.28,5.88,5,8.77,10.44,17.63,15.18,26.58.17.45-.35.45-.53.52a1.83,1.83,0,0,1-2.28-1.13C97.5,188.71,92.42,180.55,87.42,172.22Zm10,3.95c0,.58-3.14-.12-3-.71S97.43,175.58,97.43,176.17Zm2.18,1.39.62.53,2.81,7.37,3.77,9c-.09.61-.61.7-1,.87l-.62-.53c-3.42-5.7-6.93-11.57-10.09-17.46A13.71,13.71,0,0,1,99.61,177.56Zm.8-1.39c-.53.34-1.14-.1-1.59-.1A2,2,0,0,1,100.41,176.17Zm-8.16-11.59a.41.41,0,0,1,.52-.44,33,33,0,0,1,5,2.28c3.33,2.46,3.15,6.24,5,9.56,2.37,5.88,4.48,11.84,6.84,17.73a.92.92,0,0,1-1.31.44c-1.23-2.1-1.67-4.3-2.81-6.41-1.32-3.24-2.63-6.41-4-9.56-.09-1.05,1.31-1.67.52-2.72a2.54,2.54,0,0,0-2-.87c-.78-1.67-2-3.16-1.31-5.27C97.43,166.42,93.82,167,92.25,164.58ZM114,195.38a36.89,36.89,0,0,1,8.68.61c.36.44-.26,1-.43,1.31-1.32,1-3.16.18-4.74.71-1.67.26-3.25.88-4.74,1.13-1.93-.43-3.77-.61-5.7-1-.35-.44-.71-.79-.71-1.32C108.65,195.38,111.37,195.9,114,195.38Zm5.45,6.05c-1.24-.53-2.73-.79-4-1.24.27-.69,4.57-1.48,5.62-.86A3.07,3.07,0,0,1,119.45,201.43Zm5-5.53c2.71-4.82,8.59-15,8.59-15l.35.5c.12,0-13.25,23.86-18.59,32.63l-2.82,4.3C116.19,210.82,120.24,203.45,124.45,195.9Zm3.85,1c2.55.26,4.83,1.4,7.37,1.84,9.91,2.1,19.39,2.64,29.39,2.9,1.4.44,2.45-.8,3.51-1.67l.35.26-.26,2c-.53.17-1.32,0-1.41.7-.17,1,1.41,1.14,1.06,2.11-.88-.08-1.15-1-1.93-1.23-5.71-.79-10.53-1.11-17.55-1.85s-18.94-3.33-23-3.94a.68.68,0,0,1,0-.88C126.38,196.34,127.6,196.69,128.3,196.87Zm3.6,16.32c.17.78-.79,1-1.23,1.31,0,0-9.21,3.78-12,2.71A4.61,4.61,0,0,0,116,216c-.44-.26-.52-.6-.26-1,2.1-3.42,3.94-6.84,5.87-10.35.27-.44.71-.18,1,0C125.93,207.13,129.44,209.59,131.9,213.19ZM134,215c1.64,1.14,11.2,5.79,9.56,5.88-7.63-.26-15.35-.18-23.07-.62a.61.61,0,0,1-.08-1C125,218.09,129.79,217.22,134,215ZM97.07,200.19a5.19,5.19,0,0,0-3.33,4.4c-.3,2.33.78,3.77,2.19,5.09,2.9,2.8,6.93,3.5,10.44,5,1.67.62,3.43.79,4.91,1.59-.44,2.19-2.19,3.77-3.15,5.78-.18.45-.44,1.05-1.06,1,0,0-7.18-3-7.89-3.25-1.46-.45,0,2.36.35,3.5,1.61-1.66,1,.62,2.37.91.77.18.76-1,1.34-.7s.85,2.07,1.64,2.25c1.06-.26-.2-2.1,1-1.52s.35,2.14,1.67,2.4c.87-.17,0-1.64.76-1.35s.9,2.31,2.13,2.84c.88-.18-.15-1.66.73-1.38s1.14,2.41,1.73,2.55.17-1.23,1-.79.46,1.84,1.49,2,.5-1.17,1.23-.88.88,2.1,2.19,2c1.59-1.24-.79-2.38-1-3.69-1.4-1.49-7.11-3-7.55-4l3.87-6.31c1.23-.79,2.8.08,3.85.87,1.59.88-.87,2.63.88,3.33,5.94.06,9.83.35,14.92.26,4.56,0,8.68.79,13.42-.17a1.06,1.06,0,0,0,.09-1.14c-5.09-3.86-11.32-5.71-15.88-10.61a43.41,43.41,0,0,0-8.6-7.11c0-1.31,1.14-2.37,1.67-3.59,1.13-.62,2.36-.1,3.5,0,4.82,1.05,9.48,2.45,14.48,3.07,6.14.87,12.63,1.84,18.69,2.28,1.49.44,3.15.08,4.82.26.88.08.61,1,.88,1.66s1.05,1.23,1.66,1.07a3.9,3.9,0,0,0,1.49-2.46c.45-.88,1.67-1.15,1.76-2.2s-.79-1.58-1.49-2.11c-.09-1.14.08-2.28-.7-3.24-1.67-1-2.11,1.93-3.6,2.1-3.77.09-6.93-.17-10.71-.17-4.73-.44-11.9-1.25-14.82-1.84s-13.31-3.1-13.13-3.45c1.84-3.51,7.25-11.73,8.3-13.75-.09-.11-2.74-1.14-2.71-1.14-2.58,3.71-8.05,13.33-9.22,14.74-2.45-.26-5.17-.7-7.63-.79-1.66-.17-3.25.71-4.74-.09-2.45-6.58-5.61-13-8-19.56-1.76-2.9-1.84-7-5.35-8.51-1.93-.88-3.77-2.19-5.88-2.45a2.06,2.06,0,0,0-1,1.84c.7,2.1,2.81,2.89,4.73,3.59.88.53,1.93,1.58,1.5,2.63.09,1.24,1.14,2.38.61,3.51-1.84-.18-3.33.18-4.91-.52-.71-1.4-2.72-2.89-1.4-4.22-.09-.79-1-.26-1.41-.52a15,15,0,0,0-3.85-3.16c-1.58-1.05-3.43-2.81-5.36-1.84-.44.44-1,.88-.79,1.58,1,3,4.48,2.71,6.32,4.82a6.19,6.19,0,0,0,.79,3.77c4.56,7.64,9.65,15.18,13.86,23,.17,2.45-2.72,1.66-4,2.79Z"/><path id="path497" class="cls-2" d="M214.46,260.56l-.09.87c.35.62.71,1.58,1.49,1.58.35-.08.26-.44.26-.78-.44-.62-.61-1.85-1.66-1.67"/><path id="path503" class="cls-2" d="M212,260.65a2.94,2.94,0,0,0,1.32,2.71.58.58,0,0,0,.34-.7c-.61-.69-.52-2.18-1.66-2"/><path id="path513" class="cls-2" d="M209.46,261.18c.17.61.43,1.4,1,1.57,1.05-.44-.08-1.39-.44-2-.36-.18-.53.17-.61.44"/><path id="path521" class="cls-2" d="M208,260.74c-.35.08-.35.52-.26.87s.26,1.05.79,1.05c.26.09.26-.26.44-.44a2.48,2.48,0,0,0-1-1.48"/><path id="path527" class="cls-2" d="M205.86,261a.83.83,0,0,0-.36.87c.18.44.36,1.32,1.06,1.14a1.12,1.12,0,0,0,.35-.87c-.17-.44-.35-1.23-1-1.14"/><path id="path531" class="cls-2" d="M204,261.26c-.53.09-.44.71-.35,1.05s.26.88.7.79.44-.52.53-.79c-.09-.44-.36-1.05-.88-1.05"/><path id="path635" class="cls-2" d="M157,262.05a1.11,1.11,0,0,0-.61,1.23.56.56,0,0,0,.7.44,1.28,1.28,0,0,0,.7-1.4c-.18-.27-.44-.27-.79-.27"/><path id="path493" class="cls-2" d="M213.67,133.18c-.09,1.49-1.49,3.07-.53,4.47,1.14.09,2.19,1.14,3.33.44.18-1.4-1.66-.88-2.28-1.75-.26-1.23,1.4-.71,1.67-1.5a.75.75,0,0,0-.62-.7c-.26-.26-.6-.71-.26-1,.53-.7,1.32-.09,1.94-.18a.71.71,0,0,0,1-.87c-.79-.79-2-.44-3.07-.61a2.08,2.08,0,0,0-1.14,1.67"/><path id="path507" class="cls-2" d="M212.79,130.81a3,3,0,0,0-3,.7,3.88,3.88,0,0,0-1.23,4c.36.8,1,1.93,2,1.67,2.89-.7-1.13-1.14-.79-2.55a3.72,3.72,0,0,1,.79-2.1c.44-.53,1.32-.44,1.94-.26a.8.8,0,0,0,.26-1.49"/><path id="path519" class="cls-2" d="M208.84,146.6a12,12,0,0,0-4.65-.53c-.53,1.05.87,1.05,1.23,1.76a35.81,35.81,0,0,1-.79,3.77c.17.44.17,1,.7,1.14,1.49-.44,1-2.63,1.58-3.77a1.26,1.26,0,0,1,1.66-.79c.89,0,1-1.32.27-1.58"/><path id="path525" class="cls-2" d="M204.28,132.56c1.14,1,.78,2.55,1.66,3.68.35.36.88.09,1.14-.26l1.14-5.18-.61-.52c-1.23.26-.7,1.84-1.4,2.45-1-.79-.88-2.28-1.76-3.15a.75.75,0,0,0-1.14.08l-1.49,4.83.17.79c1.85.44,1.32-2,2.29-2.72"/><path id="path535" class="cls-2" d="M198.84,147c0-.44.17-1,.78-1s1.14.08,1.32.61a1.53,1.53,0,0,1-1.14,1.05c-.43.18-1.14,0-1-.61m-1.58,3.59c.79-.08.71-1,1.31-1.49,1.85-.53,1.32,1.93,2.55,2.63.35.09.87.17,1-.26s-.08-1-.35-1.4c-1.58-1.58,1.58-2.28.79-4-.7-1.4-2.55-1.76-4-1.58-1.84,1.32-1.4,3.6-2,5.53C196.56,150.37,197,150.55,197.26,150.63Z"/><path id="path537" class="cls-2" d="M197.7,134.67c.7,0,1.49.44,1.92-.35,0-.62-.52-.79-1-1.14-.44-.88.7-.88,1.05-1.4a.75.75,0,0,0-.26-1.06c-.53-.08-.35-.61-.08-.78s.69.08,1,.08a.71.71,0,0,0,.52-1.31c-.87-.09-2-.71-2.8.08l-1.32,4.39a1.37,1.37,0,0,0,.88,1.49"/><path id="path547" class="cls-2" d="M194.36,133.61a17.93,17.93,0,0,0,1.49-5.26.75.75,0,0,0-.7-.53c-1.13,1.49-1.31,3.42-1.93,5.09l.18.61a.75.75,0,0,0,1,.09"/><path id="path549" class="cls-2" d="M192.61,146.07c0,.35-.09.7-.44.79l-.53-.18c-.18-.43.18-.61.44-.87s.44.08.53.26m-4.47,2.64-.27.87a1.29,1.29,0,0,0,.88.61c.53,0,.7-.7,1-1.05.45-1.23,1.85-.88,2.82-.79,1.4.09.52,2.11,2,2.11,1.23-.71-.09-2.2-.26-3.16-.79-1.23-.09-3.69-2.2-3.69C190.24,144.93,189.54,147,188.14,148.71Z"/><path id="path553" class="cls-2" d="M188.83,133c.71.26,1.76.44,2.29-.18a.65.65,0,0,0,0-.79c-1-.26-2.37-.17-2.55-1.4a3,3,0,0,1,1.49-2.19c1-.71,1.67.61,2.55.79a.85.85,0,0,0,.53-1,2.14,2.14,0,0,0-1.14-1.32,2.81,2.81,0,0,0-3.07.45,4.1,4.1,0,0,0-1.58,3.77,2.47,2.47,0,0,0,1.48,1.84"/><path id="path565" class="cls-2" d="M184.62,132.56a3.27,3.27,0,0,0,1.32-1.58c.35-1.58-1.14-2.72-2.1-3.68.7-1.23,1.66.43,2.54.26.53-1-.87-1.76-1.58-2.19a2.11,2.11,0,0,0-2.28.79c-1.76,2,2,2.45,1.93,4.3-.79,1.13-1.93.08-3-.09-.35.17-.35.61-.27,1a3.69,3.69,0,0,0,3.42,1.23"/><path id="path569" class="cls-2" d="M179.63,147.22c-.09-.18-.18-.36,0-.54a.38.38,0,0,1,.43-.08c.62.26-.09,1-.43.62m-.27-2.64c-.87.7-2,1.75-1.66,3.07.52,2.11,3.16.88,4.2,2.28a1.13,1.13,0,0,0,1-.34c-.26-1.15.79-1.67.88-2.64-.09-.26-.09-.61-.35-.79a1.53,1.53,0,0,0-1.23.27c-.27,0-.35-.27-.44-.44.61-.62,1.31-1,1.58-1.76a1.75,1.75,0,0,0-.71-2.11,1.72,1.72,0,0,0-1.92-.17C179.63,142.39,179.45,143.53,179.36,144.58Z"/><path id="path589" class="cls-2" d="M174.63,126.68c0,.71.86,1,1.31,1.4a.64.64,0,0,0,.71-.87c-.18-.61-.89-.79-1.32-1-.27.08-.79.08-.7.52"/><path id="path591" class="cls-2" d="M172.78,128.7c-.7-1.58.88-3.33.09-4.74a.47.47,0,0,0-.71.18l-1.23,4.65c.09,1.67,2,1.32,3,2a.79.79,0,0,0,.79-1c-.26-.71-1.23-1-1.93-1.15"/><path id="path599" class="cls-2" d="M169.89,124.06c-.88,1.13-.71,2.88-1.67,4.12-.44.26-1.14.35-1.31-.35-.09-1.14,1-2.37.25-3.42a.52.52,0,0,0-.6.17c-.36,1.67-1.49,3.6-.27,5.18.62.53,1.59.18,2.2,0,1.84-1.23,1.66-3.43,2-5.35-.18-.18-.36-.45-.62-.35"/><path id="path611" class="cls-2" d="M160.94,130.19a2.36,2.36,0,0,0,2,.27.79.79,0,0,0,.61-1.15c-.61-.44-1.66.36-2.1-.52a3.67,3.67,0,0,1,1-3.34c.7-.7,1.5.44,2.2.26a.75.75,0,0,0,.44-.78,2.35,2.35,0,0,0-1.93-1.14,3.11,3.11,0,0,0-2.28,1c-.45,1.76-1.76,3.86.08,5.35"/><path id="path613" class="cls-2" d="M163.74,145c.62-1.4-1.39-.79-2-1.4-.26-1.23,1.14-.88,1.66-1.5.62-.87-.78-1-.87-1.49a1.66,1.66,0,0,1,1.75-.61c.53-.08,1-.88.53-1.32-1.14-.35-2.81-.35-3.6.71a28.28,28.28,0,0,0-.87,5.35,1,1,0,0,0,1.31.61c.61-.44,1.58.52,2.1-.35"/><path id="path627" class="cls-2" d="M158.66,125.19c-1.4,1-1,2.89-1.67,4.39a1.5,1.5,0,0,0,.26,1.58c.26.17.53,0,.79-.09a37.21,37.21,0,0,1,1.23-5.36c.09-.34-.35-.52-.61-.52"/><path id="path629" class="cls-2" d="M156.64,142.47c-.35-.08-.7.35-1-.08a1,1,0,0,1,.62-1.14c.44,0,1.05-.18,1.4.26.1.61-.7.61-1.05,1m2.54-1.4a3,3,0,0,0-1.75-1.49,4.41,4.41,0,0,0-2.54.88c-.54,1.57-.62,3.42-1.15,5a.59.59,0,0,0,.71.71c.35-.09.44-.62.52-1.06a1.26,1.26,0,0,1,1.49-1,1.79,1.79,0,0,1,1.14,1.23c.18.35.62.09.79,0a2.55,2.55,0,0,0-.26-1.58C158.48,142.83,159.36,142.12,159.18,141.07Z"/><path id="path637" class="cls-2" d="M153.13,128.26c.09-.35.26-.79.61-.87s1-.18,1.06.34c-.09.45-.61.8-1.06,1-.26,0-.7,0-.61-.44m1.32,3.69a.46.46,0,0,0,.79-.09c.44-.62-.09-1.14-.18-1.75a4.33,4.33,0,0,0,1.32-3,2,2,0,0,0-1.32-1.31,3.55,3.55,0,0,0-3,.87L150.85,132c-.08.44.35.61.61.79,1-.27.61-1.5,1.23-2.11C153.83,129.75,153.83,131.51,154.45,132Z"/><path id="path647" class="cls-2" d="M151.47,141.6c-.79,1.75.08,4.56-2.38,5.17-1.92-.78-.17-3.15-.79-4.47-.26-.26-.61-.08-.7.26-.08,1.67-1.66,4.21.44,5.44a2.53,2.53,0,0,0,2.37-.26c1.23-.61,1.5-1.84,1.76-3.07.09-1,.61-2.28.09-3.34a.71.71,0,0,0-.79.27"/><path id="path651" class="cls-2" d="M148.83,133.61a2.63,2.63,0,0,0,.88-3.42,1.21,1.21,0,0,0-1.49.09c-.7.79.79.61.53,1.4s-.89.79-1.58.7-.88-.7-.88-1.31A2.94,2.94,0,0,1,147.6,129c.62-.35,1.49.35,2.11-.35a.93.93,0,0,0-.26-1,2,2,0,0,0-2.11-.27,5.1,5.1,0,0,0-2.28,3.69c.26.87.08,2,1.14,2.36.79.45,1.84.88,2.63.18"/><path id="path665" class="cls-2" d="M141,143.62c-.09.26-.18.7.17.87,3,.18-.17,2.9,1.23,4.3.26.18.53,0,.7-.08,1-1.32-.09-4.13,2-4.4.79-.08.61-1,.35-1.31a7.84,7.84,0,0,0-4.47.62"/><path id="path673" class="cls-2" d="M142.08,131.51c.35-.09.35.7-.09.79a.68.68,0,0,1-.44-.18c0-.26.17-.7.53-.61m1.66,3.07c.88-.53.18-1.66,0-2.45-.44-1.15,0-2.72-1.05-3.52-1,1-1.84,2.37-2.81,3.52-.44,1.05-1.58,2-1.23,3.15,1-.35,1.76-1.58,3.07-1.66C142.69,133.18,143,134.58,143.74,134.58Z"/><path id="path659" class="cls-2" d="M147.6,260.91a2,2,0,0,0-.87,1.32c.08.26.44.35.61.44.79-.27,1-1.59.26-1.76"/><path id="path663" class="cls-2" d="M145.68,261.44a2.43,2.43,0,0,0-.88,2.55c1-.18,1.49-1.41,1.76-2.38-.18-.43-.62-.26-.88-.17"/><path id="path669" class="cls-2" d="M144.62,260.38c-.26-.09-.44.18-.7.36-.27,1.58-1.49,2.54-2.1,3.94,0,.35.44.44.61.35.79-1.57,3-2.8,2.19-4.65"/><path id="path675" class="cls-2" d="M142.43,260.21a3.09,3.09,0,0,0-1.23,2.28c-.26,1.14-1.67,1.85-1.4,3.07.87.18,1.23-.87,1.75-1.4a18.78,18.78,0,0,0,1.4-3.77c-.17-.1-.26-.27-.52-.18"/><path id="path491" class="cls-2" d="M215.68,160.81c.26.09.44-.09.61-.26.88-3.16,1.84-6.5,2.82-9.83l-.26-.26c-.18-.26-.36,0-.45.18-.7,3.24-2.11,6.4-2.89,9.73l.17.44"/><path id="path495" class="cls-2" d="M215.24,160.28c.44-2.8,1.23-5.35,1.93-8.07l-.44-.09c-.79,1.32-.79,3.08-1.49,4.57-.35,1.23-1.14,2.54-.87,3.76a.66.66,0,0,0,.87-.17"/><path id="path501" class="cls-2" d="M208.75,116.33l5.88,1.5c.18,0,.52-.09.44-.44-2-.71-4.21-1.32-6.23-2.11l-.53.17a.69.69,0,0,0,.44.88"/><path id="path505" class="cls-2" d="M213.22,119.13c-1-1-2.71-1.4-4.12-1.75-.17.09-.44.26-.26.52.26.71,1,.71,1.67.88.87.18,2,1.06,2.71.35"/><path id="path511" class="cls-2" d="M210.51,120.1c-.09.27,0,.44.26.61.44.45,1.49-.17.79-.7a.81.81,0,0,0-1.05.09"/><path id="path557" class="cls-2" d="M189.18,171.61v-.18a17.75,17.75,0,0,0-7.45-2.46c-.08.09-.17.35,0,.44,2.63.26,5,1.75,7.45,2.2"/><path id="path571" class="cls-2" d="M182.08,170.9c.09-.26-.09-.44-.35-.61-.44-.09-1-.53-1.49-.09-.09.18,0,.26.08.44.54.08,1.15.52,1.76.26"/><path id="path573" class="cls-2" d="M181.81,111.59c.45-.34.09-.78-.08-1.23-1.58-1-2.81-2.28-4.65-2.62-.35-.09-1,0-1,.43.71.8,1.85.71,2.72,1.32,1.14.44,1.85,1.67,3,2.1"/><path id="path577" class="cls-2" d="M178.57,110.63c-.26-.18-1.13-.27-1,.35.71.88,2,.79,2.81,1.58h.71c-.18-1.14-1.58-1.49-2.55-1.93"/><path id="path579" class="cls-2" d="M179.63,113.53a1.33,1.33,0,0,0-1.5-.09c-.08,1.32,1.76.79,2.38,1.57,1-.52-.45-1.13-.88-1.48"/><path id="path581" class="cls-2" d="M180.24,116.51c-.27-.45-.61-.79-1.05-.71a.41.41,0,0,0-.45.53c.18.44.62.53,1.06.7s.53-.26.44-.52"/><path id="path583" class="cls-2" d="M178.4,118.35a.65.65,0,0,0,.7.44c.26,0,.61-.18.53-.53a.93.93,0,0,0-.71-.53c-.35-.08-.52.27-.52.62"/><path id="path607" class="cls-2" d="M165.32,158c0,.18.27.44.45.35.43-.08.17-.61.08-.87-.26-.09-.53.26-.53.52"/><path id="path609" class="cls-2" d="M164.36,159.49c-.35,0-.53.26-.44.62a1.23,1.23,0,0,0,.87.7.49.49,0,0,0,.53-.61c-.25-.26-.61-.71-1-.71"/><path id="path615" class="cls-2" d="M163.83,162c-.34-.09-.87-.53-1.31-.09-.18,1.14,1.41,1.06,1.93,1.76.79-.45-.09-1.24-.62-1.67"/><path id="path623" class="cls-2" d="M157.87,168.7c-.18.18-.08.45.18.62a24.52,24.52,0,0,1,3.68,1c.87-.79-1.14-.87-1.67-1.31-.79-.09-1.58-.61-2.19-.27"/><path id="path639" class="cls-2" d="M148.39,166.69c-.17.26.09.44.36.44,1.31-.44,2.8-.18,4.21-.27.87-.26,2.18.54,2.71-.44a14.55,14.55,0,0,0-7.28.27"/><path id="path641" class="cls-2" d="M146,168.79l-.52.45.17.17c3.16-.09,5.88-.62,8.87-.52a.6.6,0,0,0-.09-.53,33.88,33.88,0,0,0-8.43.43"/><path id="path679" class="cls-2" d="M142.17,167.13c-1.23.34-2.55.34-3.69,1.05l-.09.35c.87.17,2.2-.35,3.34-.53.35-.08,1.31-.7.44-.87"/><path id="path687" class="cls-2" d="M130.32,170.81c-.09.09,0,.26.08.35,2.72-.44,5.27-1,8.16-1.4l.35-.35-.08-.18c-2.89.79-5.79.44-8.51,1.58"/><path id="path689" class="cls-2" d="M128.66,153.27c.17.17.26,0,.35,0,2.72-8.07,5.17-15.71,7.45-23.78l-.26-.09c-2.2,7.11-4.65,13.77-6.67,21-.09,1-1.14,1.84-.87,2.9"/><path id="path699" class="cls-2" d="M127.52,170.72c-.45.09-1.41-.34-1.5.53.7,1,2.28,0,3.25-.09,0-.88-1.14-.26-1.75-.44"/><path id="path705" class="cls-2" d="M126.11,159.85c-.09.26-.35,1,.17,1.05.35-.35.71-1.23.35-1.67-.25,0-.43.35-.52.62"/><path id="path421" class="cls-2" d="M227.35,158.18a.64.64,0,0,0,.26,1c8.69,1.93,17.55,4,26.23,6.05a.65.65,0,0,0,.44-1.13c-8.6-1.76-17-4.13-25.44-6a1.76,1.76,0,0,0-1.49,0"/><path id="path427" class="cls-2" d="M230.6,142.65a.64.64,0,0,0,.26,1c6-.27,11.32-.61,17-.44a.71.71,0,0,0,.44-1.23c-1.4-.44-12.72.17-17.11.26l-.61.44"/><path id="path431" class="cls-2" d="M232.53,139.49c4.82-.44,9.65-1.22,14.65-1.49.26-.17,1-.26.78-.79s-.7-.35-1.05-.44c-4.73.35-9.12,1.14-13.95,1.5l-.87.43a.52.52,0,0,0,.44.79"/><path id="path433" class="cls-2" d="M228.49,154.76c0,.34.26.52.53.7,6,1.4,12,1.76,18.24,2.63.7-.26.18-1.23-.44-1.14-5.78-1.06-11.75-1.58-17.63-2.89-.35.08-.7.35-.7.7"/><path id="path437" class="cls-2" d="M234,134.67a.47.47,0,0,0,.44.61l9.12-1.23c.53,0,.87-.87.18-1.05-2.81.26-6.23.7-9.22,1.14l-.52.53"/><path id="path439" class="cls-2" d="M242.53,129a80.71,80.71,0,0,1-8.07,1.32l-1.23.53a.65.65,0,0,0,.35.88c3-.36,5.7-1.23,8.77-1.58.62,0,1-1.15.18-1.15"/><path id="path441" class="cls-2" d="M227.52,162c-.34.26-.25.52-.08.79,4.56,1.84,9.65,2.54,14.39,3.95.61.26.61-.71.26-.88-3.34-1.31-13.34-3.86-14.57-3.86"/><path id="path443" class="cls-2" d="M229.45,151.33c3.78.36,7.2,0,11.15.27.52,0,1.66.09,1.49-.88-.27-.43-.79-.35-1.14-.52-3.77,0-7.72.09-11.32.17a.55.55,0,0,0-.18,1"/><path id="path445" class="cls-2" d="M225.78,165.72a.68.68,0,0,0,.08.88C231,168.44,236.3,170,241.38,172a.61.61,0,0,0,.09-1.14c-4.91-1.84-9.73-3.6-14.73-5.27l-1,.09"/><path id="path447" class="cls-2" d="M222.62,174c-.26.35,0,.88.26,1.23,6.05,3.51,11.93,7.81,18.16,11.31.6,0,.52-.87.16-1.13-5.69-4-11.66-7.29-17.19-11.33-.43-.26-1-.43-1.39-.08"/><path id="path449" class="cls-2" d="M234.9,126.33c-.44.09-1.14.53-.79,1.06,1.23.44,2.37-.36,3.6-.45.61-.26,1.75-.34,1.66-1.23-1.58-1-2.89.45-4.47.62"/><path id="path451" class="cls-2" d="M230.25,147.3c2.54.18,6-.18,8.68,0a.65.65,0,0,0,.27-1c-2.64-.52-5.45-.17-8.17-.26l-.78.35a.66.66,0,0,0,0,.88"/><path id="path453" class="cls-2" d="M233.67,122.47c-.18.18-.44.53-.18.79.44.53,1-.17,1.58-.35.7-.61,2.1-.7,2.2-1.92-1.32-.54-2.46.87-3.6,1.48"/><path id="path455" class="cls-2" d="M224.28,169.67a.59.59,0,0,0-.09.88c3.77,1.84,7.81,3.6,11.76,5.18.7.17.53-.71.17-1,0,0-10.61-5.44-11.84-5.09"/><path id="path457" class="cls-2" d="M221.64,179.06a.69.69,0,0,0,.19.87c3.59,2.9,7.89,5.88,11.58,8.95l.61.18c.26-.09.26-.44.26-.71a114.39,114.39,0,0,0-11.4-9.2c-.36-.27-1-.53-1.24-.09"/><path id="path459" class="cls-2" d="M233.58,117.12c-1.14.61-3.16,1.23-3.07,2.81l.52.09c1.06-.79,2.46-1.32,3.16-2.46.09-.35-.35-.53-.61-.44"/><path id="path463" class="cls-2" d="M218.4,182.3c-.08.44.27.79.44,1.15,4.39,4.29,8.77,8.5,13.16,12.8a.67.67,0,0,0,.5-.93c-3.77-3.77-9-8.72-12.6-12.67-.44-.35-1.06-.79-1.5-.35"/><path id="path471" class="cls-2" d="M227.52,114.92c.88-.43,2-1,1.93-2.1a2.87,2.87,0,0,0-2.45,1.76.7.7,0,0,0,.52.34"/><path id="path479" class="cls-2" d="M220.6,112.91l3.59-2.81.17-.61c-.08-.26-.34-.26-.6-.26-1.23,1.13-3.08,1.58-3.86,3.24a.5.5,0,0,0,.7.44"/><path id="path481" class="cls-2" d="M212.61,182.21a.58.58,0,0,0-.17.8l10.87,13.77.71.27.26-.1c0-.87-7.72-10.7-11.23-14.73h-.44"/><path id="path485" class="cls-2" d="M215.07,111c1.93-1,3.42-2.54,5.18-4,.26-.35.09-1.23-.53-1a54.59,54.59,0,0,0-4.82,4.13c-.19.26-.19.7.17.79"/><path id="path499" class="cls-2" d="M209.46,109.75c1.31-.87,6.4-4.56,5.7-6-2.2.87-4.3,3.15-6.06,4.74-.17.35-.34.79-.17,1,0,.26.35.26.53.26"/><path id="path509" class="cls-2" d="M211.82,191.42c.26-.08.26-.26.36-.43-1-2.37-5-8.43-6-8.69a.47.47,0,0,0-.44.62c1.66,2.1,5.26,8.33,6,8.5"/><path id="path515" class="cls-2" d="M195,181.43c-.36.43,0,.87.09,1.31,4.3,9.56,9.65,18.69,13.59,28.43l.62.35c.52.18.52-.53.61-.79-.53-1.89-10.18-21.67-13.78-28.87-.26-.35-.78-.78-1.13-.43"/><path id="path517" class="cls-2" d="M209,102c-1.49,1.14-4.56,4.92-4.29,5.35.17.27.61.09.87,0l3.87-4.47A.59.59,0,0,0,209,102"/><path id="path523" class="cls-2" d="M200.15,182.92s6.76,12.28,7.81,12.71c.35,0,.26-.44.26-.7-2.54-4.2-4.65-8.59-7.28-12.63a.52.52,0,0,0-.79.62"/><path id="path529" class="cls-2" d="M200.68,106c1.67-2.19,2.72-4.74,4.12-7a1.64,1.64,0,0,0,.18-1.4.73.73,0,0,0-1,.26c-1.23,2.54-2.72,5-3.87,7.54.09.36.18.79.62.62"/><path id="path543" class="cls-2" d="M195.07,104.83c.17.27.17.71.61.62a19.28,19.28,0,0,0,2.37-4.47c-.08-.26-.27-.62-.52-.62-1.59,1-1.59,3-2.46,4.47"/><path id="path545" class="cls-2" d="M190.77,181.59c-.36-.08-.62.36-.53.71,2.34,6.41,4.45,11.9,6.5,17.2,0,.35.44.88.79.79a.64.64,0,0,0,.44-.79c-1.85-6.05-3.61-12.11-6.76-17.64l-.44-.27"/><path id="path551" class="cls-2" d="M190.06,104.57l.09.88a.45.45,0,0,0,.7,0c1.41-2.72,4.3-10.35,3.6-11a.93.93,0,0,0-.7.18c-1.31,3.34-2.63,6.5-3.69,9.91"/><path id="path555" class="cls-2" d="M186.82,181.26c-.18-.1-.62-.18-.62.17.27,4.47,3.43,16.58,4.12,18.42.36.27.88-.18.8-.52-1.32-5.8-2.46-11.32-3.6-17.12l-.7-1"/><path id="path559" class="cls-2" d="M186.82,105s2.1-5.7,1.58-6.58a.43.43,0,0,0-.53.27,53,53,0,0,0-2.19,5.87l.17.79c.53.27.71,0,1-.35"/><path id="path561" class="cls-2" d="M181.9,180.37c-.34-.17-.43.27-.61.53,1.23,8.34,2.9,16.67,4,25.18.44,1,0,2.36.61,3.24.44,1.59,0,3.6,1.32,4.74.79-.18.52-1.14.61-1.76-1.4-10.08-3.15-20.44-4.91-30.53-.26-.51-.26-1.31-1.06-1.4"/><path id="path567" class="cls-2" d="M182.87,101.32A46,46,0,0,0,184.72,93a.59.59,0,0,0-.71-.44c-1,2.46-1,5.44-1.84,7.9,0,.44.18,1,.7.87"/><path id="path585" class="cls-2" d="M178.4,100.72c.52-2.46.44-5.44,1.13-8,0-.44-.34-.61-.78-.61-.53.79-1.67,6.93-1.14,8.86a.54.54,0,0,0,.79-.26"/><path id="path587" class="cls-2" d="M179,196.87c.62-.44-.79-15-2-16.32a.47.47,0,0,0-.45.44c.45,5.27,1.32,10,1.85,15.27.09.26.26.69.61.61"/><path id="path593" class="cls-2" d="M173.92,96.24c-.17-.26-.17-.71-.53-.61-.61,1-.87,5.18-.17,5.44.79-1.41.53-3.34.7-4.83"/><path id="path595" class="cls-2" d="M173,189.76l.35-8L173,181a.53.53,0,0,0-.79.35c-.08,2.72-.44,6,.08,8.77.35.18.45-.18.71-.35"/><path id="path601" class="cls-2" d="M168.48,97.65c-.26,0-.44,0-.53.17a8.6,8.6,0,0,0,.45,4.21H169a7.66,7.66,0,0,0-.53-4.38"/><path id="path603" class="cls-2" d="M164.36,197.13c.18.35.44.18.7,0,1.32-5.53,2.37-10.88,3.15-16.48-.08-.36-.26-.71-.69-.62-1.14,1.05-2.55,12.72-3.16,17.1"/><path id="path617" class="cls-2" d="M164.1,103.69c.44,0,.44-.52.52-.78,0,0-1.13-9.92-1.66-10.71a.36.36,0,0,0-.53.18c-.18,3.42.79,6.84,1,10.09,0,.44.17,1.14.7,1.22"/><path id="path621" class="cls-2" d="M161.81,180.64c-.7,2.81-2.89,10.26-2.63,11.41.27.25.62,0,.79-.27,0,0,3.6-10.08,3-11.58-.52-.36-.87.17-1.14.44"/><path id="path625" class="cls-2" d="M160.41,103.87a13.73,13.73,0,0,0-1-4.65c-1.15.79,0,4.74.61,4.74l.35-.09"/><path id="path631" class="cls-2" d="M152.34,194c1.93-4.73,4.65-9.12,6.06-14a.52.52,0,0,0-1,0l-6,13.59.26.71a.8.8,0,0,0,.62-.27"/><path id="path633" class="cls-2" d="M156.38,101.85c-.18-.08-.53-.08-.62.18,0,1,.09,2.46,1.05,2.9.53-1,0-2.2-.43-3.08"/><path id="path643" class="cls-2" d="M145.5,194.15c.44,0,.61-.35.87-.62L154.09,181c.18-.53.79-1.15.18-1.76-.18,0-.61-.18-.7.18-2.72,4.38-5.27,9-8.08,13.42-.25.35-.52,1,0,1.32"/><path id="path645" class="cls-2" d="M153.39,105.72c.53,0,.35-.53.35-.89l-3.42-8.07c-.08-.17-.44-.17-.61,0,.61,3.17,2,5.88,3.24,8.69l.44.27"/><path id="path649" class="cls-2" d="M147.6,101.32a2.57,2.57,0,0,0,.18.8c.79,1.4,1.23,3.16,2.46,4.21.35,0,.35-.35.35-.53l-2.37-4.39c-.09-.17-.44-.35-.62-.09"/><path id="path655" class="cls-2" d="M147.08,183.88c.52-1.22,2.37-2.1,1.93-3.6-1.15-.35-1.15,1.23-2,1.76-.44,1-1.41,1.76-1.32,2.72a1.57,1.57,0,0,0,1.41-.88"/><path id="path661" class="cls-2" d="M146.73,107.56c.35-.09-.62-3.07-1.85-3.42-.26.17-.26.52-.26.87.7.88.88,2.28,2.11,2.55"/><path id="path667" class="cls-2" d="M142.43,190.63l3-4.29a1.64,1.64,0,0,0-.17-1.23,44,44,0,0,0-3.78,5.26c-.35.53-1,1.23-.7,1.93.79.09,1.05-1.14,1.67-1.67"/><path id="path677" class="cls-2" d="M142.52,109.31a.58.58,0,0,0,.35-.44c-1.06-2.54-3.69-4.64-5.18-6.93-.18-.34-.61-.78-1-.52.53,1.84,4.57,7.37,5.8,7.89"/><path id="path681" class="cls-2" d="M140.85,181.86c-2.2,2.9-7.64,10.19-7.37,10.88.52.09.88-.35,1.14-.61,2.36-3.42,5-6.4,7.37-9.82.35-.88-.79-.88-1.14-.45"/><path id="path685" class="cls-2" d="M138.92,112l.08-.61c-.52-.88-1.23-1.84-2.18-1.93l-.09.26a3.53,3.53,0,0,0,2.19,2.28"/><path id="path691" class="cls-2" d="M135.15,114.23c-1.58-2.11-3.6-3.69-5.45-5.62-.17-.26-.52-.53-.87-.26.35,1.67,4.91,6,6.23,6.14l.09-.26"/><path id="path693" class="cls-2" d="M125.59,112.29l-.09.36a19.77,19.77,0,0,0,5.7,4.56c.53.26.53-.53.26-.88l-5.26-4h-.61"/><path id="path695" class="cls-2" d="M118.74,190.37c3.68-3.5,7.72-7.36,11.49-10.7.35-.26.53-1.49-.35-1l-11.66,11c-.36.35-.62.79-.36,1.23a1.64,1.64,0,0,0,.88-.44"/><path id="path697" class="cls-2" d="M119.09,113.78c-.18.36.08.62.26.8a116.58,116.58,0,0,0,10.09,6,.46.46,0,0,0,.26-.87c-3.42-2-6.84-4.13-10.35-6l-.26.08"/><path id="path703" class="cls-2" d="M127.34,124.4l-7.81-4c-.26.09-.53.09-.35.44a28,28,0,0,0,7.72,4.48.6.6,0,0,0,.44-1"/><path id="path709" class="cls-2" d="M120.05,128.87c1.14,1.5,3.08,1.5,4.74,2.2a.64.64,0,0,0,.61-1l-4.64-1.49c-.26,0-.71-.08-.71.26"/><path id="path711" class="cls-2" d="M112.16,132.13a97.75,97.75,0,0,0,11.06,3.59.69.69,0,0,0,.35-1.23c-3.69-1.23-7.46-1.84-11.14-3-.36,0-.36.44-.27.62"/><path id="path713" class="cls-2" d="M118.13,184.15l5.09-4,.26-.61c0-.35-.26-.79-.7-.61l-4.74,4.2-.53.7c-.09.36.35.53.62.36"/><path id="path717" class="cls-2" d="M105.32,137.21c-.09.44.35.35.52.7,5.53.53,10.88,1.58,16.5,1.93.26-.08.7-.26.52-.7-1.13-.53-12.45-1.67-16.58-2.19-.35.09-1-.27-1,.26"/><path id="path719" class="cls-2" d="M110.05,143.18c3.52,1,7.2.17,10.71,1.13a.91.91,0,0,0,1-.87c-1.4-1.05-9.38-1.05-11.84-.88-.26.18-.09.44.08.62"/><path id="path721" class="cls-2" d="M103.74,147.65c5.88.88,10.79,0,16.67.35.7.09,1-1,.35-1.32-5.44-.08-11.14.54-16.67.18-.35,0-.79.53-.35.79"/><path id="path723" class="cls-2" d="M84.7,154.93c.08.35.53.35.79.53,11.23-1.67,21.67-2.55,33-3.77.71-.09,2.46-.53,1.32-1.4-11.57,1.4-35.23,3.18-35.09,4.64"/><path id="path725" class="cls-2" d="M118.13,156.42c.61-.09,1.05-1.32.18-1.32-8.08,1.5-15.8,2.72-23.87,4.3a.42.42,0,0,0,0,.62c1,.44,16.58-2.37,23.69-3.6"/><path id="path727" class="cls-2" d="M118.13,178.18c-.18-.35-.44-.7-.87-.62a35.34,35.34,0,0,1-5.19,3.77.51.51,0,0,0-.17.8c1.58-.18,6.14-2.81,6.23-3.95"/><path id="path729" class="cls-2" d="M105.05,164.58c3.34-.79,7.11-1.66,10.62-2.37.53-.18,1.14-.87.53-1.31a8.45,8.45,0,0,0-3.6.87c-2.45.62-5.09,1.14-7.54,1.67-.44.26-1.23.26-1.23.88.26.44.79.35,1.22.26"/><path id="path731" class="cls-2" d="M114.09,166.25c-3.25,1-6.4,1.58-9.47,2.81-.45.61.43.7.78.79l8.16-2.11c.8.09,1.68-1.32.53-1.49"/><path id="path735" class="cls-2" d="M107.42,175.63c0,.44.36.62.8.62a3.16,3.16,0,0,0,1.83-1.14c.18-.26,0-.61-.26-.79-.88.26-2,.26-2.37,1.31"/><path id="path415" class="cls-2" d="M262.35,132.21a.83.83,0,0,1,1.32,0,1.87,1.87,0,0,1,.61,1.32,2.19,2.19,0,0,1-1.23,2.19c-.61.61-1.66.35-2.36,0a3.26,3.26,0,0,1-1.06-1.41c-.08-1.49,1.85-1.31,2.72-2.1m-6.75-.79c-1,1-2.29.09-3.34-.26a1.08,1.08,0,0,0-.78,1.4c1.4,1.49,1.75,3.51,3,5.18l.7.09c1-.27.79-1.32.7-2.11a3,3,0,0,1,2.1-1,2.76,2.76,0,0,1,1,2c-1.23,1.67-3.25,2.64-3.34,4.92-.26,1.22.62,2.28,1.41,3.15a5.36,5.36,0,0,0,3.68.53,1.91,1.91,0,0,0,1.14-2.37c-.27-1.4-2-.35-2.63-1.23s.43-2,1-2.81c.45-.52,1,0,1.4.27a3.89,3.89,0,0,0,4.22-.44,4.44,4.44,0,0,0,1.39-3.69c-.6-3-2.71-5.26-3.94-7.9-.17-.44-.44-1.4-1.22-1-.88.18-.88,1.23-.71,2C259.46,129.23,257.53,130.46,255.6,131.42Z"/><path id="path419" class="cls-2" d="M253.85,117.82a3.64,3.64,0,0,1,2.46,1.58,4.25,4.25,0,0,1-.45,2.72,15.54,15.54,0,0,1-3.6,2.81,2.94,2.94,0,0,1-2.71-.09c-1.06-.61-1-1.75-1.23-2.72,1.14-2,3.15-4.21,5.53-4.3m-7.82,1c-1.05,3.15.36,6.58,2.73,8.77,1.83,1,4.47,2.19,6.4.52a7.88,7.88,0,0,0,4-4.38c1.06-2.46-.61-4.39-1.49-6.41-1.75-1.66-3.6-3.33-6.23-2.8C249.37,115.1,246.91,116.42,246,118.79Z"/><path id="path423" class="cls-2" d="M240.33,108.61a3.79,3.79,0,0,1,3.08,2.28,2.43,2.43,0,0,1-.71,2,3,3,0,0,1-1.92.87,3.86,3.86,0,0,1-3-1.83,6.41,6.41,0,0,1,2.54-3.34m4.48-3.78c1,1,3.24,3.25.7,4.22-1.58.44-2.37-1-3.33-2C242.61,106.06,243.67,104.83,244.81,104.83Zm-11.75,4c0,.71.7,1.06,1.13,1.41,2.9,2.19,4.66,6.13,8.34,7.1a3.4,3.4,0,0,0,2.63-1.23,3.5,3.5,0,0,0,1.05-3.24c.54-.88,1.76-.53,2.55-1.23a3.57,3.57,0,0,0,1.05-2.63c-1.32-4.13-5.43-6.32-8.24-9.57a.94.94,0,0,0-1.23.45c-.62,1,.87,1.49,1,2.45l-2.19,2.55c-1.14,1-2.1,2.45-3.51,3.33-.79.61-1.14-.61-1.93-.44C233.41,108,233,108.44,233.06,108.87Z"/><path id="path461" class="cls-2" d="M229.28,95.63a.6.6,0,0,1,.61.61c-.26,1,.18,2.55-1.14,2.72a12.12,12.12,0,0,1-2.19-1.4c.35-1.32,1.84-1.41,2.72-1.93m-10.17,1.93a1.06,1.06,0,0,0-.09,1.23l3.68,2.54a1,1,0,0,0,1.4-.26c.53-.79-.43-1.32-.52-2a1.24,1.24,0,0,1,1-.62c1.31,1.5,4.39,1.5,4.21,3.78-.35,1-1.22.08-1.75,0a1.19,1.19,0,0,0-1,1.31c1.49,1.41,3.6,2.63,5.08,4.13.45.52,1.14.09,1.49-.27.36-.78-.26-1.32-.61-1.92,0-2.9.88-5.88,1.14-8.78,0-1.4.88-2.89-.17-4a1.93,1.93,0,0,0-1.76-.53,96.13,96.13,0,0,1-9.74,5.44C220.68,98,219.9,96.59,219.11,97.56Z"/><path id="path487" class="cls-2" d="M207,93.43c3.59,1,6.84,2.81,10.35,4.22a9,9,0,0,0,1.84-2.2c.26-.44.35-1.49-.35-1.67-1.23-.61-1.67,1-2.72,1-1.14-.18-2.72-.08-3.24-1.23.08-2.72,2-5.08,3-7.55a.73.73,0,0,1,1-.17,1.12,1.12,0,0,0,1.57-.44A1.37,1.37,0,0,0,218,83.6c-1.58-.61-3.07-1.49-4.65-2-.71-.18-1.76-.88-2.37,0-1.15,1.4,1.05,1.57,1.13,2.62l-2.63,6.32c-.18,1.85-2.19.35-2.71,1.59-.18.35-.09,1.14.26,1.31"/><path id="path539" class="cls-2" d="M192.44,83.43c1,.18.88,1.32,1.4,2,.18,1-1.23.61-1.76.61a1.63,1.63,0,0,1-1-1.14,2.26,2.26,0,0,1,1.33-1.49m1.49-5.7c.17-.09.52-.26.78-.09.87.45.61,1.68,0,2.2-.35.09-.78.17-.87-.35A1.58,1.58,0,0,1,193.93,77.73Zm.43,10.17c1.06-.43,1.59,1,2,1.5a3.27,3.27,0,0,0,2.55.44c1-.62,2.89-1.75,2-3.25-1.23-1.14-1.67,1-2.82,1a.82.82,0,0,1-.61-1c-.18-.79.88-1.23,1.41-1.75a1.12,1.12,0,0,0-.09-1.58c-1-.53-1.58.61-2.37,1-.44.09-.7-.44-1-.78-2-2.72,3.86-3.43,1.67-6.41a4.86,4.86,0,0,0-3.6-1.67,3.37,3.37,0,0,0-1.85,1.24c-1.4,1.4.18,3-.34,4.47-1.23.7-3,1.31-3.51,2.89a3.57,3.57,0,0,0,.79,3.34C190.41,88.7,192.35,88.61,194.36,87.9Z"/><path id="path575" class="cls-2" d="M170.33,86.5a6.62,6.62,0,0,0,6.93-.61c1.14-.61,1.39,1.23,2.54,1,1.49-1-.26-2.19,0-3.42,0-1.4,2.19-.79,1.76-2.37-.18-.45-.27-.88-.7-1.06-1.85.61-4.13.09-6.06,0a1,1,0,0,0-.87,1.32c.17,1,1.4.71,1.83,1.32.45.79-.08,1.4-.43,2a3.14,3.14,0,0,1-1.93.52c-1.05-.52-1.23-1.67-1.49-2.63.08-2.46-1-5,1.49-6.76a2.45,2.45,0,0,1,2.45-.17c1.76.52.8,3.07,2.72,3.15,1.14-1,.35-3.24.7-4.38l-.35-.71c-.88-.43-1.49.18-2.1.62a7.74,7.74,0,0,0-7.45.52c-2.11,1.14-2.64,3.43-2.55,5.53a6.8,6.8,0,0,0,3.51,6.14"/><path id="path605" class="cls-2" d="M151,79.48c.45,2.55,1.76,4.83,1.76,7.55.26,1.06-1.23,1.06-1.05,2,.08.35.35.87.79.79,1-.53,2.19-.44,3.33-.7.52-.27,1.4-.36,1.31-1.24s-1-.7-1.49-1.22c-.44-1.49-1.31-3.08-1.31-4.65,1.93.61,3.24,2.36,5.08,3.5,1.23.62,1.93,2,3.34,2.19,1.4-.34,3.77-.08,4-1.92,0-.79-.89-1.06-1.59-1-1.4-1.84-1-4.74-1.84-6.93V76.77c.35-.71,1.05-.36,1.67-.8a1.16,1.16,0,0,0-.09-1.75c-1.05-.35-2.11.09-3.16.26-1.05.61-3.15-.26-3.42,1.31,0,1.41,1.58.8,2.46,1a17.75,17.75,0,0,1,.79,3.85c.08.27-.27.45-.53.45-2.1-1.59-4.48-2.73-6.5-4.66-1.75-.79-3.5.36-5.34.7a1.15,1.15,0,0,0-1,1.32c.54,1.41,2-.17,2.73,1"/><path id="path653" class="cls-2" d="M141.72,81.68l2.9,7.72c.18,1-1.23,1-1.05,1.93.08.44.53,1,1,1l4.29-1.5a1.06,1.06,0,0,0,.88-1.22c-.18-1.23-1.41-.53-1.93-1.23l-1.49-4c-.18-1.4-1.41-2.28-1.49-3.68.52-.53,1.4-.62,1.4-1.49a1.26,1.26,0,0,0-.79-1.15l-4.65,1.23c-.61.09-1.49.45-1.32,1.32.18,1.23,1.5.79,2.28,1"/><path id="path683" class="cls-2" d="M124.71,90.27a57.81,57.81,0,0,1,4.21,7c-.18.87-1.84,1.66-.62,2.63,1,.43,1.4-.71,2.2-.88.88-.53,2.37-.88,2.37-2.1s-1.23-.62-1.93-.62a15.5,15.5,0,0,1-3-4.73l.09-.27c2.36.44,4.29,2,6.57,2.63,1.32.44,2.72,1.84,4.13.79,1-.7,2.72-.61,2.8-2-.35-1-1.23-.7-2-1l-3.69-7.2c.09-1.13,1.85-1,1.67-2.28-1.14-1.75-2.81.7-4.3.7-.61.45-1.84.53-1.84,1.5.18,1.66,1.67.35,2.45,1.23l2,4-.17.43c-1.05.09-2.11-.79-3.17-1.14-2.62-.87-5.6-3.86-8.41-1.49-.79.79-2.29,1-2.37,2.28.26,2.1,1.92.17,3,.52"/><path id="path707" class="cls-2" d="M116.9,96.51a3,3,0,0,1,1.76,1.84,4.14,4.14,0,0,1-2.63,3.33c-1.15-.61-1.85-1.84-2.73-2.81-.08-.26,0-.35-.08-.7,1-1,2.19-2.19,3.68-1.66m-6.85,4.73a38.07,38.07,0,0,1,5.36,5.88c.7.87-.61,1.32-.45,2.1a1.5,1.5,0,0,0,.88.71c1.75-1.58,3.51-2.72,5.27-4.13.26-.44.52-1.23-.18-1.57-1.05-.36-1.76.7-2.63.6-.71-.17-.79-1-.79-1.49.18-.7.88-.88,1.49-1.13,2.11-.8,4,1.57,6.14.25,1.23-.61,1.4-2.1,1.31-3.24-.26-.61-.52-1.66-1.31-1.66-1.31,0-.79,1.58-1.66,2.1a1.46,1.46,0,0,1-1.58,0c-.35-.61.08-1.31.08-2a4.67,4.67,0,0,0-2.19-4c-4-2.19-6.67,2.19-9.57,4-1.14,1.14-3.07,2-3.07,3.6C107.77,102.82,109.09,101.06,110.05,101.24Z"/><path id="path733" class="cls-2" d="M103,112.12c1,.18,2.11-.09,2.72.7-.44.71-.87,1.84-1.84,1.84a3.17,3.17,0,0,1-.88-2.54m.79,7.37c.1.79-.78,1.5-.17,2.37a1.22,1.22,0,0,0,1.23.26l2.81-3.42a1.06,1.06,0,0,0-.08-1.14c-.62-.7-1.5-.08-2.11.18A1,1,0,0,1,105,117c1.14-1.32,1.4-3.6,3.34-3.77,1.58.35-.09,1.49.78,2.28.35.35.71.26,1.14.18l3.86-4.21a1.19,1.19,0,0,0-.26-1.32c-.53-.44-1.14-.09-1.58.18-3,.17-5.53-1.5-8.42-1.93-1.32,0-2.37-1.06-3.6-.79a1.68,1.68,0,0,0-.87,1.49A108.25,108.25,0,0,1,103.82,119.49Z"/><path id="path741" class="cls-2" d="M88.65,127.82c1.84.79,3.6,1.85,5.35,2.81,1.23.44,2.28,1.5,1.67,2.9a.88.88,0,0,0,1.14.7c1.22-1.49,1.84-3.33,3-4.92l3-4.47c1.4-1.75-1.4-2.19-2.1-3.42-.53-.18-1.32-.18-1.5.44-.26.44-.26,1.23.18,1.4a1.89,1.89,0,0,1,.7,2.19c-.61,1.14-1.14,2.46-2.37,3.08-1.05-.62-2.45-.88-3-2.11.26-.71.87-.79,1.49-.88a1.35,1.35,0,0,0,.79-1.31c-.44-.88-1.23-.79-1.84-1s-1.32-1.24-2-.45a1.39,1.39,0,0,0,.35,1.41,1.59,1.59,0,0,1-.61,1.57c-1,.18-1.75-.7-2.55-1.22-.26-1.32,1-2.46,1.76-3.42,1-1.59,2.45,0,3.42-1.49.35-.54-.08-1.23-.61-1.5-.88-.26-2.11-1.58-2.9-.26-1.76,3-3.86,6.05-5.52,9.21-.26.53-1,1.14-.45,1.76,1.33,1.14,1.58-1.06,2.64-1"/><path id="path745" class="cls-2" d="M80.31,143.44c1.59.87,1.32-1.66,2.64-1.4a46,46,0,0,0,5.79,2.1c.87.35,2.19,1,1.84,2.19a1.24,1.24,0,0,0,1.14.79c1.49-.79,1.31-2.81,2-4.21L96,137.83c.26-.62.7-1.67-.08-2.19-1.15-.18-1.93-1.06-3.16-1.14-.88.34-.88,1.58-.88,2.28a2.6,2.6,0,0,1,1.14,3c-.08.52-.53,1.23-1.14,1.14l-6.84-2.55c-2.11-.08.18-2.1-1.23-2.63a1.26,1.26,0,0,0-1.75.35c-.88,1.67-1,4.12-1.93,6a1,1,0,0,0,.16,1.4"/><path id="path405" class="cls-2" d="M285.87,265.38c-2.9-3.41-4.57-7.81-5.88-12.1-.26-1.14.26-2.63-.35-3.69-.44-.26-1,.18-1.4.27-1.4.43-1.31,1.84-1.75,2.89-.62,2.64-4.22,3-4.22,5.88-.26,1-1.23.27-1.76.44a1.92,1.92,0,0,0-1,1.49c.18,1,1.05,1.31,1.76,1.93,1.23,1.14,2.1,3,3.68,3.77,3.24-1.49-1.14-3.68-.62-5.7.1-.61.79-.61,1.23-.87,1-.1,1.23-1.59,2.2-1.06a68.06,68.06,0,0,0,2.11,7.28c.43,1.49.43,3.16,1.39,4.48.27.09.61.26.88,0l3.5-4.21.19-.8"/><path id="path409" class="cls-2" d="M270.08,278c-1.58.61-3.08-.7-4.39-1.67-.53-.61.08-1.31.26-1.93.44-.43.88-1.23,1.67-.87a3,3,0,0,1,2.19,1.23c.53.87,1.49,2.44.27,3.24m2.45-8.42c-3.33-1.24-6.23,1.14-8.5,3.68l-.45.08a3.85,3.85,0,0,1-.78-1.92c-.18-2.81,3.07-1.59,4.47-2.19.87-.53,1.93-1.5,1.76-2.64-.27-.43-.44-1-1-1.13-1.92-.62-3.94.52-5.44,1.92-2.89,2-3.42,5.45-2.89,8.6a9.5,9.5,0,0,0,4.82,5.7,7.84,7.84,0,0,0,7.9-1.31,9.25,9.25,0,0,0,3.15-6.05C275.08,272.58,274.37,270.56,272.53,269.6Z"/><path id="path417" class="cls-2" d="M256.48,290a3.8,3.8,0,0,1-3.07.45,3.27,3.27,0,0,1-1.76-2.72c-.09-1.32.87-1.93,1.76-2.45.78-.35,1.84-1,2.54-.27a3,3,0,0,1,1.58,2.38,3.46,3.46,0,0,1-1,2.61m-7.72-6.31a2.81,2.81,0,0,1-.71-2.72,3.32,3.32,0,0,1,2.28-1.58,3,3,0,0,1,2.47,1.67,2.7,2.7,0,0,1-2,3C250,284.15,249.19,284.33,248.76,283.72Zm8.42-3.07a7.34,7.34,0,0,0-2-3.69,7,7,0,0,0-6,.36c-2.29,1.58-5.71,4.12-4.92,7.54.44.79.88,1.84,1.94,2.1,1.05.09,1.22,1.23,1.05,2.2a6.75,6.75,0,0,0,2.19,4.21,7.94,7.94,0,0,0,7.89-.35c3-1.67,5.35-5.09,4.47-8.78A5.15,5.15,0,0,0,257.18,280.65Z"/><path id="path425" class="cls-2" d="M245.33,295.48c-2.28-3.17-3.77-6.84-6.05-9.92-1.05-.79-1.93.18-2.72.79a12,12,0,0,1-2.1,6.76c-.18.69.35,1.05.88,1.4,1.31.52,1.4-1.59,2.54-1.59a36.34,36.34,0,0,1,3.24,5.62c0,.62-.7.88-1.05,1.23-.53.35-.44,1.06-.26,1.57.35.45.61,1.24,1.4,1.15,2.46-1.4,5.18-2.1,7.37-4a1.53,1.53,0,0,0-.44-2c-.79-1.41-2.19.53-2.81-1"/><path id="path483" class="cls-2" d="M215.59,309.6c-.78.36-1.49,1-2.27.7q-1.59-4.86-2.9-10c-.26-1.05,1.05-.79,1.49-.87,1,0,2.1-.09,2.8.79,1.94,2.54,3.43,6.75.88,9.38m-.17-13.07c-2.89-.35-5.7.61-8.34,1.4-1.31.87-4.47-.09-3.94,2.46.26,1.49,1.84-.1,2.45.87a74.85,74.85,0,0,1,3,10.26,1.09,1.09,0,0,1-.78.61c-.88-.08-1.14,1-.88,1.76s1.13,1,1.84.78c3-1,6.06-1.75,8.95-2.88a9,9,0,0,0,3.86-7.9C220.85,300.83,218.92,297.14,215.42,296.53Z"/><path id="path533" class="cls-2" d="M202.17,308.81c-1.14.44-.88,1.84-1.23,2.81-.44,1.84-2.63,1.76-4,2.28-.79.18-1.84.79-2.55,0,0-1.23-.61-2.28-.43-3.51,2.1-2,2.89,2.64,5.08,1,.61-2.45-1.14-4.3-2.1-6.23l-.71-.27c-1.92,0-.35,1.86-1.4,2.64-.52,0-1.05.53-1.31-.09-.26-1.4-.71-3.24-.18-4.38a10.37,10.37,0,0,1,3.34-.52c2.36,0,2.89,4.64,5.35,2.19.34-1.14-.27-2.19-.62-3.17-.61-.61-.09-1.92-1.23-2.1-3.15.18-6.22,1.23-9.21,1.32-1.66.34-4,.26-5.53,1.32-.87,2.8,2.38.61,2.9,2.28l1.32,9.91c.17,1.23-1.15,1.14-1.76,1.76-.35.26-.26,1.05,0,1.39,1,1,2.1-.25,3.24.09,3.25-.7,6.15-1,9.22-1.4a12.51,12.51,0,0,0,4-1,14.16,14.16,0,0,0-.78-6.31,1.56,1.56,0,0,0-1.41,0"/><path id="path563" class="cls-2" d="M177.08,309.25A5.22,5.22,0,0,1,173,310l-.35-.45.18-5c1.31-1,3-.09,4.47.26a3.68,3.68,0,0,1-.17,4.39m8.42,1.84c-1.31.35-1,2.37-2.46,2.46a2.79,2.79,0,0,1-2.71-.71c-.35-.44-.7-.78-.35-1.31,1.84-1.41,3.6-3.07,3.24-5.61a5.32,5.32,0,0,0-4.3-3.78c-4.12-.17-7.8.18-11.84,0-.44.18-1.14.27-1,1-.18,1,1,1,1.67,1.4a84.45,84.45,0,0,1,.09,10.43c-.27.45-.62.89-1.05.81-.89,0-1.15,1.05-.89,1.75.45,1.23,1.85.7,2.9.87,1.76-.44,5.09,1.24,5.53-1.49,0-1-1.14-1.13-1.76-1.58l-.17-1.92c.61-1.32,2.63-.54,3.77-.71,1.23,1.75,2.2,4,4.3,5.1a3.81,3.81,0,0,0,3.33,0c2-1,3.16-3.35,3.42-5.54C187.26,311.27,186.12,311.27,185.5,311.09Z"/><path id="path619" class="cls-2" d="M161.38,311.61a5.76,5.76,0,0,1-2.55,3.17,6.7,6.7,0,0,1-3.94-.09c-1.23-.87-.27-2.46-.27-3.68a1,1,0,0,1,1.49-.88c1.06.44.53,1.66,1.41,2.28.52.18,1.13.18,1.4-.44a31.1,31.1,0,0,1,.26-5l-.44-.52c-1-.44-1.32.52-2,1.05a.94.94,0,0,1-1.23-.53l.61-3.51c1.23-.61,2.82,0,3.87.62a4.3,4.3,0,0,1,.69,3c.27.88.8,1.84,1.94,1.75,1.14-.44.61-2,.7-2.89-.09-1.31.53-2.82-.09-3.95-2-1-4.73-.62-6.92-1.05-2-.53-4.22-.18-6.24-.79l-.61.35c-1.05,1.84,1.67,1.23,2,2.54-.7,3.08-1.06,6.32-1.49,9.39.17,2-2,.52-2.63,1.67-.09.61-.09,1.4.52,1.58,3.42.7,7.81,1.14,11.41,1.84,1,.08,2.54.7,3.42-.35.35-1.66.44-3.51.88-5.09l-.45-.52a1.43,1.43,0,0,0-1.74.07"/><path id="path657" class="cls-2" d="M148.3,300.39c-.52-1.85-3.06-1.49-4.47-2.11-2.71,0-5-1.66-7.63-2-1.31-.26-2.71-1.32-3.95-.18-.44,1.67-1.31,3.33-1.4,5.09.26.35.61.87,1.14.87,1-.26,1.14-1.58,1.75-2.28a4.68,4.68,0,0,1,3-1.23c.53-.08.79.35.87.79-1,3.24-1.75,6.67-2.81,10-.43,1.41-1.92.08-2.8,1.05-.18.53-.45,1.49.26,1.84,2.54.44,5,1.67,7.72,2,.52,0,1.23,0,1.4-.53,1-2-1.75-1.67-2.19-2.72l2.63-9.66c.35-.78,1.31-.7,2-.52,1.92.88,1.22,3.16,2,4.66.35.17,1.06.43,1.49,0,.8-1.49.53-3.69,1-5.09"/><path id="path701" class="cls-2" d="M117.6,297.49c-.52-.61.18-1.13.35-1.66,1.06-1,.88-3.69,3-2.9.87.53,2.2,1.23,2.11,2.46a4.06,4.06,0,0,1-1.32,2.89c-1.48,1-2.8-.34-4.12-.79m10.09,6.76c-.79-1.05-1.84.18-2.63.44a2.8,2.8,0,0,1-2.89-1.23c-.18-.44-.54-1.14,0-1.49,1.22-.45,2.54-.52,3.59-1.4a5,5,0,0,0,1.58-3.42c.44-5.09-5.87-5.89-9.13-7.9-1.57-.26-3-2.82-4.46-1-1,1.4,1.39,1.4,1.39,2.63l-4,8.68c-.35,1.5-1.76.45-2.63.88-.26.36-.7.71-.53,1.24,1.58,1.91,4.21,2.28,6.23,3.59.44.18,1.32.61,1.58-.09a1.67,1.67,0,0,0-.79-2.27c-.35-1.15.53-2.29,1.23-3.17a3.23,3.23,0,0,1,2.9,1.23c0,2.81.35,6.41,2.89,7.9a5,5,0,0,0,3.86-.35C127,307.49,130.15,305.83,127.69,304.25Z"/><path id="path739" class="cls-2" d="M100.75,290.57a4.06,4.06,0,0,1-2-1.32c.52-1,1.84-1.23,2.63-1.84l.35.18c-.35,1,.18,2.53-1,3m6.41-6.93a2.25,2.25,0,0,0-1.84-1.68c-3.6,2-7.72,3.51-11.14,6.15-1.23.43-2.46,1.76-3.77.87a1,1,0,0,0-1.06,1c.61,1.32,2.37,2,3.52,3,.61.52,1.49,1.14,2.1.52.78-.87-.61-1.49-.18-2.29a2,2,0,0,1,1.84-.69c1.32,1.31,5,2,4,4.38-.26.87-1.23.35-1.67,1.14a1.13,1.13,0,0,0,.18,1.05,30.9,30.9,0,0,0,7,3.61c2.55-1.05-.88-2.11-.53-3.78C106.46,292.49,106.37,287.93,107.16,283.64Z"/><path id="path743" class="cls-2" d="M95.14,278c.79-.44,1.31.43,2,.26,2.19-1.67-1.23-3-2.28-3.86-1.23-.7-2-2.19-3.52-2.45-1.57.78.09,1.92.09,2.89-1,1.23-1.92,2.81-3.42,3.34-1.32-1.05-3.24-2.11-4-3.87.52-1.4,1.92-2,2.71-3.24,1.05-.79,1.84,1,2.81.18a1.53,1.53,0,0,0,.27-1.49l-3.25-3c-1.23-.45-1.49-2.37-2.81-2.11-1.75.53,0,2-.61,3-2.19,2.64-4.12,5.45-6.76,7.64-.61.36-.87-.18-1.4-.44a1.25,1.25,0,0,0-1.49.44,1.52,1.52,0,0,0,.18,1.49c2,1.41,3.33,3.25,5.08,4.92l.61.17c1.41-.61.18-2,.27-2.81.87-.87,1.49-2.54,2.89-2.28L86.1,280c.35,1.13-.88,2-1.58,2.89-1.23.62-2.11-1.4-3.24-.35-.88,1.76,1.75,2,2.19,3.33,1.67.88,2.89,2.63,4.73,3.07,1.41-.79-.08-1.84-.17-2.8,2.38-2.54,4.57-5.53,7.11-8.16"/><path id="path751" class="cls-2" d="M74.61,269.68c-1-3-3.42.44-5.35-.61-.87.08-1.66-.88-2.1-1.67a3.28,3.28,0,0,1,.44-3.24c2-2.37,4.56-4.91,7.63-5.53a3.84,3.84,0,0,1,2.55,3c.17,1.85-1.49,3-1.84,4.57.52.7,1,2,2.1,1.66l3.86-3.77c.09-.44.44-.87.17-1.4-.35-1.06-1.49-.36-2.1-1a7.52,7.52,0,0,0-1.31-3A7.74,7.74,0,0,0,70.93,255c-3.33.53-6.57,3.87-7.45,7.2-.52,3.07,1.14,5.7,3.16,7.89,1.75,1.76,4.65,2,6.93,1.32a1.85,1.85,0,0,0,1-1.76"/><path id="path393" class="cls-2" d="M318.68,166.78c-1.14.52-.26,1.49-.79,2.28-4.47.53-9.56.09-14,.35-1.05-.44-.52-1.49-1.13-2.28a1.37,1.37,0,0,0-1.32-.09,1,1,0,0,0-.88,1.14,36.75,36.75,0,0,1,0,8.77,1,1,0,0,0,.88.87c1.84.61,1.4-1.66,2-2.36,4.92-.35,9.13,0,14.13-.35,1-.18,1,1.13,1.14,1.84a1,1,0,0,0,1.23.61l.52-.53c.44-3.25-.17-6.58,0-9.47-.17-.87-1.05-.78-1.75-.78"/><path id="path395" class="cls-2" d="M319.81,186.6c-.25-1.93-2.09-3.33-3.85-3.94-1.85-.45-4.13-.18-5.36,1.49-2.1,2-2.54,5.17-5.34,6.48a1.29,1.29,0,0,1-1.76-.34,3.58,3.58,0,0,1-.09-3.16c1.23-2,3.78-1.31,4.66-3.33.17-.53.25-1.4-.36-1.76l-6.49-.09-.88.53a2.29,2.29,0,0,0,.27,1.84c2.1.88-.88,2.11-.71,3.51a8.36,8.36,0,0,0,2.72,8.07,6.78,6.78,0,0,0,6.23,0c3.6-1.4,3.68-5.53,7.11-7,.44,0,1.14,0,1.31.61a2.4,2.4,0,0,1-.09,2.2c-.61,1.84-2.71,1.58-4,2.45-.17.53-.53,1.15-.17,1.76,1.39,1.14,3.33.35,5,.88l.71-.26a2.78,2.78,0,0,0,.26-2.2c.79-2.46,1.67-5.08.87-7.72"/><path id="path397" class="cls-2" d="M315.7,151.77a3.11,3.11,0,0,1,.79,2.81c-.27.79-1.15,1.31-1.76,1.76-3.86.79-8.25,1.85-12.2.79a2.62,2.62,0,0,1-.78-2.46c1-2.8,4.21-2.36,6.31-2.9a16.18,16.18,0,0,1,7.64,0M306,145.72a10.84,10.84,0,0,0-6.85,6.84c-.61,2.2.27,4.48,1.15,6.41,1,2.19,3.41,3.07,5.26,4.12a11.93,11.93,0,0,0,8.86-.7c1.76-.53,2.81-2.72,4.12-3.95,2.11-3.16,1-7.72-1.22-10.52C314.47,144.67,309.91,144.93,306,145.72Z"/><path id="path399" class="cls-2" d="M308.15,123.79c-1.76.35-3.33,1.4-5,1.92-2.72.88-5.27,2-7.89,3-1.06-.27-.54-1.58-1.67-1.76-.62.26-1.58.26-1.58,1.24l1.66,5.17a1.26,1.26,0,0,0,1.59.87c1.58-.17.78-1.92,1.23-2.89l7.28-2.72c.17,0,.44.09.35.26-2.37,4.56-6,8.42-8.34,12.82l.53.08c.08.26-.18.44-.35.62a2.06,2.06,0,0,0,1.22,1.57c5.53-1.66,10.44-3.07,16.06-4.55a1.18,1.18,0,0,1,1.14.69,1.31,1.31,0,0,0,1.66,1.15l.53-.45c.26-1.84-.7-3.41-.87-5.17-.44-.79-.35-2.11-1.49-2.2-2.29.35-.35,2.29-1.67,3.43-2.54.61-5,1.75-7.45,2.1l-.36-.26c2.28-3.77,5-7.46,7.46-11,1.05-2.1-.79-3.86-1.23-5.79-.26-.78-.52-1.67-1.31-2-2.38.26-.62,2.63-1.5,3.86"/><path id="path401" class="cls-2" d="M302.18,110.19c-3.85,1.84-7.81,3.86-11.66,5.87-1.76,1-1.59-1.84-2.9-1.84a1.61,1.61,0,0,0-1.49,1.5c1.49,3.15,2.9,6.31,4.55,9.47l.72.35a1.89,1.89,0,0,0,1.39-.79c.45-1,0-1.76-.35-2.63-.08-.88.88-.88,1.32-1.31,3.85-1.5,7.37-4,11.31-5.27,1.24.44,1.15,2.63,2.81,2a1.7,1.7,0,0,0,.8-2.19c-1.59-3-2.82-6.24-4.75-8.86a1.45,1.45,0,0,0-1.75.44c-1.05,1.13,1,2.18,0,3.24"/><path id="path403" class="cls-2" d="M279.38,98.26c-1.05.61-1.23-.7-2.11-1a2.56,2.56,0,0,0-1.58.87,1.08,1.08,0,0,0,.08,1.14,139.32,139.32,0,0,1,9,14c.35.26.88,0,1.32-.09,1.67-1.66,3.86-1.75,5.7-2.89l.26-.79a2.09,2.09,0,0,0-1-1.76,11.36,11.36,0,0,1-4.56.26c-2.37-.26-3.43-2.71-4.21-4.65,3.59-2.72,7.45-5,11.13-7.55,1.93-1.13,1.41,2.2,3.34,1.5a1.5,1.5,0,0,0,.87-1.76c-.87-1.92-2.54-3.59-3.77-5.44-1.31-.87-1.23-3.24-3.16-3.24-2.36.79.36,2.37,0,3.6-3.76,2.63-7.62,5.18-11.3,7.81"/><path id="path407" class="cls-2" d="M263.84,80.8c-.61.53-1.31-.18-1.75-.62-.53-.25-1.14-.34-1.49.27-.27.35-.61.79-.36,1.31,4.3,4.21,9,8.69,12.82,13.69,1.66.35,2.63-2.19,4-2.89a9,9,0,0,0,2.36-2.37,1.67,1.67,0,0,0-.71-1.58c-1.31-.62-2.18.7-3.15,1.31-2.89,1.5-4.3-1.93-6.49-2.63-.53-.79-1.49-1.66-1-2.54l9.39-9.13c1-.26,1.57,1.41,2.54,1,.53-.44,1.41-.79,1.23-1.58-2.1-2.54-4.82-5.08-7.19-7.54-.62-.35-1.24.35-1.5.79-.87,1.14,1,1.49.88,2.72-3,3.42-6.49,6.67-9.65,9.74"/><path id="path411" class="cls-2" d="M250.42,73.61a81.33,81.33,0,0,0,6.84,5.52c.8.19.88-.52,1.32-.87,1-1.23-1.22-1.67-.52-2.9,2.54-3.33,5-6.49,7.63-9.82.79-1.5,2,0,2.9.35.61,0,.78-.8,1.23-1.23a1.34,1.34,0,0,0-.27-1.93l-6.93-5.18c-.79-.44-1.32.27-1.75.71-.71,1.13.43,1.84,1,2.62-2.45,3.7-5.7,7.55-8.42,11-.53.35-1-.08-1.4-.35-.79-.52-1.49,0-2,.71a1.09,1.09,0,0,0,.43,1.4"/><path id="path489" class="cls-2" d="M201.21,49.4c2.45,1,5.44.87,8.07,1.84a2.06,2.06,0,0,0,1-1.93c-.36-.88-1.32-.7-1.85-1.32-.26-1.23-.44-2.89.7-3.68,2,.08,1.15,2.54,2.55,3.34a1.11,1.11,0,0,0,1.22-.45c.71-1.75.71-3.77,1.07-5.61l-.46-.61c-1.83-1.14-1.92,1.22-3.5,1.14-.26-.09-.7-.27-.7-.62a9.14,9.14,0,0,1,1.14-3.5A15.54,15.54,0,0,1,215,39.23c1.32,1.13.79,3.15,2.11,4.29a1,1,0,0,0,1.31-.26,43.65,43.65,0,0,0,.88-5c-.18-.35-.26-.88-.71-1.06-1.4-.26-3-.52-4.21-.78-3.68-.62-6.58-1.85-10.35-2.29-1.31.35-.52,1.93-1,2.81l.62-.44A2.29,2.29,0,0,1,205.5,38c-.18,3-1.23,5.78-1.84,8.68-.62,1.23-2.19.09-2.72,1.4-.08.43-.17,1.05.27,1.32"/><path id="path541" class="cls-2" d="M189,36.23a3.24,3.24,0,0,1,2.11-2,2.72,2.72,0,0,1,2.54,1.67c1.05,3-.09,6.41-1.66,8.95-.88.7-1.84-.18-2.55-.61-1.76-2.63-.79-5.18-.44-8m-2.28,10.36a7.14,7.14,0,0,0,6.93,1.23c3.6-1.06,4.91-5,5.44-8.34A9.38,9.38,0,0,0,194.36,32c-2.29-.61-4.91-.87-7,.35a9.23,9.23,0,0,0-3.86,6.85A8.63,8.63,0,0,0,186.73,46.59Z"/><path id="path671" class="cls-2" d="M125.32,41.67a40.17,40.17,0,0,1,5.79,3.69c2.45,1.49,2.72,4.82,3.42,7.54-.17.09-.26.7-.61.44-.18.53-1.49.61-1.14,1.67a1,1,0,0,0,1,.79,21.9,21.9,0,0,1,4.57-1.58c1.32-1.06,4.65-.09,4.47-2.63-.35-1.23-1.58,0-2.36-.62-1.15-2-1.24-4.47-2.11-6.58.35-3.07,2.11-5.61,3.07-8.51.61-1.75,3.69-.87,3.42-3.24-.87-1.93-2.71-.18-4-.09-1.5,1.05-4.39-.08-4.48,2.46.27,1.49,1.84-.18,2.37,1.05l-1.84,4.47a1.24,1.24,0,0,1-1.23,1.15l-4.65-3.16-.17-.53c.26-.61,1.13-.53,1.66-1.05a2,2,0,0,0-.18-1.23c-.26-.35-.7-.09-1-.26-3.25.7-6.14,2.36-9.3,3.16l-.88.69c-.35,3.07,3,.61,4.21,2.37"/><path id="path715" class="cls-2" d="M105.32,57c.35-.09.88-.18,1.05-.71-.44-1.57-1.49-3.24-1.49-5.08-.17-1.32,1.05-2.2,1.93-2.89a1,1,0,0,1,1.32.08c2.45,4.12,4.38,8.42,6.4,12.71-.09.89-1.23,1.06-1.76,1.68a1.17,1.17,0,0,0,0,1.39c.79,1.5,2-.35,3-.61,2.37-1.31,5-1.84,7.29-3.24.7-.79-.09-1.58-.44-2.29-1-.34-1.67.45-2.64.18-2.28-2.37-3.07-5.7-4.82-8.6-.53-1.66-1.84-2.71-2.1-4.47a5.31,5.31,0,0,1,3.77-1.31,4.58,4.58,0,0,1,3.24,3.41,1.55,1.55,0,0,0,1.76,1c.35-.17.44-.61.52-1-1.14-2.28-1.84-4.74-3.15-6.93-1.14-.79-2.2.7-3.34,1a50.78,50.78,0,0,0-13.77,7.2,1.44,1.44,0,0,0-1,1.58c1.58,2.19,2.45,4.65,3.77,6.93l.45.09"/><path id="path737" class="cls-2" d="M89.35,59c.87,0,1.32-1.23,2.37-.88l5.52,7.45c.8,1.67,2.29,3.07,2.72,4.82.09,1.32-1.75,1.06-1.57,2.38.34.53.87,1.31,1.57,1.23,1.67-1.5,3.43-2.37,5.18-3.95.88-.88,2.19-1,3.08-1.93.52-.7-.09-1.49-.53-2-1.15-.26-1.85.88-3,.7l-8-11.66c-.35-1.06,1.4-1.41,1.4-2.55-.26-.61-.87-1.23-1.57-1a59.54,59.54,0,0,0-8.25,6v.88c.09.44.7.78,1,.44"/><path id="path747" class="cls-2" d="M79.61,76.5a15.55,15.55,0,0,0,6.41-1c1.49-.27,3.16-.45,4.39.26a1.78,1.78,0,0,1,1,2,3,3,0,0,1-1.32,1.66,7.22,7.22,0,0,1-5.88.45c-.87-.27-1.4-1.5-2.36-1.15a1.42,1.42,0,0,0-.88,1.4C82.51,82,84.62,84,85.75,86c.71.18,1.15-.34,1.68-.78.87-.71-.27-1.67.08-2.37a10.25,10.25,0,0,0,3.95-1.4c1.93-1.24,3.77-3.34,3.43-5.71.17-2.89-2.29-5.18-4.57-6.23-3.6-1-6.75,1.14-10.17,1-.88-.18-2-.87-1.5-2.1a4.25,4.25,0,0,1,2.72-2.19c2-.79,3.95.61,5.88.87.44-.35,1-.79,1-1.58l-2.8-3c-.7-.52-.79-1.93-1.93-1.67a2.52,2.52,0,0,0-1.4,2.29A22.54,22.54,0,0,0,77,66.24c-2,1.67-2.54,4.56-2,7a5.56,5.56,0,0,0,4.64,3.24"/><path id="path749" class="cls-2" d="M64.79,83.34a3,3,0,0,1,2.45-.08c.87.7,1.93,1.23,1.93,2.45a9.12,9.12,0,0,1-2.29,4.39l-.78-.26-4-3.16c-.08-1.49,1.59-2.46,2.73-3.34M56.46,92c1,.61,1.13-.88,2.1-.7,3.86,2.72,7.63,5.87,11.4,8.6,1.23.79-.44,1.66.09,2.54.35.35.87.79,1.4.61a74.51,74.51,0,0,1,5.18-6.4L77,95.63c0-.53-.53-.79-.88-.88-1-.61-1.49.88-2.36,1L69,92.21c-.62-.88.44-1.58.87-2.19,4-2.19,7.38,3.59,11.41,1a3.62,3.62,0,0,0,.87-4.12c-1.05-1.23-1.05-3.6-3.07-3.86-2,.34-.35,2.28-1,3.5-.26.53-.79.71-1.32,1-1.4.44-2.81-.44-3.77-1.23.17-1.57.61-3.24,0-4.82a5.32,5.32,0,0,0-4.12-3.16,5.61,5.61,0,0,0-4.48,1.4c-3.15,2.55-4.82,6.23-7.28,9.21-.35.8-1.4,1.15-1.4,2A1.24,1.24,0,0,0,56.46,92Z"/><path id="path753" class="cls-2" d="M47.42,111a100.29,100.29,0,0,1,12.36,6.75c.53.79-.44,1.4-.44,2.2a1.89,1.89,0,0,0,1,1c.44.18,1.14.26,1.4-.35,2.2-4.65,4.21-9.47,7.46-13.68l.17-1.06c-1.84-1.23-3.77-2.1-5.52-3.42a.8.8,0,0,0-1.23.44c-.88,1.49,1.58,2,2,3.33,1,2.11-.53,4.3-1.76,6.14l-.44.09a42,42,0,0,1-5.53-2.89,1.17,1.17,0,0,1,.61-1.41c1.15-1.14,2.38.88,3.34-.26.26-.62.44-1.4-.17-1.85-2-.7-3.87-1.83-5.88-2.62-.53,0-.71.7-1,1-.36,1.31,2,1.23,1.32,2.63-.18.44-.36,1.23-1,1l-4.66-2.54c.09-1.76,1.59-3.07,2.46-4.47.7-.88,1.67-.44,2.63-.44s2,.87,2.89.44a1.22,1.22,0,0,0,.53-1.5l-4.73-3.15c-.35-.18-1-.44-1.32,0q-3.15,5.25-5.79,10.52c-.61,1.93-1.84,3.33-2.37,5.26C45.4,115,46,111.16,47.42,111"/><path id="path755" class="cls-2" d="M36.18,137.39c1-.26.62-1.49,1.59-1.76,6-.7,11.75-1.23,17.72-2,2.45-2.71-2.11-3.42-3.08-5.53-2.62-3.15-6.14-5.7-8.77-9-.61-.87.44-1.57.27-2.62a2.11,2.11,0,0,0-1.76-1c-1,1-1.23,2.46-1.67,3.77-.26,1.32-2,2.45-1,3.86,1.4,1,1.58-1,2.46-1.31a50.25,50.25,0,0,1,6.4,6.4l-.18.35c-3.16.26-5.7.79-8.86.87l-.18-1.4a1.58,1.58,0,0,0-1.4-.79c-1.32.44-.7,2-1.32,2.9a55.8,55.8,0,0,0-1.84,6.4,1.69,1.69,0,0,0,1.58.8"/><path id="path757" class="cls-2" d="M51.71,142.56c-.78,0-.78.88-1,1.41S50,145.28,49.17,145c-4.3-.62-8.51-1.76-12.63-2.55-1.67-.35.44-2.71-1.32-3.15-.52-.09-1.23-.45-1.58.26-.53,3.16-1.4,6.23-1.84,9.39a.7.7,0,0,0,.52.79c1.41,1,1.67-1.15,2.46-1.58,4.38.43,9,1.75,13.42,2.45,1.31.27.62,1.4.79,2.28.26.61,1,.53,1.49.61.71-.08.79-.7.88-1.13.35-3.16,1.31-5.88,1.66-8.95a1.32,1.32,0,0,0-1.31-.88"/><path id="path759" class="cls-2" d="M44.35,182.39c-4.39.35-8.25.79-12.37,1.22-1.06-.6-.18-1.91-1.06-2.62a1.1,1.1,0,0,0-1.66.44c-.09,2.45.61,4.74.44,7.19.08.44.61.52,1,.52,1.41.1,1.06-1.49,1.5-2.45,1.84-1,4-.52,6-1.05,3.07.26,7.64-2.63,8.86,1.58.09,1.23.53,3.07-.87,4-4,1.31-8.6,1.66-12.63,2.28a1,1,0,0,1-.7-.88c-.09-.61-.45-1.31-1.06-1.23a1.24,1.24,0,0,0-1.23,1.06c.35,3,.62,5.53,1.14,8.5a1.16,1.16,0,0,0,1.14,1.06c1.67-.09.7-2.11,1.76-2.81l5.87-.88c2.37-.61,5.09-.61,7.37-1.76,1.23-1,1.49-2.53,2.37-3.68a15.39,15.39,0,0,0-1-7.72,6.26,6.26,0,0,0-4.83-2.81"/><path id="path761" class="cls-2" d="M30.66,175.81c1.14,0,.7-1.4,1.31-2.1a34.59,34.59,0,0,1,6.14-.09L46,174c.87.35.35,1.14.61,1.84s.79.79,1.49.7c1.32-.26,1.06-1.58,1-2.54-.7-1.67,1.58-4.65-1.32-4.91-1.4,0-1,1.75-1.92,2.18l-6.41-.08c-.52-.35-1.66.18-2.11-.61,2.46-2,5.27-4,7.81-5.7,1.58-1.93,5.27-2.55,4.83-5.71a1.06,1.06,0,0,0-.53-.7c-5.08-.09-10.35-1.23-15.53-1.67-1.49-.08-.35-1.93-1.49-2.28a1.16,1.16,0,0,0-1.67.27c-.25,2-.25,3.68-.52,5.69-.17.89.79,1,1.32,1,1-.17.61-1.49,1.39-1.75,2.73-.18,5.36.44,8.16.61a.34.34,0,0,1,.35.44c-3.33,2.54-6.84,4.47-10.08,7.19-.53.71-1.49.79-1.76,1.76a28.23,28.23,0,0,1-.44,4.82,1.53,1.53,0,0,0,1.5,1.32"/></g></g></svg>